<?xml version="1.0" encoding="UTF-8"?>
<!-- Generator: visioncortex VTracer 0.6.12 -->
<svg version="1.1" xmlns="http://www.w3.org/2000/svg" width="2048" height="2048">
<path d="M0,0 L40,0 L67,2 L91,5 L128,13 L137,15 L145,18 L163,24 L176,30 L183,33 L200,41 L214,49 L221,53 L221,55 L226,56 L231,60 L245,69 L245,71 L250,73 L258,80 L268,88 L282,100 L284,101 L284,103 L288,105 L293,109 L293,111 L297,113 L314,130 L319,135 L333,149 L333,151 L335,151 L340,157 L340,159 L342,159 L351,170 L360,180 L371,194 L373,199 L375,199 L389,218 L399,233 L409,248 L422,270 L429,281 L438,297 L450,319 L459,338 L466,352 L481,388 L487,403 L499,438 L506,464 L512,491 L518,527 L524,581 L533,629 L545,683 L555,731 L563,770 L568,805 L571,831 L573,873 L573,895 L572,923 L570,949 L566,979 L559,1015 L551,1045 L544,1069 L535,1097 L532,1106 L525,1126 L519,1144 L514,1167 L511,1183 L509,1206 L509,1252 L512,1277 L518,1304 L519,1308 L524,1325 L533,1347 L543,1366 L550,1377 L554,1381 L562,1392 L567,1397 L572,1403 L570,1405 L555,1405 L535,1401 L517,1393 L507,1386 L495,1377 L492,1375 L482,1390 L473,1401 L462,1413 L453,1421 L443,1425 L405,1433 L368,1439 L363,1439 L367,1435 L377,1427 L386,1418 L387,1416 L389,1416 L391,1412 L398,1402 L404,1392 L410,1377 L413,1368 L413,1365 L402,1378 L395,1385 L393,1385 L392,1388 L390,1388 L389,1391 L375,1402 L365,1408 L356,1413 L352,1428 L347,1446 L341,1456 L328,1469 L317,1478 L315,1481 L317,1481 L318,1483 L354,1493 L376,1500 L394,1505 L409,1509 L431,1517 L469,1527 L482,1531 L496,1534 L506,1539 L512,1544 L517,1550 L522,1555 L527,1559 L533,1567 L538,1571 L538,1573 L540,1573 L549,1584 L554,1589 L567,1602 L576,1614 L584,1628 L590,1638 L601,1658 L610,1673 L623,1697 L628,1705 L635,1719 L640,1728 L645,1755 L651,1798 L651,1804 L-893,1804 L-892,1794 L-890,1789 L-890,1784 L-888,1784 L-887,1773 L-885,1768 L-880,1750 L-877,1736 L-876,1730 L-874,1730 L-872,1720 L-868,1702 L-864,1686 L-859,1666 L-853,1655 L-849,1650 L-841,1639 L-833,1628 L-831,1624 L-829,1624 L-827,1619 L-819,1607 L-812,1596 L-810,1596 L-808,1591 L-801,1582 L-794,1575 L-783,1566 L-770,1554 L-768,1554 L-768,1552 L-760,1545 L-754,1539 L-752,1539 L-752,1537 L-744,1530 L-742,1530 L-742,1528 L-733,1521 L-720,1510 L-718,1510 L-718,1508 L-712,1504 L-708,1502 L-708,1500 L-699,1493 L-681,1479 L-668,1469 L-652,1466 L-632,1464 L-623,1463 L-597,1451 L-597,1425 L-603,1427 L-639,1430 L-654,1431 L-661,1430 L-662,1428 L-646,1424 L-636,1420 L-626,1415 L-623,1415 L-623,1413 L-607,1403 L-600,1397 L-593,1389 L-587,1381 L-579,1365 L-577,1361 L-579,1362 L-589,1363 L-602,1363 L-620,1361 L-632,1358 L-631,1355 L-615,1348 L-601,1338 L-590,1327 L-583,1317 L-580,1311 L-579,1308 L-585,1294 L-594,1278 L-599,1273 L-602,1268 L-603,1265 L-605,1265 L-612,1257 L-615,1254 L-615,1252 L-618,1251 L-625,1243 L-629,1239 L-629,1237 L-631,1237 L-633,1233 L-637,1230 L-640,1225 L-649,1213 L-659,1197 L-668,1182 L-674,1169 L-674,1167 L-676,1167 L-680,1158 L-692,1131 L-699,1112 L-708,1085 L-713,1066 L-720,1035 L-722,1023 L-722,1016 L-724,1016 L-722,1041 L-719,1069 L-712,1103 L-703,1134 L-690,1167 L-682,1183 L-673,1200 L-666,1211 L-667,1213 L-672,1209 L-677,1203 L-677,1201 L-679,1201 L-679,1199 L-681,1199 L-681,1197 L-684,1196 L-693,1185 L-697,1180 L-703,1172 L-711,1161 L-721,1145 L-732,1126 L-733,1121 L-735,1121 L-747,1094 L-754,1074 L-760,1054 L-765,1032 L-769,1007 L-771,983 L-771,950 L-769,923 L-765,890 L-761,865 L-755,836 L-749,811 L-745,795 L-737,765 L-730,740 L-725,722 L-721,706 L-716,676 L-712,648 L-708,618 L-702,582 L-696,554 L-681,498 L-665,449 L-653,413 L-647,393 L-637,363 L-634,355 L-628,341 L-624,331 L-612,305 L-600,282 L-595,273 L-593,273 L-592,269 L-587,259 L-578,245 L-572,237 L-569,232 L-564,225 L-563,222 L-561,222 L-559,217 L-551,205 L-549,205 L-548,201 L-545,197 L-543,197 L-541,193 L-529,177 L-526,173 L-524,173 L-523,169 L-520,168 L-518,163 L-516,163 L-514,159 L-510,154 L-505,149 L-503,149 L-501,145 L-497,141 L-495,141 L-495,139 L-493,139 L-491,135 L-487,133 L-486,130 L-484,130 L-483,127 L-481,127 L-481,125 L-479,125 L-479,123 L-477,123 L-477,121 L-475,121 L-475,119 L-464,110 L-449,98 L-432,86 L-424,80 L-413,74 L-399,66 L-384,58 L-368,51 L-347,42 L-333,37 L-324,34 L-291,24 L-271,20 L-249,17 L-239,16 L-197,15 L-188,12 L-181,10 L-167,8 L-162,7 L-142,5 L-130,4 L-69,4 L-57,5 L-45,5 L-14,1 Z " fill="#D0D0CF" transform="translate(1138,244)"/>
<path d="M0,0 L2,0 L-1,12 L-6,28 L-11,44 L-19,65 L-27,81 L-35,98 L-35,100 L-16,90 L-2,82 L16,70 L27,61 L37,53 L39,53 L39,66 L38,80 L34,100 L32,118 L32,136 L36,149 L42,158 L51,168 L67,178 L94,193 L110,204 L124,216 L131,227 L135,235 L141,254 L142,260 L142,300 L146,296 L154,286 L163,270 L168,257 L171,239 L175,241 L178,244 L178,246 L180,246 L187,254 L199,264 L213,273 L229,281 L245,285 L264,288 L276,291 L275,297 L269,305 L258,316 L247,325 L245,328 L247,328 L248,330 L284,340 L306,347 L324,352 L339,356 L361,364 L399,374 L412,378 L426,381 L436,386 L442,391 L447,397 L452,402 L457,406 L463,414 L468,418 L468,420 L470,420 L479,431 L484,436 L497,449 L506,461 L514,475 L520,485 L531,505 L540,520 L553,544 L558,552 L565,566 L570,575 L575,602 L581,645 L581,651 L-963,651 L-962,641 L-960,636 L-960,631 L-958,631 L-957,620 L-955,615 L-950,597 L-947,583 L-946,577 L-944,577 L-942,567 L-938,549 L-934,533 L-929,513 L-923,502 L-919,497 L-911,486 L-903,475 L-901,471 L-899,471 L-897,466 L-889,454 L-882,443 L-880,443 L-878,438 L-871,429 L-864,422 L-853,413 L-840,401 L-838,401 L-838,399 L-830,392 L-824,386 L-822,386 L-822,384 L-814,377 L-812,377 L-812,375 L-803,368 L-790,357 L-788,357 L-788,355 L-782,351 L-778,349 L-778,347 L-769,340 L-751,326 L-738,316 L-722,313 L-702,311 L-693,310 L-667,298 L-666,271 L-654,266 L-638,258 L-627,250 L-619,242 L-607,224 L-598,207 L-588,194 L-577,183 L-570,177 L-562,163 L-560,153 L-560,126 L-561,120 L-561,87 L-558,77 L-550,63 L-536,43 L-529,34 L-525,34 L-511,47 L-501,55 L-489,65 L-477,74 L-458,87 L-443,97 L-426,108 L-413,116 L-387,130 L-368,140 L-349,148 L-340,148 L-319,143 L-301,138 L-272,130 L-256,125 L-219,113 L-199,105 L-175,95 L-139,79 L-106,63 L-68,44 L-44,30 L-25,18 L-2,2 Z " fill="#2A2A29" transform="translate(1208,1397)"/>
<path d="M0,0 L2,2 L4,9 L6,23 L9,29 L12,39 L15,47 L15,53 L17,53 L18,61 L20,61 L23,72 L25,73 L31,88 L37,99 L38,103 L41,105 L45,114 L54,128 L54,130 L56,130 L59,136 L59,138 L62,138 L65,144 L65,146 L67,146 L69,150 L72,153 L75,154 L76,158 L82,160 L83,164 L87,165 L87,167 L91,168 L94,173 L97,175 L97,178 L103,180 L104,183 L108,184 L119,190 L121,192 L128,195 L135,198 L153,202 L171,203 L176,204 L176,201 L166,199 L159,197 L159,195 L154,194 L142,188 L139,184 L129,177 L126,173 L126,171 L121,170 L115,163 L112,160 L111,156 L109,156 L102,146 L102,144 L98,142 L97,140 L102,140 L103,143 L105,143 L110,148 L110,150 L114,151 L115,154 L119,156 L125,160 L125,162 L131,164 L135,168 L143,171 L143,174 L148,176 L162,180 L162,183 L166,184 L166,186 L171,185 L171,187 L180,188 L182,189 L190,189 L190,191 L200,192 L211,194 L233,194 L233,191 L229,189 L228,186 L223,185 L221,180 L219,180 L219,178 L215,178 L211,173 L211,171 L215,172 L222,175 L222,177 L227,178 L227,180 L231,180 L231,182 L235,182 L235,184 L239,185 L251,189 L262,192 L271,194 L313,194 L314,192 L304,192 L295,189 L288,188 L288,186 L283,185 L273,181 L266,179 L259,173 L256,172 L256,170 L253,170 L253,168 L250,168 L250,166 L246,164 L235,155 L235,153 L233,153 L228,148 L227,144 L219,138 L217,134 L217,131 L219,132 L223,135 L223,138 L230,140 L231,142 L235,143 L235,146 L242,147 L245,150 L252,155 L255,156 L255,158 L267,161 L267,163 L273,164 L280,167 L289,170 L297,172 L307,176 L321,179 L324,180 L324,182 L331,182 L340,184 L355,185 L355,187 L383,188 L389,190 L389,186 L380,184 L380,182 L373,181 L366,179 L364,174 L355,172 L355,170 L351,169 L349,168 L349,166 L344,166 L344,164 L338,162 L327,155 L327,152 L323,152 L321,149 L317,148 L313,144 L313,142 L309,141 L303,137 L299,133 L294,130 L285,124 L282,121 L289,120 L294,125 L294,127 L298,128 L310,137 L310,139 L316,141 L323,144 L323,146 L330,147 L336,151 L336,153 L340,154 L349,157 L349,159 L358,162 L367,165 L371,167 L371,169 L380,171 L389,174 L389,176 L402,178 L409,180 L411,180 L411,183 L420,185 L429,186 L430,188 L422,190 L410,193 L391,200 L379,207 L367,218 L362,223 L355,233 L347,248 L344,255 L359,247 L372,241 L387,236 L395,233 L411,229 L417,229 L416,235 L412,245 L409,259 L409,282 L414,304 L423,321 L431,332 L441,341 L455,349 L466,353 L470,354 L493,354 L505,351 L521,343 L533,332 L539,324 L547,308 L552,293 L552,261 L549,246 L544,233 L543,226 L540,222 L540,220 L557,220 L561,236 L566,259 L573,296 L575,307 L579,330 L579,339 L581,339 L585,363 L585,375 L587,375 L589,398 L589,428 L590,436 L590,457 L589,474 L597,467 L605,454 L607,454 L607,452 L609,452 L609,448 L611,448 L613,443 L619,432 L624,422 L628,412 L630,412 L630,408 L632,408 L632,402 L638,388 L640,388 L640,427 L638,467 L636,484 L635,487 L634,501 L633,503 L631,516 L627,539 L624,549 L616,556 L586,576 L566,588 L544,600 L492,626 L456,642 L433,652 L410,661 L396,666 L361,678 L324,688 L311,692 L294,696 L282,699 L273,699 L252,690 L225,676 L209,667 L191,656 L176,646 L155,632 L144,624 L127,611 L113,599 L102,590 L95,583 L93,582 L93,580 L89,578 L84,574 L80,567 L75,562 L67,553 L65,548 L62,547 L60,542 L58,542 L51,531 L43,519 L35,506 L29,493 L24,480 L20,464 L16,439 L12,410 L9,397 L8,384 L2,350 L-5,310 L-11,285 L-11,283 L-7,285 L2,293 L2,295 L4,295 L-2,279 L-8,253 L-8,248 L5,245 L27,241 L46,239 L45,246 L43,259 L43,285 L48,309 L53,324 L61,340 L69,351 L77,359 L85,364 L93,367 L108,367 L118,363 L127,356 L133,348 L139,335 L142,326 L146,302 L146,283 L142,258 L139,249 L139,246 L148,249 L174,261 L165,244 L161,239 L158,234 L148,224 L138,217 L126,211 L109,206 L99,204 L52,203 L48,196 L48,194 L45,194 L40,184 L40,182 L38,182 L31,170 L27,162 L25,156 L24,152 L22,152 L16,138 L14,125 L11,116 L8,108 L3,78 L-1,33 L-1,2 Z M544,224 Z " fill="#F8E8E2" transform="translate(586,847)"/>
<path d="M0,0 L5,1 L6,3 L42,13 L64,20 L82,25 L97,29 L119,37 L157,47 L170,51 L184,54 L194,59 L200,64 L205,70 L210,75 L215,79 L221,87 L226,91 L226,93 L228,93 L237,104 L242,109 L255,122 L264,134 L272,148 L278,158 L289,178 L298,193 L311,217 L316,225 L323,239 L328,248 L333,275 L339,318 L339,324 L-329,324 L-336,303 L-341,293 L-343,285 L-350,267 L-355,256 L-360,245 L-366,229 L-373,214 L-376,205 L-380,197 L-380,192 L-369,185 L-362,181 L-359,181 L-359,179 L-344,170 L-334,163 L-315,151 L-302,142 L-296,139 L-276,125 L-266,119 L-254,111 L-245,105 L-243,105 L-243,103 L-233,97 L-224,91 L-218,88 L-211,84 L-200,81 L-198,82 L-194,80 L-188,76 L-183,73 L-178,73 L-176,69 L-151,57 L-150,55 L-141,52 L-136,49 L-130,47 L-129,45 L-127,45 L-127,43 L-123,43 L-123,41 L-109,35 L-100,34 L-100,31 L-97,31 L-96,28 L-87,23 L-85,23 L-85,21 L-74,19 L-67,17 L-67,14 L-51,9 L-39,8 L-39,6 L-7,3 Z " fill="#AB2723" transform="translate(1450,1724)"/>
<path d="M0,0 L4,2 L7,5 L7,7 L9,7 L16,15 L28,25 L42,34 L58,42 L74,46 L93,49 L105,52 L104,58 L98,66 L87,77 L76,86 L70,90 L64,92 L44,94 L32,94 L32,96 L12,100 L4,102 L4,105 L-7,109 L-14,109 L-14,111 L-25,117 L-26,119 L-29,119 L-29,122 L-40,125 L-50,129 L-52,129 L-52,131 L-56,131 L-56,133 L-58,133 L-59,136 L-68,140 L-74,143 L-79,143 L-80,146 L-105,158 L-107,161 L-116,164 L-119,167 L-126,170 L-127,174 L-129,170 L-140,173 L-150,179 L-157,183 L-170,191 L-172,191 L-172,193 L-183,200 L-195,208 L-214,220 L-228,230 L-235,234 L-252,245 L-267,255 L-273,259 L-286,267 L-288,267 L-288,269 L-302,276 L-308,280 L-307,287 L-303,295 L-299,307 L-292,322 L-286,337 L-279,354 L-274,366 L-270,375 L-268,383 L-264,391 L-260,403 L-258,412 L-782,412 L-781,406 L-773,390 L-771,390 L-769,385 L-766,381 L-764,381 L-762,377 L-756,370 L-752,367 L-750,367 L-749,364 L-742,359 L-741,357 L-736,356 L-735,353 L-721,343 L-714,338 L-711,338 L-710,335 L-700,329 L-697,329 L-696,326 L-680,317 L-670,312 L-668,312 L-668,310 L-662,307 L-660,304 L-651,301 L-642,297 L-634,292 L-629,291 L-629,289 L-619,285 L-612,281 L-607,281 L-606,278 L-593,273 L-585,269 L-578,265 L-570,262 L-565,259 L-557,256 L-545,251 L-537,248 L-530,245 L-517,240 L-501,234 L-483,227 L-473,224 L-453,216 L-441,212 L-431,208 L-418,203 L-412,201 L-403,197 L-383,190 L-370,185 L-361,181 L-348,176 L-334,171 L-329,168 L-319,165 L-311,161 L-304,160 L-304,158 L-301,156 L-288,152 L-281,148 L-270,144 L-261,140 L-248,135 L-245,135 L-245,133 L-235,129 L-225,124 L-217,121 L-203,115 L-189,108 L-173,100 L-165,97 L-150,90 L-142,86 L-134,82 L-121,75 L-112,71 L-109,71 L-109,69 L-104,67 L-88,59 L-82,56 L-81,54 L-70,49 L-61,45 L-50,39 L-46,39 L-44,35 L-34,30 L-29,29 L-29,61 L-25,57 L-17,47 L-8,31 L-3,18 Z " fill="#2A2A2A" transform="translate(1379,1636)"/>
<path d="M0,0 L2,0 L-1,12 L-6,28 L-11,44 L-19,65 L-27,81 L-32,91 L-37,92 L-41,95 L-43,95 L-43,97 L-51,99 L-51,101 L-60,106 L-69,109 L-69,111 L-84,119 L-94,124 L-98,127 L-110,132 L-115,134 L-116,136 L-123,137 L-123,139 L-129,142 L-145,150 L-162,158 L-179,167 L-189,171 L-206,179 L-213,182 L-223,186 L-227,187 L-227,189 L-243,195 L-255,200 L-271,207 L-287,213 L-290,213 L-290,215 L-301,219 L-312,223 L-329,230 L-339,234 L-343,236 L-347,236 L-347,238 L-359,242 L-379,250 L-398,258 L-407,262 L-423,268 L-431,272 L-443,276 L-451,280 L-459,283 L-477,291 L-490,296 L-503,302 L-510,303 L-510,305 L-527,312 L-543,320 L-553,324 L-563,329 L-576,335 L-587,340 L-603,348 L-616,355 L-617,356 L-622,356 L-622,358 L-629,361 L-633,362 L-633,364 L-637,364 L-637,367 L-646,371 L-651,373 L-651,375 L-658,378 L-661,381 L-665,382 L-665,384 L-669,385 L-669,387 L-679,394 L-681,394 L-683,398 L-685,398 L-685,400 L-687,400 L-687,402 L-689,402 L-689,404 L-696,410 L-698,410 L-700,414 L-701,416 L-703,416 L-703,418 L-705,418 L-705,420 L-707,420 L-709,425 L-714,430 L-718,435 L-719,438 L-723,442 L-725,446 L-728,448 L-732,456 L-734,456 L-735,460 L-737,460 L-739,466 L-741,466 L-741,468 L-743,468 L-743,472 L-745,472 L-745,476 L-747,476 L-750,485 L-752,485 L-754,494 L-757,498 L-758,490 L-760,490 L-761,487 L-763,466 L-764,448 L-765,445 L-767,414 L-768,406 L-768,379 L-765,374 L-763,374 L-763,372 L-759,368 L-757,368 L-755,364 L-754,362 L-752,362 L-752,359 L-747,354 L-744,351 L-742,351 L-741,348 L-738,346 L-736,342 L-731,340 L-730,336 L-727,336 L-725,332 L-721,328 L-716,326 L-709,321 L-707,321 L-707,319 L-698,315 L-696,312 L-693,312 L-693,310 L-667,298 L-666,271 L-654,266 L-638,258 L-627,250 L-619,242 L-607,224 L-598,207 L-588,194 L-577,183 L-570,177 L-562,163 L-560,153 L-560,126 L-561,120 L-561,87 L-558,77 L-550,63 L-536,43 L-529,34 L-525,34 L-511,47 L-501,55 L-489,65 L-477,74 L-458,87 L-443,97 L-426,108 L-413,116 L-387,130 L-368,140 L-349,148 L-340,148 L-319,143 L-301,138 L-272,130 L-256,125 L-219,113 L-199,105 L-175,95 L-139,79 L-106,63 L-68,44 L-44,30 L-25,18 L-2,2 Z " fill="#262626" transform="translate(1208,1397)"/>
<path d="M0,0 L4,0 L6,15 L14,50 L20,74 L23,83 L30,107 L35,123 L38,132 L46,152 L50,160 L54,170 L57,175 L60,183 L66,192 L70,200 L71,205 L73,205 L76,208 L79,215 L80,219 L82,219 L83,224 L86,225 L88,231 L90,231 L97,242 L100,244 L100,247 L103,248 L111,258 L114,260 L114,263 L118,264 L118,266 L120,266 L120,269 L122,269 L129,277 L129,279 L133,279 L133,281 L135,281 L140,286 L140,288 L143,289 L143,291 L146,291 L151,296 L156,299 L160,303 L174,313 L182,317 L182,319 L187,321 L195,325 L202,329 L214,333 L225,337 L240,341 L267,345 L265,347 L253,349 L218,349 L201,346 L192,343 L186,341 L176,338 L163,332 L163,330 L158,330 L149,324 L144,321 L129,311 L120,302 L114,299 L105,290 L101,286 L102,291 L105,292 L109,300 L113,304 L116,308 L116,311 L118,311 L125,319 L127,325 L131,327 L136,332 L146,342 L149,345 L149,347 L153,349 L160,355 L160,357 L164,359 L164,361 L167,361 L172,366 L175,369 L180,372 L180,374 L184,376 L190,379 L190,381 L196,383 L196,385 L201,387 L216,395 L223,399 L233,404 L237,405 L236,408 L186,408 L161,406 L137,402 L117,398 L101,393 L85,388 L69,382 L45,371 L18,355 L1,343 L-12,333 L-26,321 L-35,314 L-35,311 L-37,311 L-44,301 L-45,297 L-47,297 L-55,284 L-59,279 L-59,276 L-61,276 L-64,269 L-71,259 L-74,252 L-77,246 L-83,234 L-87,225 L-95,205 L-100,188 L-104,168 L-105,161 L-105,130 L-102,114 L-97,97 L-90,82 L-84,71 L-77,60 L-75,60 L-73,55 L-62,43 L-54,35 L-44,27 L-30,17 L-16,8 L-7,4 L-3,4 L-2,1 Z " fill="#9B9B9A" transform="translate(1040,626)"/>
<path d="M0,0 L3,2 L11,18 L19,33 L22,38 L26,50 L34,64 L41,79 L42,84 L44,84 L48,94 L54,106 L60,122 L65,132 L69,142 L74,154 L79,165 L85,178 L91,194 L94,199 L97,208 L105,228 L109,240 L117,262 L124,290 L130,317 L132,332 L133,335 L133,370 L129,394 L122,414 L115,430 L109,440 L107,440 L105,446 L99,455 L93,464 L91,464 L89,469 L87,472 L85,472 L83,476 L79,481 L76,487 L72,491 L64,504 L58,514 L48,532 L41,547 L33,566 L27,586 L24,594 L20,610 L14,636 L12,656 L11,660 L10,684 L10,721 L13,745 L16,764 L21,779 L26,796 L31,806 L34,816 L38,822 L40,827 L47,838 L47,840 L49,840 L55,849 L54,851 L51,849 L51,857 L48,869 L43,882 L35,896 L25,908 L23,911 L21,910 L21,870 L17,854 L12,840 L5,829 L0,823 L-14,812 L-33,800 L-57,787 L-71,777 L-81,766 L-87,754 L-89,746 L-89,728 L-86,704 L-83,690 L-82,676 L-82,661 L-72,652 L-67,648 L-65,644 L-63,644 L-61,640 L-58,636 L-56,636 L-54,632 L-53,630 L-51,630 L-49,625 L-40,614 L-33,603 L-25,590 L-17,575 L-9,558 L-4,545 L0,537 L5,522 L9,512 L13,495 L18,478 L22,459 L24,449 L30,414 L34,381 L36,360 L37,336 L38,333 L38,257 L36,227 L35,220 L33,187 L31,175 L29,151 L21,95 L15,63 L11,46 L7,26 L5,22 L3,14 L0,5 Z " fill="#9C9C9B" transform="translate(1328,787)"/>
<path d="M0,0 L9,3 L31,8 L39,9 L62,9 L66,8 L73,8 L81,16 L83,17 L79,11 L77,7 L126,7 L143,11 L155,16 L166,22 L179,34 L184,39 L188,46 L194,56 L197,62 L197,64 L192,63 L169,52 L162,49 L167,65 L170,86 L170,105 L166,129 L160,145 L155,154 L147,163 L137,169 L131,171 L116,171 L106,167 L97,160 L89,152 L82,141 L75,127 L69,109 L65,88 L65,62 L68,46 L69,42 L60,44 L44,46 L15,51 L21,79 L27,96 L27,98 L25,98 L20,92 L12,86 L17,104 L22,129 L29,169 L32,187 L33,200 L36,213 L43,263 L47,279 L50,289 L55,300 L62,314 L69,325 L81,343 L81,345 L83,345 L86,350 L90,354 L96,362 L101,368 L106,373 L107,377 L111,379 L116,383 L116,385 L118,386 L112,393 L98,413 L89,428 L86,435 L85,440 L85,473 L86,479 L86,506 L83,518 L76,530 L59,546 L50,557 L46,562 L47,554 L51,541 L53,525 L53,501 L51,485 L47,468 L47,464 L45,464 L42,455 L38,447 L35,439 L32,434 L25,423 L25,421 L22,420 L17,410 L11,399 L8,396 L8,394 L6,394 L6,391 L3,391 L-4,379 L-13,367 L-15,362 L-17,362 L-19,356 L-21,356 L-24,352 L-25,346 L-27,345 L-37,320 L-47,290 L-53,269 L-58,251 L-64,223 L-66,215 L-66,207 L-64,208 L-61,215 L-61,219 L-59,219 L-51,237 L-45,246 L-39,255 L-34,260 L-26,270 L-20,275 L-15,281 L-12,282 L-11,284 L-12,279 L-19,264 L-25,246 L-33,216 L-36,200 L-39,179 L-41,161 L-42,138 L-42,88 L-41,83 L-39,53 L-38,21 L-7,21 L13,19 L6,11 L0,3 Z " fill="#9C9C9B" transform="translate(563,1044)"/>
<path d="M0,0 L2,0 L9,12 L14,24 L22,40 L25,47 L32,62 L36,72 L42,88 L46,96 L53,114 L58,130 L63,142 L72,169 L77,186 L81,197 L84,210 L86,216 L93,247 L98,272 L102,296 L105,318 L107,344 L107,411 L104,450 L100,476 L98,492 L94,508 L89,526 L86,538 L80,556 L70,582 L68,582 L68,588 L62,604 L56,627 L51,660 L51,695 L52,710 L57,732 L61,742 L61,748 L63,748 L65,752 L65,756 L67,756 L67,760 L69,760 L73,767 L75,773 L81,780 L88,791 L91,794 L91,796 L95,798 L96,801 L98,801 L98,804 L102,805 L107,809 L107,814 L100,824 L94,832 L82,846 L74,854 L65,860 L50,864 L15,871 L-16,876 L-21,876 L-17,872 L-7,864 L2,855 L3,853 L5,853 L7,849 L14,839 L20,829 L26,814 L29,805 L29,802 L18,815 L11,822 L9,822 L8,825 L6,825 L5,828 L-9,839 L-19,845 L-28,850 L-32,865 L-35,874 L-39,878 L-44,876 L-54,869 L-64,860 L-73,846 L-78,834 L-82,819 L-83,808 L-83,762 L-81,736 L-79,720 L-74,693 L-63,682 L-57,677 L-55,677 L-55,675 L-47,668 L-22,643 L-15,635 L-9,628 L-7,628 L-5,623 L7,609 L10,604 L12,604 L14,599 L22,588 L33,570 L45,547 L55,525 L62,503 L66,490 L73,451 L75,433 L75,367 L71,330 L67,304 L64,289 L60,271 L55,251 L49,220 L47,205 L41,178 L33,140 L29,119 L24,97 L18,70 L14,54 L8,31 L0,4 Z " fill="#9D9D9D" transform="translate(1522,807)"/>
<path d="M0,0 L8,6 L16,16 L22,28 L28,47 L29,53 L29,61 L22,64 L13,69 L12,71 L2,75 L-7,80 L-17,84 L-20,86 L-23,86 L-24,89 L-30,92 L-46,100 L-51,101 L-51,103 L-63,108 L-78,116 L-85,120 L-95,124 L-103,128 L-111,132 L-119,135 L-131,141 L-150,150 L-163,156 L-170,159 L-178,163 L-183,165 L-187,165 L-187,167 L-209,175 L-219,180 L-229,184 L-238,188 L-246,190 L-246,192 L-257,196 L-266,200 L-275,203 L-285,207 L-298,212 L-307,216 L-323,222 L-340,228 L-350,232 L-355,235 L-365,238 L-378,243 L-398,250 L-417,258 L-433,263 L-450,270 L-462,274 L-474,279 L-482,282 L-490,285 L-499,289 L-511,294 L-516,297 L-523,300 L-528,303 L-541,308 L-548,311 L-549,313 L-558,316 L-567,321 L-571,321 L-571,323 L-581,328 L-586,331 L-593,334 L-602,337 L-604,340 L-610,342 L-610,344 L-631,355 L-638,359 L-639,361 L-650,367 L-653,370 L-660,374 L-674,384 L-680,389 L-683,389 L-684,392 L-691,397 L-696,402 L-698,402 L-700,406 L-706,413 L-708,413 L-710,417 L-713,422 L-715,422 L-718,431 L-723,441 L-724,444 L-768,444 L-767,437 L-764,427 L-761,418 L-758,409 L-754,399 L-752,399 L-751,393 L-743,377 L-741,377 L-740,373 L-738,373 L-737,369 L-736,367 L-734,367 L-734,365 L-732,365 L-732,361 L-730,361 L-730,359 L-725,355 L-724,353 L-719,350 L-716,349 L-714,345 L-708,341 L-706,341 L-706,339 L-696,333 L-694,333 L-694,331 L-687,327 L-677,321 L-674,321 L-674,319 L-669,317 L-668,315 L-659,312 L-659,309 L-652,308 L-652,306 L-648,306 L-648,304 L-642,302 L-642,300 L-633,296 L-630,296 L-630,294 L-608,283 L-596,277 L-594,277 L-594,275 L-581,269 L-578,269 L-578,267 L-574,267 L-574,265 L-562,260 L-545,251 L-532,246 L-530,244 L-520,240 L-513,237 L-510,237 L-510,235 L-496,229 L-494,229 L-494,227 L-480,222 L-467,216 L-453,210 L-448,208 L-444,208 L-444,206 L-435,204 L-435,202 L-418,196 L-406,190 L-395,186 L-384,181 L-370,176 L-358,171 L-350,167 L-334,161 L-320,155 L-304,149 L-284,141 L-264,132 L-254,128 L-242,123 L-230,118 L-227,116 L-218,113 L-202,105 L-192,101 L-183,97 L-170,91 L-168,91 L-168,89 L-158,85 L-145,79 L-138,77 L-138,75 L-126,70 L-114,64 L-98,56 L-81,47 L-71,42 L-68,42 L-68,40 L-62,39 L-62,37 L-58,37 L-58,35 L-54,35 L-54,33 L-44,28 L-42,26 L-38,26 L-38,24 L-32,23 L-32,21 L-26,20 L-26,18 L-20,15 L-17,13 L-14,13 L-14,11 L-5,6 L-1,3 Z " fill="#2A2A2A" transform="translate(1321,1604)"/>
<path d="M0,0 L3,2 L0,3 L-5,8 L-11,9 L-11,11 L-20,17 L-25,18 L-26,21 L-31,26 L-34,26 L-35,30 L-40,33 L-43,38 L-51,45 L-54,49 L-56,49 L-56,52 L-58,52 L-60,56 L-65,62 L-67,62 L-67,64 L-69,65 L-71,69 L-71,96 L-69,119 L-68,135 L-67,138 L-65,164 L-64,180 L-62,180 L-60,193 L-58,216 L-56,224 L-55,234 L-54,235 L-51,257 L-47,273 L-42,297 L-39,305 L-36,308 L-36,310 L-31,312 L-25,318 L-25,320 L-21,322 L-11,329 L-6,335 L-6,337 L-3,337 L-3,339 L2,340 L2,341 L-267,341 L-266,331 L-264,326 L-264,321 L-262,321 L-261,310 L-259,305 L-254,287 L-251,273 L-250,267 L-248,267 L-246,257 L-242,239 L-238,223 L-233,203 L-227,192 L-223,187 L-215,176 L-207,165 L-205,161 L-203,161 L-201,156 L-193,144 L-186,133 L-184,133 L-182,128 L-175,119 L-168,112 L-157,103 L-144,91 L-142,91 L-142,89 L-134,82 L-128,76 L-126,76 L-126,74 L-118,67 L-116,67 L-116,65 L-107,58 L-94,47 L-92,47 L-92,45 L-86,41 L-82,39 L-82,37 L-73,30 L-55,16 L-42,6 L-26,3 L-6,1 Z " fill="#AB2724" transform="translate(512,1707)"/>
<path d="M0,0 L4,1 L-3,7 L-10,11 L-15,14 L-17,14 L-17,16 L-28,23 L-40,31 L-59,43 L-73,53 L-80,57 L-97,68 L-112,78 L-118,82 L-131,90 L-133,90 L-133,92 L-147,99 L-153,103 L-152,110 L-148,118 L-144,130 L-137,145 L-131,160 L-124,177 L-119,189 L-115,198 L-113,206 L-109,214 L-105,226 L-103,235 L-540,235 L-540,233 L-531,227 L-530,225 L-528,225 L-528,223 L-515,213 L-500,203 L-496,202 L-496,200 L-493,200 L-493,198 L-481,192 L-476,188 L-462,181 L-451,175 L-445,172 L-442,172 L-441,169 L-434,167 L-434,165 L-425,161 L-422,159 L-418,159 L-418,157 L-405,151 L-400,150 L-400,148 L-389,144 L-381,140 L-374,136 L-361,131 L-353,128 L-350,128 L-350,126 L-335,121 L-328,118 L-305,110 L-295,108 L-290,105 L-279,101 L-270,99 L-261,96 L-250,92 L-234,87 L-227,85 L-223,85 L-223,83 L-206,78 L-198,75 L-181,70 L-172,66 L-163,64 L-154,60 L-146,58 L-122,49 L-110,45 L-101,41 L-84,35 L-73,31 L-59,26 L-42,19 L-30,14 L-10,6 L-3,2 L0,2 Z " fill="#010201" transform="translate(1224,1813)"/>
<path d="M0,0 L2,0 L2,13 L1,27 L-3,47 L-5,65 L-7,63 L-8,65 L-13,66 L-27,73 L-31,75 L-35,75 L-35,77 L-40,79 L-54,86 L-67,91 L-79,97 L-94,104 L-105,108 L-110,111 L-121,116 L-131,120 L-140,125 L-153,130 L-163,135 L-173,139 L-178,142 L-194,148 L-202,152 L-205,152 L-205,154 L-218,160 L-224,163 L-230,165 L-235,168 L-248,173 L-251,175 L-258,177 L-266,181 L-283,189 L-290,192 L-295,195 L-308,200 L-311,200 L-311,202 L-324,207 L-326,209 L-336,212 L-344,217 L-355,221 L-370,228 L-375,229 L-375,231 L-384,234 L-396,239 L-406,244 L-411,247 L-423,250 L-423,252 L-431,255 L-441,259 L-449,263 L-460,267 L-469,271 L-479,276 L-494,282 L-499,283 L-499,285 L-515,292 L-520,292 L-520,294 L-532,299 L-543,304 L-555,309 L-564,313 L-577,319 L-585,322 L-593,326 L-609,334 L-617,338 L-618,339 L-623,339 L-623,341 L-639,349 L-649,355 L-654,358 L-667,366 L-672,367 L-673,370 L-682,377 L-684,377 L-684,379 L-686,379 L-686,381 L-690,383 L-694,387 L-699,389 L-699,391 L-706,397 L-707,399 L-709,399 L-709,401 L-713,405 L-714,407 L-716,407 L-717,411 L-719,411 L-719,413 L-721,413 L-723,418 L-727,423 L-735,437 L-737,437 L-739,442 L-742,448 L-744,448 L-745,452 L-752,466 L-754,466 L-757,476 L-761,485 L-767,498 L-770,507 L-773,512 L-777,526 L-779,526 L-779,535 L-780,535 L-784,517 L-787,501 L-788,492 L-789,491 L-791,476 L-793,463 L-794,445 L-789,432 L-787,431 L-784,423 L-782,423 L-782,419 L-780,419 L-780,415 L-778,415 L-778,413 L-776,413 L-774,407 L-772,407 L-771,403 L-769,403 L-767,398 L-764,393 L-762,393 L-760,387 L-756,385 L-755,381 L-748,372 L-745,369 L-744,367 L-742,367 L-742,365 L-740,365 L-740,363 L-738,363 L-736,359 L-733,356 L-728,351 L-726,351 L-726,349 L-724,349 L-724,347 L-722,347 L-722,345 L-716,340 L-708,334 L-706,334 L-706,332 L-702,331 L-702,329 L-696,327 L-695,324 L-691,322 L-688,322 L-688,320 L-677,314 L-674,314 L-674,311 L-670,311 L-670,309 L-662,305 L-659,305 L-659,303 L-653,301 L-634,291 L-618,283 L-605,277 L-592,271 L-584,267 L-574,263 L-560,256 L-550,252 L-547,252 L-547,250 L-536,246 L-520,239 L-500,231 L-492,227 L-482,223 L-472,219 L-462,215 L-448,209 L-440,206 L-427,201 L-412,194 L-396,188 L-388,185 L-384,185 L-384,183 L-374,179 L-356,172 L-346,168 L-336,164 L-331,162 L-327,162 L-327,160 L-315,156 L-306,152 L-290,145 L-276,140 L-267,136 L-264,136 L-264,134 L-254,129 L-244,126 L-228,118 L-220,114 L-210,110 L-194,102 L-178,94 L-169,90 L-162,86 L-160,86 L-160,84 L-153,83 L-152,80 L-142,76 L-132,71 L-127,68 L-121,65 L-108,58 L-106,58 L-106,56 L-93,50 L-88,48 L-88,46 L-84,44 L-80,44 L-80,42 L-74,38 L-70,38 L-71,43 L-72,47 L-53,37 L-39,29 L-21,17 L-10,8 Z " fill="#2A2A2A" transform="translate(1245,1450)"/>
<path d="M0,0 L9,3 L31,8 L39,9 L62,9 L66,8 L73,8 L81,16 L83,17 L79,11 L77,7 L126,7 L143,11 L155,16 L166,22 L179,34 L184,39 L188,46 L194,56 L197,62 L197,64 L192,63 L169,52 L162,49 L167,65 L170,86 L170,105 L166,129 L160,145 L155,154 L147,163 L137,169 L131,171 L116,171 L106,167 L97,160 L89,152 L82,141 L75,127 L69,109 L65,88 L65,62 L68,46 L69,42 L60,44 L44,46 L15,51 L21,79 L27,96 L27,98 L25,98 L20,92 L9,83 L-3,71 L-10,63 L-19,53 L-24,48 L-35,33 L-38,27 L-38,21 L-7,21 L13,19 L6,11 L0,3 Z " fill="#6D535E" transform="translate(563,1044)"/>
<path d="M0,0 L5,0 L5,17 L2,17 L2,19 L-14,27 L-24,32 L-30,33 L-30,35 L-40,39 L-55,46 L-66,51 L-70,51 L-70,53 L-74,55 L-78,55 L-78,57 L-90,62 L-94,62 L-94,64 L-104,68 L-121,76 L-132,81 L-136,83 L-140,83 L-140,85 L-148,87 L-148,89 L-164,95 L-170,98 L-172,98 L-172,100 L-178,102 L-187,106 L-200,112 L-207,115 L-210,115 L-210,117 L-222,122 L-228,125 L-232,125 L-232,127 L-246,132 L-248,132 L-248,134 L-264,141 L-282,149 L-303,158 L-311,162 L-323,168 L-336,173 L-344,177 L-354,181 L-362,185 L-372,189 L-387,196 L-406,204 L-412,205 L-412,207 L-431,215 L-436,216 L-436,218 L-456,226 L-459,226 L-459,228 L-475,234 L-480,237 L-488,240 L-492,240 L-492,242 L-502,246 L-515,252 L-523,255 L-532,259 L-542,263 L-556,270 L-572,277 L-588,285 L-596,289 L-612,297 L-617,300 L-623,303 L-636,311 L-640,311 L-640,313 L-642,313 L-642,315 L-648,317 L-648,319 L-654,321 L-654,323 L-657,324 L-660,327 L-669,334 L-672,337 L-674,337 L-674,339 L-676,339 L-676,341 L-680,345 L-682,345 L-682,347 L-684,347 L-686,351 L-688,351 L-689,355 L-690,357 L-692,357 L-692,359 L-694,359 L-696,364 L-700,369 L-706,379 L-708,379 L-708,382 L-710,382 L-711,387 L-714,393 L-716,394 L-726,416 L-734,432 L-739,443 L-744,457 L-746,457 L-747,463 L-748,469 L-750,469 L-752,479 L-755,489 L-757,496 L-761,496 L-765,485 L-767,473 L-767,460 L-765,460 L-764,453 L-761,443 L-758,439 L-755,429 L-749,418 L-746,410 L-742,400 L-740,400 L-739,396 L-732,382 L-730,382 L-728,376 L-725,371 L-723,371 L-721,366 L-714,354 L-709,347 L-707,347 L-707,345 L-705,345 L-704,341 L-702,341 L-700,336 L-697,335 L-697,333 L-695,333 L-693,329 L-689,325 L-687,325 L-687,323 L-681,319 L-679,319 L-677,315 L-674,315 L-674,313 L-672,313 L-672,311 L-666,307 L-664,307 L-663,304 L-660,301 L-650,296 L-641,290 L-627,282 L-613,275 L-611,275 L-611,273 L-605,271 L-595,266 L-581,259 L-569,253 L-556,248 L-551,245 L-538,240 L-526,235 L-518,231 L-508,228 L-508,226 L-498,223 L-490,219 L-487,219 L-487,217 L-474,212 L-463,207 L-450,201 L-441,197 L-430,193 L-421,189 L-418,187 L-411,186 L-411,184 L-403,181 L-395,178 L-390,175 L-377,169 L-370,166 L-363,165 L-363,163 L-347,156 L-336,151 L-329,148 L-324,145 L-314,142 L-310,139 L-302,136 L-299,136 L-299,134 L-279,126 L-275,123 L-265,119 L-254,114 L-244,109 L-238,107 L-227,102 L-219,99 L-217,97 L-210,95 L-195,88 L-193,88 L-193,86 L-183,82 L-170,76 L-162,73 L-155,69 L-147,66 L-139,62 L-128,58 L-119,53 L-109,49 L-98,44 L-93,41 L-80,36 L-65,29 L-48,21 L-36,16 L-28,12 L-23,11 L-23,9 L-10,4 Z " fill="#030303" transform="translate(1233,1516)"/>
<path d="M0,0 L6,1 L15,8 L16,12 L8,18 L2,20 L2,22 L-4,25 L-7,27 L-10,27 L-10,29 L-16,30 L-16,32 L-22,33 L-22,35 L-27,37 L-35,42 L-38,42 L-38,44 L-42,44 L-42,46 L-46,46 L-46,48 L-52,49 L-52,51 L-68,59 L-84,67 L-100,75 L-119,84 L-122,84 L-122,86 L-140,94 L-148,98 L-152,98 L-152,100 L-168,108 L-178,112 L-194,119 L-206,125 L-212,127 L-223,132 L-236,137 L-244,141 L-254,145 L-280,156 L-299,163 L-311,168 L-330,176 L-340,180 L-353,185 L-364,190 L-378,195 L-386,199 L-393,202 L-412,210 L-419,211 L-419,213 L-424,215 L-428,215 L-428,217 L-444,223 L-462,231 L-474,236 L-478,236 L-478,238 L-489,243 L-494,244 L-494,246 L-502,249 L-510,253 L-515,255 L-526,260 L-545,269 L-553,273 L-558,274 L-558,276 L-562,276 L-562,278 L-572,282 L-575,284 L-578,284 L-578,286 L-594,294 L-612,303 L-614,303 L-614,305 L-623,309 L-626,309 L-626,311 L-632,313 L-632,315 L-636,315 L-636,317 L-643,318 L-643,321 L-648,324 L-652,324 L-653,327 L-658,328 L-658,330 L-670,336 L-675,340 L-678,340 L-678,342 L-688,348 L-690,348 L-690,350 L-699,356 L-704,361 L-708,362 L-710,366 L-714,368 L-714,370 L-716,370 L-716,374 L-718,374 L-718,376 L-720,376 L-722,382 L-724,382 L-725,386 L-727,386 L-729,392 L-735,404 L-736,408 L-738,408 L-739,413 L-742,420 L-746,434 L-748,438 L-750,446 L-752,453 L-772,453 L-771,443 L-769,438 L-767,431 L-762,416 L-760,413 L-758,406 L-752,392 L-750,392 L-749,388 L-742,374 L-740,374 L-739,370 L-737,370 L-735,366 L-731,360 L-724,352 L-722,352 L-720,348 L-717,345 L-706,336 L-692,327 L-687,325 L-687,323 L-672,314 L-668,313 L-667,311 L-662,311 L-660,307 L-652,305 L-652,303 L-648,302 L-648,300 L-644,298 L-641,298 L-641,296 L-631,291 L-626,288 L-623,288 L-623,286 L-619,284 L-616,284 L-616,282 L-606,278 L-600,274 L-596,273 L-595,271 L-579,264 L-573,260 L-554,251 L-543,246 L-536,243 L-531,240 L-527,240 L-527,238 L-510,230 L-506,230 L-506,228 L-489,221 L-478,216 L-468,211 L-461,210 L-461,208 L-452,205 L-433,196 L-422,192 L-417,189 L-400,183 L-395,180 L-385,176 L-380,176 L-380,174 L-363,168 L-355,164 L-348,161 L-340,160 L-340,158 L-334,156 L-319,149 L-310,146 L-302,142 L-287,137 L-276,133 L-266,128 L-252,122 L-239,117 L-229,112 L-219,108 L-207,103 L-197,98 L-188,94 L-187,93 L-182,93 L-182,91 L-175,88 L-171,88 L-171,86 L-163,83 L-158,79 L-153,78 L-130,67 L-125,66 L-125,64 L-115,60 L-109,57 L-106,57 L-106,55 L-99,52 L-96,52 L-96,50 L-87,46 L-75,40 L-71,38 L-67,38 L-66,35 L-62,33 L-58,33 L-58,31 L-43,23 L-35,20 L-31,19 L-31,17 L-25,13 L-18,10 L-7,4 L-2,1 Z " fill="#030403" transform="translate(1305,1595)"/>
<path d="M0,0 L1,0 L3,26 L4,42 L6,42 L8,55 L10,78 L12,86 L13,96 L14,97 L17,119 L21,135 L26,159 L29,167 L32,170 L32,172 L37,174 L43,180 L43,182 L47,184 L57,191 L62,197 L62,199 L65,199 L65,201 L70,202 L70,203 L-86,203 L-89,201 L-89,199 L-91,199 L-91,195 L-94,195 L-96,190 L-101,188 L-101,186 L-104,185 L-104,183 L-106,183 L-107,179 L-110,179 L-111,169 L-112,164 L-110,159 L-107,158 L-105,153 L-103,153 L-103,151 L-98,146 L-97,143 L-95,143 L-93,138 L-91,138 L-90,133 L-87,130 L-85,130 L-83,125 L-81,125 L-80,119 L-78,119 L-77,116 L-75,116 L-75,113 L-73,113 L-71,108 L-65,100 L-64,95 L-59,93 L-55,87 L-51,81 L-49,81 L-47,76 L-43,70 L-41,67 L-39,67 L-38,63 L-35,58 L-33,58 L-32,54 L-30,54 L-28,49 L-25,45 L-23,45 L-21,40 L-19,40 L-18,36 L-13,28 L-11,28 L-11,24 L-7,23 L-6,19 L-1,12 Z " fill="#AA2824" transform="translate(444,1845)"/>
<path d="M0,0 L4,0 L4,20 L-5,26 L-15,32 L-27,38 L-44,47 L-49,48 L-49,50 L-53,50 L-53,52 L-69,60 L-88,69 L-97,74 L-101,74 L-101,76 L-107,77 L-107,79 L-112,81 L-117,81 L-117,83 L-136,92 L-151,99 L-162,104 L-173,109 L-183,113 L-199,121 L-207,124 L-217,128 L-220,128 L-220,130 L-233,135 L-249,142 L-259,146 L-271,151 L-279,154 L-283,154 L-283,156 L-304,165 L-315,168 L-315,170 L-328,173 L-340,179 L-349,182 L-364,187 L-372,191 L-379,192 L-379,194 L-409,204 L-423,210 L-429,212 L-433,212 L-433,214 L-441,216 L-445,216 L-445,218 L-451,221 L-459,221 L-459,223 L-483,232 L-488,232 L-488,234 L-503,240 L-507,242 L-510,242 L-510,244 L-523,248 L-530,252 L-537,255 L-541,255 L-541,257 L-552,262 L-555,262 L-555,264 L-568,269 L-582,277 L-596,283 L-614,293 L-623,298 L-638,306 L-641,307 L-644,310 L-647,310 L-647,312 L-658,318 L-661,318 L-661,320 L-667,322 L-667,324 L-676,331 L-684,335 L-687,338 L-692,340 L-692,342 L-695,342 L-695,344 L-700,347 L-701,349 L-703,349 L-704,352 L-707,352 L-707,354 L-709,354 L-710,357 L-712,357 L-714,361 L-715,364 L-719,368 L-721,368 L-723,373 L-726,376 L-728,383 L-749,383 L-748,377 L-740,361 L-738,361 L-736,356 L-733,352 L-731,352 L-729,348 L-723,341 L-719,338 L-717,338 L-716,335 L-709,330 L-708,328 L-703,327 L-702,324 L-688,314 L-681,309 L-678,309 L-677,306 L-667,300 L-664,300 L-663,297 L-647,288 L-637,283 L-635,283 L-635,281 L-629,278 L-627,275 L-618,272 L-609,268 L-601,263 L-596,262 L-596,260 L-586,256 L-579,252 L-574,252 L-573,249 L-560,244 L-552,240 L-545,236 L-537,233 L-532,230 L-524,227 L-512,222 L-504,219 L-497,216 L-484,211 L-468,205 L-450,198 L-440,195 L-420,187 L-408,183 L-398,179 L-385,174 L-379,172 L-370,168 L-350,161 L-337,156 L-328,152 L-315,147 L-301,142 L-296,139 L-286,136 L-278,132 L-271,131 L-271,129 L-268,127 L-255,123 L-248,119 L-237,115 L-228,111 L-215,106 L-212,106 L-212,104 L-202,100 L-192,95 L-184,92 L-170,86 L-156,79 L-140,71 L-132,68 L-117,61 L-109,57 L-101,53 L-88,46 L-79,42 L-76,42 L-76,40 L-71,38 L-55,30 L-49,27 L-48,25 L-37,20 L-28,16 L-17,10 L-13,10 L-11,6 L-1,1 Z " fill="#030403" transform="translate(1346,1665)"/>
<path d="M0,0 L2,1 L2,5 L2,11 L-6,27 L-11,28 L-15,31 L-17,31 L-17,33 L-25,35 L-25,37 L-34,42 L-43,45 L-43,47 L-58,55 L-68,60 L-72,63 L-84,68 L-89,70 L-90,72 L-97,73 L-97,75 L-103,78 L-119,86 L-136,94 L-153,103 L-163,107 L-180,115 L-187,118 L-197,122 L-201,123 L-201,125 L-217,131 L-229,136 L-245,143 L-261,149 L-264,149 L-264,151 L-275,155 L-286,159 L-303,166 L-313,170 L-317,172 L-321,172 L-321,174 L-333,178 L-353,186 L-372,194 L-381,198 L-397,204 L-405,208 L-417,212 L-425,216 L-433,219 L-451,227 L-464,232 L-477,238 L-484,239 L-484,241 L-501,248 L-517,256 L-527,260 L-537,265 L-550,271 L-561,276 L-577,284 L-590,291 L-591,292 L-596,292 L-596,294 L-603,297 L-607,298 L-607,300 L-611,300 L-611,303 L-620,307 L-625,309 L-625,311 L-632,314 L-635,317 L-639,318 L-639,320 L-643,321 L-643,323 L-653,330 L-655,330 L-657,334 L-659,334 L-659,336 L-661,336 L-661,338 L-663,338 L-663,340 L-670,346 L-672,346 L-674,350 L-675,352 L-677,352 L-677,354 L-679,354 L-679,356 L-681,356 L-683,361 L-688,366 L-692,371 L-693,374 L-697,378 L-699,382 L-702,384 L-706,392 L-708,392 L-709,396 L-711,396 L-713,402 L-715,402 L-715,404 L-717,404 L-717,408 L-719,408 L-719,412 L-721,412 L-724,421 L-726,421 L-728,430 L-731,434 L-734,421 L-735,401 L-731,394 L-729,394 L-728,389 L-725,383 L-722,378 L-720,378 L-718,373 L-711,362 L-709,362 L-707,358 L-704,354 L-702,354 L-701,351 L-699,351 L-697,346 L-694,345 L-694,343 L-692,343 L-690,339 L-688,339 L-686,335 L-684,335 L-684,332 L-682,332 L-680,328 L-675,326 L-674,323 L-672,323 L-672,321 L-658,310 L-656,310 L-656,308 L-648,302 L-646,302 L-646,300 L-636,294 L-626,287 L-618,283 L-616,281 L-609,278 L-606,278 L-606,276 L-597,272 L-581,264 L-576,263 L-576,261 L-557,252 L-548,248 L-541,245 L-536,242 L-526,238 L-512,231 L-499,226 L-484,219 L-466,211 L-459,208 L-452,206 L-440,201 L-437,201 L-437,199 L-431,198 L-430,196 L-422,193 L-415,190 L-404,186 L-396,182 L-383,177 L-376,174 L-351,164 L-346,162 L-341,162 L-341,160 L-335,159 L-335,157 L-324,153 L-311,148 L-302,144 L-295,143 L-295,141 L-284,137 L-278,134 L-269,131 L-257,126 L-248,123 L-233,116 L-224,113 L-212,107 L-198,102 L-196,102 L-196,100 L-187,96 L-170,88 L-164,87 L-164,85 L-150,79 L-147,79 L-147,77 L-137,72 L-129,71 L-129,69 L-115,62 L-112,62 L-112,60 L-106,57 L-103,57 L-103,55 L-91,50 L-89,50 L-89,48 L-77,43 L-73,40 L-65,36 L-51,28 L-40,22 L-29,16 L-26,16 L-26,14 L-18,10 L-15,10 L-15,8 L-1,1 Z " fill="#030303" transform="translate(1182,1461)"/>
<path d="M0,0 L2,0 L4,10 L10,61 L10,113 L6,150 L-1,180 L-10,206 L-19,226 L-28,243 L-29,246 L-31,246 L-33,252 L-36,258 L-38,258 L-40,263 L-41,266 L-43,266 L-45,271 L-57,287 L-71,304 L-78,312 L-80,312 L-82,316 L-93,328 L-98,333 L-106,341 L-108,344 L-110,344 L-109,335 L-106,324 L-103,308 L-97,285 L-93,269 L-88,251 L-83,235 L-79,219 L-68,187 L-59,162 L-49,136 L-45,126 L-35,104 L-27,85 L-21,73 L-14,52 L-7,31 L-1,7 Z " fill="#9D9D9C" transform="translate(1567,1119)"/>
<path d="M0,0 L54,0 L60,10 L66,22 L70,36 L71,43 L71,75 L65,93 L57,108 L46,120 L36,128 L20,135 L11,137 L-12,137 L-25,133 L-38,126 L-49,117 L-57,108 L-65,94 L-69,86 L-74,64 L-74,41 L-71,27 L-66,14 L-61,9 L-38,5 L-30,4 L-11,4 L-12,18 L-15,34 L-20,44 L-36,52 L-59,60 L-60,62 L-50,63 L-25,68 L-16,72 L-10,77 L-3,90 L2,103 L7,115 L7,117 L9,117 L9,106 L12,83 L15,71 L22,64 L38,56 L50,51 L58,48 L57,47 L24,43 L16,40 L8,33 L-2,11 L-4,1 Z " fill="#252524" transform="translate(1068,1065)"/>
<path d="M0,0 L2,0 L3,13 L2,16 L5,17 L10,44 L11,49 L-10,50 L-10,48 L-68,49 L-64,61 L-55,81 L-48,87 L-40,90 L-7,94 L-5,96 L-10,99 L-22,103 L-39,111 L-48,119 L-51,131 L-54,154 L-55,165 L-57,165 L-66,143 L-74,127 L-78,122 L-86,118 L-103,114 L-124,110 L-123,107 L-100,99 L-85,92 L-80,82 L-77,66 L-75,52 L-94,53 L-115,56 L-126,58 L-129,60 L-139,61 L-158,66 L-166,69 L-183,76 L-200,85 L-202,85 L-199,76 L-191,61 L-181,48 L-173,41 L-161,32 L-145,25 L-130,20 L-118,18 L-107,18 L-96,21 L-73,24 L-69,25 L-20,26 L-20,24 L-25,22 L-39,14 L-39,12 L-26,10 L-9,5 Z " fill="#6E545F" transform="translate(1132,1017)"/>
<path d="M0,0 L1,0 L0,10 L-3,23 L-7,49 L-10,73 L-13,93 L-16,136 L-16,195 L-14,207 L-14,227 L-12,227 L-11,235 L-11,246 L-21,298 L-27,327 L-27,341 L-24,356 L-22,369 L-19,382 L-18,391 L-16,401 L-20,402 L-46,402 L-51,401 L-51,406 L-52,406 L-54,379 L-54,291 L-53,263 L-49,217 L-45,189 L-43,171 L-38,140 L-36,130 L-31,106 L-27,90 L-24,76 L-18,52 L-15,44 L-4,9 Z " fill="#9E9E9D" transform="translate(576,664)"/>
<path d="M0,0 L24,0 L24,18 L22,34 L18,42 L10,47 L-3,51 L-11,53 L-9,55 L8,60 L18,64 L23,68 L28,79 L32,93 L34,97 L34,101 L37,101 L37,94 L41,74 L44,67 L48,62 L59,57 L72,52 L72,51 L51,46 L43,41 L37,34 L32,20 L27,4 L27,1 L39,1 L47,2 L52,4 L65,6 L72,8 L77,21 L81,46 L81,65 L77,89 L71,105 L66,114 L58,123 L48,129 L42,131 L27,131 L17,127 L8,120 L0,112 L-7,101 L-14,87 L-20,69 L-24,48 L-24,22 L-21,6 L-19,1 Z " fill="#252524" transform="translate(652,1084)"/>
<path d="M0,0 L2,0 L9,18 L13,28 L22,51 L28,67 L34,84 L38,92 L43,108 L46,115 L46,129 L38,156 L32,186 L29,192 L24,194 L12,186 L1,176 L-8,162 L-13,150 L-17,135 L-18,124 L-18,78 L-16,52 L-14,36 L-9,9 Z " fill="#2E2E2E" transform="translate(1457,1491)"/>
<path d="M0,0 L14,0 L18,5 L18,15 L16,19 L9,22 L6,22 L6,25 L4,25 L4,27 L-2,27 L-2,29 L-11,33 L-14,33 L-14,35 L-21,38 L-32,45 L-38,47 L-43,52 L-46,53 L-45,56 L-52,57 L-52,59 L-54,59 L-54,61 L-62,66 L-65,67 L-65,69 L-68,69 L-68,71 L-70,71 L-70,73 L-77,77 L-79,77 L-79,79 L-81,80 L-82,83 L-84,83 L-84,85 L-90,90 L-91,93 L-93,93 L-93,95 L-95,96 L-96,99 L-98,99 L-98,101 L-100,101 L-100,103 L-103,103 L-105,107 L-107,107 L-109,112 L-112,117 L-114,117 L-115,121 L-119,127 L-121,127 L-123,132 L-125,135 L-127,135 L-129,140 L-132,145 L-134,145 L-134,149 L-136,149 L-138,155 L-140,159 L-142,159 L-143,165 L-151,181 L-153,187 L-155,187 L-158,197 L-162,207 L-163,208 L-165,217 L-168,224 L-171,233 L-172,240 L-174,240 L-174,247 L-177,258 L-202,258 L-201,250 L-199,250 L-198,241 L-194,224 L-192,218 L-189,210 L-188,209 L-188,204 L-186,204 L-184,195 L-182,195 L-180,186 L-178,180 L-176,180 L-175,170 L-170,165 L-165,152 L-163,152 L-163,147 L-158,142 L-155,136 L-153,136 L-150,126 L-148,122 L-146,121 L-141,112 L-139,112 L-139,110 L-137,110 L-136,106 L-132,102 L-130,102 L-128,97 L-122,90 L-120,90 L-120,88 L-118,88 L-116,83 L-114,83 L-114,81 L-111,79 L-110,76 L-103,71 L-102,68 L-98,66 L-97,64 L-94,64 L-94,62 L-92,62 L-92,59 L-90,59 L-89,56 L-85,55 L-84,52 L-79,49 L-76,46 L-73,45 L-68,40 L-64,39 L-64,37 L-56,31 L-51,29 L-51,27 L-48,27 L-48,25 L-43,23 L-43,21 L-40,20 L-38,18 L-31,17 L-20,11 L-16,11 L-15,6 L-9,5 L-2,2 Z " fill="#7E1512" transform="translate(1563,1790)"/>
<path d="M0,0 L2,4 L5,14 L8,38 L10,47 L12,67 L14,72 L16,90 L20,109 L22,129 L23,129 L25,144 L27,152 L28,161 L27,163 L29,163 L30,176 L32,184 L34,202 L36,211 L36,222 L35,224 L28,227 L20,231 L7,235 L2,237 L-5,237 L-6,240 L-13,242 L-21,246 L-36,251 L-41,253 L-104,253 L-104,250 L-97,248 L-88,244 L-79,243 L-79,241 L-70,239 L-63,235 L-58,233 L-51,230 L-37,225 L-33,223 L-29,222 L-19,218 L-9,215 L-1,212 L9,208 L11,208 L10,205 L11,198 L9,189 L4,164 L4,159 L3,158 L2,146 L1,145 L-1,133 L-1,119 L-3,119 L-5,111 L-7,96 L-9,89 L-15,48 L-18,34 L-20,10 L-12,7 L-9,4 L-5,2 L0,2 Z " fill="#7E1612" transform="translate(1272,1795)"/>
<path d="M0,0 L6,0 L11,15 L14,22 L16,31 L18,38 L23,54 L28,72 L28,76 L-54,76 L-56,63 L-58,53 L-63,28 L-65,19 L-57,16 L-30,8 L-21,5 L-6,2 Z " fill="#2A2A2A" transform="translate(1024,1972)"/>
<path d="M0,0 L1,0 L3,26 L4,42 L6,42 L5,46 L3,46 L0,51 L-4,57 L-6,59 L-9,66 L-11,66 L-13,73 L-15,73 L-16,76 L-19,76 L-21,82 L-23,82 L-25,86 L-28,92 L-31,92 L-32,96 L-33,98 L-35,98 L-35,102 L-37,102 L-37,104 L-39,104 L-39,106 L-41,106 L-42,110 L-46,115 L-52,125 L-53,128 L-56,128 L-56,130 L-58,130 L-59,134 L-61,134 L-62,138 L-64,138 L-65,142 L-67,143 L-70,148 L-74,150 L-75,155 L-81,166 L-83,166 L-82,173 L-75,179 L-68,187 L-64,192 L-63,194 L-59,196 L-54,200 L-53,203 L-86,203 L-89,201 L-89,199 L-91,199 L-91,195 L-94,195 L-96,190 L-101,188 L-101,186 L-104,185 L-104,183 L-106,183 L-107,179 L-110,179 L-111,169 L-112,164 L-110,159 L-107,158 L-105,153 L-103,153 L-103,151 L-98,146 L-97,143 L-95,143 L-93,138 L-91,138 L-90,133 L-87,130 L-85,130 L-83,125 L-81,125 L-80,119 L-78,119 L-77,116 L-75,116 L-75,113 L-73,113 L-71,108 L-65,100 L-64,95 L-59,93 L-55,87 L-51,81 L-49,81 L-47,76 L-43,70 L-41,67 L-39,67 L-38,63 L-35,58 L-33,58 L-32,54 L-30,54 L-28,49 L-25,45 L-23,45 L-21,40 L-19,40 L-18,36 L-13,28 L-11,28 L-11,24 L-7,23 L-6,19 L-1,12 Z " fill="#7D1511" transform="translate(444,1845)"/>
<path d="M0,0 L2,4 L6,23 L10,39 L14,58 L15,63 L15,66 L17,66 L17,68 L20,69 L21,76 L23,76 L28,89 L28,91 L30,91 L33,96 L33,100 L35,100 L38,106 L38,108 L42,109 L45,115 L45,119 L48,119 L51,123 L51,125 L54,125 L55,129 L58,131 L58,133 L62,134 L62,137 L68,139 L67,141 L60,143 L37,143 L19,140 L1,135 L-2,133 L3,142 L11,150 L11,152 L9,153 L-5,154 L-6,153 L-8,144 L-10,132 L-13,118 L-16,98 L-17,94 L-17,80 L-6,26 L-2,4 Z " fill="#F5E5E0" transform="translate(565,911)"/>
<path d="M0,0 L2,2 L9,20 L16,37 L21,49 L25,58 L27,66 L31,74 L35,86 L37,95 L-11,95 L-14,88 L-18,72 L-23,54 L-30,35 L-33,26 L-37,16 L-37,14 L-23,10 L-22,9 L-5,6 L1,6 Z " fill="#2A2929" transform="translate(1084,1953)"/>
<path d="M0,0 L2,0 L3,9 L5,9 L8,18 L11,23 L11,25 L15,25 L17,31 L21,33 L23,39 L25,39 L25,41 L29,41 L29,43 L31,43 L34,49 L33,52 L25,56 L17,60 L7,64 L-5,69 L-11,70 L-11,72 L-21,76 L-37,83 L-47,87 L-62,93 L-71,96 L-71,98 L-73,98 L-74,87 L-74,70 L-62,65 L-46,57 L-35,49 L-27,41 L-15,23 L-6,6 L-1,2 Z " fill="#030403" transform="translate(616,1598)"/>
<path d="M0,0 L1,0 L2,32 L3,34 L1,34 L2,56 L8,51 L14,47 L21,42 L23,42 L23,40 L25,40 L25,38 L31,36 L31,34 L37,30 L39,30 L39,28 L41,28 L41,26 L44,25 L47,22 L52,18 L52,14 L54,14 L55,12 L60,28 L63,35 L63,49 L55,76 L49,106 L46,112 L41,114 L29,106 L18,96 L9,82 L4,70 L0,55 Z " fill="#2C2D2C" transform="translate(1440,1571)"/>
<path d="M0,0 L6,0 L12,16 L20,32 L28,38 L34,40 L67,44 L69,46 L64,49 L52,53 L35,61 L26,69 L23,81 L20,104 L19,115 L17,115 L8,93 L0,77 L-4,72 L-12,68 L-29,64 L-50,60 L-49,57 L-26,49 L-11,42 L-6,32 L-3,16 L-1,1 Z " fill="#F6F5F4" transform="translate(1058,1067)"/>
<path d="M0,0 L5,1 L16,7 L45,22 L64,30 L73,30 L94,25 L112,20 L141,12 L157,7 L166,6 L166,9 L164,10 L164,12 L155,17 L136,27 L126,31 L115,36 L103,41 L87,47 L78,50 L68,55 L62,57 L48,62 L43,63 L36,63 L36,59 L34,59 L34,55 L32,55 L32,52 L30,52 L30,48 L27,48 L26,52 L23,48 L24,42 L22,41 L24,38 L22,38 L20,33 L20,30 L18,30 L17,27 L15,26 L14,20 L9,19 L8,14 L9,12 L7,12 L5,8 L3,4 L0,2 Z " fill="#050504" transform="translate(795,1515)"/>
<path d="M0,0 L4,0 L9,23 L13,43 L14,45 L14,52 L-70,52 L-72,29 L-72,25 L-69,23 L-54,19 L-44,15 L-40,15 L-40,13 L-28,9 L-24,8 L-16,5 L-11,5 L-11,3 Z " fill="#2A2A2A" transform="translate(937,1996)"/>
<path d="M0,0 L4,1 L13,9 L24,18 L27,22 L26,25 L29,25 L32,31 L38,46 L45,62 L48,66 L50,74 L52,74 L57,80 L55,81 L55,83 L58,84 L59,90 L62,93 L63,98 L64,102 L66,102 L72,112 L74,120 L77,121 L76,123 L78,123 L79,128 L81,128 L82,132 L84,132 L87,137 L87,140 L89,140 L90,144 L92,144 L95,150 L95,152 L97,152 L99,157 L92,160 L84,163 L81,163 L81,161 L78,160 L77,155 L75,155 L71,148 L68,145 L68,143 L66,143 L63,135 L61,131 L59,131 L58,125 L54,123 L54,119 L52,119 L47,109 L44,102 L44,99 L42,99 L36,90 L29,75 L29,71 L26,70 L23,60 L21,59 L19,52 L17,50 L16,43 L14,40 L14,37 L12,37 L11,34 L9,33 L6,21 L3,15 L-1,2 Z M58,83 Z " fill="#030403" transform="translate(689,1439)"/>
<path d="M0,0 L5,1 L19,13 L37,26 L52,36 L78,51 L103,62 L117,67 L123,69 L118,73 L108,77 L95,81 L80,81 L79,79 L77,82 L77,80 L73,78 L70,76 L68,73 L59,68 L53,61 L51,60 L51,58 L47,56 L44,54 L44,52 L40,52 L39,46 L35,44 L33,40 L29,38 L29,36 L26,36 L20,29 L18,25 L14,21 L9,16 L9,13 L7,13 L6,8 L4,8 L2,3 L-1,2 Z " fill="#F4E4DF" transform="translate(1011,947)"/>
<path d="M0,0 L3,2 L11,27 L15,35 L22,41 L33,45 L47,48 L47,51 L27,59 L21,63 L18,68 L15,80 L12,99 L9,99 L4,83 L-1,70 L-4,65 L-14,60 L-29,55 L-36,53 L-36,50 L-18,45 L-8,40 L-4,32 L-1,11 Z " fill="#F5F5F3" transform="translate(677,1086)"/>
<path d="M0,0 L4,3 L5,11 L7,12 L7,19 L9,19 L10,24 L13,25 L13,33 L16,33 L18,42 L22,51 L24,57 L26,57 L26,59 L29,58 L28,63 L30,63 L32,71 L34,72 L37,77 L39,83 L42,86 L43,91 L47,99 L47,101 L50,100 L53,103 L51,107 L39,112 L33,114 L28,107 L26,102 L21,97 L20,94 L19,92 L20,90 L17,89 L14,80 L14,76 L12,76 L11,73 L8,71 L7,66 L8,64 L5,64 L1,58 L1,52 L-2,44 L-2,40 L-4,40 L-4,31 L-3,30 L-2,2 Z M3,58 Z " fill="#030404" transform="translate(652,1522)"/>
<path d="M0,0 L3,0 L7,13 L7,39 L4,49 L1,49 L1,51 L-9,52 L-22,52 L-40,50 L-52,47 L-51,44 L-35,37 L-21,27 L-10,16 L-3,6 Z " fill="#A2A2A1" transform="translate(558,1555)"/>
<path d="M0,0 L2,0 L7,12 L6,20 L0,25 L-2,25 L-3,28 L-6,28 L-6,30 L-8,30 L-8,32 L-14,36 L-16,36 L-16,38 L-22,40 L-22,42 L-24,42 L-24,44 L-34,51 L-39,54 L-41,54 L-43,58 L-45,58 L-46,53 L-46,36 L-38,29 L-31,24 L-26,21 L-17,13 L-12,10 L-10,10 L-8,6 Z " fill="#030303" transform="translate(1487,1569)"/>
<path d="M0,0 L3,2 L0,3 L-5,8 L-11,9 L-11,11 L-20,17 L-25,18 L-26,21 L-31,26 L-33,26 L-32,21 L-28,19 L-27,16 L-23,15 L-18,9 L-17,7 L-38,10 L-45,14 L-48,14 L-50,18 L-53,20 L-59,22 L-64,27 L-66,33 L-71,33 L-71,36 L-77,41 L-84,45 L-93,50 L-104,59 L-115,68 L-125,77 L-135,86 L-139,90 L-141,90 L-141,92 L-149,99 L-163,111 L-168,116 L-170,116 L-172,120 L-177,125 L-184,135 L-196,153 L-205,166 L-218,184 L-227,197 L-232,208 L-237,228 L-239,226 L-233,203 L-227,192 L-223,187 L-215,176 L-207,165 L-205,161 L-203,161 L-201,156 L-193,144 L-186,133 L-184,133 L-182,128 L-175,119 L-168,112 L-157,103 L-144,91 L-142,91 L-142,89 L-134,82 L-128,76 L-126,76 L-126,74 L-118,67 L-116,67 L-116,65 L-107,58 L-94,47 L-92,47 L-92,45 L-86,41 L-82,39 L-82,37 L-73,30 L-55,16 L-42,6 L-26,3 L-6,1 Z " fill="#892927" transform="translate(512,1707)"/>
<path d="M0,0 L42,0 L69,3 L70,6 L61,8 L35,11 L-7,11 L-26,9 L-27,5 Z " fill="#D5B5B2" transform="translate(821,1396)"/>
<path d="M0,0 L4,5 L13,15 L27,25 L31,26 L34,25 L35,23 L33,32 L32,30 L23,29 L11,27 L-9,23 L-21,18 L-27,15 L-27,12 L-20,13 L-20,11 L-15,11 L-17,15 L-13,15 L-13,13 L-11,11 L-11,8 L-7,8 L-6,4 L-6,6 L-3,5 L-3,2 L-1,2 Z " fill="#CAC9C7" transform="translate(1452,1658)"/>
<path d="M0,0 L3,1 L1,1 L1,4 L-10,8 L-17,8 L-17,10 L-28,16 L-29,18 L-32,18 L-32,21 L-43,24 L-53,28 L-55,28 L-55,30 L-59,30 L-59,32 L-61,32 L-62,35 L-71,39 L-77,42 L-82,42 L-83,45 L-108,57 L-110,60 L-119,63 L-122,66 L-129,69 L-130,73 L-132,69 L-143,72 L-153,78 L-155,77 L-156,75 L-139,66 L-131,63 L-128,60 L-123,59 L-119,58 L-119,56 L-110,53 L-108,51 L-97,47 L-93,44 L-81,39 L-73,35 L-65,31 L-62,31 L-62,29 L-52,25 L-50,23 L-40,19 L-34,15 L-21,9 L-20,7 L-3,2 Z " fill="#4A2522" transform="translate(1382,1737)"/>
<path d="M0,0 L1,2 L-1,5 L-7,7 L-9,11 L-19,15 L-26,23 L-30,27 L-35,30 L-36,32 L-39,32 L-40,37 L-45,42 L-48,43 L-48,45 L-53,46 L-53,49 L-58,54 L-61,58 L-63,58 L-63,61 L-66,64 L-67,75 L-65,96 L-65,113 L-63,147 L-62,150 L-61,170 L-60,175 L-62,175 L-63,172 L-65,151 L-66,133 L-67,130 L-69,99 L-70,91 L-70,64 L-67,59 L-65,59 L-65,57 L-61,53 L-59,53 L-57,49 L-56,47 L-54,47 L-54,44 L-49,39 L-46,36 L-44,36 L-43,33 L-40,31 L-38,27 L-33,25 L-32,21 L-29,21 L-27,17 L-23,13 L-18,11 L-11,6 L-9,6 L-9,4 Z " fill="#442421" transform="translate(510,1712)"/>
<path d="M0,0 L2,1 L-1,4 L-2,7 L-7,9 L-8,11 L-12,12 L-13,14 L-17,14 L-17,16 L-20,19 L-27,23 L-31,23 L-31,26 L-36,27 L-38,30 L-48,34 L-50,37 L-52,37 L-53,39 L-57,40 L-57,43 L-65,47 L-70,49 L-74,51 L-74,61 L-72,61 L-68,70 L-68,76 L-66,76 L-62,86 L-58,94 L-53,106 L-49,118 L-47,124 L-45,124 L-42,129 L-39,140 L-36,151 L-34,151 L-33,161 L-35,160 L-39,151 L-41,143 L-48,125 L-53,114 L-58,103 L-64,87 L-71,72 L-74,63 L-78,55 L-78,50 L-67,43 L-60,39 L-57,39 L-57,37 L-42,28 L-32,21 L-13,9 Z " fill="#8E2D2A" transform="translate(1148,1866)"/>
<path d="M0,0 L5,0 L6,10 L6,19 L-39,19 L-36,16 L-31,13 L-20,10 L-20,8 L-4,2 Z " fill="#282828" transform="translate(841,2029)"/>
<path d="M0,0 L12,3 L36,10 L62,18 L62,19 L47,18 L44,16 L32,16 L33,13 L24,11 L18,10 L12,7 L7,6 L0,5 L-1,4 L-9,4 L-20,7 L-43,10 L-44,11 L-55,12 L-61,16 L-63,18 L-71,19 L-71,21 L-78,24 L-90,28 L-93,27 L-83,21 L-81,21 L-81,19 L-70,17 L-63,15 L-63,12 L-47,7 L-35,6 L-35,4 L-3,1 Z " fill="#942B29" transform="translate(1446,1726)"/>
<path d="M0,0 L4,2 L7,5 L7,7 L9,7 L16,15 L20,18 L20,21 L18,21 L18,23 L7,29 L2,32 L0,32 L0,34 L-4,35 L-4,37 L-9,38 L-6,26 L-2,13 Z " fill="#060606" transform="translate(1379,1636)"/>
<path d="M0,0 L2,1 L-11,13 L-20,20 L-31,29 L-41,38 L-51,47 L-55,51 L-57,51 L-57,53 L-65,60 L-79,72 L-84,77 L-86,77 L-88,81 L-93,86 L-100,96 L-112,114 L-121,127 L-134,145 L-143,158 L-148,169 L-153,189 L-155,187 L-149,164 L-143,153 L-139,148 L-131,137 L-123,126 L-121,122 L-119,122 L-117,117 L-109,105 L-102,94 L-100,94 L-98,89 L-91,80 L-84,73 L-73,64 L-60,52 L-58,52 L-58,50 L-50,43 L-44,37 L-42,37 L-42,35 L-34,28 L-32,28 L-32,26 L-23,19 L-10,8 L-8,8 L-8,6 L-2,2 Z " fill="#F3C9C6" transform="translate(428,1746)"/>
<path d="M0,0 L2,0 L8,16 L8,21 L6,22 L5,25 L-3,29 L-6,32 L-8,32 L-8,30 L-10,30 L-10,15 L-8,8 Z " fill="#080808" transform="translate(1457,1491)"/>
<path d="M0,0 L3,0 L3,6 L2,8 L1,39 L-5,37 L-11,32 L-14,27 L-13,19 L-8,13 L-6,8 L-4,8 L-2,3 Z " fill="#D6B7B3" transform="translate(790,1263)"/>
<path d="M0,0 L5,1 L6,3 L42,13 L64,20 L82,25 L97,29 L113,35 L110,36 L89,30 L89,32 L92,32 L92,34 L83,32 L79,31 L75,29 L73,25 L69,26 L65,26 L57,26 L53,28 L52,23 L52,21 L56,20 L29,12 L4,5 L-2,3 Z " fill="#9E3632" transform="translate(1450,1724)"/>
<path d="M0,0 L5,0 L6,3 L8,3 L13,8 L13,10 L17,11 L18,14 L22,16 L28,20 L28,22 L34,24 L38,28 L46,31 L45,34 L44,32 L39,31 L35,35 L33,38 L29,33 L29,31 L24,30 L18,23 L15,20 L14,16 L12,16 L5,6 L5,4 L1,2 Z " fill="#EFE3E1" transform="translate(683,987)"/>
<path d="M0,0 L4,2 L5,10 L4,6 L2,5 L2,3 L-2,4 L-18,12 L-21,12 L-22,15 L-29,17 L-30,20 L-41,26 L-48,31 L-50,34 L-53,34 L-53,36 L-58,39 L-65,42 L-67,42 L-67,44 L-69,44 L-69,46 L-71,46 L-71,48 L-80,53 L-84,55 L-87,57 L-93,60 L-95,59 L-80,48 L-64,38 L-52,30 L-43,24 L-41,24 L-41,22 L-31,16 L-22,10 L-16,7 L-9,3 Z " fill="#912D2C" transform="translate(1248,1805)"/>
<path d="M0,0 L3,3 L10,15 L15,24 L27,46 L36,61 L43,75 L48,84 L47,88 L44,82 L42,84 L41,82 L39,83 L38,77 L34,66 L34,63 L32,63 L31,57 L29,57 L27,53 L24,51 L24,47 L22,47 L23,43 L11,22 L11,20 L7,20 L3,9 L0,9 L-1,4 Z " fill="#BF716E" transform="translate(1730,1888)"/>
<path d="M0,0 L4,3 L7,34 L9,42 L10,52 L11,53 L14,75 L18,91 L23,115 L26,123 L28,124 L27,126 L24,125 L24,123 L22,123 L22,120 L20,120 L19,108 L16,94 L15,93 L13,83 L10,72 L7,52 L6,50 L3,19 L1,4 Z " fill="#8C2E2B" transform="translate(447,1889)"/>
<path d="M0,0 L2,0 L4,2 L5,4 L4,7 L9,6 L11,4 L16,6 L12,9 L-8,20 L-15,23 L-14,18 L-6,1 L-5,4 L0,5 Z " fill="#C7C8C8" transform="translate(1187,1475)"/>
<path d="M0,0 L11,1 L21,5 L30,12 L35,18 L40,23 L45,27 L51,35 L56,39 L56,41 L58,41 L67,52 L72,57 L85,70 L94,82 L93,84 L84,73 L69,58 L62,50 L46,33 L36,23 L29,15 L22,9 L14,5 L0,1 Z " fill="#F4CAC7" transform="translate(1620,1776)"/>
<path d="M0,0 L2,1 L0,5 L2,6 L2,8 L-5,9 L-6,11 L-14,14 L-18,14 L-18,16 L-21,17 L-25,17 L-28,21 L-35,23 L-40,23 L-44,24 L-45,22 L-6,3 Z M-23,16 Z " fill="#393732" transform="translate(1110,1456)"/>
<path d="M0,0 L7,1 L37,9 L50,13 L50,15 L61,17 L70,21 L78,27 L86,35 L84,37 L78,32 L69,26 L69,24 L64,23 L64,21 L54,20 L47,18 L43,17 L43,15 L45,14 L24,8 L2,2 Z " fill="#BD7672" transform="translate(1570,1762)"/>
<path d="M0,0 L2,0 L0,4 L-5,10 L-7,10 L-7,12 L-9,13 L-11,17 L-11,44 L-9,67 L-8,83 L-8,97 L-9,97 L-9,92 L-11,91 L-10,85 L-12,84 L-12,76 L-13,74 L-13,46 L-15,46 L-15,44 L-13,44 L-14,41 L-15,26 L-13,16 L-10,10 L-2,3 Z " fill="#962F2C" transform="translate(452,1759)"/>
<path d="M0,0 L6,0 L2,4 L-9,11 L-23,20 L-35,28 L-48,37 L-55,41 L-60,43 L-60,41 L-58,41 L-57,37 L-51,34 L-46,32 L-46,30 L-36,25 L-34,25 L-33,22 L-30,22 L-30,20 L-27,20 L-27,18 L-23,18 L-23,16 L-20,16 L-20,14 L-14,12 L-14,10 L-8,6 L-5,6 L-3,2 Z " fill="#230303" transform="translate(1199,1829)"/>
<path d="M0,0 L2,0 L2,2 L-1,2 L-2,5 L-8,9 L-11,10 L-13,12 L-21,15 L-24,18 L-32,21 L-39,24 L-42,24 L-43,27 L-47,28 L-54,31 L-64,35 L-67,36 L-67,34 L-42,22 L-41,20 L-32,17 L-27,14 L-21,12 L-20,10 L-18,10 L-18,8 L-14,8 L-14,6 Z M-45,27 Z " fill="#9B2D2B" transform="translate(1341,1759)"/>
<path d="M0,0 L1,0 L1,11 L5,10 L5,13 L1,14 L4,15 L3,20 L-2,25 L-3,27 L-6,27 L-7,29 L-7,25 L-13,24 L-15,25 L-15,21 L-18,18 L-1,10 L-1,1 Z M-15,18 L-14,20 L-13,18 Z " fill="#2A2D2B" transform="translate(542,1685)"/>
<path d="M0,0 L2,4 L7,35 L11,65 L11,71 L8,71 L6,61 L4,52 L3,46 L5,46 L5,43 L4,35 L3,35 L2,28 L1,24 L-1,24 L-1,18 L-3,12 L-2,10 L0,10 L0,8 Z " fill="#BB6F6E" transform="translate(1778,1977)"/>
<path d="M0,0 L1,2 L-2,8 L0,8 L0,12 L-5,11 L-6,15 L-11,17 L-12,21 L-15,24 L-17,27 L-18,32 L-24,34 L-26,38 L-28,38 L-29,41 L-31,40 L-18,20 L-9,8 L-1,1 Z M-22,33 Z " fill="#AE2B2A" transform="translate(347,1819)"/>
<path d="M0,0 L16,3 L18,5 L10,7 L-2,10 L-18,16 L-20,16 L-20,14 L-27,16 L-26,13 L-19,11 L-13,7 L-9,6 L1,5 Z M-12,8 L-12,10 L-10,10 L-10,8 Z M-13,10 Z " fill="#F0E4E2" transform="translate(998,1030)"/>
<path d="M0,0 L3,1 L2,3 L3,21 L4,31 L4,47 L6,81 L7,84 L8,104 L9,109 L7,109 L6,106 L4,85 L3,67 L2,64 L0,19 Z " fill="#531D1B" transform="translate(441,1778)"/>
<path d="M0,0 L2,1 L5,8 L5,12 L7,12 L15,30 L16,32 L11,33 L7,29 L5,31 L2,16 L0,8 Z M8,33 L11,34 Z " fill="#A2A29F" transform="translate(497,1251)"/>
<path d="M0,0 L6,1 L15,5 L21,7 L30,8 L29,12 L16,11 L13,10 L12,12 L7,11 L7,9 L2,9 L-4,7 L-4,5 L-1,5 Z " fill="#F5F3EF" transform="translate(662,1208)"/>
<path d="M0,0 L3,1 L-2,4 L-1,11 L3,19 L7,31 L11,39 L12,47 L2,48 L6,46 L7,42 L4,35 L2,26 L-1,21 L-2,17 L-4,17 L-6,11 L-6,2 Z " fill="#240504" transform="translate(1073,1912)"/>
<path d="M0,0 L2,0 L2,2 L7,3 L8,7 L10,6 L8,5 L8,3 L10,3 L10,1 L12,1 L12,5 L15,5 L21,22 L21,24 L19,24 L14,18 L3,9 L-3,2 Z " fill="#735F69" transform="translate(569,1118)"/>
<path d="M0,0 L2,1 L2,4 L5,4 L8,10 L9,13 L56,13 L56,14 L11,14 L17,22 L17,24 L13,22 L7,16 L3,14 L-2,11 L-3,8 L-6,7 L-11,1 L-8,1 L-8,3 L-4,5 L-1,7 L-1,9 L1,7 Z " fill="#DED9D2" transform="translate(629,1037)"/>
<path d="M0,0 L2,1 L-12,13 L-19,18 L-22,26 L-27,26 L-27,29 L-33,34 L-40,38 L-45,41 L-47,40 L-39,33 L-38,30 L-29,23 L-11,9 Z " fill="#C07773" transform="translate(468,1714)"/>
<path d="M0,0 L2,1 L4,23 L8,43 L10,57 L12,64 L14,77 L15,81 L15,90 L14,90 L10,72 L7,56 L6,47 L5,46 L3,31 L1,18 Z " fill="#4D1E1C" transform="translate(451,1895)"/>
<path d="M0,0 L6,0 L6,3 L4,4 L4,6 L-5,11 L-14,16 L-16,15 L-14,11 L-13,7 L-15,5 Z M-12,6 Z " fill="#11100E" transform="translate(955,1521)"/>
<path d="M0,0 L3,0 L3,6 L-8,8 L-20,9 L-32,9 L-32,11 L-52,15 L-58,16 L-55,12 L-46,11 L-37,8 L-31,7 L-22,6 L-11,6 L-11,4 L-8,3 L-1,3 Z " fill="#492321" transform="translate(1443,1721)"/>
<path d="M0,0 L5,1 L17,9 L31,18 L28,23 L28,25 L22,26 L23,20 L22,16 L18,13 L14,13 L14,15 L10,15 L9,12 L10,10 L8,9 L8,6 L4,4 L0,2 Z " fill="#201D1B" transform="translate(751,1487)"/>
<path d="M0,0 L4,2 L10,6 L28,24 L35,32 L39,37 L34,36 L33,38 L31,34 L29,33 L26,26 L20,22 L20,20 L18,20 L18,18 L16,18 L9,10 L4,6 Z " fill="#9E312F" transform="translate(1648,1794)"/>
<path d="M0,0 L1,3 L-2,9 L-4,10 L-4,15 L-9,20 L-10,27 L-9,29 L-14,29 L-20,34 L-23,33 L-14,20 L-5,7 Z M-8,20 Z M-9,21 Z " fill="#A53836" transform="translate(315,1860)"/>
<path d="M0,0 L0,3 L-25,15 L-27,18 L-36,21 L-39,24 L-46,27 L-47,31 L-49,27 L-56,28 L-56,26 L-42,21 L-31,15 L-26,14 L-26,12 L-11,6 Z " fill="#6A221F" transform="translate(1299,1779)"/>
<path d="M0,0 L6,0 L11,5 L14,7 L14,9 L17,9 L20,12 L22,8 L24,8 L23,11 L21,11 L21,15 L24,15 L27,19 L27,21 L31,22 L32,24 L30,24 L29,26 L18,16 L8,8 L0,1 Z M26,17 Z " fill="#E4D7D2" transform="translate(686,1434)"/>
<path d="M0,0 L1,0 L0,10 L-3,23 L-5,37 L-6,34 L-12,36 L-9,25 L-1,1 Z " fill="#A5A4A3" transform="translate(576,664)"/>
<path d="M0,0 L1,4 L1,7 L3,7 L3,4 L6,4 L5,9 L5,13 L4,25 L0,25 L-1,20 L-2,42 L-3,42 L-3,16 Z " fill="#3F3F3E" transform="translate(631,1090)"/>
<path d="M0,0 L1,3 L-8,16 L-21,34 L-30,47 L-35,58 L-40,78 L-42,76 L-36,53 L-30,42 L-26,37 L-18,26 L-10,15 L-8,11 L-6,11 L-4,6 Z " fill="#F7D0CD" transform="translate(315,1857)"/>
<path d="M0,0 L3,4 L6,14 L10,22 L14,34 L16,43 L13,43 L10,33 L10,30 L8,30 L6,27 L5,25 L4,16 L2,16 L0,9 Z " fill="#44221F" transform="translate(1105,2005)"/>
<path d="M0,0 L1,4 L-3,19 L-7,33 L-8,44 L-9,49 L-10,59 L-11,61 L-15,61 L-14,51 L-12,46 L-12,41 L-10,41 L-9,30 L-7,25 L-2,7 Z " fill="#BF7A77" transform="translate(260,1987)"/>
<path d="M0,0 L5,0 L3,3 L2,7 L-17,11 L-23,11 L-20,7 L-10,5 L-5,2 Z M-34,10 L-27,10 L-23,12 L-35,12 Z " fill="#F3F0ED" transform="translate(1096,1196)"/>
<path d="M0,0 L1,0 L3,13 L3,32 L2,32 L2,19 L-3,18 L-5,13 L-5,10 L-9,11 L-9,7 L-4,8 L-5,4 L-2,1 L-2,4 L0,4 Z M-1,19 Z " fill="#282828" transform="translate(730,1117)"/>
<path d="M0,0 L2,1 L-1,6 L-3,6 L-5,10 L-7,10 L-7,13 L-12,18 L-15,22 L-17,22 L-17,25 L-20,28 L-21,30 L-23,30 L-22,49 L-22,63 L-23,63 L-24,55 L-24,28 L-21,23 L-19,23 L-19,21 L-15,17 L-13,17 L-11,13 L-10,11 L-8,11 L-8,8 L-3,3 Z " fill="#6C2A26" transform="translate(464,1748)"/>
<path d="M0,0 L3,1 L3,6 L16,6 L16,7 L-13,9 L-20,8 L-21,6 L-5,2 Z " fill="#D8D8D7" transform="translate(497,1666)"/>
<path d="M0,0 L1,4 L-8,14 L-14,18 L-12,19 L-11,25 L-13,26 L-13,24 L-18,25 L-18,27 L-24,25 L-26,24 L-14,15 L-4,5 Z " fill="#AFAFAD" transform="translate(552,1566)"/>
<path d="M0,0 L3,2 L7,14 L6,18 L4,16 L1,22 L1,26 L-1,26 L-2,31 L-3,31 L-2,16 Z " fill="#D3D3D2" transform="translate(677,1086)"/>
<path d="M0,0 L2,2 L9,20 L16,37 L21,49 L20,52 L16,46 L13,38 L10,28 L6,20 L5,17 L3,17 L-1,6 L1,6 Z " fill="#4E1F1E" transform="translate(1084,1953)"/>
<path d="M0,0 L5,1 L6,3 L42,13 L64,20 L60,21 L29,12 L4,5 L-2,3 Z " fill="#ECC2C1" transform="translate(1450,1724)"/>
<path d="M0,0 L2,0 L-1,12 L-2,10 L-7,9 L-11,14 L-17,19 L-23,20 L-24,17 L-12,9 L-1,1 Z " fill="#383431" transform="translate(1208,1397)"/>
<path d="M0,0 L16,4 L25,6 L25,9 L8,16 L5,16 L5,14 L7,14 L7,12 L10,12 L10,10 L13,10 L12,6 L10,5 L0,4 Z " fill="#EBEBE9" transform="translate(699,1128)"/>
<path d="M0,0 L1,0 L2,7 L1,12 L1,23 L-3,31 L-5,38 L-7,34 L-5,25 L-4,15 L-2,3 L0,3 Z " fill="#AB5553" transform="translate(264,1971)"/>
<path d="M0,0 L5,2 L14,7 L14,9 L-35,9 L-35,8 L1,7 L-1,6 Z " fill="#C9C0C2" transform="translate(1098,1034)"/>
<path d="M0,0 L2,1 L-8,8 L-24,18 L-34,25 L-36,24 L-33,21 L-26,15 L-24,15 L-24,13 L-22,13 L-22,11 L-18,9 L-14,9 L-14,7 L-11,5 L-7,5 L-7,3 Z " fill="#260403" transform="translate(1137,1872)"/>
<path d="M0,0 L5,4 L7,8 L9,9 L8,13 L6,9 L0,10 L0,13 L-2,13 L-2,10 L-5,9 L-6,11 L-9,11 L-11,11 L-12,13 L-13,9 L-4,4 L-2,4 L-2,2 L0,2 Z " fill="#242422" transform="translate(1399,1655)"/>
<path d="M0,0 L1,0 L2,8 L1,10 L3,10 L3,12 L7,10 L10,12 L9,16 L7,16 L7,18 L9,18 L9,22 L5,22 L4,25 L1,24 L3,19 L1,19 L-1,16 L-1,6 Z " fill="#242424" transform="translate(1446,1511)"/>
<path d="M0,0 L9,1 L5,4 L-14,13 L-17,11 L-16,8 L-10,6 L-10,4 L-5,4 L-4,1 Z " fill="#EFDFD8" transform="translate(1125,1443)"/>
<path d="M0,0 L2,2 L5,17 L8,32 L9,37 L8,39 L10,40 L7,40 L5,29 L2,32 L0,25 L1,23 L4,22 L1,22 L-1,17 L0,12 L2,12 L-1,1 Z M2,24 Z " fill="#9C221F" transform="translate(1275,1957)"/>
<path d="M0,0 L3,3 L10,15 L15,24 L25,42 L24,44 L13,25 L11,20 L7,20 L3,9 L0,9 L-1,4 Z " fill="#D49998" transform="translate(1730,1888)"/>
<path d="M0,0 L4,1 L-7,10 L-20,20 L-21,17 L-26,19 L-26,17 L-20,15 L-15,10 L-11,7 L-9,7 L-8,5 L-7,3 L-1,1 Z " fill="#C3C3C0" transform="translate(1240,1451)"/>
<path d="M0,0 L4,1 L12,6 L12,9 L10,9 L10,11 L8,11 L6,15 L4,15 L4,13 L0,11 L-3,8 L-3,3 L-2,5 L0,5 L0,7 L2,7 L4,9 L4,5 L0,4 Z " fill="#D2D2D0" transform="translate(1165,935)"/>
<path d="M0,0 L11,1 L26,6 L22,7 L13,6 L8,5 L5,6 L-1,6 L-5,8 L-6,3 L-6,1 Z " fill="#A6322F" transform="translate(1508,1744)"/>
<path d="M0,0 L3,2 L3,4 L7,6 L17,13 L22,19 L22,21 L25,21 L25,23 L30,24 L30,25 L23,25 L17,19 L17,17 L15,17 L15,15 L12,16 L8,11 L3,7 L3,5 L0,4 Z " fill="#8B2F2A" transform="translate(484,2023)"/>
<path d="M0,0 L1,0 L1,9 L-3,22 L-1,18 L1,19 L-3,34 L-4,37 L-8,36 L-7,29 L-3,11 Z " fill="#AA4542" transform="translate(273,1935)"/>
<path d="M0,0 L2,2 L1,4 L6,6 L10,7 L10,9 L17,7 L23,7 L23,9 L30,9 L26,11 L20,12 L11,12 L-3,6 L-2,2 Z " fill="#DFD5D2" transform="translate(848,1534)"/>
<path d="M0,0 L5,1 L15,6 L13,7 L13,12 L11,14 L13,20 L9,19 L8,14 L9,12 L7,12 L5,8 L3,4 L0,2 Z " fill="#151412" transform="translate(795,1515)"/>
<path d="M0,0 L1,4 L-3,21 L-8,26 L-13,24 L-16,21 L-8,23 L-10,17 L-7,18 L-6,11 L-4,8 L-3,9 L-3,5 L-1,5 Z " fill="#353636" transform="translate(1491,1659)"/>
<path d="M0,0 L2,1 L0,3 L1,5 L6,2 L4,6 L3,8 L1,8 L1,10 L4,11 L-5,10 L-13,8 L-12,5 Z " fill="#A9AAA7" transform="translate(519,1594)"/>
<path d="M0,0 L1,0 L0,10 L-6,38 L-8,46 L-8,52 L-11,52 L-9,36 L-5,20 L-1,2 Z " fill="#B2B1B2" transform="translate(543,1013)"/>
<path d="M0,0 Z M-2,1 L0,2 L-1,7 L0,6 L2,6 L0,10 L-1,11 L3,12 L2,15 L5,16 L4,19 L-5,14 L-12,9 L-10,7 L-4,7 L-4,2 Z " fill="#E9DAD4" transform="translate(756,1472)"/>
<path d="M0,0 L4,2 L10,10 L15,15 L18,21 L18,23 L12,21 L10,16 L8,16 L6,9 L0,7 Z " fill="#AA5151" transform="translate(1703,1849)"/>
<path d="M0,0 L2,1 L1,3 L3,4 L-2,7 L-4,9 L-6,8 L-7,12 L-8,15 L-13,16 L-16,19 L-13,10 L-4,2 Z " fill="#2B2B2B" transform="translate(1097,1125)"/>
<path d="M0,0 L5,3 L10,14 L10,17 L5,18 L5,14 L0,13 L-1,1 Z " fill="#2C2C2C" transform="translate(670,1149)"/>
<path d="M0,0 L4,5 L12,19 L11,22 L8,23 L6,26 L3,19 L4,14 L3,9 L1,8 Z " fill="#9B3030" transform="translate(1740,1908)"/>
<path d="M0,0 L1,4 L-1,7 L6,6 L8,5 L6,9 L4,13 L2,13 L1,16 L-3,18 L-4,20 L-7,19 L-6,15 L-2,15 L-2,13 L-5,14 L-3,10 L-2,4 Z " fill="#232323" transform="translate(1371,1667)"/>
<path d="M0,0 L2,0 L2,13 L1,13 L0,5 L-2,8 L-2,13 L-3,11 L-6,13 L-14,15 L-16,13 Z " fill="#343432" transform="translate(1245,1450)"/>
<path d="M0,0 L2,3 L1,5 L4,5 L6,8 L5,15 L0,17 L-4,16 L-3,10 Z M5,5 Z " fill="#C8C7C6" transform="translate(1206,1409)"/>
<path d="M0,0 L2,0 L2,39 L1,39 L0,16 L-4,15 L-5,17 L-6,14 Z " fill="#ECE2DE" transform="translate(1224,1235)"/>
<path d="M0,0 L4,5 L9,13 L9,20 L6,20 L6,17 L4,20 L3,17 L0,18 L-2,17 L-1,15 L3,15 L2,14 L2,7 L-2,6 L0,6 Z " fill="#A33431" transform="translate(1721,1872)"/>
<path d="M0,0 L4,1 L1,3 L2,5 L-16,13 L-18,13 L-18,10 L-19,8 L-12,6 L-12,4 L-10,5 L-11,7 L-9,7 L-9,5 L-7,5 L-7,3 Z " fill="#ECDFD8" transform="translate(1065,1473)"/>
<path d="M0,0 L3,0 L3,3 L5,3 L5,7 L7,7 L7,11 L11,12 L4,13 L1,14 L1,16 L-1,15 L-2,13 L-1,10 L-3,9 L0,4 Z M-2,16 Z " fill="#1D1D1D" transform="translate(824,1567)"/>
<path d="M0,0 L2,4 L4,16 L5,34 L3,35 L2,28 L1,24 L-1,24 L-1,18 L-3,12 L-2,10 L0,10 L0,8 Z " fill="#B66262" transform="translate(1778,1977)"/>
<path d="M0,0 L4,1 L8,3 L13,3 L14,1 L14,5 L17,5 L18,2 L22,10 L22,12 L17,11 L-1,2 Z " fill="#755D64" transform="translate(738,1096)"/>
<path d="M0,0 Z M-2,1 L4,3 L0,6 L-13,12 L-15,12 L-18,9 L-18,7 L-11,6 L-10,4 Z " fill="#C9C8C4" transform="translate(563,1654)"/>
<path d="M0,0 L1,2 L3,2 L5,7 L7,8 L6,10 L-3,15 L-6,14 L-6,12 L-4,12 L-5,7 L-2,7 L-1,2 Z " fill="#1B1D1B" transform="translate(763,1592)"/>
<path d="M0,0 L49,0 L49,1 L4,1 L10,9 L10,11 L6,9 L-1,2 Z " fill="#B8A8AA" transform="translate(636,1050)"/>
<path d="M0,0 L3,1 L2,3 L3,21 L4,31 L3,46 L2,46 L1,41 L0,19 Z " fill="#361E1D" transform="translate(441,1778)"/>
<path d="M0,0 L3,0 L8,0 L6,3 L8,5 L-4,9 L-8,10 L-8,8 L-15,10 L-14,7 L-7,5 L-1,1 Z M0,2 L0,4 L2,4 L2,2 Z M-1,4 Z " fill="#EBDCD7" transform="translate(986,1036)"/>
<path d="M0,0 L2,1 L6,4 L6,7 L13,9 L14,11 L18,12 L17,16 L14,19 L11,17 L10,13 L2,7 L0,3 Z " fill="#EAE2DF" transform="translate(803,978)"/>
<path d="M0,0 L2,1 L0,7 L-5,10 L-8,15 L-16,22 L-19,26 L-21,26 L-21,29 L-23,29 L-22,25 L-21,23 L-19,23 L-18,20 L-16,20 L-14,16 L-10,14 L-8,10 L-6,7 L-4,7 L-4,4 L-1,3 Z " fill="#982F2A" transform="translate(477,1730)"/>
<path d="M0,0 L6,1 L6,3 L8,5 L-6,10 L-10,9 L-9,5 L-4,2 L-1,2 Z " fill="#EADED8" transform="translate(977,1507)"/>
<path d="M0,0 L2,3 L-1,7 L-6,7 L-8,11 L-15,18 L-20,19 L-23,19 L-9,7 Z " fill="#9A3734" transform="translate(420,1755)"/>
<path d="M0,0 L5,2 L15,9 L21,12 L21,17 L9,11 L8,8 L4,7 L4,4 L0,2 Z " fill="#333330" transform="translate(1404,1660)"/>
<path d="M0,0 L9,6 L11,9 L10,14 L9,20 L11,21 L8,21 L4,10 L2,4 L-1,4 Z " fill="#21201D" transform="translate(716,1460)"/>
<path d="M0,0 L4,1 L1,1 L1,3 L3,4 L-1,5 L0,11 L-11,5 L-13,4 L-13,2 Z M0,6 Z " fill="#735F67" transform="translate(1106,1027)"/>
<path d="M0,0 L12,3 L14,5 L-9,4 L-20,7 L-27,7 L-27,5 L-3,1 Z " fill="#8B3533" transform="translate(1446,1726)"/>
<path d="M0,0 L2,1 L-3,7 L-10,10 L-17,10 L-19,9 L-19,11 L-23,9 L-2,1 Z " fill="#44413C" transform="translate(1016,1499)"/>
<path d="M0,0 L11,0 L13,2 L8,5 L-4,9 L-6,9 L-6,7 L-8,7 L-8,5 L0,5 Z " fill="#E0DFDE" transform="translate(1114,1111)"/>
<path d="M0,0 L4,0 L4,3 L9,5 L13,10 L18,13 L18,15 L21,15 L21,17 L23,17 L23,19 L27,21 L28,24 L23,22 L14,15 L7,7 L3,5 L2,1 Z " fill="#43211E" transform="translate(473,2012)"/>
<path d="M0,0 L4,1 L-3,7 L-10,11 L-15,14 L-17,14 L-17,16 L-20,15 L-18,12 L-16,12 L-16,10 L-14,10 L-14,8 L-3,2 L0,2 Z " fill="#290606" transform="translate(1224,1813)"/>
<path d="M0,0 L3,2 L-8,4 L-34,7 L-42,7 L-38,5 L-9,1 L-2,1 Z " fill="#ECC4C3" transform="translate(512,1707)"/>
<path d="M0,0 L1,0 L1,11 L5,10 L5,13 L1,14 L4,15 L3,17 L-4,18 L-3,14 L-9,15 L-11,19 L-15,18 L-16,20 L-18,18 L-1,10 L-1,1 Z " fill="#5C5E5A" transform="translate(542,1685)"/>
<path d="M0,0 L4,0 L2,4 L-5,8 L-8,11 L-12,11 L-10,6 L-13,4 Z " fill="#1E1C1A" transform="translate(971,1516)"/>
<path d="M0,0 L4,4 L6,5 L2,9 L0,9 L-1,11 L-5,13 L-8,12 L-7,8 L-3,3 Z " fill="#F7F5EF" transform="translate(719,1198)"/>
<path d="M0,0 L10,2 L11,4 L0,10 L-4,9 L-5,7 L-2,4 L0,3 Z " fill="#E8DBD6" transform="translate(1123,1013)"/>
<path d="M0,0 L4,1 L11,4 L11,6 L16,7 L16,9 L12,9 L12,11 L14,11 L14,13 L16,13 L16,15 L12,14 L10,9 L8,9 L8,7 L4,7 L0,2 Z " fill="#E5DEDC" transform="translate(797,1018)"/>
<path d="M0,0 L2,1 L5,8 L5,12 L7,12 L9,18 L6,17 L4,22 L3,22 L0,8 Z " fill="#ABABA9" transform="translate(497,1251)"/>
<path d="M0,0 L5,0 L6,3 L8,3 L13,8 L13,10 L17,11 L18,14 L21,15 L18,16 L14,12 L10,13 L5,6 L5,4 L1,2 Z " fill="#E7DFDC" transform="translate(683,987)"/>
<path d="M0,0 L10,1 L9,7 L5,12 L4,7 L1,5 L-2,5 L-1,1 Z " fill="#3F3F3F" transform="translate(1474,1687)"/>
<path d="M0,0 L3,1 L-4,10 L-11,17 L-12,14 L-14,14 L-14,12 L-12,12 L-12,10 L-6,7 L-2,1 Z " fill="#AFAFAF" transform="translate(1545,1611)"/>
<path d="M0,0 L2,0 L2,4 L4,4 L5,2 L7,4 L9,6 L14,7 L18,8 L18,10 L20,10 L22,15 L16,13 L4,6 L-2,3 L0,2 Z " fill="#E6DCD8" transform="translate(799,1512)"/>
<path d="M0,0 L8,1 L8,3 L-3,7 L-8,8 L-8,6 L-12,4 Z " fill="#312F2C" transform="translate(991,1509)"/>
<path d="M0,0 L2,3 L1,10 L3,11 L4,13 L-7,18 L-6,13 Z " fill="#BEBEBF" transform="translate(1179,1480)"/>
<path d="M0,0 L3,1 L2,3 L-5,5 L-5,7 L-9,7 L-9,9 L-19,13 L-28,18 L-32,17 L-23,12 L-15,8 L-12,8 L-12,6 L-2,2 Z " fill="#38221E" transform="translate(1332,1760)"/>
<path d="M0,0 L5,1 L10,3 L13,2 L14,0 L12,9 L11,7 L2,6 L-10,4 L-10,3 L0,1 Z " fill="#AEADAD" transform="translate(1473,1681)"/>
<path d="M0,0 L3,2 L10,16 L9,18 L6,19 L5,22 L3,14 L0,5 Z " fill="#AAA9A9" transform="translate(1328,787)"/>
<path d="M0,0 L1,0 L3,12 L5,26 L7,30 L7,34 L10,33 L10,36 L6,36 L2,25 L0,13 Z " fill="#250504" transform="translate(466,1976)"/>
<path d="M0,0 L5,0 L2,8 L5,9 L8,12 L8,17 L10,17 L9,19 L1,12 L-1,10 L-1,5 L-3,5 L-4,2 L0,4 Z " fill="#949592" transform="translate(1252,1548)"/>
<path d="M0,0 L2,3 L6,3 L5,7 L8,10 L6,10 L7,13 L2,11 L-6,6 L-2,4 Z " fill="#E8D8D2" transform="translate(766,1486)"/>
<path d="M0,0 L4,0 L3,7 L6,8 L6,9 L-22,9 L-22,7 L-3,7 L2,6 Z " fill="#DCD8D8" transform="translate(1094,1033)"/>
<path d="M0,0 L2,2 L4,9 L4,15 L1,14 L0,33 L-1,33 L-1,2 Z " fill="#E9E1DE" transform="translate(586,847)"/>
<path d="M0,0 L5,2 L8,5 L9,10 L12,13 L8,15 L5,14 L5,9 L3,10 L3,8 L1,8 Z " fill="#982A26" transform="translate(476,2017)"/>
<path d="M0,0 L3,4 L3,13 L4,23 L6,33 L7,37 L7,46 L6,46 L2,26 Z " fill="#342321" transform="translate(452,1892)"/>
<path d="M0,0 L1,2 L6,2 L7,7 L-4,10 L-7,10 L-8,6 L-2,6 L-3,3 L0,3 Z M7,3 Z " fill="#EEE2DE" transform="translate(940,1518)"/>
<path d="M0,0 L2,1 L0,5 L2,6 L2,8 L-5,9 L-7,11 L-8,7 L-12,9 L-16,8 Z " fill="#3E3B36" transform="translate(1110,1456)"/>
<path d="M0,0 L5,0 L9,2 L10,7 L3,5 L-25,3 L-25,2 L0,2 Z " fill="#E0D7D2" transform="translate(966,1031)"/>
<path d="M0,0 L2,0 L2,2 L-1,2 L-2,5 L-8,9 L-20,11 L-18,10 L-18,8 L-14,8 L-14,6 Z " fill="#802D2A" transform="translate(1341,1759)"/>
<path d="M0,0 L4,2 L7,5 L7,7 L9,8 L1,9 L2,14 L-2,17 Z " fill="#323133" transform="translate(1379,1636)"/>
<path d="M0,0 L1,0 L2,7 L2,32 L0,36 L-1,22 L-1,12 Z " fill="#AFAEAB" transform="translate(646,1518)"/>
<path d="M0,0 L9,0 L4,4 L-7,12 L-10,14 L-9,9 L-5,5 L-4,2 Z " fill="#ECDDDB" transform="translate(966,1047)"/>
<path d="M0,0 L5,5 L17,17 L14,18 L14,16 L11,15 L11,13 L7,13 L7,11 L4,10 L4,8 L0,6 L0,4 L-2,4 L-2,2 L0,2 Z " fill="#9C3432" transform="translate(1687,1831)"/>
<path d="M0,0 L6,1 L13,4 L24,7 L20,9 L14,8 L14,6 L8,7 L6,5 L-2,4 L-2,1 Z " fill="#A14A45" transform="translate(1563,1760)"/>
<path d="M0,0 L3,1 L-3,18 L-4,15 L-6,15 L-6,9 L-2,7 L-2,2 Z " fill="#313132" transform="translate(1193,1442)"/>
<path d="M0,0 L1,0 L1,6 L-3,8 L-3,11 L-5,12 L-8,18 L-11,19 L-11,22 L-15,22 L-13,17 L-10,16 L-10,12 L-6,11 L-5,7 Z " fill="#8C1A15" transform="translate(443,1857)"/>
<path d="M0,0 L2,0 L2,3 L-7,5 L-26,5 L-29,3 L-2,1 Z " fill="#1D1C1A" transform="translate(1086,1197)"/>
<path d="M0,0 L1,2 L-1,6 L-6,9 L-8,14 L-11,14 L-12,18 L-17,23 L-19,22 L-13,13 L-9,8 L-1,1 Z " fill="#993A37" transform="translate(347,1819)"/>
<path d="M0,0 L1,0 L1,5 L-4,6 L-7,7 L-8,11 L-14,13 L-17,10 L-3,2 Z M-17,12 Z " fill="#373836" transform="translate(1214,1474)"/>
<path d="M0,0 L6,5 L13,13 L17,18 L12,17 L11,19 L9,15 L7,14 L4,7 L1,5 Z " fill="#9F3A38" transform="translate(1670,1813)"/>
<path d="M0,0 L16,4 L19,6 L17,6 L17,8 L7,6 L-1,3 Z " fill="#952F2C" transform="translate(1544,1755)"/>
<path d="M0,0 L1,0 L0,19 L-2,19 L-6,10 L-4,6 L0,5 L-1,1 Z " fill="#E0E0E0" transform="translate(1077,1163)"/>
<path d="M0,0 L5,5 L8,10 L7,13 L2,11 L-1,10 L0,8 L-1,4 L-4,3 L-4,1 L0,2 Z " fill="#2D2C2C" transform="translate(1054,1139)"/>
<path d="M0,0 L2,1 L2,15 L3,16 L4,27 L5,31 L3,34 L0,21 L-1,1 Z " fill="#240504" transform="translate(448,1861)"/>
<path d="M0,0 L2,3 L6,16 L6,22 L4,22 L4,20 L2,20 L3,14 L0,15 L-1,6 Z " fill="#373637" transform="translate(1343,1635)"/>
<path d="M0,0 L5,1 L6,3 L11,2 L12,4 L14,7 L9,8 L5,7 L4,11 L0,2 Z M4,4 Z " fill="#1D1C1E" transform="translate(668,1559)"/>
<path d="M0,0 L4,0 L7,3 L10,4 L10,6 L13,6 L15,11 L9,9 L-2,3 L0,2 Z " fill="#DCD1CC" transform="translate(827,1527)"/>
<path d="M0,0 L6,0 L1,4 L-10,12 L-13,9 L-4,3 L-3,1 Z " fill="#EBDDDA" transform="translate(1199,1400)"/>
<path d="M0,0 L2,3 L5,9 L11,14 L18,14 L17,17 L8,16 L-1,7 L-2,2 L0,2 Z M2,2 Z " fill="#1C1C1A" transform="translate(653,1189)"/>
<path d="M0,0 L1,0 L1,8 L2,11 L0,11 L0,13 L3,14 L0,17 L-1,21 L-3,20 L-3,10 L-1,1 Z M3,11 L5,12 L3,13 Z " fill="#1C1C1B" transform="translate(1082,1143)"/>
<path d="M0,0 L4,5 L7,22 L7,29 L5,25 L5,19 L2,18 L2,6 L0,6 Z " fill="#903231" transform="translate(1773,1968)"/>
<path d="M0,0 L1,2 L-2,10 L-4,16 L-7,17 L-7,22 L-9,22 L-10,25 L-9,17 L-1,1 Z " fill="#9E3F3E" transform="translate(288,1898)"/>
<path d="M0,0 L2,0 L3,17 L2,21 L5,22 L4,29 L2,29 L1,27 L0,12 Z " fill="#362221" transform="translate(445,1832)"/>
<path d="M0,0 L2,0 L4,5 L-9,9 L-9,7 L-13,6 L-8,4 L-5,4 L-5,2 Z " fill="#EAE1DC" transform="translate(963,1513)"/>
<path d="M0,0 L7,1 L14,3 L14,6 L5,6 L-1,5 Z " fill="#DCD8D2" transform="translate(748,1045)"/>
<path d="M0,0 L3,2 L1,2 L0,6 L-1,8 L2,8 L1,10 L-7,10 L-12,11 L-12,9 L-9,9 L-9,7 L-4,5 L-4,3 L-1,2 Z " fill="#8B1A17" transform="translate(1524,1808)"/>
<path d="M0,0 L1,0 L1,7 L3,7 L4,14 L-4,16 L-3,9 Z " fill="#1E1D1F" transform="translate(647,1555)"/>
<path d="M0,0 L2,0 L2,3 L5,4 L-9,13 L-11,11 L-9,7 L-7,7 L-6,4 L-5,6 L-1,5 Z " fill="#ECDDD7" transform="translate(1176,1413)"/>
<path d="M0,0 L1,2 L-4,8 L-5,11 L-3,12 L-9,15 L-18,15 L-14,12 L-5,6 Z M-13,15 Z " fill="#DFDDD9" transform="translate(716,1199)"/>
<path d="M0,0 L3,0 L3,6 L2,8 L1,32 L0,32 L0,7 L1,5 L-5,10 L-6,8 L-4,8 L-2,3 Z " fill="#E4CAC6" transform="translate(790,1263)"/>
<path d="M0,0 L3,0 L3,6 L7,5 L8,2 L9,8 L7,8 L7,12 L4,12 L3,14 L0,8 Z " fill="#2C2D2C" transform="translate(640,1168)"/>
<path d="M0,0 L6,1 L1,5 L-3,11 L-5,19 L-7,15 L-5,14 L-6,10 L-4,10 L-5,8 L-7,7 L-5,3 L0,2 Z " fill="#E4E3E1" transform="translate(698,1143)"/>
<path d="M0,0 L2,2 L3,9 L3,28 L2,28 L2,15 L0,15 L-2,6 Z M-1,15 Z " fill="#3D3C3C" transform="translate(730,1121)"/>
<path d="M0,0 L6,1 L5,3 L-13,9 L-16,8 L-11,5 L-8,2 L0,2 Z " fill="#615157" transform="translate(976,1078)"/>
<path d="M0,0 L6,1 L27,7 L27,8 L19,8 L13,7 L13,5 L7,6 L5,5 L5,3 L0,2 Z " fill="#913631" transform="translate(1588,1768)"/>
<path d="M0,0 L8,0 L8,1 L-4,2 L-4,4 L-21,6 L-28,6 L-24,4 L-12,3 L-12,1 Z " fill="#752D2B" transform="translate(1423,1729)"/>
<path d="M0,0 L5,1 L9,10 L8,14 L7,12 L5,14 L2,7 L0,3 Z " fill="#323230" transform="translate(1125,1077)"/>
<path d="M0,0 L2,4 L2,9 L-4,11 L-6,15 L-8,15 L-9,18 L-11,17 Z M-2,10 Z " fill="#9D3533" transform="translate(327,1842)"/>
<path d="M0,0 L2,0 L3,13 L2,16 L-3,15 L-4,11 L-5,7 L-3,7 L-3,9 L-1,9 L-1,7 L1,7 Z M-2,11 Z " fill="#7A646D" transform="translate(1132,1017)"/>
<path d="M0,0 L2,0 L3,2 L8,0 L7,3 L5,3 L3,7 L-2,15 L-3,12 L-2,11 L-2,5 Z " fill="#C8C8C7" transform="translate(958,683)"/>
<path d="M0,0 L2,2 L-2,4 L-1,7 L-8,8 L-8,10 L-10,10 L-10,12 L-13,14 L-16,14 L-16,12 L-9,6 L-7,4 L-4,4 L-4,2 L0,2 Z " fill="#921C19" transform="translate(1519,1839)"/>
<path d="M0,0 L1,3 L-2,6 L-3,8 L-5,8 L-4,27 L-4,41 L-5,41 L-6,33 L-6,6 L-3,5 L-2,2 L0,2 Z " fill="#5A2421" transform="translate(446,1770)"/>
<path d="M0,0 L1,3 L-3,7 L-7,9 L-12,8 L-10,7 L-10,4 L-14,8 L-18,6 L-15,5 L-12,2 L-9,3 L-9,5 L-6,3 L-1,3 Z " fill="#3F3939" transform="translate(1456,1717)"/>
<path d="M0,0 L1,0 L2,26 L6,28 L1,35 L-1,34 Z " fill="#827F81" transform="translate(1350,1663)"/>
<path d="M0,0 L4,2 L9,11 L11,13 L6,12 L4,8 L4,5 L2,5 L1,11 L-1,10 L-3,2 Z " fill="#929391" transform="translate(1491,1565)"/>
<path d="M0,0 L6,0 L6,3 L4,3 L7,10 L8,11 L8,16 L6,13 L6,11 L4,11 L4,9 L2,8 L0,4 L-1,1 Z M5,15 L7,16 L8,20 L5,19 L3,19 Z " fill="#979895" transform="translate(1461,1488)"/>
<path d="M0,0 L9,1 L9,4 L-8,11 L-11,11 L-11,9 L-9,9 L-9,7 L-1,7 L-1,5 L2,5 L3,1 L0,2 Z " fill="#D3D2D2" transform="translate(715,1133)"/>
<path d="M0,0 L6,0 L5,6 L2,11 L-1,9 L-2,4 Z " fill="#E8E7E6" transform="translate(997,1076)"/>
<path d="M0,0 L2,0 L3,5 L10,3 L12,2 L11,5 L8,5 L7,14 L5,10 L3,10 L2,12 L0,4 Z " fill="#C4C4C2" transform="translate(1519,797)"/>
<path d="M0,0 L4,1 L3,2 L19,6 L25,9 L25,11 L18,9 L18,7 L8,6 L1,4 L-3,3 L-3,1 Z " fill="#A83533" transform="translate(1616,1776)"/>
<path d="M0,0 L2,2 L6,0 L2,9 L0,9 L-5,14 L-5,11 Z " fill="#C5C6C5" transform="translate(1189,1460)"/>
<path d="M0,0 L3,3 L6,4 L3,9 L4,14 L6,14 L7,20 L7,26 L5,22 L2,14 L0,4 Z " fill="#EADFDA" transform="translate(592,941)"/>
<path d="M0,0 L1,4 L-3,19 L-8,37 L-9,37 L-9,30 L-7,25 L-2,7 Z " fill="#F2CAC7" transform="translate(260,1987)"/>
<path d="M0,0 L1,0 L3,26 L3,38 L1,38 L0,35 Z " fill="#76221F" transform="translate(444,1845)"/>
<path d="M0,0 L10,1 L27,7 L29,9 L18,7 L0,1 Z " fill="#F2C6C4" transform="translate(1534,1751)"/>
<path d="M0,0 L4,1 L-1,5 L-5,5 L-6,8 L-11,13 L-13,13 L-12,8 L-8,6 L-7,3 Z " fill="#872A28" transform="translate(492,1720)"/>
<path d="M0,0 L3,2 L3,4 L-1,4 L-3,7 L-2,11 L-10,5 L-11,3 L-9,3 L-8,1 L-8,3 L-5,1 Z " fill="#C2C1BF" transform="translate(1407,1649)"/>
<path d="M0,0 L1,2 L3,3 L-3,14 L-7,12 L-6,9 L-5,5 Z " fill="#EFE1DD" transform="translate(937,1079)"/>
<path d="M0,0 L19,2 L19,3 L6,3 L16,5 L17,7 L7,6 L0,4 L2,2 Z M1,5 Z " fill="#77606B" transform="translate(1040,1039)"/>
<path d="M0,0 L0,3 L-25,15 L-28,14 L-26,14 L-26,12 L-11,6 Z " fill="#732B29" transform="translate(1299,1779)"/>
<path d="M0,0 L1,2 L5,2 L7,6 L6,8 L-2,8 L-3,10 L-4,20 L-5,20 L-5,6 L2,6 L4,5 L4,3 L-2,4 L-4,4 L-4,2 L0,2 Z " fill="#58484F" transform="translate(681,1077)"/>
<path d="M0,0 L2,1 L2,4 L-5,10 L-12,23 L-14,23 L-13,18 L-10,15 L-5,6 L-3,6 L-3,4 L-1,4 Z " fill="#931B19" transform="translate(1427,1896)"/>
<path d="M0,0 L4,1 L-4,6 L-6,6 L-6,8 L-19,14 L-17,10 L-10,7 L-8,7 L-8,4 L-4,4 L-4,2 Z " fill="#2A0403" transform="translate(1097,1897)"/>
<path d="M0,0 L3,0 L1,5 L-3,7 L-6,7 L-8,11 L-11,13 L-14,12 L-5,4 Z " fill="#9C3B34" transform="translate(470,1714)"/>
<path d="M0,0 L2,0 L2,2 L-1,5 L-3,10 L-7,10 L-9,7 L-8,4 Z " fill="#EBDAD6" transform="translate(943,1095)"/>
<path d="M0,0 L1,3 L-2,4 L-4,8 L-17,21 L-19,21 L-17,17 L-13,13 L-11,13 L-11,11 L-9,11 L-7,7 L-3,5 L-2,2 L0,2 Z " fill="#DCDDDD" transform="translate(654,372)"/>
<path d="M0,0 L3,0 L3,6 L-10,7 L-22,7 L-22,6 L-11,6 L-11,4 L-8,3 L-1,3 Z " fill="#34201D" transform="translate(1443,1721)"/>
<path d="M0,0 L4,2 L2,6 L-3,11 L-4,9 L-6,9 L-5,5 Z " fill="#ABABAB" transform="translate(1615,1632)"/>
<path d="M0,0 L4,1 L2,2 L1,7 L-3,8 L-3,10 L-8,12 L-10,11 L-10,9 L-2,4 L-1,2 L-3,1 Z " fill="#2F2F2D" transform="translate(976,1514)"/>
<path d="M0,0 L3,1 L1,2 L-1,6 L-10,6 L-11,2 Z " fill="#DBC2BD" transform="translate(805,1399)"/>
<path d="M0,0 L19,1 L28,3 L28,4 L17,4 L2,2 Z " fill="#634D59" transform="translate(1044,1041)"/>
<path d="M0,0 L1,0 L1,9 L-3,22 L-3,28 L-6,29 L-5,21 Z " fill="#D19B97" transform="translate(273,1935)"/>
<path d="M0,0 L7,1 L20,5 L16,6 L7,5 L2,4 L-1,5 Z " fill="#CF8E8A" transform="translate(1514,1745)"/>
<path d="M0,0 L2,0 L5,10 L1,8 L-1,7 L-2,9 L-2,7 L-6,6 Z " fill="#1C1D1A" transform="translate(1457,1491)"/>
<path d="M0,0 L4,1 L5,3 L-9,9 L-8,3 L-3,2 Z " fill="#EBE0D9" transform="translate(1037,1486)"/>
<path d="M0,0 L1,4 L3,4 L3,8 L0,11 L-3,23 L-5,24 L-4,14 Z " fill="#953533" transform="translate(256,2006)"/>
<path d="M0,0 L5,2 L10,5 L9,8 L4,7 L3,6 L-2,5 L-2,3 L-4,3 L-4,1 Z " fill="#343333" transform="translate(1293,1586)"/>
<path d="M0,0 L4,1 L10,6 L10,9 L1,6 L-4,4 L-2,3 L-2,1 Z M4,4 L4,6 L7,5 Z " fill="#AAA5A1" transform="translate(1106,1001)"/>
<path d="M0,0 L4,1 L4,3 L14,3 L14,4 L-1,5 L-8,4 L-9,2 Z " fill="#E0E0DF" transform="translate(485,1670)"/>
<path d="M0,0 L2,3 L-3,8 L-6,13 L-9,15 L-12,15 L-15,15 L-3,4 Z " fill="#181914" transform="translate(591,1636)"/>
<path d="M0,0 L2,0 L3,6 L4,10 L0,13 L1,7 L-1,7 L-4,10 L-5,8 L-2,1 Z M0,4 L1,6 Z " fill="#1C1C1C" transform="translate(663,1455)"/>
<path d="M0,0 L2,2 L1,4 L5,4 L7,2 L6,14 L5,14 L5,9 L-1,10 Z " fill="#2E2E2D" transform="translate(1048,1081)"/>
<path d="M0,0 L2,4 L1,8 L0,11 L-2,11 L-2,13 L-12,16 L-12,13 L-6,10 L-2,10 Z " fill="#98221E" transform="translate(1581,1799)"/>
<path d="M0,0 L9,6 L10,9 L8,11 L-2,3 L-2,1 Z " fill="#E8DEDB" transform="translate(719,1458)"/>
<path d="M0,0 L3,0 L8,5 L8,7 L12,8 L8,9 L-4,2 Z " fill="#DFDCDA" transform="translate(872,967)"/>
<path d="M0,0 L1,3 L-3,9 L-3,11 L-8,14 L-10,19 L-12,16 L-10,11 L-7,10 L-5,5 L-3,5 L-3,3 Z " fill="#8F1A17" transform="translate(344,1993)"/>
<path d="M0,0 L0,3 L-1,9 L-6,11 L-10,9 L-6,7 L-6,5 Z " fill="#A43734" transform="translate(377,1792)"/>
<path d="M0,0 L3,1 L2,5 L-9,5 L-13,4 L-12,1 L0,2 Z " fill="#D0B0AC" transform="translate(821,1401)"/>
<path d="M0,0 L11,1 L21,5 L24,7 L23,10 L17,6 L0,1 Z " fill="#EBBDB9" transform="translate(1620,1776)"/>
<path d="M0,0 L1,4 L-3,21 L-4,17 L-3,13 L-5,13 L-6,15 L-7,13 L-5,8 L-3,9 L-3,5 L-1,5 Z " fill="#717172" transform="translate(1491,1659)"/>
<path d="M0,0 L1,0 L3,9 L5,9 L2,20 L1,20 L0,14 L-1,14 L-1,6 Z " fill="#3A3A3A" transform="translate(1444,1521)"/>
<path d="M0,0 L4,5 L9,13 L8,15 L3,11 L-2,4 L0,4 Z " fill="#DFDFDD" transform="translate(463,1442)"/>
<path d="M0,0 L10,4 L10,8 L7,9 L5,8 L5,6 L1,6 L1,4 L-1,4 Z " fill="#F2E7E5" transform="translate(912,995)"/>
<path d="M0,0 L1,2 L-1,6 L-5,7 L-5,11 L-11,13 L-13,11 L-2,2 Z " fill="#A03D3A" transform="translate(366,1802)"/>
<path d="M0,0 L12,3 L24,7 L24,8 L17,8 L13,7 L13,5 L7,4 L0,2 Z " fill="#8C3330" transform="translate(1484,1737)"/>
<path d="M0,0 L3,0 L3,3 L14,3 L14,4 L-1,7 L-4,8 L-4,4 L0,3 Z " fill="#53444D" transform="translate(1008,1068)"/>
<path d="M0,0 L3,1 L-3,12 L-6,12 L-7,14 L-8,11 L-6,10 L-6,7 L-3,6 L-1,1 Z " fill="#8D1A18" transform="translate(394,1961)"/>
<path d="M0,0 L2,0 L1,4 L-1,4 L-3,8 L-9,16 L-12,19 L-14,18 L-12,15 L-10,15 L-10,12 L-8,12 L-6,8 L-2,3 L0,3 Z " fill="#3A2621" transform="translate(457,1758)"/>
<path d="M0,0 L4,2 L9,7 L3,7 L4,15 L2,12 Z M5,9 L6,11 L4,10 Z " fill="#E9DEDC" transform="translate(575,1130)"/>
<path d="M0,0 L1,2 L0,6 L-9,7 L-15,8 L-13,6 Z " fill="#D0D0CF" transform="translate(1047,1109)"/>
<path d="M0,0 L5,3 L11,11 L9,11 L10,16 L8,15 L4,7 L2,6 Z " fill="#C4C4C3" transform="translate(1140,911)"/>
<path d="M0,0 L17,4 L20,6 L19,8 L13,7 L13,5 L4,4 L0,2 Z " fill="#8F2F2D" transform="translate(1462,1731)"/>
<path d="M0,0 L4,0 L4,2 L1,4 L-19,3 L-19,2 Z " fill="#8B3A39" transform="translate(504,1710)"/>
<path d="M0,0 L6,2 L3,9 L-2,8 Z " fill="#C7C8C4" transform="translate(601,1608)"/>
<path d="M0,0 L2,0 L1,4 L9,2 L11,6 L14,7 L5,6 L-3,4 L-2,1 Z " fill="#BCBCB9" transform="translate(509,1598)"/>
<path d="M0,0 L7,4 L3,6 L0,6 L-1,8 L-1,6 L-7,7 L-7,5 L-5,5 L-5,3 L-3,3 L-3,5 L-1,3 Z " fill="#323231" transform="translate(1264,1569)"/>
<path d="M0,0 L3,2 L-4,9 L-6,12 L-8,12 L-7,3 L-6,7 L-4,7 L-3,3 Z " fill="#ABABAA" transform="translate(1465,1451)"/>
<path d="M0,0 L3,2 L5,10 L1,11 L-1,9 Z " fill="#181918" transform="translate(688,1445)"/>
<path d="M0,0 L1,3 L-9,14 L-14,19 L-18,20 L-13,15 L-6,8 Z " fill="#C6C5C5" transform="translate(1487,1431)"/>
<path d="M0,0 L1,0 L3,14 L3,20 L0,20 L-1,10 Z " fill="#BB7B7A" transform="translate(1786,2028)"/>
<path d="M0,0 L7,2 L7,4 L10,5 L8,5 L8,7 L11,8 L11,10 L8,10 L8,8 L5,8 L3,3 L0,2 Z " fill="#462321" transform="translate(501,2036)"/>
<path d="M0,0 L7,1 L7,3 L13,6 L14,9 L8,7 L0,3 Z " fill="#C3C3C0" transform="translate(1425,1670)"/>
<path d="M0,0 L7,0 L7,2 L11,0 L13,2 L3,5 L-1,5 Z " fill="#E5DAD5" transform="translate(894,1534)"/>
<path d="M0,0 L2,1 L-1,5 L1,9 L-2,9 L-6,9 L-8,5 Z " fill="#373531" transform="translate(1167,1425)"/>
<path d="M0,0 L2,1 L1,3 L3,4 L-2,7 L-4,9 L-8,5 Z " fill="#353433" transform="translate(1097,1125)"/>
<path d="M0,0 L0,3 L-8,10 L-9,13 L-11,13 L-11,15 L-16,17 L-14,13 L-11,12 L-9,8 L-6,5 Z " fill="#0E0E0D" transform="translate(594,1935)"/>
<path d="M0,0 L2,0 L6,7 L7,12 L5,13 L3,9 L0,7 L0,3 L-2,3 L-1,1 Z " fill="#AE5E5D" transform="translate(1754,1932)"/>
<path d="M0,0 L2,3 L2,10 L1,14 L-3,16 L-2,9 Z " fill="#9B3B3A" transform="translate(277,1923)"/>
<path d="M0,0 L7,0 L3,2 L-7,8 L-9,7 L-10,5 Z " fill="#51201F" transform="translate(1236,1807)"/>
<path d="M0,0 L2,1 L-11,13 L-16,16 L-15,12 L-10,8 L-8,8 L-8,6 L-2,2 Z " fill="#F0C4C1" transform="translate(428,1746)"/>
<path d="M0,0 L3,3 L5,6 L5,10 L7,10 L8,15 L10,16 L10,19 L8,19 L7,14 L5,14 L5,12 L2,9 Z " fill="#161717" transform="translate(760,1548)"/>
<path d="M0,0 L2,2 L6,9 L8,12 L5,13 L5,10 L0,11 L0,9 L-3,9 L-3,7 L1,8 L0,4 Z " fill="#DFDEDD" transform="translate(687,1113)"/>
<path d="M0,0 L5,0 L4,2 L1,3 L-1,7 L-3,6 L-2,4 L-7,3 L-12,4 L-13,2 Z " fill="#352C2E" transform="translate(1030,1070)"/>
<path d="M0,0 L1,2 L3,2 L6,7 L6,10 L-2,9 L-3,6 L1,6 L0,4 L-1,1 Z " fill="#C9C8C8" transform="translate(992,921)"/>
<path d="M0,0 L3,4 L1,5 L1,14 L-1,16 L-4,16 L-2,9 L-1,4 Z " fill="#A7A7A4" transform="translate(1377,1629)"/>
<path d="M0,0 L2,3 L4,1 L3,7 L-2,14 L-3,14 L-2,6 Z " fill="#A6A6A4" transform="translate(612,1592)"/>
<path d="M0,0 L4,2 L4,5 L-2,10 L-4,8 L-2,3 L1,3 Z " fill="#C9C9C6" transform="translate(1488,1454)"/>
<path d="M0,0 L3,1 L0,2 L1,4 L5,2 L6,5 L-1,9 L-3,9 L-4,5 Z " fill="#ECE0DB" transform="translate(1141,1433)"/>
<path d="M0,0 L2,2 L3,7 L-1,7 L-3,6 L-3,4 L-6,3 L-3,1 Z M3,4 L5,5 Z " fill="#1E1E1E" transform="translate(1086,1093)"/>
<path d="M0,0 L7,2 L8,4 L6,4 L5,8 L2,9 Z " fill="#E5E2E0" transform="translate(725,1093)"/>
<path d="M0,0 L2,0 L1,7 L4,8 L-3,7 L-7,5 L-6,3 L-4,3 L-3,1 L-1,2 Z " fill="#E5D4D0" transform="translate(572,1040)"/>
<path d="M0,0 L4,0 L4,4 L8,6 L6,9 L1,7 L-1,5 L1,5 Z M8,4 Z " fill="#C6C5C6" transform="translate(1237,1005)"/>
<path d="M0,0 L4,5 L9,13 L8,16 L6,11 L4,11 L2,8 L-2,6 L0,6 Z " fill="#D19794" transform="translate(1721,1872)"/>
<path d="M0,0 L2,1 L-1,6 L-6,11 L-12,12 L-7,7 Z " fill="#9B433D" transform="translate(394,1776)"/>
<path d="M0,0 L5,3 L6,1 L13,2 L13,3 L-5,6 L-9,5 L-7,5 L-6,3 L-2,3 Z " fill="#BAB9BA" transform="translate(1524,1675)"/>
<path d="M0,0 L1,2 L-7,12 L-8,14 L-10,14 L-11,17 L-11,15 L-13,14 L-5,6 L-4,4 L-2,4 Z " fill="#BCBCBC" transform="translate(1529,1656)"/>
<path d="M0,0 L2,0 L3,4 L-4,7 L-8,7 L-6,2 Z " fill="#30302C" transform="translate(1100,1463)"/>
<path d="M0,0 L3,1 L2,3 L0,3 L-2,10 L-5,11 L-6,14 L-7,10 L-9,10 L-10,7 L-7,7 L-6,9 L-3,7 Z " fill="#F2DAD5" transform="translate(784,1268)"/>
<path d="M0,0 L2,0 L5,7 L7,7 L7,14 L4,14 L0,2 Z " fill="#DADAD9" transform="translate(682,1171)"/>
<path d="M0,0 L2,0 L2,13 L1,18 L-1,16 L-1,7 Z " fill="#1B1B1B" transform="translate(730,1136)"/>
<path d="M0,0 L1,3 L-4,9 L-6,9 L-4,5 Z M-8,9 L-6,9 L-8,14 L-14,18 L-12,14 L-10,14 Z " fill="#DDDEDC" transform="translate(628,398)"/>
<path d="M0,0 L2,1 L7,13 L9,21 L5,19 L4,14 L0,2 Z " fill="#342120" transform="translate(1090,1973)"/>
<path d="M0,0 L1,3 L-2,9 L-4,10 L-6,14 L-9,13 Z " fill="#9D4341" transform="translate(315,1860)"/>
<path d="M0,0 L13,0 L10,4 L8,4 L8,7 L6,7 L6,3 L-1,2 Z " fill="#A61F1D" transform="translate(1459,1736)"/>
<path d="M0,0 L5,3 L7,6 L2,7 L0,6 L-1,4 L-5,6 L-5,4 Z " fill="#0E0E0C" transform="translate(1314,1599)"/>
<path d="M0,0 L2,1 L2,4 L4,4 L6,11 L4,11 L4,9 L1,10 L-1,8 Z " fill="#1A1A17" transform="translate(811,1541)"/>
<path d="M0,0 L2,0 L5,7 L4,10 L4,8 L0,7 L0,10 L-3,10 L-3,7 L-1,5 Z " fill="#171716" transform="translate(731,1538)"/>
<path d="M0,0 L3,0 L3,9 L1,13 L-1,7 L-1,1 Z " fill="#C4C5C2" transform="translate(1440,1530)"/>
<path d="M0,0 L4,0 L4,2 L9,3 L9,8 L4,6 L-2,2 Z " fill="#E2D7D4" transform="translate(784,1504)"/>
<path d="M0,0 L3,0 L4,5 L1,12 L0,12 L-2,4 Z " fill="#151614" transform="translate(1184,1459)"/>
<path d="M0,0 L5,1 L7,7 L6,12 L3,9 Z " fill="#E5E5E4" transform="translate(1062,1150)"/>
<path d="M0,0 L2,0 L2,2 L6,3 L5,7 L2,6 L1,12 L-1,12 L-1,5 Z " fill="#2D2C2B" transform="translate(1047,1092)"/>
<path d="M0,0 L4,1 L4,5 L-16,5 L-16,4 L-2,3 L-2,1 Z " fill="#5F4A55" transform="translate(671,1079)"/>
<path d="M0,0 L1,2 L11,3 L22,5 L22,6 L13,6 L1,4 L-2,1 Z " fill="#E8E0DC" transform="translate(775,1036)"/>
<path d="M0,0 Z " fill="#F2EAE4" transform="translate(247,2030)"/>
<path d="M0,0 Z " fill="#EFE5E6" transform="translate(1673,1811)"/>
<path d="M0,0 Z " fill="#EEEAE7" transform="translate(372,1791)"/>
<path d="M0,0 Z " fill="#EAEAE8" transform="translate(476,1674)"/>
<path d="M0,0 Z " fill="#EBEDEC" transform="translate(1493,1673)"/>
<path d="M0,0 Z " fill="#ECECEA" transform="translate(1492,1671)"/>
<path d="M0,0 Z " fill="#EAEAEA" transform="translate(472,1457)"/>
</svg>
