<?xml version="1.0" encoding="UTF-8"?>
<!-- Generator: visioncortex VTracer 0.6.12 -->
<svg version="1.1" xmlns="http://www.w3.org/2000/svg" width="2048" height="2048">
<path d="M0 0 C23.9 -0.7 47.7 4.8 70.9 10.2 C73 10.7 75.1 11.2 77.2 11.7 C108.6 19.2 136.1 32 163.9 48.2 C164.5 48.6 164.5 48.6 167.8 50.5 C182.9 59.3 197.6 68.7 210.7 80.4 C213.8 83.1 217 85.7 220.4 88.2 C231 96.3 240.9 105.2 250.9 114.2 C252.3 115.5 253.8 116.7 255.4 118 C258.9 121.2 258.9 121.2 260.9 125.2 C261.5 125.2 262.2 125.2 262.9 125.2 C265 127.7 267 130.3 269.1 132.9 C272 136.4 275.1 139.7 278.3 143.1 C283.3 148.4 287.8 153.8 292.2 159.6 C295.4 163.9 298.6 168.1 301.9 172.3 C305.9 177.3 309.8 182.5 313.7 187.6 C317.1 192.3 320.8 196.7 324.4 201.2 C341.8 222.7 355.8 245.9 368.9 270.2 C371.2 274.5 373.5 278.8 375.8 283.1 C376.8 285 377.9 286.9 378.9 288.9 C382.1 294.7 385.5 300.3 388.9 306 C391.9 310.9 394.4 316 396.9 321.2 C397.4 322.3 398 323.4 398.6 324.5 C408.6 343.8 416.1 364.4 423.6 384.7 C425 388.7 426.5 392.6 428 396.6 C430.8 404.1 433.6 411.6 436.3 419.1 C437.7 422.7 439 426.2 440.4 429.8 C446.3 445.6 449.6 461.4 452.7 477.8 C454.2 486.1 455.9 494.4 457.7 502.6 C457.9 503.7 458.2 504.9 458.4 506.1 C459.6 511.7 460.9 517.3 462.1 522.9 C465.4 538.5 467.9 554.1 469.8 569.9 C471.9 588.7 476 606.8 480.6 625 C480.9 626.2 481.2 627.4 481.5 628.7 C483.6 636.9 485.7 645 487.9 653.2 C496 684.9 501.6 716.9 506.9 749.2 C507.2 751.3 507.6 753.4 507.9 755.6 C510.5 771.4 512.2 787.3 513.7 803.2 C514 807.4 514.4 811.5 514.8 815.6 C516.6 834.2 517.5 852.6 517.9 871.2 C517.9 873.1 517.9 875.1 518 877 C518.1 889.4 517.2 901.5 515.7 913.8 C515.6 914.7 515.6 914.7 515 919.6 C511.5 948.3 505.5 975.9 497 1003.6 C493.5 1015 490.7 1026.6 487.9 1038.1 C485 1049.8 482.1 1061.4 478.8 1072.9 C473.4 1091.6 469.7 1110.3 466.8 1129.6 C464.6 1143.9 462.4 1158.2 459.7 1172.4 C446.4 1247 463.4 1325 509.9 1385.2 C511.9 1388.2 511.9 1388.2 511.9 1391.2 C501 1391 492.4 1387 482.9 1382.2 C483.4 1383.7 484 1385.3 484.6 1386.9 C485.4 1388.9 486.1 1390.9 486.9 1392.9 C487.7 1394.9 488.4 1396.9 489.2 1399 C490.9 1404.2 490.9 1404.2 489.9 1408.2 C483.2 1404 477.3 1399.3 471.4 1394.3 C468.9 1392.2 468.9 1392.2 466.9 1391.2 C466.9 1390.5 466.9 1389.9 466.9 1389.2 C465.5 1388.5 464.2 1387.9 462.9 1387.2 C455.8 1381.7 449.4 1375.9 443.3 1369.5 C440.9 1367.2 440.9 1367.2 436.9 1365.2 C433.5 1367.9 433.5 1367.9 429.7 1371.9 C428.3 1373.3 427 1374.7 425.6 1376.1 C421.1 1381 417 1386 412.9 1391.2 C396.6 1411.2 366.6 1412.6 342.6 1416.9 C340.9 1417.3 339.2 1417.6 337.5 1417.9 C329.6 1419.3 321.8 1420.6 313.9 1421.2 C316.2 1416.5 319.1 1414 323 1410.4 C324.3 1409.1 325.7 1407.9 327.1 1406.6 C329.8 1404.1 332.7 1401.6 335.5 1399.2 C351.1 1385.4 356.3 1364.2 362.9 1345.2 C362 1346.4 361.1 1347.6 360.1 1348.9 C346 1366.4 328.9 1384.3 308.6 1394.4 C303.1 1397.7 302.2 1399 300.9 1405.2 C300.1 1407 299.3 1408.7 298.5 1410.6 C299 1419.4 305.3 1420.5 312.8 1424 C316.9 1426.2 316.9 1426.2 317.9 1430.2 C316 1430.1 314.2 1430 312.3 1429.9 C309.9 1429.8 307.5 1429.7 305 1429.6 C303.8 1429.6 302.6 1429.5 301.4 1429.4 C292.3 1429.2 292.3 1429.2 289.8 1434.4 C289.5 1436 289.2 1437.6 288.9 1439.2 C285.2 1442.4 281.7 1445.3 277.9 1448.2 C275.9 1449.8 274 1451.4 272 1452.9 C269.1 1455.4 266.1 1457.8 263.2 1460.1 C260.9 1462.2 260.9 1462.2 260.9 1464.2 C262.8 1464.2 264.8 1464.2 266.9 1464.2 C266.9 1464.9 266.9 1465.5 266.9 1466.2 C267.5 1466.3 267.5 1466.3 270.9 1467 C276.6 1468.1 281.9 1469.9 287.4 1471.7 C292.5 1473.4 297.7 1474.9 303 1476.3 C314.1 1479.4 325.1 1482.6 336.1 1485.9 C337.7 1486.3 339.2 1486.8 340.8 1487.3 C349.5 1489.9 358.2 1492.5 366.9 1495.2 C371.9 1496.7 376.9 1498.2 381.9 1499.7 C384.4 1500.5 386.9 1501.2 389.5 1502 C390.7 1502.3 391.9 1502.7 393.2 1503.1 C396.8 1504.2 400.4 1505.3 404 1506.4 C409.3 1508 414.4 1509.1 419.9 1510.2 C422.9 1511.2 425.9 1512.2 428.9 1513.2 C433.4 1514.4 438 1515.6 442.6 1516.8 C449.1 1518.9 453.2 1522.3 457.9 1527.2 C458.7 1528 459.5 1528.8 460.4 1529.7 C462 1531.4 463.7 1533 465.3 1534.7 C467.9 1537.2 467.9 1537.2 471.1 1539.8 C473.9 1542.2 473.9 1542.2 474.9 1545.2 C475.7 1546 476.5 1546.8 477.4 1547.7 C479.9 1550.2 479.9 1550.2 480.9 1553.2 C481.5 1553.2 482.2 1553.2 482.9 1553.2 C484.9 1555.7 487 1558.3 489 1560.8 C493.4 1566 498.2 1570.6 503.1 1575.3 C505.9 1578.2 505.9 1578.2 505.9 1580.2 C506.8 1580.5 507.8 1580.9 508.9 1581.2 C510.9 1583.5 512.9 1585.8 514.9 1588.2 C516 1589.6 517.2 1591.1 518.4 1592.6 C521.7 1597 524.3 1601.3 526.9 1606.2 C528.1 1608.4 529.4 1610.6 530.7 1612.8 C533.5 1617.8 536.3 1622.9 539 1627.9 C542.1 1633.8 545.4 1639.5 548.9 1645.2 C550.5 1648.2 552.2 1651.2 553.9 1654.2 C555.2 1656.5 556.5 1658.8 557.8 1661.1 C561.2 1667.1 564.6 1673.1 567.9 1679.2 C570.3 1683.6 572.7 1687.9 575.2 1692.3 C576.1 1693.9 577 1695.5 577.9 1697.2 C579 1699.1 580.2 1701.1 581.3 1703.1 C586.7 1713.9 588.1 1725.9 590 1737.7 C590.5 1740 590.9 1742.4 591.3 1744.8 C592.1 1749.3 592.9 1754 593.7 1758.6 C595.1 1766.7 596.6 1774.9 598.1 1783.1 C598.9 1787.2 598.9 1787.2 598.9 1790.2 C98.9 1790.2 -401 1790.2 -916.1 1790.2 C-915.3 1782.6 -914 1775.9 -912.1 1768.6 C-912 1767.9 -912 1767.9 -911.2 1764.8 C-910.1 1760.8 -909.1 1756.7 -908.1 1752.6 C-907.4 1749.8 -906.7 1747 -905.9 1744.1 C-904.8 1739.7 -903.7 1735.3 -902.6 1730.9 C-899.9 1720.3 -897.3 1709.7 -894.6 1699.1 C-893.9 1696.2 -893.2 1693.2 -892.4 1690.3 C-891.4 1686.1 -890.3 1681.9 -889.3 1677.7 C-888.3 1673.7 -887.4 1669.8 -886.4 1665.9 C-885.8 1663.7 -885.3 1661.5 -884.7 1659.2 C-879.4 1638.8 -879.4 1638.8 -876.1 1637.2 C-872.1 1631.8 -872.1 1631.8 -872.1 1628.2 C-870.1 1626.2 -870.1 1626.2 -867.1 1626.2 C-866.5 1624.9 -865.8 1623.6 -865.1 1622.2 C-860.4 1614.9 -855.5 1607.8 -850.5 1600.6 C-847.1 1595.7 -843.8 1590.7 -840.5 1585.7 C-837.5 1581.2 -834.3 1576.7 -831.1 1572.2 C-830.5 1571.2 -829.9 1570.2 -829.2 1569.1 C-824.1 1561.9 -817.9 1555.9 -811.1 1550.2 C-809.4 1548.6 -807.6 1546.9 -805.8 1545.3 C-801.1 1541.2 -801.1 1541.2 -799.1 1541.2 C-799.1 1540.5 -799.1 1539.9 -799.1 1539.2 C-796.5 1536.8 -793.8 1534.5 -791.1 1532.2 C-790.2 1531.2 -789.2 1530.2 -788.1 1529.2 C-787.5 1529.2 -786.8 1529.2 -786.1 1529.2 C-786.1 1528.5 -786.1 1527.9 -786.1 1527.2 C-783.5 1524.8 -780.8 1522.5 -778.1 1520.2 C-775.6 1518 -773.1 1515.8 -770.6 1513.6 C-768.1 1511.5 -765.6 1509.3 -763.1 1507.2 C-762.5 1506.6 -762.5 1506.6 -759.3 1503.8 C-756.1 1501.2 -756.1 1501.2 -754.1 1501.2 C-754.1 1500.5 -754.1 1499.9 -754.1 1499.2 C-750.5 1496.1 -746.9 1493.2 -743.1 1490.2 C-741.4 1488.8 -739.7 1487.4 -738 1485.9 C-734.8 1483.3 -731.6 1480.7 -728.4 1478.1 C-720.9 1472.1 -713.6 1466.1 -706.4 1459.8 C-705.3 1459 -704.3 1458.1 -703.1 1457.2 C-702.4 1456.6 -702.4 1456.6 -698.5 1453.5 C-692.2 1449.6 -688 1449.2 -680.6 1448.9 C-665.6 1448.1 -652.7 1447 -639.1 1440.2 C-627.8 1435.2 -627.8 1435.2 -625.1 1435.2 C-625.6 1433.9 -626.1 1432.6 -626.6 1431.2 C-628.5 1423.7 -628.4 1416.8 -628.1 1409.2 C-629.5 1409.4 -630.8 1409.6 -632.1 1409.8 C-652.6 1412.9 -673.5 1414.8 -694.1 1412.2 C-694.1 1411.2 -694.1 1410.2 -694.1 1409.2 C-690.2 1408 -690.2 1408 -684.8 1406.9 C-646.9 1398.3 -616.3 1379.7 -608.1 1339.2 C-609.5 1339.7 -610.9 1340.1 -612.3 1340.6 C-619.6 1343 -626.2 1343.3 -633.9 1343.3 C-635.8 1343.3 -637.6 1343.3 -639.6 1343.3 C-644.1 1343.2 -644.1 1343.2 -646.1 1342.2 C-645.1 1339.2 -645.1 1339.2 -640.8 1337.9 C-626.2 1333.4 -609.1 1320.3 -607.8 1304.1 C-609.2 1282.8 -627.9 1256.9 -641.1 1241.2 C-643.2 1238.6 -645.2 1236.1 -647.1 1233.5 C-649.7 1230.3 -652.3 1227.1 -655 1223.9 C-657.1 1221.2 -657.1 1221.2 -657.1 1219.2 C-657.8 1219.2 -658.5 1219.2 -659.1 1219.2 C-663.1 1214.7 -666.6 1209.9 -670.1 1205.2 C-671.3 1203.6 -672.5 1202.1 -673.8 1200.5 C-686.5 1183.9 -697.2 1166.6 -707.1 1148.2 C-708 1146.7 -708.8 1145.3 -709.6 1143.8 C-716.9 1130.4 -722.7 1116.4 -728.1 1102.2 C-728.6 1101 -729.1 1099.7 -729.6 1098.5 C-736.1 1081.6 -741.6 1064.7 -746.1 1047.2 C-745.3 1062.3 -742 1076.6 -738.1 1091.2 C-737.7 1092.9 -737.3 1094.6 -736.8 1096.4 C-730.7 1120.1 -720.9 1142 -708.9 1163.4 C-704.8 1170.6 -700.8 1178 -696.8 1185.3 C-695.2 1188.3 -693.5 1191.3 -691.7 1194.2 C-690.1 1197.2 -690.1 1197.2 -691.1 1199.2 C-692.1 1198.1 -693 1196.9 -694 1195.8 C-697.1 1192.2 -697.1 1192.2 -699.1 1191.2 C-699.1 1190.5 -699.1 1189.9 -699.1 1189.2 C-700.5 1188.5 -701.8 1187.9 -703.1 1187.2 C-709.1 1181.7 -709.1 1181.7 -709.1 1179.2 C-709.8 1179.2 -710.5 1179.2 -711.1 1179.2 C-717.1 1172.7 -717.1 1172.7 -717.1 1170.2 C-717.8 1170.2 -718.5 1170.2 -719.1 1170.2 C-722.1 1166.2 -722.1 1166.2 -722.1 1164.2 C-722.8 1164.2 -723.5 1164.2 -724.1 1164.2 C-724.5 1162.9 -724.8 1161.6 -725.1 1160.2 C-725.8 1160.2 -726.5 1160.2 -727.1 1160.2 C-738.9 1142 -749.5 1122.5 -757.1 1102.2 C-757.7 1100.7 -758.3 1099.3 -758.9 1097.8 C-765.3 1081.6 -770.6 1065.1 -775.8 1048.5 C-776.9 1044.9 -778.1 1041.2 -779.3 1037.6 C-810.4 936.9 -786.2 817.6 -753.1 720.1 C-744.8 695.4 -740.7 671.9 -737.7 646.1 C-736.2 633.1 -734.4 620.1 -732.5 607.2 C-732.2 605.2 -732 603.3 -731.7 601.2 C-730.1 590.3 -728 579.8 -725.1 569.2 C-724.5 566.7 -723.9 564.2 -723.3 561.8 C-722.3 557.8 -721.3 553.9 -720.3 550 C-718.6 543.2 -716.9 536.3 -715.3 529.5 C-710.3 508.7 -704.1 488.3 -697.6 467.9 C-696.2 463.4 -694.8 459 -693.4 454.5 C-691.7 449.1 -690 443.7 -688.2 438.3 C-686.2 432.3 -684.2 426.2 -682.1 420.1 C-677 404.7 -671.6 389.5 -664.5 374.8 C-662.7 370.4 -661.5 366.8 -660.4 362.3 C-658.3 354.4 -655.5 347 -652.4 339.4 C-651.9 338.1 -651.3 336.8 -650.8 335.5 C-647.2 326.8 -643.6 318.1 -639.9 309.4 C-638.8 306.6 -637.6 303.9 -636.6 301.1 C-632.4 290.5 -627.2 280.8 -621.5 271 C-618.5 265.7 -615.6 260.5 -612.7 255.2 C-603.7 238.7 -593.8 222.7 -583.1 207.2 C-582.3 205.9 -581.4 204.6 -580.5 203.2 C-575.2 195.4 -569.6 187.9 -563.8 180.5 C-558.8 174.2 -554.1 167.8 -549.3 161.4 C-533 139.3 -515 118.9 -493.1 102.2 C-490.7 100.3 -488.2 98.3 -485.7 96.4 C-484.6 95.5 -483.4 94.6 -482.2 93.7 C-479.7 91.7 -477.3 89.6 -474.9 87.5 C-472.1 85.2 -472.1 85.2 -470.1 85.2 C-470.1 84.5 -470.1 83.9 -470.1 83.2 C-455.3 71.6 -437.7 63.3 -420.9 55 C-418.4 53.8 -415.9 52.6 -413.4 51.3 C-384.9 36.6 -355.2 27.8 -323.9 21 C-319.5 20.1 -315.1 19.1 -310.7 18.1 C-307.3 17.4 -303.9 16.6 -300.6 15.9 C-299 15.5 -297.4 15.2 -295.8 14.8 C-280.7 11.6 -265.2 9.2 -250.1 14.2 C-244.1 14.6 -240 13.7 -234.5 11.4 C-214.1 3.4 -192.9 2.9 -171.3 3 C-169.3 3 -167.3 3 -165.2 3 C-161 3 -156.7 3 -152.5 3 C-146.1 3 -139.7 3 -133.3 3 C-129.1 3 -125 3 -120.9 3 C-119.9 3 -119.9 3 -115.1 3 C-104.8 3.1 -94.6 3.3 -84.3 4 C-65.8 5 -47.7 4.2 -29.3 1.9 C-19.5 0.8 -9.8 0.5 0 0 Z " fill="#DFDCD9" transform="translate(1186.14453125,257.8046875)"/>
<path d="M0 0 C-3 18.7 -7.1 36.7 -15 54 C-15.4 54.9 -15.4 54.9 -17.4 59.6 C-24.6 75.9 -33 91.3 -43 106 C-31.1 100 -19.4 93.6 -7.9 86.8 C-7.4 86.5 -7.4 86.5 -4.6 84.8 C4.6 79.3 13.6 73.7 22 67 C28.9 61.5 35.8 56.3 44 53 C43.7 55.2 43.5 57.4 43.2 59.6 C43 61.1 42.8 62.6 42.6 64.1 C42.2 67.3 41.7 70.6 41.2 73.8 C34.1 117.9 38.2 159.8 76 188 C110 214.4 130.6 237.7 130.1 282.8 C130.1 284.5 130.1 286.3 130.1 288.1 C130.1 292.4 130 296.7 130 301 C151.5 283.6 164.5 267 169 239 C172 240 172 240 174.8 243.3 C196.6 267.8 229.3 282.6 261.3 288.3 C263.2 288.9 265.1 289.4 267 290 C267 297.8 267 297.8 262 302 C260.4 303.5 258.8 304.9 257.2 306.4 C252.9 310.2 248.6 313.6 244 317 C238 321.7 238 321.7 238 324 C240 324 242 324 244 324 C244 324.7 244 325.3 244 326 C245.3 326.3 246.7 326.5 248.1 326.8 C253.8 328 259 329.7 264.5 331.5 C269.7 333.2 274.9 334.7 280.1 336.1 C291.2 339.2 302.2 342.4 313.2 345.7 C314.8 346.2 316.4 346.6 318 347.1 C326.7 349.7 335.3 352.3 344 355 C349 356.5 354 358 359 359.5 C361.5 360.3 364.1 361 366.6 361.8 C367.9 362.1 369.1 362.5 370.3 362.9 C373.9 364 377.5 365.1 381.1 366.2 C386.4 367.8 391.6 368.9 397 370 C400 371 403 372 406 373 C410.6 374.2 415.2 375.4 419.8 376.6 C426.3 378.7 430.4 382.1 435 387 C435.8 387.8 436.7 388.7 437.5 389.5 C439.2 391.2 440.8 392.8 442.4 394.5 C445 397 445 397 448.2 399.6 C451 402 451 402 452 405 C452.8 405.8 453.7 406.7 454.5 407.5 C457 410 457 410 458 413 C458.7 413 459.3 413 460 413 C462.1 415.5 464.1 418.1 466.1 420.6 C470.5 425.8 475.4 430.4 480.3 435.1 C483 438 483 438 483 440 C484 440.3 485 440.7 486 441 C488.1 443.3 490.1 445.6 492 448 C493.2 449.4 494.4 450.9 495.6 452.4 C498.9 456.8 501.4 461.1 504 466 C505.3 468.2 506.5 470.4 507.8 472.6 C510.7 477.6 513.4 482.7 516.1 487.8 C519.2 493.6 522.5 499.3 526 505 C527.7 508 529.3 511 531 514 C532.3 516.3 533.6 518.6 534.9 520.9 C538.4 526.9 541.7 532.9 545 539 C547.4 543.4 549.9 547.7 552.3 552.1 C553.2 553.7 554.1 555.3 555 557 C556.2 559 557.3 560.9 558.5 562.9 C563.8 573.7 565.2 585.7 567.2 597.5 C567.6 599.9 568 602.2 568.4 604.6 C569.3 609.2 570.1 613.8 570.8 618.4 C572.3 626.5 573.8 634.7 575.3 642.9 C576 647 576 647 576 650 C76 650 -423.9 650 -939 650 C-938.2 642.4 -936.8 635.7 -935 628.4 C-934.8 627.8 -934.8 627.8 -934 624.6 C-933 620.6 -932 616.5 -930.9 612.4 C-930.2 609.6 -929.5 606.8 -928.8 603.9 C-927.7 599.5 -926.6 595.1 -925.4 590.7 C-922.8 580.1 -920.1 569.5 -917.5 558.9 C-916.8 556 -916 553 -915.3 550.1 C-914.3 545.9 -913.2 541.7 -912.2 537.5 C-911.2 533.5 -910.2 529.6 -909.2 525.7 C-908.7 523.5 -908.1 521.3 -907.6 519 C-902.3 498.6 -902.3 498.6 -899 497 C-895 491.6 -895 491.6 -895 488 C-893 486 -893 486 -890 486 C-889.3 484.7 -888.7 483.4 -888 482 C-883.2 474.7 -878.3 467.6 -873.4 460.4 C-870 455.5 -866.7 450.5 -863.4 445.5 C-860.3 441 -857.2 436.5 -854 432 C-853.4 431 -852.7 430 -852.1 428.9 C-847 421.7 -840.8 415.7 -834 410 C-832.2 408.4 -830.4 406.7 -828.6 405.1 C-824 401 -824 401 -822 401 C-822 400.3 -822 399.7 -822 399 C-819.4 396.6 -816.7 394.3 -814 392 C-813 391 -812 390 -811 389 C-810.3 389 -809.7 389 -809 389 C-809 388.3 -809 387.7 -809 387 C-806.4 384.6 -803.7 382.3 -801 380 C-798.5 377.8 -796 375.6 -793.4 373.4 C-791 371.3 -788.5 369.1 -786 367 C-784.7 365.9 -783.5 364.8 -782.2 363.6 C-779 361 -779 361 -777 361 C-777 360.3 -777 359.7 -777 359 C-773.4 355.9 -769.7 353 -766 350 C-764.3 348.6 -762.6 347.2 -760.8 345.8 C-757.6 343.1 -754.4 340.5 -751.2 337.9 C-743.8 331.9 -736.5 325.9 -729.3 319.6 C-728.7 319.2 -728.7 319.2 -726 317 C-724.5 315.8 -723 314.5 -721.4 313.3 C-715 309.4 -710.9 309 -703.4 308.8 C-688.4 307.9 -675.5 306.8 -662 300 C-650.6 295 -650.6 295 -648 295 C-648.3 294 -648.7 293 -649 292 C-649.1 287.8 -649.2 283.7 -649.2 279.5 C-649.3 277.2 -649.3 275 -649.3 272.7 C-648.8 264.1 -645.1 263.4 -637.9 260.2 C-631.1 257.1 -625.6 253.9 -620 249 C-618.5 247.9 -617.1 246.7 -615.6 245.6 C-605 235 -599 221.4 -592.8 207.9 C-587.8 199.1 -580.9 195.1 -572 190.6 C-543.7 175.3 -544.8 147.1 -544.9 118.4 C-544.9 116.4 -544.9 114.3 -544.9 112.3 C-544.9 110.4 -544.9 108.4 -544.9 106.5 C-544.9 104.7 -544.9 103 -544.9 101.2 C-545 97 -545 97 -546 94 C-549 74.2 -526 49.5 -512 38 C-505.8 36.8 -505.6 37.6 -501.2 41.6 C-500 42.6 -498.9 43.7 -497.7 44.7 C-496.5 45.8 -495.3 46.9 -494 48 C-472 66.3 -448.7 83 -425 99 C-423.8 99.8 -422.6 100.6 -421.4 101.5 C-400.9 115.5 -379 127.5 -357 139 C-356.2 139.4 -356.2 139.4 -352.4 141.4 C-329.6 152.7 -299.9 136.1 -277.3 128.5 C-273.4 127.1 -269.4 125.8 -265.5 124.5 C-253.3 120.5 -241.2 116.3 -229.2 111.9 C-224.1 110 -219 108.3 -213.9 106.5 C-194.6 99.7 -175.9 92 -157.3 83.5 C-153.1 81.6 -148.8 79.7 -144.6 77.8 C-132.8 72.5 -121.1 67 -109.3 61.6 C-100.8 57.7 -92.3 53.8 -83.8 50 C-63.9 41.1 -44.9 30.3 -27 18 C-26.3 17.6 -26.3 17.6 -23 15.3 C-17.1 11.3 -11.3 7.2 -5.6 2.8 C-2 0 -2 0 0 0 Z " fill="#2E2C2D" transform="translate(1209,1398)"/>
<path d="M0 0 C3.5 0 4.1 3.5 5.7 6.4 C9.1 12.5 12.9 18.2 17 24 C21 31.4 21 31.4 21 34 C21.7 34 22.3 34 23 34 C29 43.2 29 43.2 29 47 C30 47.3 31 47.7 32 48 C33.4 51.3 34.7 54.7 36 58 C37.6 60.7 39.3 63.4 41 66 C45.4 73.1 49.2 80.4 52.9 87.9 C54.9 91.8 56.9 95.6 59 99.5 C62.5 105.9 65.8 112.4 69 119 C71.6 124.2 74.2 129.4 76.8 134.6 C78.7 138.3 80.4 142 82.1 145.8 C86.4 155 91 164.1 95.6 173.2 C101.8 185.5 107.8 197.8 113.2 210.4 C119.1 223.8 125 237.1 131.3 250.2 C133.7 255.4 135.8 260.7 138 266 C138.8 267.9 139.6 269.8 140.4 271.7 C152 299.4 163.4 327.3 171.8 356.2 C176.4 371.9 181.9 386.3 190.6 400.1 C192.7 403.5 194.5 406.9 196.2 410.5 C198.8 415.7 201.5 420.8 204.4 425.8 C208.3 432.6 211.6 439.5 214.9 446.6 C217.1 451.3 219.5 455.8 221.9 460.4 C226.2 468.4 230.2 476.6 234 484.8 C236 489 236 489 238 492.4 C240.5 496.8 242.2 501.3 244 506 C245.7 510.2 247.3 514.4 249 518.6 C249.8 520.7 250.7 522.8 251.6 525 C253 528.6 254.5 532.2 256.1 535.7 C259.6 543.6 262.2 551.8 265 560 C265.6 561.7 266.2 563.4 266.8 565.1 C278.4 599.4 285.8 634.2 291 670 C291.3 672.1 291.6 674.2 291.9 676.3 C295.3 701.9 294.6 727.3 292 753 C292.7 753 293.3 753 294 753 C294.7 751 295.3 749 296 747 C300.7 734 305.7 721.1 311.1 708.4 C315.4 698 319.5 687.5 323.3 676.8 C324.8 672.5 326.5 668.3 328.2 664.1 C330.8 657.9 332.5 651.7 334 645.1 C335.4 639.3 337.1 633.6 338.9 627.9 C341.2 620 342.7 612.1 344 604 C344.8 599.8 345.7 595.5 346.5 591.3 C348.7 579.9 349.9 568.6 350.6 557 C351 552 351 552 352 547 C352.9 518 352.9 488.7 349 460 C348.8 458.4 348.6 456.9 348.4 455.3 C345.5 433.9 341.9 412.9 337 392 C336.3 389.1 335.7 386.1 335 383.2 C334.3 380.2 333.6 377.2 332.9 374.1 C332.7 373.4 332.7 373.4 331.9 369.9 C329.8 361.2 327.5 352.6 325 344 C324.8 343 324.8 343 323.6 338 C322.4 333.4 321 329.3 319.3 324.9 C317.2 319.1 316.5 314.2 317 308 C320.2 311.2 321.1 315.3 322.6 319.4 C324 323 324 323 325.9 326.9 C332.3 339.6 336.2 353.4 340 367 C340.7 369.6 341.5 372.1 342.2 374.7 C342.7 376.1 343.1 377.5 343.5 378.9 C344.7 382.9 345.9 386.9 347.1 390.8 C360.1 433 367.4 476 371.6 519.8 C373.1 534.6 375.3 549.2 377.4 563.9 C396.9 700.4 396.9 700.4 377 758 C376.3 760 375.7 762.1 375 764.2 C369.4 781.6 362.5 797.6 353.8 813.7 C352.3 816.4 350.9 819.2 349.6 822 C342 836.7 332.9 850.7 323 864 C322.1 865.2 321.2 866.4 320.3 867.7 C313.1 877.3 305.6 886.7 298 896 C290.2 905.6 290.2 905.6 289 908 C288.3 908 287.7 908 287 908 C286.3 909.3 285.7 910.6 285 912 C282.7 914.3 280.3 916.7 278 919 C276.9 920.5 275.8 921.9 274.7 923.4 C272 927 272 927 270 927 C264.3 938.5 274.5 946.4 282 955 C288.4 961.6 295.1 967.8 302.2 973.6 C305 976 307.4 978.4 310 981 C318.3 989.1 327 995.3 337.2 1000.8 C341 1003 341 1003 341 1005 C342.3 1005.3 343.6 1005.7 345 1006 C350.2 1008.5 355.3 1011.1 360.4 1013.8 C365 1016 365 1016 369 1017 C369 1017.7 369 1018.3 369 1019 C371 1019.3 373 1019.7 375 1020 C377 1021 377 1021 377 1023 C378.7 1022.7 380.3 1022.3 382 1022 C384.9 1025.3 384.9 1025.3 387.8 1029.8 C388.8 1031.3 389.8 1032.8 390.8 1034.3 C393 1038 393 1038 393 1040 C393.7 1040 394.3 1040 395 1040 C399 1045.4 399 1045.4 399 1048 C399.7 1048 400.3 1048 401 1048 C403 1050.7 405 1053.3 407 1056 C414.9 1065.3 414.9 1065.3 419 1068 C419 1068.7 419 1069.3 419 1070 C419.7 1070 420.3 1070 421 1070 C421 1070.7 421 1071.3 421 1072 C422.3 1072.7 423.6 1073.3 425 1074 C426.1 1075.1 427.1 1076.2 428.2 1077.3 C431.9 1080.9 435.6 1083.3 440 1086 C441 1087 442 1088 443 1089 C445 1090 447.1 1091 449.2 1092.1 C455 1095 455 1095 455 1097 C457 1097.7 459 1098.3 461 1099 C465.4 1106.3 472.1 1118.5 470 1127 C463.4 1122.8 457.4 1118.1 451.5 1113.1 C449 1111 449 1111 447 1110 C447 1109.3 447 1108.7 447 1108 C445.7 1107.3 444.4 1106.7 443 1106 C435.9 1100.5 429.6 1094.7 423.4 1088.3 C421 1086 421 1086 417 1084 C413.6 1086.7 413.6 1086.7 409.8 1090.7 C408.5 1092.1 407.1 1093.5 405.8 1094.9 C401.3 1099.8 397.1 1104.8 393 1110 C376.7 1130 346.8 1131.4 322.8 1135.8 C321.9 1135.9 321.9 1135.9 317.6 1136.7 C309.8 1138.1 302 1139.4 294 1140 C296.4 1135.3 299.2 1132.8 303.1 1129.2 C304.5 1127.9 305.8 1126.7 307.2 1125.4 C310 1122.9 312.8 1120.4 315.6 1118 C331.2 1104.2 336.5 1083 343 1064 C342.1 1065.2 341.2 1066.4 340.3 1067.7 C326.2 1085.2 309 1103.1 288.8 1113.2 C283.2 1116.5 282.3 1117.8 281 1124 C280.2 1125.8 279.5 1127.5 278.7 1129.4 C279.2 1138.2 285.4 1139.3 292.9 1142.8 C297 1145 297 1145 298 1149 C296.1 1148.9 294.3 1148.9 292.3 1148.8 C289.9 1148.8 287.5 1148.7 285.1 1148.7 C283.8 1148.6 282.6 1148.6 281.3 1148.6 C277.8 1148.5 277.8 1148.5 272 1149 C271.7 1150.7 271.3 1152.3 271 1154 C270.7 1154 270.3 1154 270 1154 C270 1152.3 270 1150.7 270 1149 C268.8 1148.9 267.5 1148.8 266.2 1148.7 C260.4 1147.9 255.2 1146.4 249.6 1144.7 C247.6 1144.1 245.7 1143.5 243.7 1142.9 C216.5 1133.9 192.7 1121.1 174 1099 C173.3 1098.7 172.7 1098.3 172 1098 C172 1099.3 171.9 1100.6 171.9 1101.9 C168.2 1127.7 154 1147.2 132 1161 C132 1160.4 132 1160.4 132 1157.7 C132.1 1152.6 132.1 1147.5 132.2 1142.4 C132.2 1140.7 132.2 1139 132.3 1137.2 C132.5 1099.8 115.7 1076.3 87 1054 C85.4 1052.8 83.8 1051.5 82.2 1050.2 C80.8 1049.2 79.4 1048.1 78 1047 C51.2 1025.8 40.3 1001.6 40.6 967.4 C40.6 965.9 40.6 964.4 40.6 962.9 C40.8 951.1 41.9 939.6 44 928 C44.3 926.4 44.6 924.8 44.9 923.1 C45.5 919.4 46.3 915.7 47 912 C39.4 916.7 32.1 921.7 25 927.1 C23.7 928 22.3 929 21 930 C19.3 931.3 17.5 932.6 15.8 933.9 C10.1 938 4.2 941.5 -1.8 945 C-2.9 945.6 -3.9 946.2 -5 946.8 C-8 948.6 -11 950.3 -14 952 C-15.4 952.8 -16.8 953.6 -18.2 954.5 C-25.6 958.8 -33.2 962.5 -41 966 C-38.7 961.4 -36.1 957.1 -33.4 952.8 C-28.1 944 -23.3 935.2 -19 926 C-18.1 924.1 -17.2 922.1 -16.2 920.2 C-11.2 909.6 -6.6 899.4 -4 888 C-3.5 885.9 -3 883.8 -2.5 881.6 C1.9 863.3 1.9 863.3 3 855 C3.3 853.1 3.6 851.2 3.9 849.3 C6.5 831.6 8.3 814 9.7 796.2 C9.9 793.6 10.1 791 10.3 788.4 C11.8 770.6 13.2 752.9 13.1 735 C13.1 734.3 13.1 734.3 13 730.9 C13 727.6 13 724.3 13 721 C12.4 722.3 11.9 723.6 11.3 724.9 C-12 776.5 -12 776.5 -25 783 C-25 782.3 -25 782.3 -25 778.7 C-25.4 750.7 -25.8 722.8 -29 695 C-29.1 694.4 -29.1 694.4 -29.4 691.3 C-33.6 656 -39.9 620.9 -47 586 C-47.4 584.2 -47.7 582.4 -48.1 580.5 C-49.3 574.7 -50.5 569 -51.7 563.2 C-52.1 561.4 -52.4 559.6 -52.8 557.8 C-53.8 552.8 -54.9 547.9 -56 543 C-56.3 541.5 -56.6 540 -57 538.5 C-59.4 528.2 -59.4 528.2 -65.1 526.6 C-65.9 526.7 -65.9 526.7 -70 527 C-70.7 526.7 -71.3 526.3 -72 526 C-71.5 527.3 -71.1 528.6 -70.6 529.9 C-59 563.7 -52.9 605.2 -76 636 C-77 635.7 -78 635.3 -79 635 C-79 634.3 -79 633.7 -79 633 C-79.7 633 -80.3 633 -81 633 C-81 632.3 -81 631.7 -81 631 C-81.7 631 -82.3 631 -83 631 C-84.3 629.3 -85.6 627.7 -87 626 C-90.1 623.8 -90.1 623.8 -93.4 621.8 C-94.5 621.1 -95.7 620.5 -96.8 619.8 C-102.5 616.6 -107.4 615.6 -113.8 614.9 C-114.6 614.8 -114.6 614.8 -118.5 614.4 C-119.6 614.2 -120.8 614.1 -122 614 C-121.1 586.1 -100.3 578.3 -77 570 C-78.6 570 -80.2 569.9 -81.8 569.9 C-114.7 568.7 -126.7 561.3 -138 530 C-138 529.3 -138 528.7 -138 528 C-139.7 528 -141.3 528 -143 528 C-142.9 530.1 -142.9 532.2 -142.8 534.4 C-142.8 551.7 -144.9 569.1 -162.6 576.5 C-167.5 578.2 -172.4 579.4 -177.5 580.6 C-180.7 581.4 -183.8 582.2 -187 583 C-187 583.3 -187 583.7 -187 584 C-185.4 584.1 -183.8 584.1 -182.1 584.2 C-162.5 585.8 -144.5 592 -135 610 C-135 611.3 -135 612.6 -135 614 C-138.4 615.1 -141.9 616.1 -145.4 617 C-155.5 619.8 -166.2 626.3 -171 636 C-171.7 636 -172.3 636 -173 636 C-173.7 638 -174.3 640 -175 642 C-176 643.3 -177 644.6 -178 646 C-191.3 633.8 -198.6 617.2 -203 600 C-203.2 599.3 -203.2 599.3 -204.2 595.7 C-206.3 586.1 -206.2 576.4 -206.2 566.6 C-206.2 565.2 -206.2 563.7 -206.2 562.3 C-206.2 554.3 -205.7 546.9 -204 539 C-224.6 545.2 -245.1 551.8 -264 562 C-265 562.3 -266 562.7 -267 563 C-257.1 523.5 -222.7 501.5 -184.6 496.6 C-182.4 496.4 -180.3 496.2 -178 496 C-178 495.3 -178 494.7 -178 494 C-179.1 494 -180.3 494.1 -181.5 494.1 C-211 493.6 -247.8 478.8 -273 464 C-258.7 478.3 -236.3 489.6 -217 495 C-217 495.7 -217 496.3 -217 497 C-242.7 497.4 -267.7 497.6 -293 493 C-294 492.8 -294 492.8 -299.2 492 C-331.6 486.3 -367.5 471.6 -389 446 C-389 445.3 -389 444.7 -389 444 C-384.7 445.7 -381.1 447.6 -377.1 450 C-366.8 455.9 -356 460.5 -345 465 C-344 465.4 -344 465.4 -338.8 467.6 C-317.8 476 -295.5 483.3 -272.9 486.1 C-271.6 486.3 -270.3 486.5 -269 486.6 C-265 487 -261 487.1 -257 487 C-258 486.5 -258.9 486 -259.9 485.5 C-274.3 477.6 -287.4 468.4 -300 458 C-301.6 456.7 -303.3 455.4 -305 454 C-306.6 452.7 -308.3 451.4 -310 450 C-310.8 449.4 -310.8 449.4 -314.9 446.2 C-339 426.5 -339 426.5 -339 422 C-339.7 422 -340.3 422 -341 422 C-343.4 419.4 -345.7 416.7 -348 414 C-348.8 413.1 -349.6 412.2 -350.4 411.2 C-366.4 392.8 -366.4 392.8 -364 388 C-363.3 388.6 -363.3 388.6 -359.9 391.8 C-354.6 396.6 -349 400.8 -343.2 405 C-338.5 408.3 -333.9 411.8 -329.2 415.2 C-322.6 420.1 -316 424.7 -309 429 C-307.8 429.8 -306.6 430.5 -305.3 431.3 C-277.1 449.2 -247.4 462.2 -216 473.5 C-212.9 474.7 -209.7 475.9 -206.6 477.1 C-197.9 480 -189 481.9 -180 484 C-178.7 484.3 -177.4 484.7 -176.1 485 C-162 488.4 -147.5 490.3 -133 491 C-133.9 490.1 -134.9 489.3 -135.9 488.4 C-167 459.4 -167 459.4 -167 456 C-167.7 456 -168.3 456 -169 456 C-169 455.3 -169 454.7 -169 454 C-169.7 454 -170.3 454 -171 454 C-172.9 451.7 -174.6 449.4 -176.4 447 C-182.8 438.2 -182.8 438.2 -186 434.1 C-193.9 423.9 -200.6 413.2 -207 402 C-207.9 400.5 -208.7 399 -209.6 397.5 C-215.1 387.8 -220 378 -224.7 367.9 C-226.3 364.4 -228.1 360.9 -229.9 357.5 C-232 353 -232 353 -231 351 C-226 355.8 -226 355.8 -226 358 C-224.7 358.7 -223.4 359.3 -222 360 C-219.6 362.2 -217.3 364.5 -215.1 366.8 C-213.9 368 -212.7 369.3 -211.4 370.5 C-210.3 371.7 -209.2 372.8 -208 374 C-186.9 395.4 -162 412.7 -136 427.7 C-132.1 429.9 -128.3 432.3 -124.4 434.6 C-113.4 441.3 -101.8 446.8 -90 452 C-89.5 452.2 -89.5 452.2 -86.9 453.5 C-65.2 463.6 -41.6 470.8 -18 475 C-17.2 475.1 -17.2 475.1 -13.3 475.9 C17.3 481 17.3 481 31 481 C29.5 480.2 28.1 479.3 26.6 478.4 C21.4 475.2 16.7 471.8 12 468 C2.2 460.1 2.2 460.1 -1 458 C-1 457.3 -1 456.7 -1 456 C-2.3 455.3 -3.6 454.7 -5 454 C-30.5 431.7 -51.8 404.1 -69 375 C-69.8 373.8 -70.5 372.5 -71.3 371.2 C-81.8 353.8 -90.8 335.6 -99.5 317.2 C-101.2 313.7 -102.9 310.3 -104.6 306.8 C-106.7 302.7 -108.4 298.7 -109.9 294.4 C-112.9 286.1 -112.9 286.1 -114.4 282.3 C-126.5 251.5 -134.3 218.9 -138 186 C-134.1 186 -133.4 192.5 -132.2 195.6 C-131.5 197.5 -130.8 199.4 -130.1 201.4 C-129.4 203.2 -128.7 205.1 -128 207 C-123.8 217.9 -119.1 228.5 -114 239 C-113.1 240.9 -112.2 242.8 -111.3 244.7 C-104.1 259.9 -96.7 274 -87.6 288 C-85 292 -85 292 -82.1 297.4 C-69.4 320.2 -51.8 343.6 -33.1 361.9 C-31 364 -31 364 -31 366 C-30.3 366 -29.7 366 -29 366 C-29 366.7 -29 367.3 -29 368 C-27.7 368.7 -26.4 369.3 -25 370 C-22.5 372.3 -20 374.7 -17.5 377.1 C-12.5 381.8 -7.6 386.3 -2 390.3 C3 394 3 394 3 396 C4.7 396.7 6.3 397.3 8 398 C8 398.7 8 399.3 8 400 C9.7 400.7 11.3 401.3 13 402 C14.4 403 15.8 404 17.2 405.1 C35.6 417.6 55.5 424.3 76.9 429.8 C78.2 430.2 79.6 430.6 81 431 C81 431.3 81 431.7 81 432 C65.5 432.6 51.9 431.4 37 427 C35.7 426.6 34.4 426.3 33.1 425.9 C17.5 421 2.5 414.1 -11 405 C-12.3 404.1 -13.6 403.2 -15 402.3 C-30.1 392.1 -44.3 381 -56 367 C-36.3 398.7 -10.6 431.9 19.1 454.9 C23 458 23 458 23 460 C24.3 460.7 25.6 461.3 27 462 C29.2 463.8 31.3 465.7 33.4 467.6 C38.2 471.8 43.1 475.6 48.4 479.1 C54 483 54 483 54 485 C55.7 485.7 57.3 486.3 59 487 C71 493.4 71 493.4 71 496 C26.7 496.8 -13.9 492.8 -57 482 C-56.8 483 -56.5 484 -56.3 485 C-48.3 518.2 -48.3 518.2 -45.1 533.8 C-42.6 545.4 -39.9 557 -37.1 568.6 C-30 598.2 -24.1 627.8 -19.6 658 C-19.1 661.2 -18.6 664.5 -18.1 667.7 C-15.4 686.2 -14 704.8 -12.4 723.3 C-12 728.5 -11.5 733.8 -11 739 C1 716 9.7 692.5 17.7 667.9 C19.4 662.9 21.2 657.9 23 653 C26.5 658.2 25.8 664.8 26.1 670.9 C26.2 672.5 26.3 674.1 26.4 675.7 C28.4 719 27.6 762.6 23.4 805.8 C23 809.9 22.7 813.9 22.4 817.9 C19.3 857.6 11.7 896.6 -7 932 C18.4 919.3 38.4 902.3 57 881 C58.4 879.6 59.8 878.3 61.2 876.9 C69.8 868.1 77.1 858.2 84 848 C84.6 847.1 85.3 846.2 85.9 845.2 C102.8 820.1 115.7 791.6 122.5 762.3 C123.8 757.1 125.1 751.9 126.6 746.8 C129.7 734.9 131.5 722.8 133.4 710.7 C133.9 707.4 134.5 704.1 135.1 700.9 C137.2 688.3 138.8 675.8 140.1 663.1 C140.2 662.4 140.2 662.4 140.6 658.7 C141.1 653.5 141.6 648.2 142 643 C142 642.4 142 642.4 142.3 639.6 C144.5 611.1 144.3 582.5 144.2 553.9 C144.2 548.7 144.2 543.5 144.2 538.3 C144.2 533.3 144.2 528.2 144.2 523.2 C144.2 519.6 144.2 516.1 144.2 512.6 C144.2 511.5 144.2 511.5 144.1 506.1 C144.1 504.2 144.1 502.3 144.1 500.4 C144 494.9 143.5 489.5 143 484 C142.8 481.4 142.7 478.8 142.6 476.2 C142.5 474.8 142.4 473.4 142.4 471.9 C142.3 471.2 142.3 471.2 142.1 467.3 C139.8 423.4 136.4 379.4 129 336 C128.6 333.4 128.2 330.8 127.7 328.1 C122.5 296 114.2 265.2 103.6 234.5 C102 229.9 100.4 225.3 98.9 220.7 C94.1 206.3 89.1 192.2 82.9 178.4 C81.2 174.4 79.6 170.4 78.1 166.3 C72.5 150.9 66.1 135.7 58.6 121.2 C56.2 116.5 54.2 111.6 52.1 106.8 C49.4 100.7 46.7 94.5 44 88.4 C43.7 87.8 43.7 87.8 42.4 84.8 C39.7 78.6 36.8 72.5 33.8 66.5 C31 61 31 61 31 58 C30.3 58 29.7 58 29 58 C27.6 54.7 26.3 51.3 25 48 C24.3 47 23.7 46 23 45 C23 44 23 43 23 42 C22.3 42 21.7 42 21 42 C21 40.7 21 39.4 21 38 C20.3 38 19.7 38 19 38 C17.8 35.8 16.6 33.4 15.5 31.1 C11.6 23.2 7.4 15.5 3 7.8 C1 4 1 4 0 0 Z " fill="#9A9A98" transform="translate(1206,539)"/>
<path d="M0 0 C0 0.7 0 1.3 0 2 C2 2 4 2 6 2 C6 2.7 6 3.3 6 4 C7.3 4.3 8.7 4.5 10.1 4.8 C15.8 6 21 7.7 26.5 9.5 C31.7 11.2 36.9 12.7 42.1 14.1 C53.2 17.2 64.2 20.4 75.2 23.7 C76.8 24.2 78.4 24.6 80 25.1 C88.7 27.7 97.3 30.3 106 33 C111 34.5 116 36 121 37.5 C123.5 38.3 126.1 39 128.6 39.8 C129.9 40.1 131.1 40.5 132.3 40.9 C135.9 42 139.5 43.1 143.1 44.2 C148.4 45.8 153.6 46.9 159 48 C162 49 165 50 168 51 C172.6 52.2 177.2 53.4 181.8 54.6 C188.3 56.7 192.4 60.1 197 65 C197.4 65.4 197.4 65.4 199.5 67.5 C201.2 69.2 202.8 70.8 204.4 72.5 C207 75 207 75 210.2 77.6 C213 80 213 80 214 83 C214.4 83.4 214.4 83.4 216.5 85.5 C219 88 219 88 220 91 C220.7 91 221.3 91 222 91 C224.1 93.5 226.1 96.1 228.1 98.6 C232.5 103.8 237.4 108.4 242.3 113.1 C245 116 245 116 245 118 C246 118.3 247 118.7 248 119 C250.1 121.3 252.1 123.6 254 126 C255.2 127.4 256.4 128.9 257.6 130.4 C260.9 134.8 263.4 139.1 266 144 C267.3 146.2 268.5 148.4 269.8 150.6 C272.7 155.6 275.4 160.7 278.1 165.8 C281.2 171.6 284.5 177.3 288 183 C289.7 186 291.3 189 293 192 C294.3 194.3 295.6 196.6 296.9 198.9 C300.4 204.9 303.7 210.9 307 217 C309.4 221.4 311.9 225.7 314.3 230.1 C315.2 231.7 316.1 233.3 317 235 C318.2 237 319.3 238.9 320.5 240.9 C325.8 251.7 327.2 263.7 329.2 275.5 C329.6 277.9 330 280.2 330.4 282.6 C331.3 287.2 332.1 291.8 332.8 296.4 C334.3 304.5 335.8 312.7 337.3 320.9 C338 325 338 325 338 328 C166.4 328 -5.2 328 -182 328 C-180 324.1 -174.5 322.8 -170.7 321 C-168.8 320.1 -166.9 319.2 -164.9 318.3 C-163.3 317.5 -161.7 316.8 -160 316 C-153.3 312.7 -155.7 305.7 -156 299 C-156.1 297.3 -156.1 295.5 -156.2 293.7 C-156.6 282 -157.2 270.3 -157.9 258.6 C-159.4 231.2 -160.6 203.9 -161.8 176.5 C-162 171.9 -162.2 167.3 -162.4 162.7 C-163 149.5 -163.6 136.2 -164.2 122.9 C-164.3 120.3 -164.4 117.6 -164.5 115 C-164.8 109 -165 103 -165.2 97 C-165.3 94.8 -165.4 92.7 -165.5 90.5 C-165.5 88.7 -165.6 86.8 -165.7 84.9 C-166 80 -166 80 -167 75.9 C-167.8 72.5 -167.8 72.5 -167 67 C-161.1 63.2 -154.7 61.1 -148 59 C-146 58.3 -144 57.6 -141.9 56.9 C-141 56.6 -141 56.6 -136 55 C-126.3 51.9 -116.8 48.6 -107.5 44.5 C-99.2 40.9 -90.7 38 -82.2 34.9 C-78.4 33.5 -74.6 32 -70.9 30.4 C-65 28 -65 28 -60.2 26.4 C-56 25 -56 25 -52.2 23.1 C-46.7 20.3 -40.8 18.2 -35 16 C-34.3 15.6 -34.3 15.6 -30.8 13.8 C-26.6 11.8 -22.5 11 -18 10 C-18 9.3 -18 8.7 -18 8 C-13.6 5.5 -10 4 -5 3 C-4.7 2 -4.3 1 -4 0 C-2 -1 -2 -1 0 0 Z " fill="#7B3A2E" transform="translate(1447,1720)"/>
<path d="M0 0 C-1.6 4.7 -3.2 8.7 -5.4 13.1 C-14.7 32.6 -21.8 53.3 -28 74 C-28.5 75.5 -28.9 77 -29.4 78.6 C-32.2 87.7 -34.2 96.7 -36 106 C-36.7 108 -37.3 110 -38 112 C-45.5 145.4 -48.2 178.1 -48.3 212.2 C-48.3 213.5 -48.3 214.8 -48.3 216.1 C-48.4 240.2 -47.5 264.2 -43 288 C-42.7 290.1 -42.3 292.2 -42 294.4 C-40.9 300.3 -39.5 306.1 -38 312 C-37.5 314.4 -37.1 316.8 -36.6 319.2 C-35 327.4 -32.6 335.1 -30 343 C-29.3 345.2 -28.7 347.5 -28 349.8 C-26 356 -23.6 361.9 -21 368 C-20.1 370.1 -19.3 372.2 -18.4 374.3 C-13.8 385.2 -9.2 396 -4.4 406.8 C-3.3 409.4 -2.2 412 -1.1 414.6 C4.4 426 11.4 436.2 19.2 446.3 C21.5 449.4 23.8 452.5 26.1 455.7 C32.9 465 40 473.7 49 481 C50 481.8 51 482.7 52 483.5 C62.9 492.3 74.4 499.8 87 506 C88.1 506.6 89.2 507.2 90.3 507.7 C100.6 513.1 111 516.7 122.1 519.6 C127 521 127 521 132 524 C132 524.3 132 524.7 132 525 C96.9 524.1 65.7 510.5 39 488 C38 487.3 37 486.7 36 486 C36 485.3 36 484.7 36 484 C34.7 483.3 33.4 482.7 32 482 C28.5 478.4 25.2 474.8 22 471 C21.2 470.1 20.5 469.3 19.7 468.4 C10.1 456.6 2.7 443.1 -5 430 C-5.6 428.9 -6.3 427.8 -6.9 426.7 C-18.8 406.6 -28.4 385.1 -36 363 C-36.7 361.4 -37.4 359.9 -38.1 358.2 C-40.2 353.6 -41.6 348.9 -43 344 C-43.3 343.3 -43.7 342.7 -44 342 C-44.2 355.5 -43.6 368.9 -42.6 382.4 C-42.5 384.3 -42.4 386.2 -42.2 388.2 C-41.3 401.9 -39.4 414.6 -36 428 C-35.7 429.7 -35.3 431.3 -34.9 433 C-28.7 462.3 -15.7 486.8 3 510 C3.4 510.7 3.4 510.7 5.6 514.3 C12.7 520.3 20.6 519.2 29.6 519.3 C71.3 520.1 103.9 536.1 123 575 C123 575.7 123 576.3 123 577 C117.8 575.3 113.2 573.3 108.3 570.9 C100.3 567.1 100.3 567.1 97 566 C97.3 567 97.6 568 97.8 569.1 C98.2 570.5 98.6 571.8 98.9 573.2 C99.3 574.6 99.7 575.9 100 577.3 C106.2 607 102.5 638.1 89 665 C84 662.5 84.1 661 82 656 C80 653.6 78 651.3 76 649 C76 648.3 76 647.7 76 647 C75.3 647 74.7 647 74 647 C74 646.3 74 645.7 74 645 C72.4 644.7 70.7 644.3 69 644 C65.7 642.7 62.3 641.4 59 640 C58 639.7 57 639.3 56 639 C56 620.9 64.5 610.5 81.1 604.1 C83.1 603.4 85 602.7 87 602 C86 601.8 86 601.8 81.1 600.7 C57 595 52.3 582.1 45.6 559.5 C44 555 44 555 41 554 C41 555.8 40.9 557.5 40.9 559.3 C40.9 561.7 40.8 564 40.8 566.4 C40.7 568.7 40.7 571 40.6 573.3 C39.4 586.4 35.7 592.4 23 596 C17.7 596.2 12.3 596.2 7 596 C8 598 8 598 14.2 600.1 C31.6 606.2 42.2 614.1 48 632 C48 638 48 638 42.5 640.1 C40.4 640.7 38.2 641.3 36 642 C27 646.7 22.1 652.3 19 662 C-0.4 655.5 -5.8 601.1 -6.3 585 C-6.4 574.7 -6.1 565.1 -4 555 C-9.7 555.9 -15.4 556.9 -21.1 557.8 C-22.7 558.1 -24.2 558.3 -25.9 558.6 C-35.6 560.2 -45.3 562 -55 564 C-52.6 573.4 -49.5 582.6 -46.4 591.9 C-45.9 593.4 -45.4 594.8 -44.9 596.4 C-43.1 602 -41.2 607.5 -39 613 C-43.2 610.9 -45.5 608.7 -48.8 605.4 C-49.7 604.4 -50.7 603.4 -51.7 602.3 C-52.5 601.6 -53.2 600.8 -54 600 C-53.4 607.2 -51.8 613.7 -49.9 620.7 C-39.6 659.6 -32.7 699.6 -29.1 739.7 C-28.2 749.8 -26.9 759.8 -25.6 769.9 C-25.4 771.4 -25.2 773 -25 774.6 C-21.6 800.5 -12.6 822.9 3 844 C4.3 845.8 5.7 847.7 7.1 849.6 C18.8 865.1 31.3 880.5 45.1 894.1 C50 899 50 899 53 904 C52 904.5 52 904.5 47 907 C33.3 918.4 9.5 944.5 16 964 C16.1 967.2 16.1 970.3 16.1 973.5 C16.1 975.4 16.1 977.3 16.1 979.3 C16.1 981.3 16.1 983.3 16.1 985.4 C16.1 987.4 16.1 989.3 16.1 991.4 C16.1 1019.4 16.1 1019.4 12 1031 C11.3 1033 10.6 1035 9.9 1037 C3.3 1050.8 -5.5 1055.4 -18.9 1062 C-27.8 1067.2 -31.1 1073.6 -35.4 1082.8 C-47.2 1106.7 -62.1 1123.4 -88 1132 C-88.8 1137.7 -88.8 1137.7 -88.9 1144.6 C-88.9 1146.9 -89 1149.2 -89 1151.6 C-89 1153.4 -89 1155.2 -89 1157 C-91.3 1152.3 -91.2 1149.5 -91.1 1144.2 C-91.1 1142.7 -91.1 1141.2 -91.1 1139.6 C-91 1138.4 -91 1137.2 -91 1136 C-92.3 1136.2 -93.6 1136.4 -95 1136.6 C-115.4 1139.7 -136.4 1141.6 -157 1139 C-157 1138 -157 1137 -157 1136 C-153 1134.8 -153 1134.8 -147.6 1133.7 C-109.8 1125.1 -79.1 1106.5 -71 1066 C-71.7 1066.2 -71.7 1066.2 -75.1 1067.4 C-82.5 1069.8 -89.1 1070.1 -96.8 1070.1 C-98.6 1070.1 -100.5 1070.1 -102.4 1070.1 C-107 1070 -107 1070 -109 1069 C-108 1066 -108 1066 -103.6 1064.8 C-89.1 1060.2 -71.9 1047.1 -70.7 1030.9 C-72.1 1009.6 -90.7 983.7 -104 968 C-106 965.4 -108 962.9 -110 960.3 C-112.6 957.1 -115.1 953.9 -117.8 950.7 C-120 948 -120 948 -120 946 C-120.7 946 -121.3 946 -122 946 C-125.9 941.5 -129.4 936.7 -133 932 C-134.2 930.4 -135.4 928.9 -136.6 927.3 C-149.3 910.7 -160.1 893.4 -170 875 C-170.4 874.3 -170.4 874.3 -172.5 870.6 C-179.8 857.2 -185.5 843.2 -191 829 C-191.2 828.4 -191.2 828.4 -192.4 825.3 C-203.6 796.1 -212.6 767.6 -212.3 736.1 C-212.3 734.4 -212.3 732.7 -212.3 731 C-212.3 714.2 -210.4 697.7 -207.3 681.2 C-207.1 679.8 -206.8 678.4 -206.5 677 C-204.2 665.4 -201 654.2 -197 643 C-196.4 641.4 -195.9 639.9 -195.3 638.3 C-193.2 632.5 -191.2 627.3 -188 622 C-184.2 623.9 -185.1 630 -184.7 633.9 C-184.5 636.2 -184.2 638.5 -184 640.8 C-183.9 642 -183.8 643.3 -183.6 644.5 C-180.1 680.3 -175.5 715.5 -164.3 749.8 C-162.7 754.8 -161.4 759.8 -159.9 764.8 C-150.9 796 -139.6 826.5 -126 856 C-125.5 857 -125.5 857 -123.2 862.1 C-108.6 893.5 -88 920.7 -59 940 C-57.2 941.3 -55.5 942.5 -53.6 943.8 C-49.8 946.4 -46 948.8 -42 951 C-45.4 945.7 -49 940.6 -52.8 935.6 C-85 891.8 -98 849.1 -105.2 795.4 C-106.2 788.5 -107.2 781.6 -108.7 774.7 C-110 768 -110 768 -109 764 C-108.5 764.9 -108.1 765.8 -107.6 766.7 C-103 774.9 -98.1 781.9 -92 789 C-91 790.3 -90 791.6 -89 793 C-90.1 787.7 -91.6 782.6 -93.2 777.4 C-96.8 765.2 -99.6 752.9 -102.3 740.5 C-103 736.9 -103.8 733.4 -104.6 729.8 C-108.3 713.3 -110.5 696.9 -112 680 C-112.2 678.1 -112.4 676.1 -112.6 674.1 C-114.8 651.7 -115.6 628.3 -113 606 C-110.8 577.6 -108.7 548 -112.4 519.7 C-115.3 496.2 -115.2 472.5 -115.2 448.9 C-115.3 447.6 -115.3 446.2 -115.3 444.7 C-115.3 419.9 -114.5 395 -111.5 370.3 C-110.9 365.4 -110.6 360.5 -110.2 355.6 C-106.1 305.3 -97.2 254.5 -83 206 C-82.4 204 -81.8 201.9 -81.2 199.9 C-76.6 183.8 -71.4 167.9 -66 152 C-64.9 148.8 -63.9 145.5 -62.8 142.3 C-59.4 132 -55.9 121.7 -51 112 C-50.2 108.8 -49.4 105.5 -48.8 102.2 C-46.4 92 -43 82.7 -39 73 C-38.1 70.5 -37.2 67.9 -36.2 65.4 C-30.2 49.3 -23 33.6 -14 19 C-13.1 17.6 -12.3 16.2 -11.4 14.7 C-2.2 0 -2.2 0 0 0 Z " fill="#8B8B8A" transform="translate(649,531)"/>
<path d="M0 0 C0.7 47.2 1.1 94.4 1 141.6 C0.9 163 1.2 184.4 1.8 205.9 C1.9 208.9 1.9 212 2 215 C2 216.3 2.1 217.5 2.1 218.8 C2.2 226.8 2.2 226.8 0 229 C-3 230 -6 231 -9 232 C-18.6 235.6 -18.6 235.6 -22 239 C-23.3 239 -24.6 239 -26 239 C-28.2 240.1 -30.4 241.2 -32.6 242.4 C-38.4 245.4 -43.6 246.9 -50 248 C-50 248.7 -50 249.3 -50 250 C-52.7 251 -55.3 252 -58 253 C-58.7 253.7 -59.3 254.3 -60 255 C-65.3 255.2 -70.5 255.3 -75.8 255.2 C-77.5 255.2 -79.2 255.2 -80.9 255.2 C-86.5 255.2 -92.2 255.2 -97.9 255.2 C-101.9 255.2 -105.9 255.2 -110 255.2 C-121 255.2 -132 255.2 -143 255.2 C-154.5 255.2 -166 255.2 -177.5 255.2 C-196.7 255.2 -216 255.2 -235.3 255.2 C-255.2 255.1 -275.1 255.1 -294.9 255.1 C-296.2 255.1 -297.4 255.1 -298.6 255.1 C-304.8 255.1 -310.9 255.1 -317.1 255.1 C-368 255.1 -419 255 -470 255 C-466.2 252.5 -462.3 250.8 -458.2 249 C-444.3 242.8 -430.5 236.6 -416.8 230.1 C-412.8 228.3 -409 226.6 -404.9 225 C-399.6 222.8 -394.5 220.3 -389.4 217.7 C-385 215.5 -380.5 213.8 -376 212 C-370.4 209.4 -364.8 206.8 -359.2 204.2 C-353.8 201.6 -348.4 199.2 -342.8 196.9 C-338 195 -338 195 -332 192 C-326 189 -326 189 -321.4 187.1 C-315.5 184.8 -309.9 182.3 -304.2 179.6 C-303.1 179.1 -302.1 178.6 -301 178.1 C-298 176.8 -295 175.4 -292 174 C-290.7 173.4 -289.5 172.8 -288.1 172.2 C-283.7 170.2 -279.2 168.1 -274.8 166 C-267.3 162.4 -259.8 159 -252 156 C-242.9 152.2 -234.1 148.1 -225.3 143.6 C-222.3 142.1 -219.2 140.8 -216.1 139.6 C-209.7 136.9 -203.5 133.8 -197.3 130.6 C-194 129 -194 129 -192 129 C-192.3 128 -192.7 127 -193 126 C-193.8 118.4 -193.8 118.4 -187 115 C-184.6 113.7 -182.3 112.3 -179.9 111 C-178.8 110.3 -177.6 109.6 -176.3 108.9 C-173.5 107.3 -170.8 105.7 -168 104 C-167.3 104 -166.7 104 -166 104 C-166 103.3 -166 102.7 -166 102 C-158.7 98 -158.7 98 -156 98 C-156 97.3 -156 96.7 -156 96 C-153.6 94.4 -151.1 92.9 -148.6 91.4 C-147.3 90.6 -145.9 89.7 -144.5 88.9 C-141 87 -141 87 -139 87 C-139 86.3 -139 85.7 -139 85 C-131.3 80.4 -131.3 80.4 -127 79 C-127 78.3 -127 77.7 -127 77 C-124.7 75.6 -122.4 74.3 -120 73 C-116.3 70.7 -112.7 68.3 -109 66 C-106.7 64.5 -104.4 63.1 -102.1 61.6 C-101 61 -99.9 60.3 -98.8 59.6 C-96 58 -96 58 -92 57 C-92 56.3 -92 55.7 -92 55 C-80.7 48 -80.7 48 -78 48 C-78 47.3 -78 46.7 -78 46 C-75.7 44.4 -73.2 43 -70.8 41.6 C-69.5 40.8 -68.1 40 -66.8 39.2 C-66.1 38.8 -66.1 38.8 -63 37 C-61.3 36 -59.7 35 -58 34 C-57.3 34 -56.7 34 -56 34 C-56 33.3 -56 32.7 -56 32 C-53 30.3 -50 28.6 -47 27 C-43.6 24.9 -40.2 22.8 -36.8 20.7 C-34 19 -34 19 -31 18 C-30 17 -29 16 -28 15 C-25.7 13.6 -23.4 12.3 -21 10.9 C-14.2 7.1 -14.2 7.1 -11 5 C-10 5 -9 5 -8 5 C-8 4.3 -8 3.7 -8 3 C-2 0 -2 0 0 0 Z " fill="#7A3A2F" transform="translate(1265,1793)"/>
<path d="M0 0 C10.8 9 21.7 17.7 33 26 C34.4 27 35.9 28.1 37.3 29.2 C48.1 37 59 44.5 70 52 C71.2 52.8 72.4 53.6 73.6 54.5 C94.1 68.5 116 80.5 138 92 C139.5 92.8 141.1 93.6 142.6 94.4 C165.4 105.7 195.1 89.1 217.7 81.5 C221.6 80.1 225.6 78.8 229.5 77.5 C242 73.4 254.4 69.1 266.6 64.4 C271 63 271 63 276 63 C276 68.4 270 69.4 265.6 71.7 C263.7 72.7 261.8 73.7 259.8 74.7 C255 77 255 77 253 77 C253 77.7 253 78.3 253 79 C245.8 82 245.8 82 243 82 C243 82.7 243 83.3 243 84 C239.7 85.6 236.3 87.2 232.9 88.7 C220 94.4 220 94.4 213.8 97.6 C208.2 100.4 202.6 103.2 196.9 105.9 C195.4 106.6 193.8 107.4 192.2 108.2 C188 110 188 110 183 111 C183 111.7 183 112.3 183 113 C179.7 114.4 176.3 115.7 173 117 C172.1 117.5 172.1 117.5 167.5 119.8 C163 122 163 122 161 122 C161 122.7 161 123.3 161 124 C159.9 124.3 158.7 124.5 157.6 124.8 C153 126 153 126 148.8 128.4 C143.3 131.4 137.9 133.1 132 135 C131.4 135.3 131.4 135.3 128.6 136.9 C124.9 139 121.3 140.5 117.3 141.9 C112.3 143.8 107.3 145.7 102.4 147.8 C97 150 97 150 91 151 C91 151.7 91 152.3 91 153 C87.7 154.4 84.4 155.7 81 157 C80.2 157.3 80.2 157.3 76 159 C61 165 61 165 56.1 166.9 C52.6 168.4 49 169.8 45.5 171.3 C34.7 175.8 23.8 180 12.9 184 C7.6 186 2.4 188.1 -2.8 190.4 C-10.5 193.9 -18.5 196.7 -26.5 199.4 C-31.4 201.1 -36.2 203 -41 205 C-50.9 208.9 -60.9 212.7 -70.9 216.5 C-75.3 218.1 -79.5 219.8 -83.8 221.4 C-90.1 223.9 -96.5 226.3 -102.9 228.6 C-110 231.2 -117 234 -124 237 C-127.8 238.5 -131.6 240.1 -135.4 241.6 C-138.5 242.8 -141.6 244.1 -144.7 245.4 C-151.2 247.8 -151.2 247.8 -154 245 C-154.2 240.9 -154.2 236.8 -154.2 232.6 C-154.3 230.3 -154.3 228.1 -154.3 225.7 C-153.8 217.2 -150.2 216.5 -142.9 213.2 C-136.1 210.1 -130.6 206.9 -125 202 C-123.5 200.9 -122.1 199.7 -120.6 198.6 C-110 188 -104 174.4 -97.8 160.9 C-92.8 152.1 -85.9 148.1 -77 143.6 C-48.7 128.3 -49.8 100.1 -49.9 71.4 C-49.9 69.4 -49.9 67.3 -49.9 65.3 C-49.9 63.4 -49.9 61.4 -49.9 59.5 C-49.9 58.6 -49.9 58.6 -49.9 54.2 C-50 50 -50 50 -51 47 C-54.1 26.6 -30.7 3.4 -17 -9 C-10.8 -12.1 -4.4 -3.7 0 0 Z " fill="#010202" transform="translate(714,1445)"/>
<path d="M0 0 C-0.5 0.3 -0.5 0.3 -3 2 C-3.3 3 -3.7 4 -4 5 C-8.3 7.6 -12.1 9.8 -17 11 C-17 11.7 -17 12.3 -17 13 C-20 14.7 -23 16.4 -26 18 C-27 19 -28 20 -29 21 C-29.7 21 -30.3 21 -31 21 C-31 21.7 -31 22.3 -31 23 C-33.6 25.4 -36.3 27.7 -39 30 C-43.2 34.1 -47.2 38.1 -50.9 42.6 C-53 45 -53 45 -55 45 C-55 45.7 -55 46.3 -55 47 C-55.7 47 -56.3 47 -57 47 C-57.7 48.3 -58.3 49.6 -59 51 C-63.6 57 -63.6 57 -66 57 C-66.3 58.3 -66.7 59.6 -67 61 C-67.7 61 -68.3 61 -69 61 C-69.7 62.3 -70.3 63.6 -71 65 C-72 66.7 -73 68.3 -74 70 C-74.5 76.7 -74.2 83.3 -74 90 C-74 90.9 -74 90.9 -73.9 95.5 C-73.5 108.2 -72.2 120.7 -70.6 133.3 C-70.1 138 -69.9 142.4 -70 147 C-71 147 -72 147 -73 147 C-75.1 149.4 -75.1 149.4 -77.6 152.6 C-78.4 153.8 -79.3 155 -80.2 156.2 C-83.8 161.1 -87.3 165.9 -90.7 170.8 C-93.4 174.6 -96.2 178.3 -99 182 C-99.3 182.5 -99.3 182.5 -100.9 184.8 C-110.3 199 -110.3 199 -113 199 C-113.3 200.3 -113.7 201.6 -114 203 C-116.6 206.4 -119.3 209.7 -122 213 C-123 214.7 -124 216.3 -125 218 C-128.7 224 -128.7 224 -131 224 C-131 225 -131 226 -131 227 C-131.7 227 -132.3 227 -133 227 C-133.7 228.3 -134.3 229.6 -135 231 C-136.7 233.3 -138.3 235.7 -140 238 C-141 239.7 -142 241.3 -143 243 C-145 245.3 -147 247.7 -149 250 C-157.7 261.1 -157.7 261.1 -159 265 C-159.7 265 -160.3 265 -161 265 C-161.7 266.3 -162.3 267.6 -163 269 C-164.1 270.4 -165.1 271.7 -166.2 273.1 C-170 278 -170 278 -173.2 283.3 C-176 288 -176 288 -180 292 C-181.4 294 -182.7 296 -184 298 C-184.7 298.9 -184.7 298.9 -188.1 303.4 C-191.1 307.7 -193.3 311.1 -195 316 C-194.3 316 -193.7 316 -193 316 C-192.7 317.3 -192.3 318.6 -192 320 C-191 320 -190 320 -189 320 C-186.6 322.6 -184.3 325.3 -182 328 C-180.4 329.3 -178.7 330.6 -177 332 C-177 332.7 -177 333.3 -177 334 C-176.3 334 -175.7 334 -175 334 C-175 334.7 -175 335.3 -175 336 C-174.3 336 -173.7 336 -173 336 C-173 336.7 -173 337.3 -173 338 C-172.3 338 -171.7 338 -171 338 C-171 338.7 -171 339.3 -171 340 C-169.7 340.7 -168.4 341.3 -167 342 C-166.7 342.7 -166.3 343.3 -166 344 C-199 344 -232 344 -266 344 C-265.2 336.4 -263.8 329.7 -262 322.4 C-261.8 321.8 -261.8 321.8 -261 318.6 C-260 314.6 -259 310.5 -257.9 306.4 C-257.2 303.6 -256.5 300.8 -255.8 297.9 C-254.7 293.5 -253.6 289.1 -252.4 284.7 C-249.8 274.1 -247.1 263.5 -244.5 252.9 C-243.8 250 -243 247 -242.3 244.1 C-241.3 239.9 -240.2 235.7 -239.2 231.5 C-238.2 227.5 -237.2 223.6 -236.2 219.7 C-235.7 217.5 -235.1 215.3 -234.6 213 C-229.3 192.6 -229.3 192.6 -226 191 C-222 185.6 -222 185.6 -222 182 C-220 180 -220 180 -217 180 C-216.3 178.7 -215.7 177.4 -215 176 C-210.2 168.7 -205.3 161.6 -200.4 154.4 C-197 149.5 -193.7 144.5 -190.4 139.5 C-187.3 135 -184.2 130.5 -181 126 C-180.4 125 -179.7 124 -179.1 122.9 C-174 115.7 -167.8 109.7 -161 104 C-159.2 102.4 -157.4 100.7 -155.6 99.1 C-151 95 -151 95 -149 95 C-149 94.3 -149 93.7 -149 93 C-146.4 90.6 -143.7 88.3 -141 86 C-140 85 -139 84 -138 83 C-137.3 83 -136.7 83 -136 83 C-136 82.3 -136 81.7 -136 81 C-133.4 78.6 -130.7 76.3 -128 74 C-125.5 71.8 -123 69.6 -120.4 67.4 C-118 65.3 -115.5 63.1 -113 61 C-111.7 59.9 -110.5 58.8 -109.2 57.6 C-106 55 -106 55 -104 55 C-104 54.3 -104 53.7 -104 53 C-100.4 49.9 -96.7 47 -93 44 C-91.3 42.6 -89.6 41.2 -87.8 39.8 C-84.6 37.1 -81.4 34.5 -78.2 31.9 C-70.8 25.9 -63.5 19.9 -56.3 13.6 C-55.7 13.2 -55.7 13.2 -53 11 C-51.5 9.8 -50 8.5 -48.4 7.3 C-41.9 3.4 -37.5 3 -30 2.7 C-19.9 2.2 -10.1 0 0 0 Z " fill="#7B3B30" transform="translate(536,1704)"/>
<path d="M0 0 C0 5.4 -5.7 6.6 -10 9 C-10.7 9 -11.3 9 -12 9 C-12.3 10 -12.7 11 -13 12 C-15.7 13.4 -18.3 14.7 -21 16 C-24.7 18.3 -28.3 20.7 -31.9 23.2 C-35 25 -35 25 -38 25 C-38 25.7 -38 26.3 -38 27 C-40.2 28.4 -42.4 29.6 -44.6 30.9 C-48.3 32.9 -51.9 34.9 -55.3 37.3 C-58 39 -58 39 -60 39 C-60 39.7 -60 40.3 -60 41 C-64.6 43.7 -69 46 -74 48 C-74 48.7 -74 49.3 -74 50 C-76.6 51.4 -79.2 52.8 -81.8 54.2 C-88.9 58.1 -95.4 62.9 -102.1 67.5 C-106 70 -106 70 -109 70 C-109 70.7 -109 71.3 -109 72 C-117.3 78 -117.3 78 -121 78 C-121 78.7 -121 79.3 -121 80 C-123.2 81.4 -125.5 82.8 -127.8 84.1 C-129.1 84.8 -130.3 85.5 -131.6 86.2 C-135 88 -135 88 -138 89 C-138 89.7 -138 90.3 -138 91 C-145.3 95 -145.3 95 -148 95 C-148 95.7 -148 96.3 -148 97 C-156.6 102.5 -165.3 107.8 -175 111 C-174.6 112.7 -174.3 114.4 -173.9 116.1 C-174.1 125.8 -181.8 126.7 -190 130 C-191.8 130.8 -193.6 131.7 -195.5 132.6 C-199.9 134.5 -204.3 136.4 -208.8 138.4 C-218 142.4 -227.3 146.6 -236.3 151.2 C-240 153 -240 153 -244.6 154.8 C-250.2 157.1 -255.7 159.6 -261.2 162.2 C-263.8 163.4 -266.5 164.6 -269.1 165.8 C-276.6 169.2 -284 172.7 -291.4 176.1 C-297.1 178.8 -302.7 181.3 -308.5 183.7 C-312.4 185.4 -316.3 187.2 -320.1 189.1 C-325.4 191.7 -330.6 193.8 -336 196 C-339.4 197.5 -342.8 199 -346.1 200.5 C-347.8 201.3 -349.5 202 -351.2 202.8 C-354.3 204.2 -357.3 205.7 -360.3 207.2 C-364 209 -364 209 -368.6 210.8 C-374 213 -379.1 215.5 -384.3 218.2 C-388.8 220.4 -393.4 222.2 -398 224 C-401.3 225.5 -404.6 226.9 -407.9 228.4 C-409.7 229.2 -411.4 230 -413.2 230.8 C-416.7 232.4 -420.2 234 -423.8 235.6 C-430.8 238.8 -437.9 241.9 -445 245 C-446 245.5 -447.1 246 -448.1 246.6 C-452.8 248.3 -456.5 248.4 -461.4 248.3 C-463.3 248.3 -465.2 248.3 -467.1 248.3 C-469.1 248.3 -471.2 248.3 -473.2 248.3 C-475.3 248.3 -477.4 248.3 -479.5 248.3 C-486.2 248.3 -492.8 248.2 -499.4 248.2 C-503.9 248.2 -508.4 248.2 -512.9 248.1 C-524 248.1 -535 248.1 -546 248 C-541.4 244.5 -536.5 241.8 -531.5 238.9 C-529.6 237.8 -527.8 236.7 -525.8 235.6 C-521 233 -521 233 -517 232 C-517 231.3 -517 230.7 -517 230 C-514.7 228.7 -512.4 227.6 -510.1 226.4 C-497.4 220.3 -485.1 213.6 -472.8 206.9 C-465.7 203 -458.7 199.3 -451.4 195.7 C-447.4 193.7 -443.4 191.6 -439.4 189.4 C-432.6 185.9 -425.8 182.4 -419 179 C-411.3 175.2 -403.6 171.3 -396 167.2 C-387.2 162.5 -378.2 158.4 -369.1 154.3 C-366.1 152.9 -363 151.5 -360 150 C-359 150 -358 150 -357 150 C-357 149.3 -357 148.7 -357 148 C-353.4 146.3 -349.7 144.6 -346 143 C-344.7 142.4 -343.4 141.8 -342 141.2 C-339 140 -339 140 -336 140 C-336 139.3 -336 138.7 -336 138 C-333.3 137 -330.7 136 -328 135 C-325.1 133.5 -322.2 132.1 -319.3 130.6 C-314.2 128.1 -308.9 125.8 -303.7 123.6 C-295.5 120 -287.3 116.3 -279.2 112.5 C-269.5 107.9 -259.7 103.7 -249.8 99.6 C-236.5 94.1 -223.2 88.5 -210 82.6 C-204.7 80.3 -199.4 78.1 -194 76 C-191.2 74.9 -188.5 73.7 -185.7 72.6 C-180.5 70.4 -175.4 68.4 -170.2 66.4 C-164.1 64 -158 61.5 -152 59 C-147 57 -142 55 -137 53 C-135.3 52.3 -133.7 51.7 -132 51 C-119.8 46.1 -119.8 46.1 -115.9 44.6 C-113.4 43.5 -110.8 42.5 -108.3 41.5 C-100.4 38.3 -92.5 35.3 -84.6 32.4 C-80.1 30.6 -75.5 28.8 -71 27 C-66.4 25.2 -61.9 23.4 -57.3 21.7 C-54 20.4 -50.8 19.1 -47.6 17.8 C-44.3 16.5 -40.9 15.3 -37.6 14.1 C-32 12 -32 12 -26.6 9.5 C-20.8 6.9 -15 5 -9 3 C-1.9 0 -1.9 0 0 0 Z " fill="#020202" transform="translate(1247,1800)"/>
<path d="M0 0 C2.1 3.2 3.1 6.1 4.4 9.8 C6.2 14.9 8.3 19.3 11 24 C12.3 28 13.7 32 15 36 C16.4 39.4 17.9 42.9 19.4 46.3 C22.2 52.8 24.6 59.4 27 66 C29.8 73.7 32.9 81.3 36 88.9 C39 96.4 42.1 104 44.8 111.8 C46.6 116.8 48.6 121.3 51 126 C51 127 51 128 51 129 C-57.6 129 -166.1 129 -278 129 C-274.2 126.5 -270.3 124.8 -266.2 123 C-252.3 116.8 -238.5 110.6 -224.8 104.1 C-220.8 102.3 -217 100.6 -212.9 99 C-207.6 96.8 -202.5 94.3 -197.4 91.7 C-193 89.5 -188.5 87.8 -184 86 C-178.4 83.4 -172.8 80.8 -167.2 78.2 C-161.8 75.6 -156.4 73.2 -150.8 70.9 C-146 69 -146 69 -140 66 C-134 63 -134 63 -129.4 61.1 C-123.5 58.8 -117.9 56.3 -112.2 53.6 C-111.1 53.1 -110.1 52.6 -109 52.1 C-106 50.8 -103 49.4 -100 48 C-98.7 47.4 -97.5 46.8 -96.1 46.2 C-91.7 44.2 -87.2 42.1 -82.8 40 C-75.3 36.4 -67.8 33 -60 30 C-50.9 26.2 -42.1 22.1 -33.3 17.6 C-30.3 16.1 -27.2 14.8 -24.1 13.6 C-17.7 10.9 -11.5 7.8 -5.3 4.6 C-2 3 -2 3 0 3 C0 2 0 1 0 0 Z " fill="#2E2D2E" transform="translate(1073,1919)"/>
<path d="M0 0 C2.5 4.9 2.3 7.7 1 13 C1.7 13.2 1.7 13.2 5 14 C9.2 23.5 13 36.5 13 47 C2.2 47.1 2.2 47.1 0 46 C0.5 47.3 0.9 48.6 1.4 49.9 C13 83.7 19.1 125.2 -4 156 C-5 155.7 -6 155.3 -7 155 C-7 154.3 -7 153.7 -7 153 C-7.7 153 -8.3 153 -9 153 C-9 152.3 -9 151.7 -9 151 C-9.7 151 -10.3 151 -11 151 C-11.7 150.2 -11.7 150.2 -15 146 C-18.1 143.8 -18.1 143.8 -21.4 141.8 C-22.5 141.1 -23.7 140.5 -24.8 139.8 C-30.5 136.6 -35.4 135.6 -41.8 134.9 C-42.6 134.8 -42.6 134.8 -46.5 134.4 C-47.6 134.2 -48.8 134.1 -50 134 C-49.1 106.1 -28.3 98.3 -5 90 C-6.6 90 -8.2 89.9 -9.8 89.9 C-42.7 88.7 -54.7 81.3 -66 50 C-66 49.3 -66 48.7 -66 48 C-67.7 48 -69.3 48 -71 48 C-70.9 50.1 -70.9 52.2 -70.8 54.4 C-70.8 71.7 -72.9 89.1 -90.6 96.5 C-95.5 98.2 -100.4 99.4 -105.5 100.6 C-108.7 101.4 -111.8 102.2 -115 103 C-115 103.3 -115 103.7 -115 104 C-113.4 104.1 -111.8 104.1 -110.1 104.2 C-90.5 105.8 -72.5 112 -63 130 C-63 131.3 -63 132.6 -63 134 C-66.4 135.1 -69.9 136.1 -73.4 137 C-83.5 139.8 -94.2 146.3 -99 156 C-99.7 156 -100.3 156 -101 156 C-101.3 157 -101.3 157 -103 162 C-104 163.3 -105 164.6 -106 166 C-119.3 153.8 -126.6 137.2 -131 120 C-131.2 119.3 -131.2 119.3 -132.2 115.7 C-134.3 106.1 -134.2 96.4 -134.2 86.6 C-134.2 85.2 -134.2 83.7 -134.2 82.3 C-134.2 74.3 -133.7 66.9 -132 59 C-152.6 65.2 -173.1 71.8 -192 82 C-192.5 82.2 -192.5 82.2 -195 83 C-185.2 44 -151.8 22.6 -114.4 16.6 C-103.4 15.6 -93.6 16 -82.8 18.4 C-63 22.4 -43.2 23.4 -23 23 C-28.6 17.7 -34.1 14.4 -41 11 C-41 10.3 -41 9.7 -41 9 C-39.9 9 -39.9 9 -34.6 9.1 C-23.7 9.1 -15.9 6.2 -6.3 1.5 C-3 0 -3 0 0 0 Z " fill="#6E6569" transform="translate(1134,1019)"/>
<path d="M0 0 C5.8 1.3 11.6 2.6 17.4 4 C18.2 4.2 18.2 4.2 21.9 5 C25 5.8 28.1 6.5 31.2 7.2 C40.2 8.7 49 8.1 58 7 C69.7 6 76.7 6.6 86 14 C85.2 13.1 84.4 12.1 83.5 11.1 C81 8 81 8 81 6 C86.7 5.9 92.4 5.9 98.1 5.8 C99.7 5.8 101.3 5.8 103 5.7 C141.8 5.5 172.8 26.1 190 61 C190 61.7 190 62.3 190 63 C184.8 61.3 180.2 59.3 175.3 56.9 C167.3 53.1 167.3 53.1 164 52 C164.3 53 164.6 54 164.8 55.1 C165.2 56.5 165.6 57.8 165.9 59.2 C166.1 59.9 166.1 59.9 167 63.3 C173.2 93 169.5 124.1 156 151 C151 148.5 151.1 147 149 142 C147 139.6 145 137.3 143 135 C143 134.3 143 133.7 143 133 C142.3 133 141.7 133 141 133 C141 132.3 141 131.7 141 131 C139.4 130.7 137.7 130.3 136 130 C132.7 128.7 129.3 127.4 126 126 C125 125.7 124 125.3 123 125 C123 106.9 131.5 96.5 148.1 90.1 C150.1 89.4 152 88.7 154 88 C152 87.6 150.1 87.1 148.1 86.7 C124 81 119.3 68.1 112.6 45.5 C111 41 111 41 108 40 C108 41.8 107.9 43.5 107.9 45.3 C107.9 47.7 107.8 50 107.8 52.4 C107.7 54.7 107.7 57 107.6 59.3 C106.4 72.4 102.7 78.4 90 82 C84.7 82.2 79.3 82.2 74 82 C75 84 75 84 81.2 86.1 C98.6 92.2 109.2 100.1 115 118 C115 124 115 124 109.5 126.1 C107.4 126.7 105.2 127.3 103 128 C94 132.7 89.1 138.3 86 148 C66.6 141.5 61.2 87.1 60.7 71 C60.6 60.7 60.9 51.1 63 41 C57.3 41.9 51.6 42.9 45.9 43.8 C44.3 44.1 42.8 44.3 41.1 44.6 C31.4 46.2 21.7 48 12 50 C14.4 59.4 17.5 68.6 20.6 77.9 C21.1 79.4 21.6 80.8 22.1 82.4 C23.9 88 25.8 93.5 28 99 C20.1 95 14.3 87.6 8.8 80.8 C5.2 76.2 1.4 72.7 -3 69 C-3 68.3 -3 67.7 -3 67 C-4.3 66.3 -5.6 65.7 -7 65 C-13.6 58.8 -19.4 52.1 -25 45 C-25.7 44.2 -25.7 44.2 -29.2 39.9 C-39 27.2 -39 27.2 -39 22 C-37.2 22 -35.5 21.9 -33.7 21.9 C-21.8 21.7 -10.8 21.2 0.7 17.9 C5.2 16.7 9.4 16.7 14 17 C13.4 16.4 12.7 15.8 12.1 15.1 C0 2.8 0 2.8 0 0 Z " fill="#6F6367" transform="translate(582,1045)"/>
<path d="M0 0 C0.1 0.8 0.1 0.8 0.7 5 C1.6 11.2 2.4 17.4 3.3 23.6 C3.7 26.3 4.1 28.9 4.4 31.6 C5 35.4 5.5 39.3 6.1 43.2 C6.2 44.3 6.4 45.5 6.6 46.7 C7 50.1 7.5 53.6 8 57 C8.2 58.2 8.3 59.5 8.5 60.8 C9.3 66.2 10.1 71.4 11.4 76.7 C13.5 85 14.7 93.4 16 101.9 C20.7 132.8 20.7 132.8 25 140 C25 140.7 25 141.3 25 142 C25.7 142 26.3 142 27 142 C27 142.7 27 143.3 27 144 C28.6 144.7 30.3 145.3 32 146 C32.3 147 32.7 148 33 149 C34.3 149.7 35.6 150.3 37 151 C38.6 152.3 40.3 153.6 42 155 C42.7 155.3 43.3 155.7 44 156 C44 156.7 44 157.3 44 158 C44.7 158 45.3 158 46 158 C46 158.7 46 159.3 46 160 C46.7 160 47.3 160 48 160 C48 160.7 48 161.3 48 162 C49 162 50 162 51 162 C52.7 163.6 54.4 165.3 56 167 C57.1 167.9 58.2 168.8 59.3 169.7 C62 172 62 172 62 174 C63.3 174.7 64.6 175.3 66 176 C69 178 69 178 69 180 C50.5 180.2 31.9 180.3 13.4 180.4 C4.8 180.5 -3.8 180.5 -12.5 180.6 C-20.8 180.7 -29.1 180.7 -37.4 180.8 C-40.5 180.8 -43.7 180.8 -46.9 180.8 C-51.3 180.9 -55.8 180.9 -60.2 180.9 C-61.5 180.9 -62.8 181 -64.2 181 C-72.7 180.9 -75.8 179.5 -80 172 C-82.7 168.8 -85.4 165.6 -88.3 162.7 C-100.2 150.8 -100.2 150.8 -99 145 C-96.7 141.6 -94.4 138.3 -92 135 C-85.1 125.2 -85.1 125.2 -84 123 C-83.3 123 -82.7 123 -82 123 C-81.7 121.7 -81.3 120.4 -81 119 C-80.3 119 -79.7 119 -79 119 C-78.3 117 -77.7 115 -77 113 C-74.2 108.6 -71.7 104.7 -68 101 C-66.7 98.7 -65.3 96.3 -64 94 C-61.5 90 -58.9 86.1 -56.3 82.2 C-49.1 71.2 -49.1 71.2 -48 69 C-47.3 69 -46.7 69 -46 69 C-45.3 67.3 -44.7 65.7 -44 64 C-40.4 57.2 -40.4 57.2 -38 56 C-37 54.2 -36 52.3 -35 50.4 C-32 45 -32 45 -30 45 C-30 44 -30 43 -30 42 C-29 41 -28 40 -27 39 C-25.1 36.3 -23.3 33.5 -21.6 30.8 C-20.6 29.3 -19.7 27.8 -18.7 26.3 C-17 23.6 -15.3 20.8 -13.8 18 C-12 15 -12 15 -10 15 C-9.3 13.3 -8.7 11.7 -8 10 C-1.3 0 -1.3 0 0 0 Z " fill="#7A3A2F" transform="translate(469,1868)"/>
<path d="M0 0 C7.8 0 7.3 4.6 9.9 11.5 C19.1 35.6 31.2 39.7 55.5 40.6 C56.1 40.6 56.1 40.6 59.1 40.7 C62.1 40.8 65 40.9 68 41 C65.3 43.7 62.4 44.4 58.8 45.7 C37.3 53.6 23.8 61.9 21 86 C22.5 86 23.9 85.9 25.4 85.9 C39 86.2 50.3 91.3 60 101 C60 101.7 60 102.3 60 103 C60.7 103 61.3 103 62 103 C62 103.7 62 104.3 62 105 C62.7 105 63.3 105 64 105 C67 109 67 109 63.7 114.3 C57.9 121.7 50.1 131 40 131 C40 131.7 40 132.3 40 133 C49.6 132.7 59.1 132.3 69 132 C64 142.1 39.3 139.6 30.2 139.4 C29.3 139.4 29.3 139.4 24.6 139.4 C-20 139 -20 139 -26 133 C-23 132.7 -20.1 132.3 -17 132 C-22 128 -22 128 -26.1 125.5 C-34.3 120.3 -34.3 120.3 -33 114 C-30 108 -30 108 -28 108 C-27.3 106.3 -26.7 104.7 -26 103 C-17.4 93.1 -5.1 87 8 86 C-0.1 62.8 -21.6 58.8 -44 57 C-45 56.3 -46 55.7 -47 55 C-45.2 54.6 -43.3 54.1 -41.4 53.7 C-39 53.1 -36.6 52.5 -34.1 51.9 C-32.9 51.6 -31.7 51.3 -30.5 51 C-10.6 46.1 -3.6 36.6 -1.4 16.3 C-0.9 10.9 -0.4 5.5 0 0 Z " fill="#A7A7A5" transform="translate(1063,1067)"/>
<path d="M0 0 C3.3 1.7 3.5 5 4.7 8.4 C6.8 14.6 9 20.7 11.4 26.8 C15.8 38 19.7 49.3 23.6 60.6 C26.2 68.2 29 75.4 32.5 82.7 C35.4 89 37.6 95.5 40 102 C40.3 102.8 40.3 102.8 41.9 106.9 C45 118.4 41.2 129.2 38.2 140.4 C37.3 143.8 36.4 147.2 35.5 150.6 C35.1 152.3 34.6 153.9 34.2 155.5 C33.2 159.4 32.2 163.3 31.3 167.2 C30.9 168.8 30.4 170.4 30 172 C29.3 172 28.7 172 28 172 C27.7 174.3 27.3 176.6 27 179 C17.4 174.2 10.7 165.9 5 157 C4.3 155.9 3.6 154.8 2.9 153.7 C-3.3 143.3 -5.2 132.9 -7 121 C-7.4 119.1 -7.7 117.1 -8.1 115.1 C-9.5 105.9 -9.3 96.7 -9.2 87.4 C-9.2 85.5 -9.2 83.5 -9.2 81.6 C-8.8 21.9 -8.8 21.9 0 0 Z " fill="#30302F" transform="translate(1456,1493)"/>
<path d="M0 0 C0.7 0 1.3 0 2 0 C2.2 1.6 2.4 3.3 2.6 5 C5.6 26.8 10.2 47.7 19 68 C19.2 68.5 19.2 68.5 20.4 71.3 C31.3 96.7 43.3 121 66 138 C66 138.7 66 139.3 66 140 C42.6 145.5 20.4 142.4 -2 134 C-0.6 135.7 0.8 137.5 2.2 139.2 C3 140.2 3.7 141.2 4.5 142.2 C7 145 7 145 12 149 C12 149.7 12 150.3 12 151 C9.2 151.4 6.4 151.7 3.6 152.1 C2 152.3 0.4 152.5 -1.2 152.7 C-5 153 -5 153 -6 152 C-6.3 149.7 -6.6 147.3 -6.8 145 C-7.6 137.6 -8.8 130.4 -10.1 123.1 C-12.2 110 -12.8 97.2 -13 84 C-13.1 81.8 -13.1 79.6 -13.2 77.3 C-13.2 69.1 -11.9 61.3 -10.4 53.2 C-10.2 51.7 -9.9 50.2 -9.6 48.6 C-7.7 37.3 -5.5 26 -3.2 14.8 C-3 13.3 -2.7 11.8 -2.4 10.3 C-1.7 6.8 -0.8 3.4 0 0 Z " fill="#F7E7E1" transform="translate(584,911)"/>
<path d="M0 0 C6.6 1.6 6.7 8.1 8.4 14.1 C15.1 35.9 24.1 43.6 47 47 C45 51 38.8 51.8 34.8 53.3 C30.9 55 28.2 57.2 25 60 C24.3 60 23.7 60 23 60 C22.3 61.3 21.7 62.6 21 64 C20.3 65.3 19.7 66.6 19 68 C16.7 73.6 15.8 79 15 85 C15.5 85 15.5 85 17.8 85.2 C23.4 86.3 28 88.5 33 91 C33 91.7 33 92.3 33 93 C33.7 93 34.3 93 35 93 C46 105.7 46 105.7 46 113 C31.2 133.1 -0.6 138.5 -23.9 132.6 C-28 131 -28 131 -28 129 C-26.6 128.9 -25.2 128.9 -23.7 128.8 C-21.9 128.7 -20.1 128.6 -18.2 128.6 C-16.4 128.5 -14.5 128.4 -12.7 128.3 C-8 128 -8 128 -5 127 C-6.3 126.2 -7.6 125.4 -9 124.6 C-13 122 -13 122 -13 120 C-14.3 119.3 -15.6 118.7 -17 118 C-22.4 112.2 -24.1 109.4 -21 102 C-15.7 91.9 -4.6 84 7 84 C2.4 63.2 -6.5 54.1 -26.6 47.3 C-33 45 -33 45 -34 42 C-33.5 42 -33.5 42 -30.9 42 C-9.4 41.2 -9.4 41.2 -3.3 31.9 C-1.7 24.8 -1.4 17.9 -1.2 10.6 C-1 6 -1 6 0 0 Z " fill="#A5A6A3" transform="translate(690,1085)"/>
<path d="M0 0 C7.8 0 7.3 4.6 9.9 11.5 C19.1 35.6 31.2 39.7 55.5 40.6 C56.1 40.6 56.1 40.6 59.1 40.7 C62.1 40.8 65 40.9 68 41 C65.3 43.7 62.4 44.4 58.8 45.7 C38.4 53.2 23.8 60.9 21.2 84.4 C21 86.5 20.8 88.5 20.6 90.7 C19.8 99.4 19.3 108.2 19 117 C18.3 117 17.7 117 17 117 C16.4 114.2 15.8 111.4 15.3 108.6 C9.3 78.7 -1.7 64.6 -32 58 C-36 57.7 -40 57.3 -44 57 C-45 56.3 -46 55.7 -47 55 C-45.2 54.6 -43.3 54.1 -41.4 53.7 C-39 53.1 -36.6 52.5 -34.1 51.9 C-32.9 51.6 -31.7 51.3 -30.5 51 C-10.6 46.1 -3.6 36.6 -1.4 16.3 C-0.9 10.9 -0.4 5.5 0 0 Z " fill="#F9F9F8" transform="translate(1063,1067)"/>
<path d="M0 0 C4.4 2.2 7.3 4.8 11 8 C39.5 29 70.4 47.8 103.7 60.3 C110 63 110 63 110 67 C106.6 69.1 106.6 69.1 102.1 71.1 C100.6 71.8 99.1 72.5 97.6 73.2 C84.6 78.3 73.7 79.9 63 70 C60.6 68 58.2 65.9 55.8 63.9 C44 53.8 44 53.8 44 51 C43.3 51 42.7 51 42 51 C42 50.3 42 49.7 42 49 C41.3 49 40.7 49 40 49 C40 48.3 40 47.7 40 47 C39.3 47 38.7 47 38 47 C38 46.3 38 45.7 38 45 C36.7 44.3 35.4 43.7 34 43 C25.8 35.1 18.9 26 12 17 C11.1 15.9 10.3 14.8 9.4 13.6 C6 9.2 2.9 4.8 0 0 Z " fill="#F4E6E1" transform="translate(1023,952)"/>
<path d="M0 0 C6.6 1.6 6.7 8.1 8.4 14.1 C15.1 35.9 24.1 43.6 47 47 C45 51 38.8 51.8 34.8 53.3 C30.9 55 28.2 57.2 25 60 C24.3 60 23.7 60 23 60 C22.3 61.3 21.7 62.6 21 64 C20.7 64.6 20.7 64.6 19.1 67.8 C14.8 78.7 13.7 90.3 13 102 C12.3 102 11.7 102 11 102 C10.4 99.6 10 97.3 9.6 94.9 C5.3 70.2 -1.9 55.7 -26.6 47.3 C-33 45 -33 45 -34 42 C-33.5 42 -33.5 42 -30.9 42 C-9.4 41.2 -9.4 41.2 -3.3 31.9 C-1.7 24.8 -1.4 17.9 -1.2 10.6 C-1 6 -1 6 0 0 Z " fill="#F7F7F6" transform="translate(690,1085)"/>
<path d="M0 0 C7 5.8 7 5.8 7 8 C7.7 8 8.3 8 9 8 C10.7 9.6 12.4 11.3 14 13 C19.2 18.2 24.4 23.2 30 28 C31 28.9 32.1 29.8 33.2 30.8 C48.9 44.4 65.4 57.6 84 67 C85.3 67.7 86.5 68.3 87.8 69 C108.2 79.2 130.1 85.6 152.1 90.8 C156.1 91.8 160.1 92.7 164 94 C164 94.3 164 94.7 164 95 C113.9 96.4 68.8 77.9 32 44 C30.8 43.1 29.6 42.1 28.4 41.1 C19.3 32.8 0 13 0 0 Z " fill="#91918F" transform="translate(671,949)"/>
<path d="M0 0 C1.7 0 3.5 0 5.2 0 C47.4 0.4 47.4 0.4 56.4 9.3 C56.4 10.3 56.4 11.3 56.4 12.3 C49.6 12.6 43.6 12.3 37 10.8 C28.5 9.2 20.4 8.9 11.8 9.1 C11.1 9.1 11.1 9.1 7.6 9.1 C-1.5 9.1 -10.5 9.6 -19.6 10.3 C-26.5 10.7 -26.5 10.7 -31.6 10.3 C-32.6 5.3 -32.6 5.3 -28.6 2.3 C-19.2 -0.4 -9.7 -0 0 0 Z " fill="#BC9892" transform="translate(840.625,1391.6875)"/>
<path d="M0 0 C-5 10.1 -29.7 7.6 -38.8 7.4 C-39.7 7.4 -39.7 7.4 -44.4 7.4 C-89 7 -89 7 -95 1 C-83.1 0.9 -71.2 0.7 -59.2 0.6 C-55.2 0.5 -51.1 0.5 -47.1 0.4 C-41.2 0.4 -35.4 0.3 -29.6 0.2 C-28.7 0.2 -28.7 0.2 -24.1 0.2 C-16.1 0.1 -8 -0 0 0 Z " fill="#69555A" transform="translate(1132,1199)"/>
<path d="M0 0 C3.5 0 4.1 3.5 5.7 6.4 C9.1 12.5 12.9 18.2 17 24 C21 31.4 21 31.4 21 34 C21.7 34 22.3 34 23 34 C29 43.2 29 43.2 29 47 C29.5 47.2 29.5 47.2 32 48 C33.4 51.3 34.7 54.7 36 58 C37.7 60.7 39.3 63.3 41 66 C43 72 43 72 41 77 C37.2 77 36.4 72.2 34.9 69.2 C34.2 67.7 33.4 66.3 32.7 64.8 C31 61 31 61 31 58 C30.3 58 29.7 58 29 58 C27.6 54.7 26.3 51.3 25 48 C24.3 47 23.7 46 23 45 C23 44 23 43 23 42 C22.3 42 21.7 42 21 42 C21 40.7 21 39.4 21 38 C20.3 38 19.7 38 19 38 C17.8 35.8 16.6 33.4 15.5 31.1 C11.6 23.2 7.4 15.5 3 7.8 C1 4 1 4 0 0 Z " fill="#8C8C89" transform="translate(1206,539)"/>
<path d="M0 0 C0 6.2 -10.3 8.1 -15.4 10.1 C-31.5 15.5 -49.7 18.4 -66 12 C-66 11.3 -66 10.7 -66 10 C-64 9.9 -62.1 9.9 -60 9.8 C-40 8.9 -18.9 7.5 0 0 Z " fill="#675054" transform="translate(728,1204)"/>
<path d="M0 0 C-0.1 2.7 -0.2 5.4 -0.4 8.1 C-0.4 9.6 -0.5 11.1 -0.6 12.7 C-1 17 -1 17 -3 23 C-7 22 -7 22 -9 20 C-9.7 12.7 -9.4 0 0 0 Z " fill="#C29F98" transform="translate(804,1272)"/>
<path d="M0 0 C2 1 2 1 2 1 Z " fill="#ECEAE5" transform="translate(267,2047)"/>
<path d="M0 0 C2 1 2 1 2 1 Z " fill="#EFE7E5" transform="translate(1680,1823)"/>
<path d="" fill="#EAE9E7" transform="translate(0,0)"/>
<path d="" fill="#F1E8E3" transform="translate(0,0)"/>
<path d="" fill="#F4EBE4" transform="translate(0,0)"/>
<path d="" fill="#EDECE8" transform="translate(0,0)"/>
<path d="" fill="#EDECE7" transform="translate(0,0)"/>
<path d="" fill="#EEEDE8" transform="translate(0,0)"/>
<path d="" fill="#DCDEDD" transform="translate(0,0)"/>
<path d="" fill="#EDEEE8" transform="translate(0,0)"/>
</svg>
