<?xml version="1.0" encoding="UTF-8"?>
<!-- Generator: visioncortex VTracer 0.6.12 -->
<svg version="1.1" xmlns="http://www.w3.org/2000/svg" width="2048" height="2048">
<path d="M0 0 C1 3 1 3 0.94 8.62 C0.95 9.51 0.95 9.51 1 14 C1.33 14.16 1.33 14.16 3 15 C3.67 17.42 4.22 19.86 4.73 22.32 C5.04 23.8 5.35 25.29 5.66 26.82 C5.98 28.38 6.3 29.95 6.62 31.56 C6.95 33.13 7.27 34.7 7.61 36.32 C8.41 40.21 9.21 44.1 10 48 C7.04 48.03 4.08 48.05 1.12 48.06 C-0.52 48.07 -2.17 48.09 -3.87 48.1 C-8 48 -8 48 -10 47 C-9.11 48.75 -8.23 50.51 -7.31 52.31 C5.41 77.9 11.57 104.61 2.88 132.88 C-4.43 152.3 -16.41 169.17 -35.5 178.31 C-53.75 186.13 -71.66 187.02 -90.31 179.75 C-106.96 172.15 -118.95 160.87 -128 145 C-128.91 143.43 -129.82 141.87 -130.75 140.25 C-142.74 112.28 -140.62 85.86 -130 58 C-152.99 61.55 -174.34 69.74 -195.1 80.07 C-199 82 -199 82 -202 83 C-195.81 60.56 -179.04 42.1 -159.36 30.44 C-139.38 19.74 -118.56 15.54 -96.48 19.76 C-70.93 24.62 -45.95 25.3 -20 25 C-25.01 20.89 -30.35 17.92 -36.02 14.8 C-39 13 -39 13 -40 11 C-39.02 10.91 -38.04 10.83 -37.03 10.74 C-25.07 9.49 -10.6 0 0 0 Z M-74 48 C-76.74 50.74 -76.59 52.81 -77.11 56.62 C-77.31 57.97 -77.51 59.32 -77.71 60.71 C-78.11 63.54 -78.5 66.37 -78.88 69.2 C-81.56 87.35 -81.56 87.35 -88.71 93.23 C-100.16 98.38 -112.03 102.22 -124 106 C-124 106.99 -124 107.98 -124 109 C-122.99 109.19 -121.98 109.37 -120.95 109.56 C-116.34 110.42 -111.73 111.3 -107.12 112.19 C-105.54 112.48 -103.95 112.77 -102.32 113.07 C-83.27 116.76 -83.27 116.76 -76.61 123.37 C-69.93 134.27 -65.23 146.09 -60.66 157.99 C-59 162 -59 162 -57 164 C-55.03 162.03 -55.43 158.25 -55.17 155.63 C-55.01 154.11 -54.85 152.58 -54.69 151.01 C-54.36 147.79 -54.04 144.58 -53.72 141.36 C-51.55 120.84 -51.55 120.84 -44.88 113.63 C-40.37 110.57 -35.82 108.23 -30.88 105.94 C-29.95 105.51 -29.03 105.08 -28.08 104.63 C-22.87 102.22 -17.63 100.01 -12.25 98 C-7 96 -7 96 -6 94 C-13.67 92.65 -21.33 91.59 -29.06 90.62 C-49.52 87.82 -49.52 87.82 -57 78 C-59.2 73.77 -59.2 73.77 -61.12 69.25 C-61.8 67.68 -62.48 66.11 -63.18 64.49 C-64.67 60.83 -65.97 57.19 -67.19 53.44 C-67.79 51.97 -68.38 50.51 -69 49 C-70.65 48.67 -72.3 48.34 -74 48 Z " fill="#000000" transform="translate(1133,1018)"/>
<path d="M0 0 C1.5 0.41 3 0.82 4.54 1.24 C6.57 1.79 8.6 2.33 10.62 2.88 C11.6 3.14 12.58 3.41 13.59 3.69 C29.08 7.81 43.58 8.18 59.54 7.48 C72.14 7.22 72.14 7.22 76.95 11.52 C77.95 12.67 78.96 13.82 80 15 C80.66 15 81.32 15 82 15 C80.02 12.36 78.04 9.72 76 7 C83.75 5.06 91.99 5.82 99.94 5.81 C101.77 5.8 103.59 5.79 105.48 5.78 C131.21 5.75 154.28 11.41 173.93 28.89 C182.9 37.98 190.41 49.04 195 61 C194.67 61.66 194.34 62.32 194 63 C192.54 62.25 191.08 61.5 189.57 60.73 C187.61 59.74 185.65 58.74 183.69 57.75 C182.73 57.26 181.77 56.77 180.79 56.26 C174.32 53 167.85 50.36 161 48 C161.33 48.95 161.65 49.9 161.99 50.88 C171.6 80.83 172.26 116.33 158.81 145.31 C153.07 156.14 145.24 164.45 133.81 169.38 C120.31 171.59 110.45 169.5 99.25 161.69 C77.12 142.49 67.04 114.57 64.31 85.81 C63.49 70.5 64.6 55.99 68 41 C62.08 41.96 56.15 42.92 50.23 43.88 C48.22 44.21 46.21 44.53 44.2 44.86 C41.29 45.33 38.39 45.8 35.48 46.27 C33.74 46.56 31.99 46.84 30.2 47.13 C24.79 48.04 19.39 49.01 14 50 C19.04 76.29 19.04 76.29 23 89 C23.67 91.33 24.34 93.67 25 96 C19.97 91.7 14.98 87.36 10 83 C8.78 81.97 7.57 80.94 6.31 79.88 C-9.38 65.77 -9.38 65.77 -15 58 C-15 57.34 -15 56.68 -15 56 C-15.66 56 -16.32 56 -17 56 C-22.88 49.76 -27.95 42.93 -33 36 C-34.18 34.41 -35.35 32.82 -36.56 31.19 C-39.06 26.9 -39.62 24.84 -39 20 C-37.25 20.16 -35.49 20.33 -33.69 20.5 C-18.36 21.73 -3.19 20.3 12 18 C10 14 10 14 6.56 10.56 C3 7 3 7 0 2 C0 1.34 0 0.68 0 0 Z M113 41 C112.92 41.84 112.85 42.67 112.77 43.54 C112.42 47.36 112.05 51.18 111.69 55 C111.57 56.32 111.45 57.63 111.33 58.99 C110.56 66.88 109.83 74.08 105.06 80.69 C98.65 85.53 91.12 87.83 83.38 89.69 C78 91 78 91 76 93 C83.14 95.74 90.38 98.08 97.66 100.4 C104.4 102.88 108.1 104.55 111.94 110.75 C116.56 120.77 119.65 131.5 123 142 C123.66 141.67 124.32 141.34 125 141 C125.91 136.16 126.63 131.32 127.32 126.45 C128.72 117.25 130.22 108.78 137 102 C140.29 100.37 143.63 98.84 147 97.38 C148.77 96.6 150.55 95.82 152.38 95.02 C153.9 94.36 155.43 93.69 157 93 C158.32 92.34 159.64 91.68 161 91 C160.67 90.34 160.34 89.68 160 89 C155.07 87.65 150.1 86.55 145.12 85.41 C136.64 83.07 131.01 80.4 126 73 C123.98 68.17 122.38 63.24 120.81 58.25 C119.97 55.63 119.13 53.01 118.27 50.39 C117.9 49.24 117.54 48.08 117.16 46.89 C116 44 116 44 113 41 Z " fill="#000000" transform="translate(564,1045)"/>
<path d="M0 0 C1.39 5.54 -0.38 9.91 -1.94 15.25 C-2.26 16.36 -2.58 17.47 -2.91 18.62 C-11.24 47.2 -22.44 73.51 -36 100 C-12.41 88.5 9.18 76.05 29.26 59.07 C32.41 56.48 35.56 54.18 39 52 C40.3 70.57 36.73 88.59 33.66 106.83 C31.03 123.37 30.12 139.12 39 154 C41.59 157.08 44.29 160.02 47 163 C47 163.66 47 164.32 47 165 C48.32 165.66 49.64 166.32 51 167 C52.36 167.99 53.72 168.98 55.12 170 C61.35 174.42 68.02 177.98 74.71 181.64 C78.04 183.47 81.32 185.34 84.56 187.31 C87.41 189.04 90.31 190.69 93.25 192.25 C119.29 207.33 133.25 225.14 141 254 C144.33 268.92 143.8 284.89 142 300 C159.79 282.21 167.79 261.44 171 237 C174.24 240.19 177.32 243.45 180.31 246.88 C184.28 251.3 188.4 255.22 193 259 C193.88 259.75 194.75 260.5 195.65 261.27 C216.34 278.2 239.16 284.47 265.16 288.21 C266.42 288.4 267.68 288.59 268.97 288.79 C269.54 288.87 269.54 288.87 272.42 289.28 C273.27 289.52 274.12 289.76 275 290 C276 293 276 293 273.88 297.38 C266.89 308.47 256.23 317.01 246 325 C245.11 325.74 244.23 326.48 243.31 327.25 C241 329 241 329 239 329 C239 329.66 239 330.32 239 331 C240.65 331 242.3 331 244 331 C244 331.33 244 331.66 244 332 C242.06 331.92 240.12 331.84 238.12 331.75 C227.29 331.74 216.77 333.68 206.12 335.48 C203.31 335.95 200.49 336.37 197.68 336.79 C185.92 338.57 176.29 342.2 165.76 347.63 C163.23 348.88 160.62 349.95 158 351 C154.63 352.8 151.3 354.67 147.96 356.54 C145 358 145 358 142 358 C142 358.66 142 359.32 142 360 C139.69 361.06 137.35 362.05 135 363 C132.3 364.32 129.62 365.65 126.94 367 C126.26 367.34 126.26 367.34 122.84 369.06 C121.57 369.7 120.31 370.34 119 371 C118 371.5 117 372 115.96 372.52 C113.8 373.6 111.64 374.7 109.48 375.8 C101.39 379.9 93.25 383.69 84.92 387.26 C79.75 389.56 74.72 392.11 69.7 394.71 C67 396 67 396 65 396 C64.34 397.65 63.68 399.3 63 401 C62.34 401 61.68 401 61 401 C61 401.66 61 402.32 61 403 C61.99 403.33 62.98 403.66 64 404 C69.32 414.14 71 426.63 71 438 C71.31 439.53 71.62 441.05 71.94 442.62 C72.95 447.76 73.51 452.79 74 458 C74.33 459.65 74.66 461.3 75 463 C76.16 471.68 76.16 471.68 75 474 C75.66 474 76.32 474 77 474 C77 474.66 77 475.32 77 476 C75.68 477.32 74.36 478.64 73 480 C74.65 479.67 76.3 479.34 78 479 C77.99 479.46 77.99 479.46 77.93 481.81 C77.91 483.01 77.89 484.2 77.88 485.44 C77.86 486.03 77.86 486.03 77.8 489.06 C77.87 490.03 77.93 491 78 492 C78.66 492.33 79.32 492.66 80 493 C80 494.98 80 496.96 80 499 C79.34 499 78.68 499 78 499 C78.99 499.66 79.98 500.32 81 501 C80.67 502.32 80.34 503.64 80 505 C80.77 508.86 81.71 512.3 83 516 C82.34 516 81.68 516 81 516 C81 516.66 81 517.32 81 518 C81.66 518.33 82.32 518.66 83 519 C83 519.99 83 520.98 83 522 C82.34 522 81.68 522 81 522 C81.66 522.33 82.32 522.66 83 523 C83 524.98 83 526.96 83 529 C83.66 529 84.32 529 85 529 C86.12 532.87 86.12 532.87 87 537 C86.34 537.66 85.68 538.32 85 539 C85 539.66 85 540.32 85 541 C85.66 541.33 86.32 541.66 87 542 C86.34 542 85.68 542 85 542 C85 542.66 85 543.32 85 544 C85.66 544.33 86.32 544.66 87 545 C86.67 545.33 86.34 545.66 86 546 C86.66 546.33 87.32 546.66 88 547 C89 552 89 552 89.44 556.06 C90 560 90 560 92 564 C92.26 566.03 92.44 568.08 92.56 570.12 C93 576 93 576 94 578 C93.34 578.33 92.68 578.66 92 579 C92.66 579.66 93.32 580.32 94 581 C94.33 582.32 94.66 583.64 95 585 C94.67 585.33 94.34 585.66 94 586 C94.33 587.32 94.66 588.64 95 590 C95 593 95 593 94 596 C94.99 596.33 95.98 596.66 97 597 C97.51 599.94 97.51 599.94 97.69 603.56 C97.75 604.76 97.82 605.96 97.89 607.19 C97.92 608.12 97.96 609.05 98 610 C95 609 95 609 93 608 C93 608.66 93 609.32 93 610 C92.34 610 91.68 610 91 610 C91 610.66 91 611.32 91 612 C90.34 611.67 89.68 611.34 89 611 C89 610.01 89 609.02 89 608 C88.34 607.67 87.68 607.34 87 607 C86.67 605.68 86.34 604.36 86 603 C81.94 602.25 81.94 602.25 78 602 C78.33 601.34 78.66 600.68 79 600 C78.67 599.34 78.34 598.68 78 598 C78.33 597.34 78.66 596.68 79 596 C77.68 595.67 76.36 595.34 75 595 C74.67 593.35 74.34 591.7 74 590 C74.66 590 75.32 590 76 590 C76 589.01 76 588.02 76 587 C75.34 586.67 74.68 586.34 74 586 C75.65 585.67 77.3 585.34 79 585 C78.67 584.34 78.34 583.68 78 583 C78 583.66 78 584.32 78 585 C76.68 585 75.36 585 74 585 C73.69 583.39 73.38 581.78 73.06 580.12 C72 575 72 575 71 573 C71.33 572.34 71.66 571.68 72 571 C71.34 570.67 70.68 570.34 70 570 C70.88 564.25 70.88 564.25 72 562 C71.01 562 70.02 562 69 562 C68 558 68 558 68 554 C67.53 549.25 66.94 544.68 66 540 C66.33 539.34 66.66 538.68 67 538 C66.34 538 65.68 538 65 538 C64.94 537.12 64.88 536.24 64.82 535.33 C64.73 534.17 64.65 533.01 64.56 531.81 C64.48 530.66 64.4 529.52 64.32 528.33 C64 525 64 525 63 520 C63 518.02 63 516.04 63 514 C62.34 513.67 61.68 513.34 61 513 C61 512 61 511 61 510 C60.67 508.68 60.34 507.36 60 506 C60.66 505.34 61.32 504.68 62 504 C62.33 502.68 62.66 501.36 63 500 C62.34 499.67 61.68 499.34 61 499 C60.53 491.71 60.53 491.71 63 488 C62.67 486.35 62.34 484.7 62 483 C62.33 481.35 62.66 479.7 63 478 C62.67 477.34 62.34 476.68 62 476 C62.33 475.67 62.66 475.34 63 475 C62.71 472.99 62.38 470.99 62 469 C61.01 469.33 60.02 469.66 59 470 C58 467 58 467 58.25 463.44 C58.21 462.87 58.21 462.87 58 460 C56.35 459.34 54.7 458.68 53 458 C53.33 457.34 53.66 456.68 54 456 C53.34 455.34 52.68 454.68 52 454 C52.66 453.34 53.32 452.68 54 452 C53.34 451.67 52.68 451.34 52 451 C52 448.67 52 446.33 52 444 C51.34 443.34 50.68 442.68 50 442 C49.47 439.06 48.95 436.11 48.5 433.15 C48.09 430.59 47.56 428.04 47 425.5 C46.18 421.82 45.56 418.22 45 414.5 C44.67 412.68 44.34 410.87 44 409 C42 408 42 408 36.38 409.81 C27.93 413.18 20.56 418 13 423 C11.88 423.74 10.75 424.48 9.6 425.24 C5.72 427.81 1.86 430.4 -2 433 C-18.33 443.93 -34.69 454.83 -51.29 465.36 C-61.51 471.84 -71.66 478.4 -81.71 485.14 C-94.98 494 -108.48 502.52 -122 511 C-122.66 511.42 -122.66 511.42 -126.02 513.54 C-127.19 514.27 -128.36 515 -129.56 515.75 C-130.57 516.38 -131.59 517.02 -132.63 517.67 C-135 519 -135 519 -137 519 C-136.59 524.01 -134.7 528 -132.58 532.51 C-130.64 536.79 -128.92 541.13 -127.19 545.5 C-123.92 553.73 -120.53 561.9 -117.08 570.06 C-114.39 576.45 -111.77 582.86 -109.15 589.28 C-107.21 594.05 -105.25 598.81 -103.25 603.56 C-100.72 609.67 -98.34 615.82 -96 622 C-95.5 623.29 -95 624.59 -94.49 625.92 C-93.98 627.27 -93.47 628.61 -92.94 630 C-92.47 631.22 -92.01 632.43 -91.53 633.69 C-90.23 637.36 -89.04 641.04 -87.9 644.77 C-87.55 645.94 -87.19 647.1 -86.82 648.31 C-86.55 649.2 -86.28 650.08 -86 651 C-163.63 651.25 -241.27 651.45 -318.9 651.56 C-328.06 651.58 -337.23 651.59 -346.39 651.6 C-347.3 651.61 -347.3 651.61 -351.92 651.61 C-381.46 651.66 -411.01 651.75 -440.56 651.85 C-470.87 651.95 -501.18 652.01 -531.49 652.03 C-550.2 652.05 -568.91 652.1 -587.62 652.19 C-600.44 652.25 -613.26 652.26 -626.09 652.25 C-633.49 652.24 -640.89 652.25 -648.29 652.31 C-655.07 652.36 -661.85 652.37 -668.62 652.33 C-671.07 652.33 -673.53 652.34 -675.98 652.37 C-696.56 652.65 -696.56 652.65 -704.18 645.71 C-705.81 643.83 -707.42 641.92 -709 640 C-710.9 638.37 -712.84 636.78 -714.81 635.25 C-719.16 631.75 -723.09 627.99 -727 624 C-727.97 623.24 -728.94 622.47 -729.94 621.69 C-730.62 621.13 -731.3 620.57 -732 620 C-732 619.34 -732 618.68 -732 618 C-732.66 618 -733.32 618 -734 618 C-734 617.34 -734 616.68 -734 616 C-734.99 615.67 -735.98 615.34 -737 615 C-739.76 608.17 -741.07 601.09 -742.38 593.88 C-743.96 585.32 -745.66 576.81 -747.56 568.31 C-753.08 543.05 -756.09 517.67 -759 492 C-759.99 492 -760.98 492 -762 492 C-763.12 488.12 -763.12 488.12 -764 484 C-763.34 483.34 -762.68 482.68 -762 482 C-763.32 481.67 -764.64 481.34 -766 481 C-766 478.36 -766 475.72 -766 473 C-766.33 473 -766.66 473 -767 473 C-767.12 469.62 -767.12 469.62 -767 466 C-766.34 465.34 -765.68 464.68 -765 464 C-763.54 456.23 -764.44 449.14 -765.39 441.33 C-766.62 430.58 -767.38 419.81 -768 409 C-768.04 408.35 -768.04 408.35 -768.26 405.05 C-769.67 382.17 -769.67 382.17 -765.68 374.62 C-762.95 371.66 -760.23 369.38 -757 367 C-754.58 364.27 -753.15 362.46 -752 359 C-751.01 358.01 -750.02 357.02 -749 356 C-748.34 356 -747.68 356 -747 356 C-746.67 355.34 -746.67 355.34 -745 352 C-744.01 351.67 -743.02 351.34 -742 351 C-741.67 350.34 -741.67 350.34 -740 347 C-738.03 344.29 -736.19 342.15 -733.56 340.06 C-731 338 -731 338 -728.94 335.31 C-721.78 327.25 -712.1 321.63 -703 316 C-704.32 315.67 -705.64 315.34 -707 315 C-707 314.67 -707 314.34 -707 314 C-706.08 313.87 -706.08 313.87 -701.44 313.19 C-690.2 310.84 -680.17 305.15 -670 300 C-668.68 299.34 -667.36 298.68 -666 298 C-666.19 294.89 -666.39 291.78 -666.72 288.68 C-667.27 282.65 -667.72 276.86 -666 271 C-659.67 265.74 -652.79 264.09 -645 262 C-623.1 251.64 -611.61 232.07 -600.38 211.62 C-596.51 204.68 -592.32 197.94 -587 192 C-586.34 192 -585.68 192 -585 192 C-585 191.34 -585 190.68 -585 190 C-583.13 188.34 -581.26 186.68 -579.36 185.05 C-567.73 174.94 -561.93 165.5 -560 150 C-559.42 141.68 -559.96 133.42 -560.49 125.11 C-560.58 123.68 -560.68 122.24 -560.77 120.77 C-560.96 117.91 -561.16 115.05 -561.38 112.19 C-563.21 85.72 -555.25 69.27 -539.91 48.03 C-538.1 45.52 -536.32 43 -534.59 40.44 C-532.84 37.88 -530.94 35.42 -529 33 C-523.96 34.26 -522.1 36.47 -518.38 40.06 C-513.63 44.56 -508.89 48.86 -503.73 52.86 C-500.27 55.58 -496.89 58.39 -493.5 61.19 C-477.43 74.23 -460.28 85.65 -443 97 C-441.42 98.04 -439.84 99.08 -438.22 100.14 C-359.01 151.82 -359.01 151.82 -330.26 145.94 C-322.94 144.32 -315.73 142.36 -308.5 140.38 C-306.87 139.93 -305.25 139.48 -303.57 139.03 C-300.26 138.12 -296.95 137.2 -293.64 136.28 C-290.79 135.49 -287.93 134.71 -285.08 133.93 C-236.69 120.71 -190.42 102.74 -144.95 81.66 C-139.49 79.13 -134 76.68 -128.48 74.28 C-123.25 72 -118.09 69.66 -113 67.06 C-111.67 66.39 -110.34 65.71 -108.96 65.02 C-107.66 64.35 -106.35 63.69 -105 63 C-102.52 61.77 -100.04 60.54 -97.56 59.31 C-63.55 42.26 -29.77 23.92 0 0 Z M60 404 C60.33 404.66 60.66 405.32 61 406 C61.33 405.34 61.66 404.68 62 404 C61.34 404 60.68 404 60 404 Z M61 406 C61.33 406.66 61.66 407.32 62 408 C62.66 407.67 63.32 407.34 64 407 C63.01 406.67 62.02 406.34 61 406 Z M48 418 C49 420 49 420 49 420 Z M53 448 C53.33 448.66 53.66 449.32 54 450 C54.66 449.34 55.32 448.68 56 448 C55.01 448 54.02 448 53 448 Z M61 461 C62 464 62 464 62 464 Z M64 480 C64.66 481.32 65.32 482.64 66 484 C66.33 483.34 66.66 482.68 67 482 C66.67 481.34 66.34 480.68 66 480 C65.34 480 64.68 480 64 480 Z M73 481 C73.49 481.33 73.49 481.33 76 483 C76 482.34 76 481.68 76 481 C75.01 481 74.02 481 73 481 Z M66 485 C65.67 485.66 65.34 486.32 65 487 C65.66 487 66.32 487 67 487 C66.67 486.34 66.34 485.68 66 485 Z M66 488 C66 488.66 66 489.32 66 490 C66.66 489.67 67.32 489.34 68 489 C67.34 488.67 66.68 488.34 66 488 Z M68 488 C68.66 488.66 69.32 489.32 70 490 C70 489.34 70 488.68 70 488 C69.34 488 68.68 488 68 488 Z M63 491 C63 491.66 63 492.32 63 493 C63.66 493 64.32 493 65 493 C65 492.34 65 491.68 65 491 C64.34 491 63.68 491 63 491 Z M67 492 C68 494 68 494 68 494 Z M79 507 C80 509 80 509 80 509 Z M67 508 C67 508.66 67 509.32 67 510 C67.99 509.67 68.98 509.34 70 509 C69.01 508.67 68.02 508.34 67 508 Z M63 512 C63 512.66 63 513.32 63 514 C63.66 514 64.32 514 65 514 C65 513.34 65 512.68 65 512 C64.34 512 63.68 512 63 512 Z M79 517 C79 517.66 79 518.32 79 519 C79.66 518.67 80.32 518.34 81 518 C80.34 517.67 79.68 517.34 79 517 Z M78 530 C79 532 79 532 79 532 Z M77 532 C77 532.66 77 533.32 77 534 C77.66 533.67 78.32 533.34 79 533 C78.34 532.67 77.68 532.34 77 532 Z M83 532 C82.67 532.66 82.34 533.32 82 534 C82.66 534 83.32 534 84 534 C83.67 533.34 83.34 532.68 83 532 Z M83 547 C83.66 547.66 84.32 548.32 85 549 C85 548.34 85 547.68 85 547 C84.34 547 83.68 547 83 547 Z M85 553 C85 553.66 85 554.32 85 555 C85.66 554.67 86.32 554.34 87 554 C86.34 553.67 85.68 553.34 85 553 Z M86 556 C86 556.66 86 557.32 86 558 C86.66 557.67 87.32 557.34 88 557 C87.34 556.67 86.68 556.34 86 556 Z M73 557 C73.49 557.33 73.49 557.33 76 559 C76 558.34 76 557.68 76 557 C75.01 557 74.02 557 73 557 Z M74 562 C74 563.32 74 564.64 74 566 C74.66 566.66 75.32 567.32 76 568 C76.33 566.35 76.66 564.7 77 563 C76.01 562.67 75.02 562.34 74 562 Z M80 562 C80.66 563.32 81.32 564.64 82 566 C81.67 564.68 81.34 563.36 81 562 C80.67 562 80.34 562 80 562 Z M80 566 C79.67 566.99 79.34 567.98 79 569 C79.33 569.16 79.33 569.16 81 570 C80.67 568.68 80.34 567.36 80 566 Z M76 568 C75.01 568.33 74.02 568.66 73 569 C73 569.66 73 570.32 73 571 C74.32 570.67 75.64 570.34 77 570 C76.67 569.34 76.34 568.68 76 568 Z M90 571 C91 573 91 573 91 573 Z M75 572 C75.33 572.66 75.66 573.32 76 574 C76.66 573.67 77.32 573.34 78 573 C77.01 572.67 76.02 572.34 75 572 Z M80 573 C81 575 81 575 81 575 Z M77 576 C78 578 78 578 78 578 Z M82 578 C83 580 83 580 83 580 Z M77 579 C77.33 579.66 77.66 580.32 78 581 C78.33 580.34 78.66 579.68 79 579 C78.34 579 77.68 579 77 579 Z M92 582 C93 584 93 584 93 584 Z M78 593 C77.67 593.66 77.34 594.32 77 595 C77.66 595 78.32 595 79 595 C78.67 594.34 78.34 593.68 78 593 Z M81 597 C81.66 597.66 82.32 598.32 83 599 C83 598.34 83 597.68 83 597 C82.34 597 81.68 597 81 597 Z M92 597 C92 597.99 92 598.98 92 600 C92.99 599.67 93.98 599.34 95 599 C94.67 598.34 94.34 597.68 94 597 C93.34 597 92.68 597 92 597 Z M83 600 C83.33 600.66 83.66 601.32 84 602 C84.66 601.67 85.32 601.34 86 601 C85.01 600.67 84.02 600.34 83 600 Z M87 600 C87 600.66 87 601.32 87 602 C87.66 601.67 88.32 601.34 89 601 C88.34 600.67 87.68 600.34 87 600 Z M91 602 C91.33 602.66 91.66 603.32 92 604 C92.33 603.34 92.66 602.68 93 602 C92.34 602 91.68 602 91 602 Z M93 603 C93.49 603.33 93.49 603.33 96 605 C96 604.34 96 603.68 96 603 C95.01 603 94.02 603 93 603 Z M90 604 C90 604.66 90 605.32 90 606 C90.66 605.67 91.32 605.34 92 605 C91.34 604.67 90.68 604.34 90 604 Z M90 607 C90 607.66 90 608.32 90 609 C90.66 608.67 91.32 608.34 92 608 C91.34 607.67 90.68 607.34 90 607 Z " fill="#000000" transform="translate(1208,1397)"/>
<path d="M0 0 C1.81 4.23 3.5 8.45 5.12 12.75 C6.13 15.35 7.13 17.96 8.14 20.56 C8.38 21.2 8.38 21.2 9.63 24.45 C11.35 28.9 13.14 33.33 14.94 37.75 C19.01 47.87 22.82 58.09 26.61 68.32 C29.5 76.09 32.5 83.79 35.59 91.48 C37.61 96.53 39.56 101.59 41.44 106.69 C41.8 107.62 42.16 108.55 42.54 109.5 C46.42 120.24 44.65 129.04 41.06 139.69 C36.71 153.06 33.58 166.73 30.38 180.41 C29.97 182.14 29.56 183.87 29.14 185.64 C28.77 187.21 28.41 188.77 28.03 190.37 C27 194 27 194 25 196 C1.72 181.09 -11.6 165.45 -18 138 C-19.99 125.33 -20.35 112.68 -20.31 99.88 C-20.31 98.96 -20.31 98.96 -20.3 94.34 C-20.1 69.6 -17.4 45.33 -13 21 C-12.79 19.63 -12.58 18.26 -12.36 16.85 C-11.29 10.85 -7.82 0 0 0 Z " fill="#000000" transform="translate(1459,1491)"/>
<path d="M0 0 C0 0.66 0 1.32 0 2 C0.33 2.16 0.33 2.16 2 3 C2 3.99 2 4.98 2 6 C2.99 6 3.98 6 5 6 C4.34 7.32 3.68 8.64 3 10 C2.01 10 1.02 10 0 10 C-1.32 11.32 -2.64 12.64 -4 14 C-9.37 16.45 -13.07 18 -19 18 C-19.33 19.32 -19.66 20.64 -20 22 C-22.29 23.6 -22.29 23.6 -25.19 25.06 C-26.18 25.57 -27.17 26.08 -28.2 26.6 C-29.12 27.06 -30.05 27.52 -31 28 C-32.18 28.64 -33.35 29.28 -34.56 29.94 C-35.37 30.29 -36.17 30.64 -37 31 C-37.66 30.67 -38.32 30.34 -39 30 C-39 30.66 -39 31.32 -39 32 C-42.76 35.76 -45.76 36.59 -51 37 C-51 36.34 -51 35.68 -51 35 C-51.99 34.67 -52.98 34.34 -54 34 C-54.33 35.98 -54.66 37.96 -55 40 C-55.66 40 -56.32 40 -57 40 C-56.34 40.66 -55.68 41.32 -55 42 C-56.32 42.33 -57.64 42.66 -59 43 C-61 44 -61 44 -62 46 C-63.32 46.66 -64.64 47.32 -66 48 C-66.66 47.67 -67.32 47.34 -68 47 C-68 47.66 -68 48.32 -68 49 C-67.34 49.33 -66.68 49.66 -66 50 C-67.32 50.33 -68.64 50.66 -70 51 C-70.33 51.99 -70.66 52.98 -71 54 C-72.32 54.33 -73.64 54.66 -75 55 C-75.33 55.99 -75.66 56.98 -76 58 C-76.66 58 -77.32 58 -78 58 C-78 58.66 -78 59.32 -78 60 C-78.99 60 -79.98 60 -81 60 C-81.66 61.32 -82.32 62.64 -83 64 C-84.66 65.34 -86.33 66.68 -88 68 C-88.85 69.03 -89.69 70.06 -90.56 71.12 C-93 74 -93 74 -97 76 C-97.66 75.67 -98.32 75.34 -99 75 C-98.67 76.32 -98.34 77.64 -98 79 C-98.49 79.16 -98.49 79.16 -101 80 C-101 80.66 -101 81.32 -101 82 C-101.66 82.33 -101.66 82.33 -105 84 C-105.33 84.66 -105.33 84.66 -107 88 C-108.32 89.32 -109.64 90.64 -111 92 C-111.66 92 -112.32 92 -113 92 C-113.16 92.66 -113.16 92.66 -114 96 C-117.03 99.03 -119.24 101.12 -123 103 C-122.67 103.99 -122.34 104.98 -122 106 C-122.49 106.16 -122.49 106.16 -125 107 C-125.66 108.65 -126.32 110.3 -127 112 C-127.66 112 -128.32 112 -129 112 C-129.16 112.66 -129.16 112.66 -130 116 C-131.99 117.34 -133.99 118.68 -136 120 C-136 120.99 -136 121.98 -136 123 C-142.33 135.67 -142.33 135.67 -147 138 C-146.67 138.66 -146.34 139.32 -146 140 C-148 144 -148 144 -150 145 C-150.33 146.65 -150.66 148.3 -151 150 C-151.66 150 -152.32 150 -153 150 C-153.06 150.45 -153.06 150.45 -153.38 152.75 C-154.11 156.59 -155.22 159.22 -158 162 C-158.66 163.65 -159.32 165.3 -160 167 C-160.66 167.33 -161.32 167.66 -162 168 C-161.67 169.32 -161.34 170.64 -161 172 C-161.66 172.66 -162.32 173.32 -163 174 C-163 174.66 -163 175.32 -163 176 C-163.66 176 -164.32 176 -165 176 C-165.29 176.95 -165.58 177.9 -165.88 178.88 C-167 182 -167 182 -169 184 C-168.84 184.33 -168.84 184.33 -168 186 C-168.33 186.66 -168.66 187.32 -169 188 C-169.99 188 -170.98 188 -172 188 C-171.34 188.66 -170.68 189.32 -170 190 C-170.66 190 -171.32 190 -172 190 C-172.66 191.65 -173.32 193.3 -174 195 C-173.34 195.33 -172.68 195.66 -172 196 C-172.24 196.46 -172.24 196.46 -173.44 198.81 C-175 202 -175 202 -176 205 C-176.99 205.99 -177.98 206.98 -179 208 C-178.34 208 -177.68 208 -177 208 C-177.33 208.66 -177.66 209.32 -178 210 C-179 214 -179.52 217.9 -180 222 C-180.99 221.67 -181.98 221.34 -183 221 C-182.67 220.01 -182.34 219.02 -182 218 C-182.66 218 -183.32 218 -184 218 C-184 217.34 -184 216.68 -184 216 C-185.98 216 -187.96 216 -190 216 C-190 213 -190 213 -189 212 C-193 209 -193 209 -194 209 C-194.66 209.33 -195.32 209.66 -196 210 C-196.99 209.34 -197.98 208.68 -199 208 C-198.51 207.67 -198.51 207.67 -196 206 C-196.33 205.01 -196.66 204.02 -197 203 C-196.01 202.01 -195.02 201.02 -194 200 C-194 201.98 -194 203.96 -194 206 C-193.67 204.35 -193.34 202.7 -193 201 C-192.34 201 -191.68 201 -191 201 C-191.66 200.67 -192.32 200.34 -193 200 C-192.67 199.01 -192.34 198.02 -192 197 C-191.34 197 -190.68 197 -190 197 C-189.67 196.67 -189.34 196.34 -189 196 C-189.99 195.67 -190.98 195.34 -192 195 C-191.34 194.67 -190.68 194.34 -190 194 C-190.66 193.34 -191.32 192.68 -192 192 C-191.01 192 -190.02 192 -189 192 C-189 191.01 -189 190.02 -189 189 C-188.34 189 -187.68 189 -187 189 C-187.66 187.02 -188.32 185.04 -189 183 C-188.01 182.67 -187.02 182.34 -186 182 C-186.33 180.35 -186.66 178.7 -187 177 C-186.67 176.67 -186.67 176.67 -185 175 C-185 174.34 -185 173.68 -185 173 C-184.34 173 -183.68 173 -183 173 C-183 171.02 -183 169.04 -183 167 C-182.34 166.01 -181.68 165.02 -181 164 C-180.34 164 -179.68 164 -179 164 C-178.91 163 -178.81 162 -178.71 160.96 C-177.94 156.65 -176.55 153.46 -174.56 149.56 C-173.95 148.33 -173.33 147.09 -172.69 145.82 C-172.41 145.35 -172.41 145.35 -171 143 C-170.34 143 -169.68 143 -169 143 C-169.33 142.01 -169.66 141.02 -170 140 C-169.34 139.34 -169.34 139.34 -166 136 C-164.97 133.34 -163.97 130.68 -163 128 C-162.34 127.67 -161.68 127.34 -161 127 C-161 126.34 -161 125.68 -161 125 C-160.34 125 -159.68 125 -159 125 C-158.84 124.34 -158.84 124.34 -158 121 C-157.34 119.68 -156.68 118.36 -156 117 C-155.34 117 -154.68 117 -154 117 C-153.84 116.34 -153.84 116.34 -153 113 C-152.34 113 -151.68 113 -151 113 C-150.67 111.35 -150.34 109.7 -150 108 C-148.37 106.29 -146.71 104.62 -145 103 C-145 102.34 -145 101.68 -145 101 C-141 97 -141 97 -139 96 C-138.84 95.34 -138.84 95.34 -138 92 C-137.34 91.34 -136.68 90.68 -136 90 C-135.01 88.68 -134.02 87.36 -133 86 C-132.01 85.34 -131.02 84.68 -130 84 C-129.84 83.51 -129.84 83.51 -129 81 C-128.34 80.67 -127.68 80.34 -127 80 C-127 79.34 -127 78.68 -127 78 C-125.35 77.01 -123.7 76.02 -122 75 C-121.01 73.35 -120.02 71.7 -119 70 C-118.01 69.34 -117.02 68.68 -116 68 C-115.05 66.85 -114.1 65.69 -113.12 64.5 C-110 61 -110 61 -105 59 C-105.33 58.34 -105.66 57.68 -106 57 C-105.01 57 -104.02 57 -103 57 C-102.34 55.68 -101.68 54.36 -101 53 C-96 50 -96 50 -93 50 C-92.67 48.68 -92.34 47.36 -92 46 C-91.01 46 -90.02 46 -89 46 C-89 44.68 -89 43.36 -89 42 C-88.01 42 -87.02 42 -86 42 C-86 41.01 -86 40.02 -86 39 C-85.01 39 -84.02 39 -83 39 C-82.67 38.01 -82.34 37.02 -82 36 C-80.01 34.98 -78.01 33.98 -76 33 C-74.68 31.68 -73.36 30.36 -72 29 C-67.75 29.75 -67.75 29.75 -64 31 C-64 30.34 -64 29.68 -64 29 C-65.32 28.67 -66.64 28.34 -68 28 C-67.01 27.34 -66.02 26.68 -65 26 C-64.01 25.01 -63.02 24.02 -62 23 C-61.34 23 -60.68 23 -60 23 C-59.67 22.01 -59.34 21.02 -59 20 C-56 18 -56 18 -52.81 18.38 C-52.35 18.48 -52.35 18.48 -50 19 C-50.33 18.01 -50.66 17.02 -51 16 C-47.02 13.02 -45.63 12.72 -41 12 C-40.67 11.34 -40.34 10.68 -40 10 C-38.68 10 -37.36 10 -36 10 C-35.67 10.33 -35.67 10.33 -34 12 C-33.34 12 -32.68 12 -32 12 C-32 11.34 -32 10.68 -32 10 C-30.35 9.67 -28.7 9.34 -27 9 C-26.67 8.01 -26.34 7.02 -26 6 C-24.35 6 -22.7 6 -21 6 C-20.67 5.67 -20.34 5.34 -20 5 C-20.66 4.84 -20.66 4.84 -24 4 C-21.03 4.33 -18.06 4.66 -15 5 C-15 4.34 -15 3.68 -15 3 C-15.99 2.67 -16.98 2.34 -18 2 C-14.94 1.46 -12.11 1 -9 1 C-9 1.99 -9 2.98 -9 4 C-8.67 3.34 -8.34 2.68 -8 2 C-2.78 0 -2.78 0 0 0 Z M-11 6 C-11.33 6.99 -11.66 7.98 -12 9 C-11.34 9 -10.68 9 -10 9 C-10.33 8.01 -10.66 7.02 -11 6 Z M-20 7 C-19 9 -19 9 -19 9 Z M-15 7 C-14.34 7.66 -13.68 8.32 -13 9 C-12.67 8.34 -12.34 7.68 -12 7 C-12.99 7 -13.98 7 -15 7 Z M-24 8 C-24.33 8.66 -24.66 9.32 -25 10 C-24.01 9.67 -23.02 9.34 -22 9 C-22.66 8.67 -23.32 8.34 -24 8 Z M-18 9 C-17.67 9.66 -17.34 10.32 -17 11 C-16.34 10.67 -15.68 10.34 -15 10 C-15.99 9.67 -16.98 9.34 -18 9 Z M-12 10 C-11 12 -11 12 -11 12 Z M-30 11 C-29.67 11.66 -29.34 12.32 -29 13 C-28.34 12.67 -27.68 12.34 -27 12 C-27.99 11.67 -28.98 11.34 -30 11 Z M-27 11 C-26.51 11.33 -26.51 11.33 -24 13 C-24 12.34 -24 11.68 -24 11 C-24.99 11 -25.98 11 -27 11 Z M-7 10 C-7.49 10.33 -7.49 10.33 -10 12 C-9.01 12.16 -9.01 12.16 -4 13 C-3.67 12.34 -3.34 11.68 -3 11 C-4.32 10.67 -5.64 10.34 -7 10 Z M-13 13 C-12.67 13.66 -12.34 14.32 -12 15 C-11.67 14.34 -11.34 13.68 -11 13 C-11.66 13 -12.32 13 -13 13 Z M-46 14 C-45 16 -45 16 -45 16 Z M-24 14 C-24.66 14.66 -25.32 15.32 -26 16 C-25.01 16 -24.02 16 -23 16 C-23.33 15.34 -23.66 14.68 -24 14 Z M-49 17 C-48 19 -48 19 -48 19 Z M-39 27 C-38.51 27.33 -38.51 27.33 -36 29 C-36 28.34 -36 27.68 -36 27 C-36.99 27 -37.98 27 -39 27 Z M-63 28 C-62 30 -62 30 -62 30 Z M-71 30 C-71.33 30.66 -71.66 31.32 -72 32 C-71.34 32 -70.68 32 -70 32 C-70.33 31.34 -70.66 30.68 -71 30 Z M-60 31 C-59.34 31.66 -58.68 32.32 -58 33 C-57.67 32.34 -57.34 31.68 -57 31 C-57.99 31 -58.98 31 -60 31 Z M-71 33 C-70 35 -70 35 -70 35 Z M-61 33 C-60 35 -60 35 -60 35 Z M-68 34 C-68 34.66 -68 35.32 -68 36 C-67.34 35.67 -66.68 35.34 -66 35 C-66.66 34.67 -67.32 34.34 -68 34 Z M-59 34 C-58.67 34.66 -58.34 35.32 -58 36 C-57.67 35.34 -57.34 34.68 -57 34 C-57.66 34 -58.32 34 -59 34 Z M-101 54 C-100.34 54.66 -99.68 55.32 -99 56 C-99 55.34 -99 54.68 -99 54 C-99.66 54 -100.32 54 -101 54 Z M-110 62 C-109 64 -109 64 -109 64 Z M-119 76 C-118 78 -118 78 -118 78 Z M-135 92 C-134 94 -134 94 -134 94 Z M-123 94 C-123 94.66 -123 95.32 -123 96 C-122.34 95.67 -121.68 95.34 -121 95 C-121.66 94.67 -122.32 94.34 -123 94 Z M-127 102 C-126.67 102.66 -126.34 103.32 -126 104 C-125.67 103.34 -125.34 102.68 -125 102 C-125.66 102 -126.32 102 -127 102 Z M-140 105 C-139.67 105.49 -139.67 105.49 -138 108 C-138 107.34 -138 106.68 -138 106 C-137.34 105.67 -136.68 105.34 -136 105 C-137.32 105 -138.64 105 -140 105 Z M-137 107 C-136 109 -136 109 -136 109 Z M-146 109 C-145.34 109.66 -144.68 110.32 -144 111 C-144 110.34 -144 109.68 -144 109 C-144.66 109 -145.32 109 -146 109 Z M-143 109 C-142.34 109.33 -142.34 109.33 -139 111 C-139.33 110.34 -139.66 109.68 -140 109 C-140.99 109 -141.98 109 -143 109 Z M-129 109 C-128.34 109.66 -127.68 110.32 -127 111 C-127 110.34 -127 109.68 -127 109 C-127.66 109 -128.32 109 -129 109 Z M-135 111 C-134 113 -134 113 -134 113 Z M-149 114 C-148.67 114.66 -148.34 115.32 -148 116 C-147.67 115.34 -147.34 114.68 -147 114 C-147.66 114 -148.32 114 -149 114 Z M-153 138 C-152 140 -152 140 -152 140 Z M-157 154 C-156 156 -156 156 -156 156 Z M-183 188 C-182.34 188.66 -181.68 189.32 -181 190 C-180.34 189.34 -179.68 188.68 -179 188 C-180.32 188 -181.64 188 -183 188 Z M-186 193 C-185.34 193.66 -184.68 194.32 -184 195 C-184 194.34 -184 193.68 -184 193 C-184.66 193 -185.32 193 -186 193 Z M-189 195 C-188.67 195.66 -188.34 196.32 -188 197 C-187.01 196.67 -186.02 196.34 -185 196 C-186.32 195.67 -187.64 195.34 -189 195 Z M-183 199 C-182.51 199.33 -182.51 199.33 -180 201 C-180 200.34 -180 199.68 -180 199 C-180.99 199 -181.98 199 -183 199 Z M-183 201 C-182 203 -182 203 -182 203 Z M-187 202 C-187.33 202.99 -187.66 203.98 -188 205 C-187.01 205.33 -186.02 205.66 -185 206 C-184.34 205.34 -183.68 204.68 -183 204 C-184.32 203.34 -185.64 202.68 -187 202 Z M-191 203 C-190.34 203.66 -189.68 204.32 -189 205 C-189 204.34 -189 203.68 -189 203 C-189.66 203 -190.32 203 -191 203 Z M-189 206 C-189 206.66 -189 207.32 -189 208 C-187.35 208 -185.7 208 -184 208 C-184.33 207.34 -184.66 206.68 -185 206 C-186.32 206 -187.64 206 -189 206 Z " fill="#000000" transform="translate(1572,1799)"/>
<path d="M0 0 C1.32 0.33 2.64 0.66 4 1 C5 5 5 5 4 7 C3.67 6.84 3.67 6.84 2 6 C1.01 6.33 0.02 6.66 -1 7 C-1.99 7 -2.98 7 -4 7 C-4.33 7.33 -4.66 7.66 -5 8 C-4.01 8.66 -3.02 9.32 -2 10 C-2 11.67 -2 13.33 -2 15 C-0.68 15.66 0.64 16.32 2 17 C1.34 17.66 0.68 18.32 0 19 C0.16 19.33 0.16 19.33 1 21 C-0.31 24.12 -0.31 24.12 -2 27 C-2.66 27 -3.32 27 -4 27 C-4 28.32 -4 29.64 -4 31 C-4.66 31.33 -5.32 31.66 -6 32 C-6.33 32.99 -6.66 33.98 -7 35 C-7.33 35.16 -7.33 35.16 -9 36 C-9.66 37.65 -10.32 39.3 -11 41 C-11.66 41 -12.32 41 -13 41 C-13.66 42.65 -14.32 44.3 -15 46 C-15.5 46.16 -15.5 46.16 -18 47 C-18.33 48.32 -18.66 49.64 -19 51 C-19.16 51.33 -19.16 51.33 -20 53 C-20.66 53 -21.32 53 -22 53 C-22.66 54.32 -23.32 55.64 -24 57 C-24.99 57.66 -25.98 58.32 -27 59 C-27.33 59.33 -27.33 59.33 -29 61 C-31.32 62.36 -33.65 63.69 -36 65 C-35.01 65.66 -34.02 66.32 -33 67 C-37 70 -37 70 -39 70 C-39 70.66 -39 71.32 -39 72 C-38.01 72.33 -37.02 72.66 -36 73 C-36.66 73 -37.32 73 -38 73 C-38.66 74.32 -39.32 75.64 -40 77 C-40.99 77 -41.98 77 -43 77 C-42.67 78.32 -42.34 79.64 -42 81 C-42.99 81.66 -43.98 82.32 -45 83 C-44.67 83.66 -44.34 84.32 -44 85 C-47 88 -47 88 -50 89 C-49.67 89.66 -49.34 90.32 -49 91 C-49.33 91.16 -49.33 91.16 -51 92 C-54 97 -54 97 -54 98 C-54.99 98.66 -55.98 99.32 -57 100 C-57.17 100.66 -57.17 100.66 -58 104 C-58.66 104.99 -59.32 105.98 -60 107 C-60.66 107 -61.32 107 -62 107 C-62 107.66 -62 108.32 -62 109 C-62.66 109 -63.32 109 -64 109 C-64.21 109.8 -64.41 110.61 -64.62 111.44 C-66.44 116.14 -69.04 119.93 -72 124 C-72.66 124 -73.32 124 -74 124 C-74.56 127 -74.56 127 -74 131 C-71.23 134.01 -68.17 136.4 -65 139 C-65 139.66 -65 140.32 -65 141 C-64.34 141 -63.68 141 -63 141 C-62.67 142.32 -62.34 143.64 -62 145 C-60.68 145 -59.36 145 -58 145 C-57.67 145.99 -57.34 146.98 -57 148 C-56.15 148.85 -55.31 149.69 -54.44 150.56 C-53.63 151.37 -52.83 152.17 -52 153 C-52 153.66 -52 154.32 -52 155 C-51.01 155.33 -50.02 155.66 -49 156 C-48.67 157.32 -48.34 158.64 -48 160 C-47.34 160.33 -46.68 160.66 -46 161 C-49.87 162.93 -54.67 162.18 -58.94 162.19 C-59.95 162.2 -60.97 162.21 -62.01 162.22 C-69.64 162.24 -69.64 162.24 -73 160 C-72.69 156.38 -72.69 156.38 -72 153 C-73.32 152.67 -74.64 152.34 -76 152 C-77.7 150.71 -79.37 149.38 -81 148 C-81.99 147.34 -82.98 146.68 -84 146 C-84.34 144 -84.67 142 -85 140 C-85.99 139.01 -86.98 138.02 -88 137 C-88 136.34 -88 135.68 -88 135 C-89.98 134.34 -91.96 133.68 -94 133 C-94.17 133.33 -94.17 133.33 -95 135 C-95.33 133.68 -95.66 132.36 -96 131 C-95.01 130.67 -94.02 130.34 -93 130 C-93.99 130 -94.98 130 -96 130 C-95 126 -95 126 -94 125 C-93.96 122.67 -93.96 120.33 -94 118 C-93.34 118 -92.68 118 -92 118 C-91.67 116.35 -91.34 114.7 -91 113 C-90.67 112.84 -90.67 112.84 -89 112 C-88.34 110.35 -87.68 108.7 -87 107 C-84.11 103.12 -82.37 101.18 -78 99 C-78.33 98.01 -78.66 97.02 -79 96 C-78.34 96 -77.68 96 -77 96 C-76.34 94.68 -75.68 93.36 -75 92 C-74.67 91.34 -74.34 90.68 -74 90 C-73.34 90 -72.68 90 -72 90 C-72.33 89.01 -72.66 88.02 -73 87 C-71.38 85.29 -69.71 83.63 -68 82 C-67.34 80.68 -66.68 79.36 -66 78 C-62 74 -62 74 -60 73 C-60 72.34 -60 71.68 -60 71 C-59.34 70.67 -59.34 70.67 -56 69 C-55.67 67.35 -55.34 65.7 -55 64 C-54.01 64 -53.02 64 -52 64 C-51 62 -51 62 -50 58 C-46 59 -46 59 -45 60 C-45 59.01 -45 58.02 -45 57 C-46.32 56.34 -47.64 55.68 -49 55 C-47.02 54.34 -45.04 53.68 -43 53 C-43 52.34 -43 51.68 -43 51 C-42.34 51 -41.68 51 -41 51 C-41.17 50.34 -41.17 50.34 -42 47 C-41.34 47 -40.68 47 -40 47 C-40 46.34 -40 45.68 -40 45 C-39.01 44.01 -38.02 43.02 -37 42 C-37.33 41.84 -37.33 41.84 -39 41 C-38.34 41 -37.68 41 -37 41 C-36.34 39.35 -35.68 37.7 -35 36 C-33.68 34.32 -32.34 32.66 -31 31 C-30.34 29.85 -29.68 28.69 -29 27.5 C-27.21 24.36 -25.27 21.79 -23 19 C-22.01 17.35 -21.02 15.7 -20 14 C-17 10 -17 10 -14 9 C-10 7 -10 7 -9 5 C-8.18 4.84 -8.18 4.84 -4 4 C-2.68 2.68 -1.36 1.36 0 0 Z M-11 8 C-10 10 -10 10 -10 10 Z M-8 9 C-8.33 9.66 -8.66 10.32 -9 11 C-8.67 11.66 -8.34 12.32 -8 13 C-7.34 13 -6.68 13 -6 13 C-5.67 12.01 -5.34 11.02 -5 10 C-5.99 9.67 -6.98 9.34 -8 9 Z M-5 16 C-5 16.66 -5 17.32 -5 18 C-4.34 17.67 -3.68 17.34 -3 17 C-3.66 16.67 -4.32 16.34 -5 16 Z M-42 52 C-42.33 52.66 -42.66 53.32 -43 54 C-41.68 54 -40.36 54 -39 54 C-39.33 53.34 -39.66 52.68 -40 52 C-40.66 52 -41.32 52 -42 52 Z M-43 57 C-43.33 57.66 -43.66 58.32 -44 59 C-43.18 59.16 -43.18 59.16 -39 60 C-39 59.34 -39 58.68 -39 58 C-40.32 57.67 -41.64 57.34 -43 57 Z M-36 58 C-35.67 58.66 -35.34 59.32 -35 60 C-34.67 59.34 -34.34 58.68 -34 58 C-34.66 58 -35.32 58 -36 58 Z M-39 60 C-38.67 60.66 -38.34 61.32 -38 62 C-37.34 61.34 -36.68 60.68 -36 60 C-36.99 60 -37.98 60 -39 60 Z M-46 67 C-46 67.66 -46 68.32 -46 69 C-44.68 69.33 -43.36 69.66 -42 70 C-42 69.34 -42 68.68 -42 68 C-43.32 67.67 -44.64 67.34 -46 67 Z M-48 71 C-48 71.66 -48 72.32 -48 73 C-46.68 72.67 -45.36 72.34 -44 72 C-45.32 71.67 -46.64 71.34 -48 71 Z M-42 71 C-42.33 71.66 -42.66 72.32 -43 73 C-42.01 72.67 -41.02 72.34 -40 72 C-40.66 71.67 -41.32 71.34 -42 71 Z M-77 96 C-76 98 -76 98 -76 98 Z M-68 101 C-68 101.66 -68 102.32 -68 103 C-67.34 102.67 -66.68 102.34 -66 102 C-66.66 101.67 -67.32 101.34 -68 101 Z M-94 127 C-94 127.66 -94 128.32 -94 129 C-92.68 128.67 -91.36 128.34 -90 128 C-91.32 127.67 -92.64 127.34 -94 127 Z M-87 127 C-87.66 127.66 -88.32 128.32 -89 129 C-87.68 128.67 -86.36 128.34 -85 128 C-85.66 127.67 -86.32 127.34 -87 127 Z M-82 129 C-82 129.66 -82 130.32 -82 131 C-81.34 130.67 -80.68 130.34 -80 130 C-80.66 129.67 -81.32 129.34 -82 129 Z M-92 130 C-91.5 130.33 -91.5 130.33 -89 132 C-89 131.34 -89 130.68 -89 130 C-89.99 130 -90.98 130 -92 130 Z M-80 135 C-80 135.66 -80 136.32 -80 137 C-79.34 136.67 -78.68 136.34 -78 136 C-78.66 135.67 -79.32 135.34 -80 135 Z M-82 138 C-81.67 138.66 -81.34 139.32 -81 140 C-80.67 139.34 -80.34 138.68 -80 138 C-80.66 138 -81.32 138 -82 138 Z M-83 142 C-82.67 142.66 -82.34 143.32 -82 144 C-81.34 143.67 -80.68 143.34 -80 143 C-80.99 142.67 -81.98 142.34 -83 142 Z M-80 145 C-80 145.66 -80 146.32 -80 147 C-79.01 146.67 -78.02 146.34 -77 146 C-77.99 145.67 -78.98 145.34 -80 145 Z M-73 146 C-72 148 -72 148 -72 148 Z M-70 147 C-69 149 -69 149 -69 149 Z M-78 148 C-77.5 148.33 -77.5 148.33 -75 150 C-75 149.34 -75 148.68 -75 148 C-75.99 148 -76.98 148 -78 148 Z M-70 156 C-70 157.32 -70 158.64 -70 160 C-69.01 159.67 -68.02 159.34 -67 159 C-67.99 158.01 -68.98 157.02 -70 156 Z " fill="#000000" transform="translate(433,1886)"/>
<path d="M0 0 C0.33 1.32 0.66 2.64 1 4 C0.01 4.99 -0.98 5.98 -2 7 C-1.01 7.33 -0.02 7.66 1 8 C-2 10 -2 10 -5 10 C-5 11.32 -5 12.64 -5 14 C-3.68 13.67 -2.36 13.34 -1 13 C-0.67 13.66 -0.34 14.32 0 15 C0.99 15.33 1.98 15.66 3 16 C3 16.66 3 17.32 3 18 C3.66 18 4.32 18 5 18 C5 18.66 5 19.32 5 20 C6.32 20.33 7.64 20.66 9 21 C6.69 21.66 4.38 22.32 2 23 C2.99 23.33 3.98 23.66 5 24 C6.29 28.48 6.15 29.69 4 34 C4 35.65 4 37.3 4 39 C-2.27 39 -8.54 39 -15 39 C-15 38.34 -15 37.68 -15 37 C-14.67 36.84 -14.67 36.84 -13 36 C-12.67 34.68 -12.34 33.36 -12 32 C-11.67 32.66 -11.34 33.32 -11 34 C-10.67 33.01 -10.34 32.02 -10 31 C-10.99 30.67 -11.98 30.34 -13 30 C-13 29.34 -13 28.68 -13 28 C-12.34 28 -11.68 28 -11 28 C-11 27.34 -11 26.68 -11 26 C-10.67 25.67 -10.34 25.34 -10 25 C-10.33 24.34 -10.66 23.68 -11 23 C-10.34 23 -9.68 23 -9 23 C-9 22.34 -9 21.68 -9 21 C-9.66 20.67 -10.32 20.34 -11 20 C-10.53 18.6 -10.05 17.19 -9.56 15.75 C-8.61 12.86 -7.74 9.95 -7 7 C-6.67 5.68 -6.34 4.36 -6 3 C-2.94 1.25 -2.94 1.25 0 0 Z M-2 17 C-1.34 17.66 -0.68 18.32 0 19 C0.66 18.34 1.32 17.68 2 17 C0.68 17 -0.64 17 -2 17 Z M0 24 C0 24.99 0 25.98 0 27 C0.66 26.01 1.32 25.02 2 24 C1.34 24 0.68 24 0 24 Z M-10 27 C-10.33 27.66 -10.66 28.32 -11 29 C-10.01 28.67 -9.02 28.34 -8 28 C-8.66 27.67 -9.32 27.34 -10 27 Z M0 27 C0 27.66 0 28.32 0 29 C0.99 28.67 1.98 28.34 3 28 C2.01 27.67 1.02 27.34 0 27 Z M-7 28 C-7 28.66 -7 29.32 -7 30 C-6.34 29.67 -5.68 29.34 -5 29 C-5.66 28.67 -6.32 28.34 -7 28 Z M-3 28 C-3.33 28.66 -3.66 29.32 -4 30 C-3.34 30 -2.68 30 -2 30 C-2.33 29.34 -2.66 28.68 -3 28 Z M-2 33 C-1.67 33.66 -1.34 34.32 -1 35 C-0.01 34.67 0.98 34.34 2 34 C0.68 33.67 -0.64 33.34 -2 33 Z M-11 35 C-10 37 -10 37 -10 37 Z " fill="#000000" transform="translate(1378,2009)"/>
<path d="M0 0 C1.32 0 2.64 0 4 0 C4 1.32 4 2.64 4 4 C4.33 3.67 4.66 3.34 5 3 C6.98 3 8.96 3 11 3 C11 3.66 11 4.32 11 5 C12.32 5 13.64 5 15 5 C16.38 9.25 16.38 9.25 17 14 C14.44 16.56 14.44 16.56 11 18 C9.35 18 7.7 18 6 18 C6 18.66 6 19.32 6 20 C4.35 20 2.7 20 1 20 C1 20.66 1 21.32 1 22 C-3.73 23.51 -6.9 24 -12 24 C-12 24.66 -12 25.32 -12 26 C-16.42 29.32 -17.72 29.3 -23 29 C-22.67 27.35 -22.34 25.7 -22 24 C-22.66 24.33 -23.32 24.66 -24 25 C-24.33 26.32 -24.66 27.64 -25 29 C-26.32 29 -27.64 29 -29 29 C-29.66 28.34 -30.32 27.68 -31 27 C-30.01 27 -29.02 27 -28 27 C-28 26.34 -28 25.68 -28 25 C-27.34 25 -26.68 25 -26 25 C-26 24.34 -26 23.68 -26 23 C-26.99 23 -27.98 23 -29 23 C-29 23.99 -29 24.98 -29 26 C-30.32 25.67 -31.64 25.34 -33 25 C-33 24.01 -33 23.02 -33 22 C-32.01 21.67 -31.02 21.34 -30 21 C-31.32 20.67 -32.64 20.34 -34 20 C-33.34 20 -32.68 20 -32 20 C-31.67 18.68 -31.34 17.36 -31 16 C-31.99 15.34 -32.98 14.68 -34 14 C-32.35 13.67 -30.7 13.34 -29 13 C-27.68 12.34 -26.36 11.68 -25 11 C-23.01 10.62 -21.01 10.27 -19 10 C-20.32 9.34 -21.64 8.68 -23 8 C-22.03 7.73 -21.06 7.46 -20.06 7.19 C-17.13 6.33 -14.21 5.4 -11.31 4.44 C-4 2 -4 2 -1 2 C-0.67 1.34 -0.34 0.68 0 0 Z M1 3 C2 5 2 5 2 5 Z M7 4 C7.66 4.66 8.32 5.32 9 6 C9 5.34 9 4.68 9 4 C8.34 4 7.68 4 7 4 Z M2 6 C2 6.66 2 7.32 2 8 C2.66 8 3.32 8 4 8 C4 7.34 4 6.68 4 6 C3.34 6 2.68 6 2 6 Z M9 6 C9 6.66 9 7.32 9 8 C9.99 8 10.98 8 12 8 C12 8.66 12 9.32 12 10 C12.66 9.67 13.32 9.34 14 9 C14 8.34 14 7.68 14 7 C12.35 6.67 10.7 6.34 9 6 Z M1 8 C1 8.66 1 9.32 1 10 C1.99 9.67 2.98 9.34 4 9 C3.01 8.67 2.02 8.34 1 8 Z M-9 9 C-8.67 9.66 -8.34 10.32 -8 11 C-7.67 10.34 -7.34 9.68 -7 9 C-7.66 9 -8.32 9 -9 9 Z M7 11 C7.49 11.33 7.49 11.33 10 13 C11.32 12.34 12.64 11.68 14 11 C11.69 11 9.38 11 7 11 Z M-19 12 C-19 12.66 -19 13.32 -19 14 C-18.34 14 -17.68 14 -17 14 C-17 13.34 -17 12.68 -17 12 C-17.66 12 -18.32 12 -19 12 Z M-26 13 C-26.33 13.99 -26.66 14.98 -27 16 C-25.68 16.33 -24.36 16.66 -23 17 C-23.33 15.68 -23.66 14.36 -24 13 C-24.66 13 -25.32 13 -26 13 Z M-11 13 C-10 15 -10 15 -10 15 Z M-9 15 C-8 17 -8 17 -8 17 Z M-30 18 C-29.67 19.32 -29.34 20.64 -29 22 C-27.35 21.67 -25.7 21.34 -24 21 C-24 20.01 -24 19.02 -24 18 C-27 17 -27 17 -30 18 Z M-5 19 C-5 19.66 -5 20.32 -5 21 C-4.01 20.67 -3.02 20.34 -2 20 C-2.99 19.67 -3.98 19.34 -5 19 Z M-17 20 C-16.67 20.66 -16.34 21.32 -16 22 C-15.67 21.34 -15.34 20.68 -15 20 C-15.66 20 -16.32 20 -17 20 Z " fill="#000000" transform="translate(1246,2019)"/>
<path d="M0 0 C1.32 0.33 2.64 0.66 4 1 C4 2.98 4 4.96 4 7 C4.99 7.33 5.98 7.66 7 8 C6.34 8.33 5.68 8.66 5 9 C4.01 8.34 3.02 7.68 2 7 C1.67 7.33 1.34 7.66 1 8 C-4 9 -4 9 -10 9 C-10 8.01 -10 7.02 -10 6 C-10.33 6.49 -10.33 6.49 -12 9 C-15.52 9.36 -15.52 9.36 -19.81 9.31 C-21.22 9.31 -22.63 9.3 -24.08 9.3 C-28 9 -28 9 -33 7 C-29.09 4.39 -27.53 5.16 -23 6 C-21.01 6.37 -19.01 6.71 -17 7 C-16.67 6.67 -16.34 6.34 -16 6 C-16.99 5.67 -17.98 5.34 -19 5 C-17.35 4.67 -15.7 4.34 -14 4 C-13.67 4.33 -13.34 4.66 -13 5 C-10 4 -10 4 -7 1 C-3.81 1.31 -3.81 1.31 -1 2 C-0.67 1.34 -0.34 0.68 0 0 Z M-8 3 C-7.34 3.66 -6.68 4.32 -6 5 C-6 4.34 -6 3.68 -6 3 C-6.66 3 -7.32 3 -8 3 Z M-9 5 C-9 5.66 -9 6.32 -9 7 C-8.34 6.67 -7.68 6.34 -7 6 C-7.66 5.67 -8.32 5.34 -9 5 Z " fill="#000000" transform="translate(1208,2039)"/>
</svg>
