<?xml version="1.0" encoding="UTF-8"?>
<!-- Generator: visioncortex VTracer 0.6.12 -->
<svg version="1.1" xmlns="http://www.w3.org/2000/svg" width="2048" height="2048">
<path d="M0,0 L18,0 L47,4 L75,10 L99,16 L119,23 L131,28 L147,36 L168,48 L183,57 L204,71 L218,83 L231,93 L245,105 L255,114 L263,121 L265,125 L267,125 L276,136 L289,150 L299,163 L313,181 L322,193 L331,204 L343,220 L357,241 L373,270 L386,294 L395,309 L401,321 L409,337 L420,364 L429,388 L442,423 L451,449 L459,489 L470,541 L473,562 L478,597 L492,653 L501,691 L511,749 L515,775 L521,840 L522,871 L522,892 L517,936 L512,964 L504,994 L498,1014 L486,1062 L480,1083 L475,1104 L467,1155 L463,1177 L461,1194 L460,1211 L460,1242 L463,1269 L467,1288 L474,1311 L484,1336 L492,1352 L502,1369 L514,1385 L516,1388 L516,1391 L505,1390 L489,1383 L487,1382 L495,1404 L494,1408 L485,1402 L473,1392 L471,1391 L471,1389 L467,1387 L456,1378 L445,1367 L441,1365 L426,1380 L417,1391 L410,1399 L402,1404 L389,1408 L367,1413 L328,1420 L318,1421 L320,1417 L335,1403 L343,1396 L348,1390 L354,1380 L360,1365 L367,1345 L360,1354 L334,1380 L319,1391 L308,1397 L305,1405 L303,1416 L321,1426 L322,1430 L296,1430 L293,1439 L282,1448 L271,1457 L265,1462 L265,1464 L271,1464 L271,1466 L281,1468 L296,1473 L321,1480 L358,1491 L371,1495 L401,1504 L414,1508 L424,1510 L433,1513 L451,1518 L457,1522 L462,1527 L467,1532 L472,1537 L478,1542 L479,1545 L484,1550 L485,1553 L487,1553 L496,1564 L510,1578 L510,1580 L513,1581 L519,1588 L526,1597 L531,1606 L539,1620 L547,1635 L553,1645 L558,1654 L566,1668 L572,1679 L582,1697 L589,1711 L599,1765 L603,1787 L603,1790 L-912,1790 L-911,1781 L-895,1717 L-879,1653 L-876,1643 L-874,1638 L-872,1637 L-868,1631 L-868,1628 L-866,1626 L-863,1626 L-861,1622 L-853,1610 L-844,1597 L-834,1582 L-827,1572 L-823,1566 L-815,1557 L-807,1550 L-797,1541 L-795,1541 L-795,1539 L-787,1532 L-784,1529 L-782,1529 L-782,1527 L-774,1520 L-759,1507 L-752,1501 L-750,1501 L-750,1499 L-739,1490 L-728,1481 L-712,1468 L-699,1457 L-689,1450 L-663,1448 L-646,1445 L-635,1440 L-623,1435 L-621,1435 L-624,1425 L-624,1409 L-645,1412 L-663,1413 L-680,1413 L-690,1412 L-690,1409 L-669,1404 L-651,1398 L-637,1390 L-625,1381 L-618,1373 L-611,1359 L-605,1344 L-604,1339 L-613,1342 L-619,1343 L-640,1343 L-642,1342 L-641,1339 L-631,1336 L-620,1329 L-610,1319 L-605,1312 L-604,1308 L-604,1299 L-608,1289 L-624,1258 L-637,1241 L-648,1227 L-653,1221 L-653,1219 L-655,1219 L-666,1205 L-681,1185 L-693,1166 L-703,1148 L-713,1129 L-724,1102 L-735,1072 L-742,1047 L-741,1060 L-738,1075 L-734,1091 L-728,1113 L-720,1133 L-712,1150 L-702,1168 L-690,1190 L-686,1197 L-687,1199 L-693,1192 L-695,1191 L-695,1189 L-699,1187 L-705,1181 L-705,1179 L-707,1179 L-713,1172 L-713,1170 L-715,1170 L-718,1166 L-718,1164 L-720,1164 L-721,1160 L-723,1160 L-731,1147 L-746,1119 L-753,1102 L-761,1081 L-773,1044 L-780,1020 L-786,987 L-788,966 L-788,927 L-786,892 L-782,856 L-774,816 L-761,760 L-753,732 L-745,708 L-738,681 L-732,633 L-725,585 L-721,569 L-713,537 L-705,505 L-692,463 L-687,447 L-681,429 L-675,411 L-669,394 L-663,380 L-658,369 L-654,354 L-642,324 L-634,305 L-627,288 L-614,265 L-603,245 L-589,222 L-579,207 L-568,191 L-557,177 L-548,165 L-536,149 L-524,135 L-513,123 L-503,113 L-489,102 L-475,91 L-468,85 L-466,85 L-466,83 L-451,73 L-429,61 L-413,53 L-397,45 L-373,35 L-342,26 L-316,20 L-278,12 L-261,11 L-249,13 L-246,14 L-238,14 L-222,8 L-209,5 L-189,3 L-95,3 L-76,4 L-46,4 L-19,1 Z " fill="#DFDCD9" transform="translate(1182,258)"/>
<path d="M0,0 L2,0 L1,9 L-7,39 L-15,59 L-24,78 L-37,100 L-41,106 L-18,94 L-1,84 L15,74 L27,65 L44,53 L46,53 L44,69 L41,91 L41,125 L44,141 L48,153 L55,166 L64,176 L73,184 L87,195 L103,208 L112,217 L122,231 L128,245 L132,261 L133,269 L133,287 L132,291 L132,301 L143,292 L154,281 L161,271 L167,256 L171,239 L174,240 L181,248 L191,257 L201,264 L210,269 L231,279 L244,283 L253,286 L270,289 L270,295 L268,299 L257,308 L246,317 L240,322 L240,324 L246,324 L246,326 L256,328 L271,333 L296,340 L333,351 L346,355 L376,364 L389,368 L399,370 L408,373 L426,378 L432,382 L437,387 L442,392 L447,397 L453,402 L454,405 L459,410 L460,413 L462,413 L471,424 L485,438 L485,440 L488,441 L494,448 L501,457 L506,466 L514,480 L522,495 L528,505 L533,514 L541,528 L547,539 L557,557 L564,571 L574,625 L578,647 L578,650 L-937,650 L-936,641 L-920,577 L-904,513 L-901,503 L-899,498 L-897,497 L-893,491 L-893,488 L-891,486 L-888,486 L-886,482 L-878,470 L-869,457 L-859,442 L-852,432 L-848,426 L-840,417 L-832,410 L-822,401 L-820,401 L-820,399 L-812,392 L-809,389 L-807,389 L-807,387 L-799,380 L-784,367 L-777,361 L-775,361 L-775,359 L-764,350 L-753,341 L-737,328 L-724,317 L-714,310 L-688,308 L-671,305 L-660,300 L-648,295 L-646,295 L-647,292 L-647,267 L-644,264 L-631,258 L-620,251 L-609,241 L-599,225 L-588,203 L-580,196 L-562,186 L-554,179 L-549,169 L-545,157 L-543,141 L-543,97 L-544,92 L-544,85 L-536,69 L-524,52 L-510,38 L-505,37 L-492,48 L-476,61 L-460,73 L-442,86 L-423,99 L-406,110 L-391,119 L-370,131 L-343,145 L-340,146 L-331,146 L-309,140 L-268,126 L-249,120 L-239,116 L-207,105 L-186,97 L-168,89 L-136,75 L-104,60 L-73,46 L-54,36 L-37,26 L-13,10 Z " fill="#2D2C2E" transform="translate(1207,1398)"/>
<path d="M0,0 L2,0 L14,20 L19,28 L21,29 L27,41 L34,53 L40,64 L48,78 L56,94 L64,109 L75,132 L83,148 L98,178 L105,193 L114,213 L125,237 L131,250 L135,260 L142,276 L146,286 L151,298 L158,316 L168,346 L173,362 L176,372 L184,388 L193,405 L206,428 L214,444 L222,460 L235,487 L245,509 L253,528 L259,545 L263,555 L268,570 L276,596 L282,620 L284,632 L285,634 L287,648 L290,668 L292,689 L292,742 L291,754 L293,754 L294,747 L302,727 L312,702 L316,692 L322,675 L326,665 L332,649 L338,625 L340,619 L343,599 L347,582 L350,555 L351,542 L351,490 L348,458 L344,431 L341,412 L336,388 L332,373 L326,349 L324,342 L318,320 L316,314 L316,307 L318,307 L321,316 L323,321 L323,324 L325,324 L333,346 L340,369 L345,386 L348,393 L350,404 L354,417 L360,443 L367,489 L369,496 L372,538 L377,566 L379,589 L383,608 L385,637 L388,638 L387,640 L387,652 L388,659 L387,692 L384,721 L377,752 L367,782 L362,793 L354,810 L348,822 L346,822 L344,828 L338,838 L337,840 L335,840 L333,845 L326,856 L319,866 L308,880 L297,894 L286,907 L276,918 L267,929 L266,934 L278,950 L280,954 L283,955 L288,961 L296,968 L305,975 L312,983 L315,986 L318,986 L322,991 L327,993 L327,995 L330,995 L331,997 L336,999 L336,1001 L341,1003 L347,1006 L359,1011 L360,1013 L365,1015 L375,1019 L380,1020 L384,1025 L386,1030 L388,1030 L392,1036 L392,1038 L394,1038 L400,1048 L405,1053 L411,1061 L416,1066 L425,1073 L430,1078 L438,1085 L440,1086 L440,1088 L446,1090 L461,1098 L466,1110 L470,1121 L469,1125 L460,1119 L448,1109 L446,1108 L446,1106 L442,1104 L431,1095 L420,1084 L416,1082 L401,1097 L392,1108 L385,1116 L377,1121 L364,1125 L342,1130 L303,1137 L293,1138 L295,1134 L310,1120 L318,1113 L323,1107 L329,1097 L335,1082 L342,1062 L335,1071 L309,1097 L294,1108 L283,1114 L280,1122 L278,1133 L296,1143 L297,1147 L271,1147 L270,1149 L270,1146 L262,1146 L246,1142 L236,1138 L226,1135 L207,1126 L195,1118 L185,1109 L177,1102 L173,1097 L171,1096 L170,1106 L164,1124 L158,1134 L147,1146 L140,1153 L131,1159 L131,1148 L132,1144 L132,1126 L129,1108 L123,1092 L117,1082 L108,1071 L100,1063 L87,1053 L77,1045 L66,1036 L56,1026 L50,1016 L46,1008 L42,995 L40,982 L40,948 L44,921 L46,910 L30,921 L19,929 L3,940 L-8,946 L-26,956 L-42,964 L-40,960 L-28,940 L-20,924 L-10,902 L-3,878 L1,862 L2,853 L5,831 L8,806 L12,749 L12,719 L7,729 L-1,745 L-14,766 L-22,777 L-26,781 L-27,728 L-29,699 L-34,662 L-41,620 L-46,593 L-52,565 L-60,529 L-61,526 L-73,524 L-69,534 L-64,552 L-62,565 L-62,596 L-67,614 L-74,630 L-77,635 L-79,635 L-80,631 L-84,629 L-88,624 L-97,618 L-111,613 L-123,612 L-122,599 L-117,589 L-108,581 L-94,574 L-78,568 L-102,567 L-114,565 L-122,560 L-128,553 L-134,541 L-139,527 L-144,526 L-144,541 L-147,558 L-152,567 L-160,573 L-168,576 L-188,581 L-188,582 L-169,585 L-158,588 L-149,592 L-142,598 L-136,608 L-136,612 L-150,616 L-161,622 L-170,630 L-172,634 L-174,634 L-176,640 L-178,643 L-182,641 L-189,633 L-198,617 L-204,599 L-207,584 L-207,548 L-205,537 L-225,543 L-249,552 L-265,560 L-268,561 L-267,556 L-258,539 L-248,525 L-239,515 L-231,509 L-217,502 L-194,496 L-181,494 L-181,493 L-204,489 L-240,477 L-253,472 L-265,467 L-274,462 L-270,466 L-255,476 L-239,485 L-223,492 L-218,493 L-218,495 L-265,495 L-289,492 L-310,488 L-325,484 L-351,473 L-366,465 L-379,456 L-386,449 L-390,444 L-390,442 L-385,444 L-369,453 L-356,459 L-341,465 L-325,471 L-311,476 L-286,482 L-266,485 L-258,485 L-274,476 L-291,464 L-309,450 L-322,439 L-332,430 L-340,421 L-345,416 L-354,406 L-354,404 L-356,404 L-363,394 L-366,388 L-365,386 L-353,397 L-340,406 L-327,416 L-300,434 L-284,443 L-265,452 L-251,459 L-239,463 L-229,467 L-211,474 L-187,481 L-158,487 L-142,489 L-134,489 L-141,482 L-146,478 L-146,476 L-150,474 L-166,458 L-166,456 L-168,456 L-177,445 L-187,432 L-197,418 L-203,408 L-212,393 L-224,370 L-230,357 L-233,351 L-232,349 L-227,354 L-227,356 L-223,358 L-213,368 L-206,376 L-192,388 L-179,398 L-167,407 L-152,417 L-130,430 L-113,440 L-98,447 L-88,451 L-88,453 L-79,455 L-67,460 L-54,464 L-45,467 L-36,470 L-12,474 L12,478 L30,479 L20,473 L11,466 L1,458 L-2,456 L-2,454 L-6,452 L-18,441 L-18,439 L-20,439 L-27,431 L-28,428 L-30,428 L-39,417 L-47,407 L-57,393 L-64,382 L-75,365 L-90,336 L-99,319 L-107,301 L-112,289 L-117,276 L-121,265 L-124,256 L-130,233 L-136,208 L-139,188 L-139,184 L-137,184 L-131,200 L-125,216 L-117,232 L-113,242 L-105,258 L-97,273 L-94,278 L-94,280 L-92,280 L-83,296 L-74,310 L-64,324 L-55,336 L-49,343 L-40,354 L-34,360 L-34,362 L-32,362 L-32,364 L-28,366 L-23,371 L-9,384 L5,395 L7,396 L7,398 L12,400 L22,407 L34,414 L54,422 L66,425 L80,429 L80,430 L57,430 L36,425 L20,420 L5,413 L-8,406 L-18,399 L-32,389 L-45,378 L-55,367 L-55,365 L-57,366 L-48,379 L-40,390 L-32,400 L-24,410 L-17,418 L-17,420 L-14,421 L-7,429 L17,453 L27,461 L40,472 L53,482 L66,490 L70,492 L70,494 L18,494 L-19,489 L-46,483 L-58,480 L-52,504 L-46,532 L-40,558 L-31,597 L-26,621 L-23,644 L-21,654 L-17,687 L-15,702 L-13,730 L-12,737 L-8,729 L-1,714 L7,695 L13,679 L18,661 L22,651 L23,651 L24,658 L25,676 L25,774 L22,803 L20,828 L18,846 L11,881 L0,914 L-9,931 L5,923 L21,913 L32,904 L47,889 L54,881 L65,870 L74,859 L83,846 L92,832 L103,812 L113,790 L117,780 L124,749 L128,735 L134,701 L139,662 L143,615 L143,490 L138,417 L134,376 L130,343 L126,319 L124,312 L121,296 L113,264 L105,239 L89,193 L81,173 L76,161 L68,141 L55,113 L39,77 L31,61 L30,56 L28,56 L24,46 L18,36 L15,29 L0,2 Z " fill="#8C8C8A" transform="translate(1207,541)"/>
<path d="M0,0 L5,1 L5,3 L11,3 L11,5 L21,7 L36,12 L61,19 L98,30 L111,34 L141,43 L154,47 L164,49 L173,52 L191,57 L197,61 L202,66 L207,71 L212,76 L218,81 L219,84 L224,89 L225,92 L227,92 L236,103 L250,117 L250,119 L253,120 L259,127 L266,136 L271,145 L279,159 L287,174 L293,184 L298,193 L306,207 L312,218 L322,236 L329,250 L339,304 L343,326 L343,329 L-176,329 L-173,326 L-151,315 L-151,300 L-152,269 L-154,240 L-156,184 L-157,173 L-159,125 L-162,68 L-157,67 L-157,65 L-147,62 L-137,58 L-122,53 L-113,49 L-101,45 L-81,37 L-61,30 L-59,28 L-49,25 L-37,20 L-22,13 L-11,10 L-11,8 L-4,4 Z " fill="#7B3A2E" transform="translate(1442,1719)"/>
<path d="M0,0 L2,0 L0,6 L-8,23 L-12,34 L-19,52 L-26,74 L-31,91 L-33,100 L-37,118 L-39,130 L-41,139 L-43,150 L-46,182 L-46,242 L-43,277 L-39,300 L-36,312 L-34,321 L-30,338 L-26,349 L-22,362 L-16,374 L-8,394 L-1,410 L7,426 L20,445 L29,457 L38,468 L53,483 L71,496 L87,505 L101,512 L117,517 L126,520 L132,523 L132,524 L115,524 L99,520 L82,514 L66,506 L50,496 L40,487 L32,480 L19,465 L9,450 L1,437 L-10,418 L-18,402 L-29,377 L-37,356 L-42,342 L-42,354 L-39,404 L-34,428 L-30,444 L-25,460 L-16,480 L-9,491 L1,505 L7,512 L7,514 L10,515 L12,518 L52,520 L68,523 L79,528 L87,532 L96,538 L110,552 L121,568 L125,575 L125,577 L119,575 L102,567 L99,566 L103,582 L104,588 L104,626 L99,647 L94,660 L91,665 L88,664 L88,661 L86,661 L81,652 L73,645 L58,639 L58,632 L61,622 L66,614 L74,608 L89,602 L74,599 L64,594 L57,586 L51,572 L46,555 L46,553 L43,553 L42,580 L38,590 L34,593 L28,595 L9,596 L12,599 L29,606 L39,612 L44,618 L48,626 L50,632 L50,638 L34,644 L27,650 L20,661 L18,661 L9,645 L1,622 L-3,600 L-4,592 L-4,563 L-2,555 L-32,560 L-53,564 L-50,574 L-42,600 L-37,613 L-41,611 L-52,600 L-51,609 L-45,634 L-43,640 L-40,654 L-35,680 L-31,706 L-27,740 L-23,774 L-18,801 L-10,820 L2,840 L14,856 L28,873 L41,888 L52,899 L55,904 L49,907 L36,920 L24,938 L17,952 L17,959 L18,964 L18,1008 L16,1024 L10,1041 L4,1049 L-5,1056 L-22,1065 L-28,1072 L-39,1094 L-46,1105 L-54,1114 L-67,1124 L-77,1129 L-86,1132 L-87,1157 L-89,1153 L-89,1136 L-110,1139 L-128,1140 L-145,1140 L-155,1139 L-155,1136 L-134,1131 L-116,1125 L-102,1117 L-90,1108 L-83,1100 L-76,1086 L-70,1071 L-69,1066 L-78,1069 L-84,1070 L-105,1070 L-107,1069 L-106,1066 L-96,1063 L-85,1056 L-75,1046 L-70,1039 L-69,1035 L-69,1026 L-73,1016 L-89,985 L-102,968 L-113,954 L-118,948 L-118,946 L-120,946 L-131,932 L-146,912 L-158,893 L-168,875 L-178,856 L-189,829 L-200,799 L-207,774 L-210,756 L-210,721 L-208,696 L-202,665 L-196,646 L-190,629 L-186,622 L-184,623 L-178,678 L-172,713 L-167,734 L-160,758 L-152,784 L-143,810 L-136,830 L-129,844 L-125,854 L-113,879 L-103,895 L-94,906 L-86,916 L-78,924 L-67,933 L-50,945 L-40,951 L-46,942 L-54,931 L-66,914 L-78,895 L-85,881 L-88,872 L-95,844 L-101,811 L-105,783 L-108,768 L-107,764 L-98,779 L-90,789 L-87,793 L-88,788 L-95,764 L-101,737 L-107,708 L-110,680 L-112,655 L-112,615 L-111,606 L-109,569 L-109,533 L-111,515 L-113,482 L-113,416 L-110,371 L-109,366 L-107,342 L-102,304 L-94,259 L-87,227 L-83,214 L-76,188 L-67,162 L-63,148 L-55,126 L-51,116 L-48,107 L-43,88 L-36,69 L-25,43 L-15,24 L-4,6 Z " fill="#8B8B89" transform="translate(647,531)"/>
<path d="M0,0 L3,2 L3,4 L5,4 L14,21 L23,40 L27,50 L36,71 L41,84 L48,102 L60,140 L66,160 L73,183 L77,198 L81,216 L85,236 L91,284 L92,294 L92,319 L85,342 L81,359 L77,371 L73,387 L69,403 L63,424 L58,448 L55,462 L52,477 L46,492 L48,492 L48,508 L47,509 L46,521 L44,531 L42,561 L42,580 L46,583 L47,602 L50,624 L53,638 L61,653 L71,666 L79,673 L84,672 L84,677 L102,687 L103,691 L77,691 L76,693 L76,690 L68,690 L52,686 L42,682 L32,679 L13,670 L1,662 L-9,653 L-17,646 L-21,641 L-23,640 L-24,650 L-30,668 L-36,678 L-47,690 L-54,697 L-63,703 L-63,692 L-62,688 L-62,670 L-65,652 L-71,636 L-77,626 L-86,615 L-94,607 L-107,597 L-117,589 L-128,580 L-138,570 L-144,560 L-148,552 L-152,539 L-154,526 L-154,492 L-150,465 L-148,456 L-146,451 L-139,445 L-134,439 L-129,434 L-119,424 L-112,416 L-106,406 L-104,406 L-103,402 L-95,388 L-88,377 L-77,362 L-76,360 L-74,360 L-72,355 L-64,342 L-51,316 L-42,295 L-37,284 L-26,250 L-19,224 L-14,199 L-10,182 L-4,144 L0,106 L2,68 L2,29 Z " fill="#ABABA9" transform="translate(1401,997)"/>
<path d="M0,0 L2,0 L3,191 L3,227 L-5,231 L-16,235 L-27,240 L-50,250 L-59,254 L-60,255 L-468,255 L-464,252 L-452,247 L-434,239 L-412,229 L-403,225 L-384,216 L-374,212 L-361,206 L-346,199 L-336,195 L-324,189 L-314,185 L-306,181 L-298,178 L-284,171 L-272,166 L-260,160 L-250,156 L-234,149 L-220,142 L-208,137 L-194,130 L-190,130 L-191,118 L-185,115 L-171,107 L-166,104 L-164,104 L-164,102 L-156,98 L-154,98 L-154,96 L-139,87 L-137,87 L-137,85 L-128,80 L-118,73 L-102,63 L-100,63 L-100,61 L-92,57 L-90,57 L-90,55 L-78,48 L-76,48 L-76,46 L-56,34 L-45,27 L-31,18 L-22,13 L-14,8 L-9,5 L-6,5 L-5,2 Z " fill="#7A3A2F" transform="translate(1263,1793)"/>
<path d="M0,0 L2,0 L5,9 L7,14 L7,17 L9,17 L17,39 L24,62 L29,79 L32,86 L34,97 L38,110 L44,136 L51,182 L53,189 L56,231 L61,259 L63,282 L67,301 L69,330 L72,331 L71,333 L71,345 L72,352 L71,385 L68,414 L61,445 L51,475 L46,486 L38,503 L32,515 L30,515 L28,521 L22,531 L21,533 L19,533 L17,538 L10,549 L3,559 L-8,573 L-19,587 L-30,600 L-40,611 L-49,622 L-50,627 L-38,643 L-36,647 L-33,648 L-28,654 L-20,661 L-11,668 L-4,676 L-1,679 L2,679 L6,684 L11,686 L11,688 L14,688 L15,690 L20,692 L20,694 L25,696 L31,699 L43,704 L44,706 L49,708 L59,712 L64,713 L68,718 L70,723 L72,723 L76,729 L76,731 L78,731 L84,741 L89,746 L95,754 L100,759 L109,766 L114,771 L122,778 L124,779 L124,781 L130,783 L145,791 L150,803 L154,814 L153,818 L144,812 L132,802 L130,801 L130,799 L126,797 L115,788 L104,777 L100,775 L85,790 L76,801 L69,809 L61,814 L48,818 L26,823 L-13,830 L-23,831 L-21,827 L-6,813 L2,806 L7,800 L13,790 L19,775 L26,755 L19,764 L-7,790 L-22,801 L-33,807 L-36,815 L-38,821 L-40,823 L-44,822 L-54,813 L-64,799 L-70,787 L-74,768 L-76,751 L-77,732 L-79,730 L-81,731 L-81,710 L-79,680 L-77,670 L-76,658 L-75,657 L-74,641 L-76,641 L-75,635 L-71,626 L-67,606 L-65,597 L-59,569 L-52,545 L-44,513 L-40,500 L-35,481 L-31,468 L-30,441 L-27,442 L-26,443 L-26,449 L-27,456 L-25,455 L-23,443 L-8,405 L-4,395 L0,385 L6,368 L10,358 L16,342 L22,318 L24,312 L27,292 L31,275 L34,248 L35,235 L35,183 L32,151 L28,124 L25,105 L20,81 L16,66 L10,42 L8,35 L2,13 L0,7 Z " fill="#8B8B89" transform="translate(1523,848)"/>
<path d="M0,0 L2,0 L8,16 L14,32 L22,48 L26,58 L34,74 L42,89 L45,94 L45,96 L47,96 L56,112 L65,126 L75,140 L84,152 L90,159 L99,170 L105,176 L105,178 L107,178 L107,180 L111,182 L116,187 L130,200 L144,211 L146,212 L146,214 L151,216 L161,223 L173,230 L193,238 L205,241 L219,245 L219,246 L196,246 L175,241 L159,236 L144,229 L131,222 L121,215 L107,205 L94,194 L84,183 L84,181 L82,182 L91,195 L99,206 L107,216 L115,226 L122,234 L122,236 L125,237 L132,245 L156,269 L166,277 L179,288 L192,298 L205,306 L209,308 L209,310 L157,310 L120,305 L93,299 L81,296 L87,320 L93,348 L97,364 L96,368 L91,367 L88,370 L85,372 L78,342 L66,340 L70,350 L75,368 L77,381 L77,412 L72,430 L65,446 L62,451 L60,451 L59,447 L55,445 L51,440 L42,434 L28,429 L16,428 L17,415 L22,405 L31,397 L45,390 L61,384 L37,383 L25,381 L17,376 L11,369 L5,357 L0,343 L-5,342 L-5,357 L-8,374 L-13,383 L-21,389 L-29,392 L-49,397 L-49,398 L-30,401 L-19,404 L-10,408 L-3,414 L3,424 L3,428 L-11,432 L-22,438 L-31,446 L-33,450 L-35,450 L-37,456 L-39,459 L-43,457 L-50,449 L-59,433 L-65,415 L-68,400 L-68,364 L-66,353 L-86,359 L-110,368 L-126,376 L-129,377 L-128,372 L-119,355 L-109,341 L-100,331 L-92,325 L-78,318 L-55,312 L-42,310 L-42,309 L-65,305 L-101,293 L-114,288 L-126,283 L-135,278 L-131,282 L-116,292 L-100,301 L-84,308 L-79,309 L-79,311 L-126,311 L-150,308 L-171,304 L-186,300 L-212,289 L-227,281 L-240,272 L-247,265 L-251,260 L-251,258 L-246,260 L-230,269 L-217,275 L-202,281 L-186,287 L-172,292 L-147,298 L-127,301 L-119,301 L-135,292 L-152,280 L-170,266 L-183,255 L-193,246 L-201,237 L-206,232 L-215,222 L-215,220 L-217,220 L-224,210 L-227,204 L-226,202 L-214,213 L-201,222 L-188,232 L-161,250 L-145,259 L-126,268 L-112,275 L-100,279 L-90,283 L-72,290 L-48,297 L-19,303 L-3,305 L5,305 L-2,298 L-7,294 L-7,292 L-11,290 L-27,274 L-27,272 L-29,272 L-38,261 L-48,248 L-58,234 L-64,224 L-73,209 L-85,186 L-91,173 L-94,167 L-93,165 L-88,170 L-88,172 L-84,174 L-74,184 L-67,192 L-53,204 L-40,214 L-28,223 L-13,233 L9,246 L26,256 L41,263 L51,267 L51,269 L60,271 L72,276 L85,280 L94,283 L103,286 L127,290 L151,294 L169,295 L159,289 L150,282 L140,274 L137,272 L137,270 L133,268 L121,257 L121,255 L119,255 L112,247 L111,244 L109,244 L100,233 L92,223 L82,209 L75,198 L64,181 L49,152 L40,135 L32,117 L27,105 L22,92 L18,81 L15,72 L9,49 L3,24 L0,4 Z " fill="#8E8F8D" transform="translate(1068,725)"/>
<path d="M0,0 L4,1 L15,10 L32,24 L48,36 L66,49 L85,62 L102,73 L117,82 L138,94 L165,108 L168,109 L177,109 L199,103 L240,89 L259,83 L269,79 L301,68 L306,68 L305,73 L300,72 L300,74 L286,79 L272,86 L270,86 L270,88 L264,91 L260,91 L260,93 L243,101 L219,112 L211,116 L208,116 L208,118 L198,122 L194,123 L194,125 L182,130 L176,132 L176,134 L168,136 L154,143 L146,146 L130,153 L120,157 L102,164 L94,168 L78,174 L66,179 L54,184 L36,191 L20,197 L6,203 L-10,209 L-21,213 L-28,216 L-44,222 L-60,228 L-78,235 L-100,243 L-116,250 L-129,255 L-135,255 L-135,253 L-139,253 L-139,230 L-136,227 L-123,221 L-112,214 L-101,204 L-91,188 L-80,166 L-72,159 L-54,149 L-46,142 L-41,132 L-37,120 L-35,104 L-35,60 L-36,55 L-36,48 L-28,32 L-16,15 L-2,1 Z M-136,255 Z " fill="#010202" transform="translate(699,1435)"/>
<path d="M0,0 L2,0 L0,6 L-8,23 L-12,34 L-19,52 L-26,74 L-31,91 L-33,100 L-37,118 L-39,130 L-41,139 L-43,150 L-46,182 L-46,242 L-43,277 L-39,300 L-36,312 L-34,321 L-30,338 L-26,349 L-22,362 L-16,374 L-8,394 L-1,410 L7,426 L20,445 L29,457 L38,468 L53,483 L71,496 L87,505 L101,512 L117,517 L126,520 L132,523 L132,524 L115,524 L99,520 L82,514 L66,506 L50,496 L40,487 L32,480 L19,465 L9,450 L1,437 L-10,418 L-18,402 L-29,377 L-37,356 L-42,342 L-42,354 L-39,404 L-34,428 L-30,444 L-25,460 L-16,480 L-9,491 L1,505 L7,512 L7,514 L10,515 L12,518 L38,519 L38,520 L16,520 L23,528 L20,529 L11,523 L8,522 L-7,522 L-11,523 L-31,523 L-56,517 L-65,514 L-58,522 L-58,524 L-54,526 L-51,529 L-51,531 L-65,533 L-77,536 L-103,536 L-106,536 L-106,534 L-109,533 L-111,515 L-113,482 L-113,416 L-110,371 L-109,366 L-107,342 L-102,304 L-94,259 L-87,227 L-83,214 L-76,188 L-67,162 L-63,148 L-55,126 L-51,116 L-48,107 L-43,88 L-36,69 L-25,43 L-15,24 L-4,6 Z " fill="#8D8D8A" transform="translate(647,531)"/>
<path d="M0,0 L7,0 L4,2 L4,4 L-11,13 L-15,16 L-20,19 L-30,28 L-41,39 L-46,45 L-48,45 L-48,47 L-52,51 L-54,51 L-56,55 L-57,57 L-59,57 L-60,61 L-62,61 L-64,65 L-67,70 L-67,90 L-66,109 L-63,137 L-63,147 L-67,148 L-72,155 L-74,155 L-76,160 L-79,164 L-81,164 L-83,169 L-88,177 L-90,177 L-92,182 L-94,185 L-96,185 L-98,190 L-106,201 L-108,201 L-109,205 L-116,215 L-123,224 L-124,227 L-126,227 L-128,231 L-142,250 L-151,262 L-152,265 L-154,265 L-156,269 L-166,283 L-168,283 L-170,288 L-176,296 L-177,298 L-179,298 L-181,303 L-182,305 L-184,305 L-185,309 L-188,314 L-186,318 L-180,323 L-175,328 L-162,341 L-159,344 L-259,344 L-258,335 L-242,271 L-226,207 L-223,197 L-221,192 L-219,191 L-215,185 L-215,182 L-213,180 L-210,180 L-208,176 L-200,164 L-191,151 L-181,136 L-174,126 L-170,120 L-162,111 L-154,104 L-144,95 L-142,95 L-142,93 L-134,86 L-131,83 L-129,83 L-129,81 L-121,74 L-106,61 L-99,55 L-97,55 L-97,53 L-86,44 L-75,35 L-59,22 L-46,11 L-36,4 L-10,2 Z " fill="#7B3B2F" transform="translate(529,1704)"/>
<path d="M0,0 L5,0 L5,2 L-7,9 L-15,14 L-26,21 L-39,29 L-55,39 L-57,39 L-57,41 L-66,46 L-71,48 L-71,50 L-79,54 L-81,54 L-81,56 L-94,64 L-105,71 L-115,78 L-118,78 L-118,80 L-132,88 L-135,89 L-135,91 L-143,95 L-145,95 L-145,97 L-163,107 L-170,111 L-172,111 L-171,123 L-184,128 L-198,135 L-214,142 L-229,149 L-237,153 L-247,157 L-262,164 L-271,168 L-283,174 L-293,178 L-301,182 L-308,185 L-323,192 L-333,196 L-353,205 L-361,209 L-371,213 L-385,220 L-395,224 L-415,233 L-426,238 L-442,245 L-449,248 L-541,248 L-536,243 L-517,232 L-512,231 L-512,229 L-496,221 L-481,213 L-459,201 L-445,194 L-426,184 L-420,181 L-417,181 L-417,179 L-392,167 L-377,159 L-362,152 L-357,150 L-354,150 L-354,148 L-334,139 L-320,132 L-316,132 L-316,130 L-304,125 L-289,118 L-270,110 L-258,105 L-252,101 L-235,95 L-226,91 L-201,80 L-191,76 L-174,69 L-161,64 L-149,59 L-136,54 L-133,54 L-133,52 L-121,48 L-109,43 L-94,37 L-81,32 L-71,28 L-57,23 L-53,21 L-49,21 L-49,19 L-29,12 L-16,7 L-6,3 Z " fill="#020202" transform="translate(1244,1800)"/>
<path d="M0,0 L2,2 L6,12 L8,19 L12,28 L17,40 L21,50 L27,66 L33,80 L36,90 L43,106 L49,122 L51,126 L51,129 L-278,129 L-274,126 L-262,121 L-244,113 L-222,103 L-213,99 L-194,90 L-184,86 L-171,80 L-156,73 L-146,69 L-134,63 L-124,59 L-116,55 L-108,52 L-94,45 L-82,40 L-70,34 L-60,30 L-44,23 L-30,16 L-18,11 L-4,4 L0,4 Z " fill="#2E2D2F" transform="translate(1073,1919)"/>
<path d="M0,0 L4,0 L5,9 L4,13 L8,14 L14,36 L16,47 L3,46 L7,56 L12,74 L14,87 L14,118 L9,136 L2,152 L-1,157 L-3,157 L-4,153 L-8,151 L-12,146 L-21,140 L-35,135 L-47,134 L-46,121 L-41,111 L-32,103 L-18,96 L-2,90 L-26,89 L-38,87 L-46,82 L-52,75 L-58,63 L-63,49 L-68,48 L-68,63 L-71,80 L-76,89 L-84,95 L-92,98 L-112,103 L-112,104 L-93,107 L-82,110 L-73,114 L-66,120 L-60,130 L-60,134 L-74,138 L-85,144 L-94,152 L-96,156 L-98,156 L-100,162 L-102,165 L-106,163 L-113,155 L-122,139 L-128,121 L-131,106 L-131,70 L-129,59 L-149,65 L-173,74 L-189,82 L-192,83 L-191,78 L-182,61 L-172,47 L-163,37 L-155,31 L-141,24 L-118,18 L-101,16 L-89,17 L-81,19 L-69,21 L-53,23 L-19,23 L-30,15 L-30,13 L-33,13 L-33,11 L-20,9 L-2,1 Z " fill="#6D545F" transform="translate(1131,1019)"/>
<path d="M0,0 L9,2 L34,8 L54,8 L58,7 L73,7 L81,11 L85,14 L86,13 L81,8 L81,6 L117,6 L133,9 L144,14 L152,18 L161,24 L175,38 L186,54 L190,61 L190,63 L184,61 L167,53 L164,52 L168,68 L169,74 L169,112 L164,133 L159,146 L156,151 L153,150 L153,147 L151,147 L146,138 L138,131 L123,125 L123,118 L126,108 L131,100 L139,94 L154,88 L139,85 L129,80 L122,72 L116,58 L111,41 L111,39 L108,39 L107,66 L103,76 L99,79 L93,81 L74,82 L77,85 L94,92 L104,98 L109,104 L113,112 L115,118 L115,124 L99,130 L92,136 L85,147 L83,147 L74,131 L66,108 L62,86 L61,78 L61,49 L63,41 L33,46 L12,50 L15,60 L23,86 L28,99 L24,97 L13,86 L5,76 L-3,69 L-3,67 L-7,65 L-20,51 L-20,49 L-23,48 L-30,39 L-37,28 L-39,25 L-39,22 L-12,21 L4,17 L14,17 L9,11 L4,6 L0,2 Z " fill="#6D545F" transform="translate(582,1045)"/>
<path d="M0,0 L1,0 L3,10 L7,43 L10,62 L14,83 L21,127 L24,136 L26,142 L30,144 L40,153 L45,156 L45,158 L47,158 L47,160 L50,161 L50,163 L54,165 L54,167 L58,168 L68,177 L70,178 L70,180 L-72,180 L-75,177 L-75,175 L-77,175 L-80,171 L-80,169 L-82,169 L-82,167 L-84,167 L-89,161 L-89,159 L-93,157 L-99,150 L-98,145 L-88,131 L-87,129 L-85,129 L-83,124 L-76,114 L-68,102 L-60,90 L-53,79 L-52,77 L-50,77 L-48,71 L-41,61 L-40,59 L-38,59 L-36,54 L-29,43 L-25,37 L-23,37 L-21,31 L-19,31 L-17,25 L-15,25 L-13,19 L-6,9 Z " fill="#7B3A2F" transform="translate(468,1868)"/>
<path d="M0,0 L6,5 L6,7 L10,9 L20,19 L27,27 L41,39 L54,49 L66,58 L75,64 L72,68 L72,75 L67,76 L55,67 L49,62 L49,64 L51,64 L62,79 L71,90 L82,103 L94,114 L101,122 L111,131 L121,138 L137,138 L134,140 L124,140 L124,142 L127,142 L127,144 L131,146 L140,152 L140,153 L104,153 L88,151 L76,149 L61,146 L52,146 L52,144 L29,140 L-7,128 L-20,123 L-32,118 L-41,113 L-37,117 L-22,127 L-6,136 L10,143 L15,144 L15,146 L-32,146 L-56,143 L-77,139 L-92,135 L-118,124 L-133,116 L-146,107 L-153,100 L-157,95 L-157,93 L-152,95 L-136,104 L-123,110 L-108,116 L-92,122 L-78,127 L-53,133 L-33,136 L-25,136 L-41,127 L-58,115 L-76,101 L-89,90 L-99,81 L-107,72 L-112,67 L-121,57 L-121,55 L-123,55 L-130,45 L-133,39 L-132,37 L-120,48 L-107,57 L-94,67 L-67,85 L-51,94 L-32,103 L-18,110 L-6,114 L4,118 L22,125 L46,132 L75,138 L91,140 L99,140 L92,133 L87,129 L87,127 L83,125 L67,109 L67,107 L65,107 L56,96 L46,83 L36,69 L30,59 L21,44 L9,21 L3,8 L0,2 Z " fill="#8E8E8D" transform="translate(974,890)"/>
<path d="M0,0 L4,2 L11,8 L19,13 L23,13 L22,4 L27,3 L44,13 L64,25 L80,33 L92,39 L96,40 L96,42 L105,44 L117,49 L130,53 L139,56 L148,59 L172,63 L196,67 L214,68 L204,62 L195,55 L191,52 L192,44 L194,44 L193,41 L194,37 L192,37 L192,35 L196,37 L206,46 L217,55 L230,66 L242,74 L252,80 L254,81 L254,83 L202,83 L165,78 L138,72 L126,69 L132,93 L138,121 L142,137 L141,141 L136,140 L133,143 L130,145 L123,114 L121,103 L116,85 L116,81 L111,80 L112,70 L112,67 L99,72 L90,76 L84,77 L72,77 L61,69 L45,54 L40,48 L32,41 L23,31 L13,18 L6,9 L2,4 L2,2 L0,2 Z " fill="#8E8F8D" transform="translate(1023,952)"/>
<path d="M0,0 L5,0 L10,12 L15,24 L21,32 L26,36 L34,39 L42,40 L68,41 L66,43 L50,49 L36,56 L28,63 L25,68 L23,73 L21,86 L33,86 L47,91 L58,99 L62,104 L65,107 L66,111 L58,121 L48,129 L44,131 L69,132 L68,134 L52,139 L8,139 L-12,137 L-24,135 L-26,133 L-17,132 L-21,129 L-30,123 L-36,118 L-34,117 L-32,112 L-30,108 L-28,108 L-26,103 L-17,95 L-4,88 L8,86 L4,76 L-3,68 L-11,64 L-20,61 L-35,58 L-47,56 L-44,54 L-20,48 L-10,42 L-5,34 L-2,22 Z " fill="#A7A8A5" transform="translate(1063,1067)"/>
<path d="M0,0 L1,0 L1,5 L4,6 L5,8 L8,61 L10,109 L12,141 L13,176 L15,205 L16,236 L16,251 L-3,261 L-10,265 L-73,265 L-71,262 L-59,257 L-34,246 L-26,243 L-14,238 L-11,237 L-11,12 L-6,9 L-2,4 Z " fill="#4E1E11" transform="translate(1276,1783)"/>
<path d="M0,0 L3,4 L11,26 L21,53 L29,76 L35,89 L40,102 L43,112 L43,121 L33,160 L31,170 L29,176 L27,178 L23,177 L13,168 L3,154 L-3,142 L-7,123 L-9,106 L-9,65 L-7,38 L-2,6 Z " fill="#2F2F2F" transform="translate(1456,1493)"/>
<path d="M0,0 L33,0 L37,10 L42,28 L44,41 L44,72 L39,90 L32,106 L29,111 L27,111 L26,107 L22,105 L18,100 L9,94 L-5,89 L-17,88 L-16,75 L-11,65 L-2,57 L12,50 L28,44 L4,43 L-8,41 L-16,36 L-22,29 L-28,17 L-31,7 L-31,4 L-31,1 Z " fill="#6F706F" transform="translate(1101,1065)"/>
<path d="M0,0 L3,0 L4,2 L4,14 L1,31 L-4,40 L-12,46 L-20,49 L-40,54 L-40,55 L-21,58 L-10,61 L-1,65 L6,71 L12,81 L12,85 L-2,89 L-13,95 L-22,103 L-24,107 L-26,107 L-28,113 L-30,116 L-34,114 L-41,106 L-50,90 L-56,72 L-59,57 L-59,21 L-57,10 L-52,10 L-51,8 L-36,4 L-33,3 L-10,1 L-1,1 Z " fill="#6F706E" transform="translate(1059,1068)"/>
<path d="M0,0 L2,0 L7,32 L13,52 L18,67 L25,82 L27,86 L27,90 L29,90 L37,106 L46,118 L55,128 L62,135 L66,138 L66,140 L56,142 L52,143 L32,143 L7,137 L-2,134 L5,142 L5,144 L9,146 L12,149 L12,151 L-6,153 L-8,135 L-10,126 L-12,110 L-13,87 L-13,70 L-7,34 Z " fill="#F7E7E1" transform="translate(584,911)"/>
<path d="M0,0 L2,0 L5,16 L4,21 L-6,36 L-10,43 L-12,43 L-14,49 L-16,49 L-18,55 L-20,55 L-22,60 L-28,69 L-33,77 L-35,77 L-37,82 L-44,93 L-45,95 L-47,95 L-49,101 L-57,112 L-66,126 L-74,138 L-80,147 L-82,147 L-84,152 L-93,165 L-92,169 L-86,176 L-83,179 L-83,181 L-79,183 L-79,185 L-77,185 L-77,187 L-75,187 L-72,191 L-72,193 L-70,193 L-69,197 L-67,198 L-93,198 L-103,189 L-111,181 L-119,174 L-123,170 L-121,164 L-118,159 L-116,159 L-114,154 L-113,152 L-111,152 L-109,147 L-102,137 L-100,137 L-98,132 L-88,119 L-86,119 L-85,115 L-71,96 L-62,84 L-60,81 L-58,81 L-57,77 L-51,69 L-43,58 L-42,55 L-40,55 L-38,51 L-31,41 L-30,39 L-28,39 L-26,34 L-24,31 L-22,31 L-20,26 L-15,18 L-11,14 L-8,9 L-6,9 L-4,4 Z " fill="#4F1D10" transform="translate(463,1850)"/>
<path d="M0,0 L6,0 L5,8 L5,37 L9,63 L14,79 L20,94 L29,109 L36,118 L42,123 L47,126 L43,128 L20,128 L15,126 L11,121 L11,119 L7,117 L0,111 L-4,105 L-4,103 L-6,103 L-7,99 L-10,99 L-13,92 L-20,78 L-25,67 L-25,65 L-27,65 L-30,57 L-35,45 L-45,13 L-46,9 L-40,7 L-8,1 Z " fill="#FBFAF9" transform="translate(639,1086)"/>
<path d="M0,0 L3,0 L12,27 L17,36 L24,42 L35,46 L47,48 L46,50 L31,56 L25,61 L23,61 L21,65 L17,74 L15,86 L23,88 L33,93 L40,100 L43,105 L43,108 L45,108 L47,113 L40,121 L35,125 L20,131 L5,135 L-17,135 L-26,133 L-28,132 L-28,130 L-8,129 L-5,128 L-13,123 L-21,114 L-24,108 L-17,97 L-9,90 L3,85 L7,85 L4,73 L-1,63 L-10,56 L-25,49 L-33,46 L-34,43 L-15,41 L-6,37 L-2,27 L-1,7 Z " fill="#A6A6A4" transform="translate(690,1084)"/>
<path d="M0,0 L20,1 L35,4 L46,8 L46,10 L50,9 L50,11 L53,12 L51,12 L55,28 L56,34 L56,72 L51,93 L46,106 L43,111 L40,110 L40,107 L38,107 L33,98 L25,91 L10,85 L10,78 L13,68 L18,60 L26,54 L41,48 L26,45 L16,40 L9,32 L3,18 L-1,4 Z " fill="#727271" transform="translate(695,1085)"/>
<path d="M0,0 L45,0 L44,27 L40,37 L36,40 L30,42 L11,43 L14,46 L31,53 L41,59 L46,65 L50,73 L52,79 L52,85 L36,91 L29,97 L22,108 L20,108 L11,92 L3,69 L-1,47 L-2,39 L-2,10 L0,2 L-2,1 Z " fill="#70716F" transform="translate(645,1084)"/>
<path d="M0,0 L4,0 L3,11 L3,47 L8,69 L14,84 L22,97 L31,108 L42,116 L42,118 L40,120 L36,122 L27,121 L25,122 L25,120 L17,118 L14,115 L6,110 L1,105 L-1,101 L-3,101 L-8,95 L-9,90 L-11,90 L-16,81 L-18,78 L-18,73 L-20,73 L-25,61 L-26,57 L-30,43 L-32,33 L-32,15 L-28,13 L-26,9 L-4,1 Z M-25,59 Z " fill="#FBFBF9" transform="translate(998,1078)"/>
<path d="M0,0 L5,0 L10,12 L15,24 L21,32 L26,36 L34,39 L42,40 L68,41 L66,43 L50,49 L36,56 L28,63 L25,68 L23,73 L20,97 L19,117 L17,117 L14,102 L7,82 L1,72 L-6,66 L-20,61 L-35,58 L-47,56 L-44,54 L-20,48 L-10,42 L-5,34 L-2,22 Z " fill="#F9F9F8" transform="translate(1063,1067)"/>
<path d="M0,0 L8,0 L13,2 L21,36 L27,66 L31,86 L31,96 L29,98 L27,105 L25,106 L22,113 L20,117 L18,117 L16,121 L7,131 L0,134 L-29,134 L-25,131 L-19,127 L-11,120 L-2,106 L6,88 L10,72 L10,41 L7,24 L1,4 Z " fill="#F9FAF8" transform="translate(1134,1065)"/>
<path d="M0,0 L4,2 L11,8 L28,20 L43,30 L57,38 L76,48 L86,53 L90,54 L90,56 L96,57 L110,63 L110,67 L93,75 L84,77 L72,77 L61,69 L45,54 L40,48 L32,41 L23,31 L13,18 L6,9 L2,4 L2,2 L0,2 Z " fill="#F5E6E1" transform="translate(1023,952)"/>
<path d="M0,0 L3,0 L12,27 L17,36 L24,42 L35,46 L47,48 L46,50 L31,56 L25,61 L23,61 L21,65 L17,74 L14,90 L13,103 L11,103 L8,87 L4,73 L-1,63 L-10,56 L-25,49 L-33,46 L-34,43 L-15,41 L-6,37 L-2,27 L-1,7 Z " fill="#F8F8F7" transform="translate(690,1084)"/>
<path d="M0,0 L7,6 L8,8 L11,9 L18,17 L32,30 L43,39 L53,47 L64,55 L77,63 L92,71 L111,79 L134,86 L139,88 L153,91 L164,94 L164,95 L138,95 L118,91 L98,85 L77,76 L59,66 L42,53 L34,46 L28,41 L21,33 L12,22 L4,9 L0,3 Z " fill="#90908F" transform="translate(671,949)"/>
<path d="M0,0 L6,1 L14,5 L15,14 L17,14 L17,20 L18,25 L19,45 L18,57 L17,61 L13,78 L10,84 L4,92 L0,100 L-5,105 L-6,103 L-11,104 L-11,106 L-13,106 L-11,102 L-5,91 L0,78 L4,60 L4,22 L0,3 Z " fill="#F9F7F3" transform="translate(746,1097)"/>
<path d="M0,0 Z M-2,1 L0,1 L-1,4 L-5,5 L-8,11 L-12,12 L-17,17 L-20,20 L-22,20 L-23,23 L-25,23 L-27,29 L-31,30 L-35,37 L-40,42 L-44,48 L-48,52 L-50,52 L-52,58 L-52,79 L-53,81 L-50,82 L-52,87 L-52,91 L-50,91 L-50,102 L-49,115 L-49,122 L-47,122 L-46,133 L-46,146 L-43,155 L-42,173 L-41,176 L-41,187 L-39,187 L-38,203 L-34,219 L-31,236 L-30,247 L-28,260 L-25,272 L-24,282 L-20,289 L-20,292 L-22,292 L-26,285 L-31,260 L-36,226 L-40,207 L-45,171 L-47,156 L-51,138 L-51,123 L-54,95 L-55,76 L-55,56 L-49,47 L-47,47 L-46,43 L-44,43 L-42,39 L-37,33 L-35,33 L-35,31 L-33,31 L-31,27 L-29,27 L-27,23 L-13,9 L-11,9 L-10,6 L-5,2 Z " fill="#3E2823" transform="translate(516,1718)"/>
<path d="M0,0 L39,0 L63,3 L72,6 L75,9 L75,12 L63,12 L47,9 L14,9 L-3,10 L-12,11 L-14,10 L-14,5 L-10,2 Z " fill="#BC9792" transform="translate(822,1392)"/>
<path d="M0,0 L7,3 L16,8 L33,14 L49,20 L71,27 L94,31 L96,33 L86,35 L69,39 L61,39 L58,39 L58,33 L49,31 L32,23 L14,12 L0,2 Z " fill="#F1E4DE" transform="translate(932,1002)"/>
<path d="M0,0 L5,1 L13,9 L31,22 L33,25 L27,27 L27,34 L24,37 L18,36 L5,26 L-5,17 L-11,11 L-11,9 L-7,10 L-5,13 L-3,9 Z " fill="#E7E4E0" transform="translate(698,991)"/>
<path d="M0,0 L10,0 L9,2 L-7,7 L-51,7 L-71,5 L-83,3 L-85,1 Z " fill="#674F56" transform="translate(1122,1199)"/>
<path d="M0,0 L2,0 L2,10 L5,9 L4,21 L1,41 L-1,68 L-2,90 L-5,88 L-7,89 L-7,68 L-5,38 L-3,28 L-2,16 L-1,15 Z " fill="#999996" transform="translate(1449,1490)"/>
<path d="M0,0 L5,0 L1,3 L-11,8 L-21,11 L-25,14 L-43,20 L-56,25 L-65,29 L-77,33 L-95,40 L-107,44 L-115,47 L-119,47 L-119,49 L-123,50 L-125,52 L-127,51 L-127,46 L-120,47 L-120,45 L-114,43 L-109,43 L-108,40 L-104,41 L-104,39 L-99,37 L-96,35 L-94,36 L-79,30 L-69,27 L-66,27 L-66,25 L-64,25 L-63,23 L-60,23 L-55,22 L-54,19 L-50,21 L-50,19 L-44,17 L-39,17 L-39,15 L-34,13 L-29,13 L-28,10 L-23,9 L-15,6 Z " fill="#392522" transform="translate(1404,1737)"/>
<path d="M0,0 L5,5 L13,14 L17,17 L22,16 L22,21 L38,30 L39,34 L18,34 L17,31 L18,27 L14,22 L11,21 L10,18 L4,13 L4,11 L2,11 L2,9 L0,9 L1,5 L-1,5 Z " fill="#A0A39F" transform="translate(1463,1653)"/>
<path d="M0,0 L0,3 L-10,8 L-28,14 L-33,15 L-55,15 L-64,13 L-66,12 L-66,10 L-46,9 L-18,5 L-5,2 Z " fill="#6A585C" transform="translate(728,1204)"/>
<path d="M0,0 L6,1 L20,7 L34,12 L44,15 L44,17 L42,18 L42,21 L23,17 L15,13 L10,11 L-1,6 Z " fill="#F2E6E1" transform="translate(855,1014)"/>
<path d="M0,0 L7,3 L12,15 L16,26 L15,30 L6,24 L-6,14 L-8,13 L-7,10 L-2,10 L-1,5 Z " fill="#959695" transform="translate(1661,1636)"/>
<path d="M0,0 L1,0 L2,13 L2,93 L-1,91 L-2,7 Z M-1,92 Z " fill="#E8E9E6" transform="translate(1349,1034)"/>
<path d="M0,0 L2,4 L11,32 L14,39 L10,37 L-1,26 L-5,21 L-4,17 L-2,17 L-1,11 L-3,11 L-4,13 L-4,8 L-1,4 Z " fill="#725D65" transform="translate(596,1105)"/>
<path d="M0,0 L1,4 L2,4 L4,4 L5,7 L-12,19 L-18,23 L-19,18 L-18,15 L-16,14 L-17,11 L-13,5 L-7,1 L-5,1 L-5,3 L-7,3 L-6,5 L-4,5 L-4,7 L-2,7 L-2,1 Z " fill="#848583" transform="translate(1239,1450)"/>
<path d="M0,0 L7,3 L16,8 L33,14 L40,17 L38,18 L38,25 L32,23 L14,12 L0,2 Z " fill="#E9DED9" transform="translate(932,1002)"/>
<path d="M0,0 L9,2 L34,8 L50,10 L50,11 L29,11 L20,9 L20,11 L17,11 L16,13 L15,11 L13,11 L13,13 L9,11 L4,6 L0,2 Z " fill="#674D56" transform="translate(582,1045)"/>
<path d="M0,0 L2,1 L3,7 L5,9 L3,9 L2,19 L-4,37 L-7,43 L-10,40 L-10,36 L-8,36 L-7,29 L-4,18 L-3,17 Z " fill="#9B9B98" transform="translate(1375,1628)"/>
<path d="M0,0 L1,0 L1,17 L2,8 L4,7 L6,53 L3,51 L0,35 L-1,27 L-1,5 Z " fill="#666765" transform="translate(644,1096)"/>
<path d="M0,0 L7,6 L14,13 L17,14 L16,17 L12,18 L11,20 L9,22 L7,27 L5,25 L1,10 Z " fill="#F3E7E3" transform="translate(594,1130)"/>
<path d="M0,0 L6,5 L6,7 L10,9 L13,12 L13,14 L-5,16 L-5,3 L-3,3 L-2,6 L-1,1 Z " fill="#EFE4E1" transform="translate(583,1048)"/>
<path d="M0,0 L4,0 L3,17 L2,23 L-3,22 L-5,20 L-5,10 Z " fill="#C6A39C" transform="translate(800,1272)"/>
<path d="M0,0 L5,0 L4,5 L-1,4 L-1,6 L-15,11 L-24,15 L-27,15 L-26,9 Z " fill="#0F100D" transform="translate(1000,1503)"/>
<path d="M0,0 L26,0 L22,2 L35,1 L46,0 L44,2 L33,5 L11,5 L2,3 L0,2 Z " fill="#62494D" transform="translate(662,1214)"/>
<path d="M0,0 L2,1 L0,4 L2,6 L-2,9 L-1,13 L-4,13 L-4,15 L1,12 L10,13 L10,14 L-15,18 L-17,18 L-15,14 Z " fill="#9E9F9D" transform="translate(1517,1661)"/>
<path d="M0,0 L2,4 L3,13 L5,10 L6,11 L6,24 L5,38 L2,41 L1,41 L1,25 L3,25 L1,22 L0,11 L-2,13 Z " fill="#E4E4E2" transform="translate(531,891)"/>
<path d="M0,0 L4,2 L5,10 L0,20 L-4,27 L-5,27 L-5,9 L-1,8 Z " fill="#E6E5E3" transform="translate(1199,1252)"/>
<path d="M0,0 L5,5 L13,14 L17,17 L22,16 L20,20 L17,19 L18,22 L11,21 L10,18 L4,13 L4,11 L2,11 L2,9 L0,9 L1,5 L-1,5 Z " fill="#949592" transform="translate(1463,1653)"/>
<path d="M0,0 L3,1 L3,5 L2,6 L1,9 L0,12 L-2,12 L-2,17 L-3,17 L-5,28 L-5,33 L-7,33 L-8,31 L-11,33 L-10,24 L-2,4 Z " fill="#E4E5E0" transform="translate(637,559)"/>
<path d="M0,0 L10,0 L9,2 L-7,7 L-12,7 L-9,5 L-7,3 L-70,2 L-70,1 Z " fill="#736466" transform="translate(1122,1199)"/>
<path d="M0,0 L2,3 L9,22 L9,29 L6,29 L5,25 L2,26 L0,15 Z " fill="#EEEAE5" transform="translate(604,870)"/>
<path d="M0,0 L3,1 L7,1 L9,4 L35,5 L35,6 L13,6 L20,14 L17,15 L8,9 L-2,7 L0,6 L-2,2 Z " fill="#978C8E" transform="translate(650,1045)"/>
<path d="M0,0 L2,0 L5,9 L7,14 L7,17 L9,17 L12,27 L8,28 L9,35 L7,31 L2,13 L0,7 Z M9,29 Z " fill="#949491" transform="translate(1523,848)"/>
<path d="M0,0 L1,3 L-11,26 L-13,25 L-14,20 L-12,11 L-8,10 L-6,10 L-5,2 L-4,4 L-2,4 Z " fill="#F6E8E3" transform="translate(949,1077)"/>
<path d="M0,0 L15,0 L38,2 L36,4 L42,5 L42,6 L22,5 L2,2 Z " fill="#6A575A" transform="translate(1037,1200)"/>
<path d="M0,0 L1,0 L4,14 L12,29 L12,32 L10,33 L6,29 L5,23 L1,20 L-2,5 Z M6,31 Z " fill="#969893" transform="translate(1450,1621)"/>
<path d="M0,0 L2,1 L0,3 L0,8 L-5,10 L4,11 L4,12 L-17,12 L-19,11 L-18,8 L-8,5 Z " fill="#979896" transform="translate(559,1589)"/>
<path d="M0,0 L10,0 L13,2 L11,4 L11,6 L-11,6 L-9,1 Z " fill="#B8908B" transform="translate(852,1393)"/>
<path d="M0,0 L1,3 L-1,5 L-1,25 L0,44 L2,65 L2,76 L1,76 L-1,66 L0,62 L-2,61 L-1,58 L-2,54 L-3,26 L-3,3 Z M-1,71 Z " fill="#673C34" transform="translate(463,1769)"/>
<path d="M0,0 L2,1 Z M-4,1 L0,1 L-2,6 L-5,10 L-7,9 L-7,13 L-9,13 L-9,22 L-10,24 L-13,25 L-15,27 L-16,22 L-18,23 L-16,19 Z M-11,20 Z " fill="#F3E5DE" transform="translate(1202,1297)"/>
<path d="M0,0 L2,0 L2,26 L-1,29 L-3,29 L-3,25 L-2,24 L-3,20 L-4,18 L-4,8 L-2,7 L-1,11 L0,6 L-1,4 Z M-1,21 L0,23 Z " fill="#252726" transform="translate(1244,1492)"/>
<path d="M0,0 L3,0 L1,4 L6,5 L4,14 L1,15 L-5,15 L-7,14 L-8,13 L-10,15 L-11,7 L-5,9 L1,12 L-3,5 L-3,2 L0,2 Z " fill="#F3E5E0" transform="translate(771,1096)"/>
<path d="M0,0 L2,1 L-1,7 L-6,12 L-9,12 L-9,10 L-16,13 L-17,15 L-23,18 L-27,16 L-22,15 L-22,13 L-17,10 L-15,8 L-9,7 L-5,3 L-3,3 L-3,1 Z " fill="#36231F" transform="translate(1274,1783)"/>
<path d="M0,0 L4,0 L6,5 L3,8 L-2,7 L-3,9 L-8,8 L-9,11 L-14,12 L-14,7 Z M2,2 L2,4 L4,4 L4,2 Z " fill="#222320" transform="translate(1039,1487)"/>
<path d="M0,0 L4,1 L4,10 L5,12 L4,15 L1,18 L-3,17 L-3,19 L-7,21 L-4,12 Z M1,11 Z " fill="#C5C5C4" transform="translate(1578,1308)"/>
<path d="M0,0 L8,0 L13,2 L14,7 L10,7 L7,10 L7,12 L8,14 L5,18 L0,2 Z " fill="#EAEAE7" transform="translate(1134,1065)"/>
<path d="M0,0 L2,0 L3,2 L6,2 L1,8 L-4,8 L-3,13 L-5,13 L-6,16 L-8,16 L-8,18 L-6,19 L-8,19 L-8,21 L-13,22 L-15,23 L-13,19 L-4,5 Z " fill="#D3D4D1" transform="translate(613,451)"/>
<path d="M0,0 L4,5 L9,20 L14,32 L17,42 L13,40 L13,36 L11,36 L9,27 L5,20 L0,3 Z " fill="#412823" transform="translate(1087,1955)"/>
<path d="M0,0 L1,0 L2,6 L2,15 L-1,23 L1,23 L1,30 L-1,31 L-5,4 L-4,1 L-2,2 L-1,5 Z " fill="#C5C4C3" transform="translate(1574,999)"/>
<path d="M0,0 L1,0 L2,6 L2,25 L-2,27 L-1,23 L-3,19 L-3,3 L0,2 Z " fill="#E8E8E6" transform="translate(435,1266)"/>
<path d="M0,0 L2,3 L1,11 L-1,18 L-4,18 L-5,22 L-8,22 L-8,16 L-5,16 L-5,12 L-7,12 L-5,7 Z " fill="#E4E4E1" transform="translate(448,1175)"/>
<path d="M0,0 L12,0 L11,3 L9,3 L8,9 L-2,6 L-7,3 L-7,1 Z " fill="#EFEFEE" transform="translate(663,1126)"/>
<path d="M0,0 L1,3 L3,3 L4,0 L3,9 L0,12 L-4,11 L-13,3 L-13,2 L-6,3 L-4,1 L-3,6 L-2,1 Z " fill="#404142" transform="translate(1483,1659)"/>
<path d="M0,0 L2,0 L1,9 L-2,12 L-4,13 L-4,16 L-10,24 L-12,23 L-11,18 L-1,1 Z " fill="#F5EAE6" transform="translate(1214,1271)"/>
<path d="M0,0 L2,2 L4,1 L4,19 L0,20 L-1,28 L-2,28 L-2,11 L-1,11 Z " fill="#767775" transform="translate(1002,1097)"/>
<path d="M0,0 L2,0 L-1,33 L-3,37 L-3,12 L-1,1 Z " fill="#E8EAE4" transform="translate(604,691)"/>
<path d="M0,0 L5,0 L5,5 L1,6 L0,9 L-8,8 L-9,11 L-13,11 L-13,9 L-9,9 L-9,7 L-11,6 Z " fill="#272725" transform="translate(1118,1451)"/>
<path d="M0,0 L1,0 L1,9 L-2,30 L-6,31 L-6,24 L-3,23 L-3,7 Z " fill="#E6E5E2" transform="translate(439,1218)"/>
<path d="M0,0 L3,4 L9,18 L15,34 L17,38 L17,41 L14,41 L11,31 L8,24 L8,21 L6,21 L4,14 L1,7 Z " fill="#442922" transform="translate(1107,2007)"/>
<path d="M0,0 L1,4 L-2,7 L-11,9 L-13,13 L-19,16 L-26,21 L-28,18 L-24,17 L-24,15 L-15,10 L-5,3 Z " fill="#6C3D35" transform="translate(1150,1863)"/>
<path d="M0,0 L11,3 L20,6 L26,9 L26,10 L9,10 L5,8 L7,8 L7,6 L9,6 L9,4 L0,1 Z " fill="#A5A4A0" transform="translate(753,1045)"/>
<path d="M0,0 L2,1 L2,6 L1,9 L0,12 L-8,12 L-11,8 L-9,8 L-8,6 L-3,2 Z " fill="#909190" transform="translate(1659,1635)"/>
<path d="M0,0 L3,0 L4,2 L8,3 L7,5 L11,5 L13,7 L15,6 L17,7 L16,12 L17,15 L12,13 L0,3 Z M11,8 Z " fill="#EEE3DD" transform="translate(732,1457)"/>
<path d="M0,0 L1,0 L2,37 L-1,37 L-1,1 Z " fill="#EAEDE7" transform="translate(601,736)"/>
<path d="M0,0 L2,4 L3,10 L3,20 L1,19 L-2,15 L-4,13 L-3,6 L-1,4 Z M-6,13 L-4,14 L-5,17 L-7,17 Z " fill="#F0E8E3" transform="translate(1165,1157)"/>
<path d="M0,0 L36,0 L42,3 L42,4 L26,3 L13,2 L2,2 Z " fill="#624950" transform="translate(663,1051)"/>
<path d="M0,0 L4,0 L5,4 L3,7 L5,8 L3,9 L-4,9 L-4,7 L-10,8 L-9,4 Z " fill="#262423" transform="translate(1097,1461)"/>
<path d="M0,0 L2,0 L1,13 L0,39 L-1,39 L-1,16 L-3,16 L-5,10 L-3,7 L-1,7 L-1,1 Z " fill="#363634" transform="translate(1247,1476)"/>
<path d="M0,0 L1,0 L1,10 L-1,22 L-3,24 L-3,16 L-5,21 L-6,21 L-6,12 L-2,7 Z " fill="#E3E4E1" transform="translate(542,846)"/>
<path d="M0,0 L31,0 L31,3 L29,4 L5,4 L5,3 L17,2 L0,1 Z " fill="#5D434B" transform="translate(1084,1201)"/>
<path d="M0,0 L2,4 L3,15 L1,15 L1,17 L4,17 L4,22 L0,23 L-1,26 L-2,26 L-2,12 L-1,1 Z " fill="#692C24" transform="translate(1770,1975)"/>
<path d="M0,0 L2,1 L3,6 L1,7 L-1,6 L-1,11 L-3,13 L-5,17 L-8,15 L-7,18 L-12,19 L-10,15 L-4,6 Z " fill="#7E524A" transform="translate(355,1830)"/>
<path d="M0,0 L3,1 L3,3 L5,4 L2,4 L1,7 L-5,10 L-9,9 L-10,10 L-11,8 L-14,7 Z " fill="#252626" transform="translate(987,1512)"/>
<path d="M0,0 L7,2 L11,4 L12,8 L15,9 L13,12 L17,13 L16,16 L11,13 L11,11 L7,9 L3,4 L0,1 Z " fill="#C3C4C1" transform="translate(1486,1492)"/>
<path d="M0,0 L2,2 L4,15 L4,23 L2,21 L-1,22 L-1,6 Z " fill="#E5E4E0" transform="translate(537,1224)"/>
<path d="M0,0 L3,0 L3,2 L10,1 L9,4 L12,5 L10,11 L4,8 L-1,4 Z " fill="#F2E5DE" transform="translate(780,1490)"/>
<path d="M0,0 L3,1 L2,5 L0,5 L-1,9 L-3,10 L-5,17 L-6,20 L-11,21 L-9,15 L-2,1 Z " fill="#C6C6C4" transform="translate(1572,1329)"/>
<path d="M0,0 L2,0 L7,26 L6,29 L4,30 L2,21 L0,8 Z " fill="#845A52" transform="translate(1776,2007)"/>
<path d="M0,0 L1,0 L1,9 L-3,33 L-5,33 L-6,30 L-6,21 L-3,22 L-2,7 Z " fill="#878682" transform="translate(606,654)"/>
<path d="M0,0 L4,0 L3,3 L-6,9 L-12,12 L-14,12 L-14,14 L-20,14 L-16,12 L-16,10 Z " fill="#683D33" transform="translate(1203,1829)"/>
<path d="M0,0 L2,3 L5,11 L4,15 L-5,9 L-10,4 L0,5 Z " fill="#A5A5A4" transform="translate(1672,1651)"/>
<path d="M0,0 L2,1 L-2,3 L-1,8 L-16,7 L-19,5 Z " fill="#E6E6E6" transform="translate(1035,1117)"/>
<path d="M0,0 L4,0 L4,14 L-1,13 L-3,11 L-3,5 L0,6 Z " fill="#BE9B95" transform="translate(798,1281)"/>
<path d="M0,0 L6,5 L6,7 L9,8 L6,9 L3,10 L1,6 L-3,10 L-4,15 L-1,16 L-5,16 L-5,3 L-3,3 L-2,6 L-1,1 Z " fill="#E9DCD9" transform="translate(583,1048)"/>
<path d="M0,0 L1,0 L0,7 L-2,13 L-7,12 L-8,18 L-12,18 L-13,20 L-12,16 L-9,13 L-7,7 L-5,4 L-2,4 Z " fill="#957167" transform="translate(321,1880)"/>
<path d="M0,0 L2,1 L1,16 L-1,18 L-1,16 L-3,16 L-4,1 Z M-2,2 Z M-4,16 Z " fill="#F6EBE4" transform="translate(1211,1366)"/>
<path d="M0,0 L3,3 L4,13 L5,13 L6,22 L5,26 L6,28 L4,30 L2,20 L0,8 Z " fill="#F7EEE9" transform="translate(612,1209)"/>
<path d="M0,0 L2,4 L6,16 L6,18 L1,16 L-1,15 L-1,11 L-3,11 L-4,13 L-4,8 L-1,4 Z " fill="#7A676E" transform="translate(596,1105)"/>
<path d="M0,0 L2,1 L4,13 L4,21 L2,21 L0,11 L-3,14 L-3,6 Z " fill="#E6E7E2" transform="translate(1067,728)"/>
<path d="M0,0 L1,0 L1,10 L1,12 L2,18 L1,20 L3,21 L1,24 L-5,3 L-4,1 Z " fill="#A0A09D" transform="translate(445,1302)"/>
<path d="M0,0 L4,2 L3,6 L-4,15 L-8,18 L-9,15 L-8,13 L-6,13 L-6,10 L-4,10 L-2,6 Z " fill="#A3A29E" transform="translate(1363,1667)"/>
<path d="M0,0 L3,0 L3,12 L1,17 L-2,16 L-2,2 L0,2 Z " fill="#E5E5E2" transform="translate(1347,1151)"/>
<path d="M0,0 L1,0 L1,52 L0,52 L-1,41 L-2,38 L-2,31 L-1,23 Z " fill="#D2CFCD" transform="translate(1558,1031)"/>
<path d="M0,0 L5,2 L22,12 L22,14 L17,14 L16,14 L15,11 L13,11 L13,9 L8,9 L6,7 L2,6 L2,2 L0,2 Z " fill="#EAE5E2" transform="translate(831,1000)"/>
<path d="M0,0 L4,1 L-3,4 L-4,8 L-10,11 L-14,11 L-15,14 L-19,15 L-18,11 L-9,5 Z " fill="#744137" transform="translate(1241,1806)"/>
<path d="M0,0 L5,0 L4,5 L-1,4 L-1,6 L-7,8 L-12,7 L-15,5 Z " fill="#1B1C19" transform="translate(1000,1503)"/>
<path d="M0,0 Z M-2,1 L0,1 L-1,4 L-5,5 L-8,11 L-12,12 L-17,17 L-20,20 L-22,20 L-23,22 L-23,19 L-13,9 L-11,9 L-10,6 L-5,2 Z " fill="#3A2721" transform="translate(516,1718)"/>
<path d="M0,0 L1,3 L-7,12 L-14,23 L-17,22 L-18,24 L-18,19 L-13,17 L-9,9 L-9,6 L-5,5 L-2,2 L0,2 Z M-7,7 Z " fill="#828383" transform="translate(687,1443)"/>
<path d="M0,0 L5,0 L1,3 L-4,7 L-3,10 L-5,12 L-5,10 L-10,12 L-12,11 L-13,15 L-15,11 L-10,7 L-2,1 L0,2 Z M-6,8 Z " fill="#F3E4E0" transform="translate(735,1201)"/>
<path d="M0,0 L1,3 L-3,15 L-5,15 L-5,20 L-7,18 L-9,20 L-9,15 L-7,13 L-5,4 Z " fill="#E7E7E3" transform="translate(1225,1199)"/>
<path d="M0,0 L2,1 L2,3 L4,4 L4,8 L2,8 L3,11 L2,15 L4,15 L5,26 L3,26 L-1,10 L-1,3 Z M3,9 Z " fill="#E5E5E3" transform="translate(1171,1107)"/>
<path d="M0,0 L6,2 L9,2 L11,7 L19,8 L20,10 L11,9 L0,5 L-1,3 Z " fill="#E6E6E0" transform="translate(750,1039)"/>
<path d="M0,0 L4,2 L11,8 L15,12 L15,19 L10,15 L3,5 L2,2 L0,2 Z " fill="#E9E3E1" transform="translate(1023,952)"/>
<path d="M0,0 L2,2 L6,12 L8,19 L10,22 L10,29 L8,28 L5,18 L4,15 L2,15 L0,7 Z " fill="#3D2722" transform="translate(1073,1919)"/>
<path d="M0,0 L3,2 L-5,10 L-14,16 L-14,5 L-13,5 L-12,10 L-7,8 L-5,4 Z " fill="#9E9C99" transform="translate(1352,1684)"/>
<path d="M0,0 L39,0 L39,1 L30,2 L2,2 L1,4 L-1,4 L-1,2 L-6,2 L-6,1 Z " fill="#C4A69E" transform="translate(822,1392)"/>
<path d="M0,0 L3,1 L1,6 L-4,19 L-5,17 L-7,17 L-7,14 L-5,14 L-6,9 L-4,4 L-2,5 Z M-8,17 Z " fill="#CFCECD" transform="translate(1518,1239)"/>
<path d="M0,0 L1,0 L1,9 L-1,19 L-6,17 L-6,9 L-2,4 L-2,8 L0,8 Z " fill="#7B7B7A" transform="translate(750,1148)"/>
<path d="M0,0 L4,1 L5,4 L2,6 L-2,6 L-3,9 L-8,8 L-7,3 Z M2,1 Z " fill="#F4E6E2" transform="translate(957,1093)"/>
<path d="M0,0 L1,0 L1,25 L-1,30 L-2,30 L-2,15 L-1,2 Z " fill="#E8E9E7" transform="translate(533,936)"/>
<path d="M0,0 L2,1 L3,10 L1,13 L1,9 L-5,10 L-7,5 L-5,3 L-3,3 Z " fill="#E6E7E4" transform="translate(552,1299)"/>
<path d="M0,0 L21,3 L21,6 L5,6 L4,2 L0,3 Z " fill="#F7EFE9" transform="translate(749,1052)"/>
<path d="M0,0 L3,1 L0,4 L-9,5 L-16,5 L-19,4 L-22,4 L-27,3 L-27,2 L0,2 Z " fill="#F3E8E2" transform="translate(835,1042)"/>
<path d="M0,0 L4,1 L11,8 L11,9 L2,9 L-4,8 L0,6 L-1,2 Z " fill="#D5D6D1" transform="translate(1063,1022)"/>
<path d="M0,0 L2,0 L4,2 L7,1 L7,5 L-4,11 L-8,13 L-4,5 L-1,3 Z " fill="#E3E5E0" transform="translate(1205,1460)"/>
<path d="M0,0 L3,0 L4,10 L4,16 L2,16 L3,20 L1,20 L-1,12 Z " fill="#F6E7E0" transform="translate(603,1155)"/>
<path d="M0,0 L1,0 L1,14 L0,18 L-2,22 L-3,15 L-2,12 L-4,12 L-3,3 Z " fill="#6A2F23" transform="translate(303,1923)"/>
<path d="M0,0 L3,1 L2,3 L6,5 L8,9 L7,12 L2,10 L-2,6 L-2,1 Z M1,3 Z " fill="#F2E4DE" transform="translate(724,1446)"/>
<path d="M0,0 L4,1 L14,14 L13,17 L11,13 L7,12 L3,7 L3,2 L-1,3 Z M5,11 Z " fill="#C7C9C4" transform="translate(1486,432)"/>
<path d="M0,0 L3,1 L1,1 L0,6 L-7,9 L-12,13 L-23,16 L-27,15 L-13,10 L-11,10 L-11,8 L-4,4 Z " fill="#673934" transform="translate(1442,1719)"/>
<path d="M0,0 L1,2 L3,2 L3,9 L1,17 L-2,16 L-1,12 L-3,11 L-2,1 Z " fill="#E3E5E1" transform="translate(554,768)"/>
<path d="M0,0 L5,0 L5,2 L-7,9 L-15,14 L-16,11 L-9,7 L-6,7 L-5,2 Z " fill="#160605" transform="translate(1244,1800)"/>
<path d="M0,0 L4,1 L5,3 L8,0 L10,1 L9,5 L3,5 L2,7 L-4,7 L-5,4 L-3,1 Z " fill="#222222" transform="translate(1011,1499)"/>
<path d="M0,0 L1,0 L1,19 L-1,22 L-2,15 L-5,15 L-5,7 L-1,6 Z M-2,22 Z " fill="#E7E8E5" transform="translate(1347,1172)"/>
<path d="M0,0 L10,0 L21,3 L21,4 L-5,4 L-5,3 L0,2 Z " fill="#979490" transform="translate(814,1040)"/>
<path d="M0,0 L2,3 L5,8 L7,15 L7,17 L7,20 L5,20 L-2,4 Z " fill="#D3D3D0" transform="translate(1448,1035)"/>
<path d="M0,0 L3,1 L3,25 L1,21 L0,17 Z M1,1 Z " fill="#E8E8E6" transform="translate(602,776)"/>
<path d="M0,0 L2,0 L10,10 L9,14 L4,11 L2,10 L1,8 L0,5 Z " fill="#CACBC7" transform="translate(1507,457)"/>
<path d="M0,0 L1,4 L3,4 L2,10 L5,17 L2,17 L1,21 L-1,18 L-2,12 Z M1,11 Z " fill="#95938F" transform="translate(1211,1382)"/>
<path d="M0,0 L6,2 L8,4 L-1,6 L1,8 L-2,9 L-7,9 L-6,4 L-4,3 Z " fill="#F0E9E6" transform="translate(1040,1195)"/>
<path d="M0,0 L5,1 L5,5 L-3,9 L-5,9 L-6,4 L-3,1 Z " fill="#EDDDDC" transform="translate(1128,1014)"/>
<path d="M0,0 L3,3 L9,15 L9,17 L13,18 L11,20 L12,24 L9,24 L0,3 Z " fill="#858582" transform="translate(1246,615)"/>
<path d="M0,0 L5,0 L3,3 L-4,2 L-4,4 L-29,4 L-29,7 L-34,6 L-31,3 L-5,1 Z " fill="#A38580" transform="translate(524,1705)"/>
<path d="M0,0 L2,1 L1,12 L-2,20 L-4,20 L-2,4 Z " fill="#E5E5E1" transform="translate(1333,1272)"/>
<path d="M0,0 L3,1 L4,9 L6,11 L3,12 L4,16 L2,18 L-2,6 L-3,2 L-1,2 Z " fill="#C3C3C1" transform="translate(1538,873)"/>
<path d="M0,0 L2,4 L0,6 L-4,8 L-4,11 L-5,16 L-7,16 L-9,11 L-8,7 Z " fill="#7F5148" transform="translate(372,1811)"/>
<path d="M0,0 L2,1 L1,6 L-4,15 L-9,16 L-9,14 L-7,14 L-5,8 L-2,3 L0,3 Z " fill="#E5E6E0" transform="translate(1301,1363)"/>
<path d="M0,0 L9,0 L19,2 L30,3 L30,4 L9,4 L2,2 Z " fill="#5D434C" transform="translate(602,1052)"/>
<path d="M0,0 L2,0 L8,11 L7,14 L4,14 L1,12 Z " fill="#C7C7C4" transform="translate(1568,555)"/>
<path d="M0,0 L1,0 L4,18 L4,23 L1,23 L0,21 L-3,20 L-2,14 L1,15 L2,13 L-1,13 L-1,11 L1,11 L0,7 Z M-3,21 Z M-4,22 Z " fill="#90615A" transform="translate(1772,1979)"/>
<path d="M0,0 L4,2 L1,4 L-2,4 L-2,6 L-16,11 L-18,10 L-13,7 L-7,4 L-5,4 L-5,2 Z " fill="#3D2624" transform="translate(1433,1723)"/>
<path d="M0,0 L7,0 L4,2 L4,4 L-6,9 L-7,5 L-9,5 L-9,3 L-4,3 L0,2 Z " fill="#6F4742" transform="translate(529,1704)"/>
<path d="M0,0 L2,0 L1,4 L-3,9 L-6,12 L-8,12 L-8,6 L-4,2 Z " fill="#F6E6E2" transform="translate(946,1098)"/>
<path d="M0,0 L2,1 L3,5 L3,14 L1,21 L0,21 L-1,13 L-2,11 L-1,1 Z " fill="#C8C7C7" transform="translate(1691,1010)"/>
<path d="M0,0 L3,0 L3,2 L5,2 L8,6 L11,7 L16,12 L19,13 L19,15 L21,15 L21,18 L23,18 L23,20 L19,18 L10,10 L7,9 L2,3 L0,2 Z " fill="#402826" transform="translate(515,2026)"/>
<path d="M0,0 L2,0 L1,9 L0,7 L-4,7 L-5,10 L-10,9 L-5,4 Z M-12,9 L-10,10 Z " fill="#363331" transform="translate(1207,1398)"/>
<path d="M0,0 L2,0 L2,2 L0,2 L-1,5 L-3,6 L-5,9 L-6,9 L-8,14 L-12,16 L-9,7 L-4,2 Z " fill="#D2D3CF" transform="translate(675,377)"/>
<path d="M0,0 L2,0 L2,13 L-2,23 L-4,24 L-5,21 L-3,16 L-2,16 Z " fill="#E7E4E1" transform="translate(1209,1232)"/>
<path d="M0,0 L2,3 L4,0 L4,8 L3,9 L2,42 L1,42 Z " fill="#BFBEBD" transform="translate(1498,1225)"/>
<path d="M0,0 L2,4 L4,22 L2,24 L0,18 L-1,1 Z M0,4 Z " fill="#E7E7E5" transform="translate(605,801)"/>
<path d="M0,0 L4,1 L8,8 L8,11 L6,11 L5,16 L3,14 L3,7 L0,7 Z " fill="#C8C8C5" transform="translate(1558,540)"/>
<path d="M0,0 L7,0 L7,6 L5,10 L2,11 L2,6 L-1,5 Z " fill="#474546" transform="translate(1470,1687)"/>
<path d="M0,0 L1,0 L2,14 L2,30 L1,30 L0,20 L-2,20 L-2,8 L-1,8 Z " fill="#D5D5D1" transform="translate(1349,1017)"/>
<path d="M0,0 L4,1 L12,11 L13,15 L10,15 L8,12 L4,11 L4,3 L0,1 Z " fill="#F1E2DE" transform="translate(660,991)"/>
<path d="M0,0 L2,1 L4,9 L5,20 L2,20 L0,20 L1,11 L-1,10 Z " fill="#E7E8E4" transform="translate(1329,848)"/>
<path d="M0,0 L1,4 L-10,13 L-15,14 L-11,9 Z " fill="#805B53" transform="translate(428,1761)"/>
<path d="M0,0 L4,2 L3,4 L5,4 L5,6 L7,7 L8,9 L12,11 L13,13 L11,15 L2,7 L2,5 L-2,3 L0,2 Z " fill="#C3C3C2" transform="translate(1618,1598)"/>
<path d="M0,0 L1,0 L1,19 L-1,27 L-2,27 L-2,17 L-3,12 L-1,8 Z " fill="#929394" transform="translate(663,1530)"/>
<path d="M0,0 L4,2 L4,13 L3,15 L-3,14 L-3,11 L0,11 L0,5 L-1,3 Z " fill="#6D3025" transform="translate(284,1992)"/>
<path d="M0,0 L2,1 L2,3 L0,3 L0,5 L15,5 L15,6 L-6,6 L-8,5 L-7,2 Z " fill="#BABBB6" transform="translate(548,1595)"/>
<path d="M0,0 L3,0 L3,5 L0,6 L-1,10 L-5,11 L-6,7 L-4,7 L-2,2 Z " fill="#F4E2DD" transform="translate(984,1037)"/>
<path d="M0,0 L1,0 L0,9 L-2,10 L-2,7 L-4,7 L-3,10 L-6,11 L-7,7 L-9,8 L-8,3 L-6,3 L-4,1 L-4,4 L-2,4 Z " fill="#878681" transform="translate(621,596)"/>
<path d="M0,0 L3,1 L2,6 L-2,6 L-3,9 L-6,11 L-10,11 L-10,9 L-4,7 L-3,1 Z " fill="#2A2422" transform="translate(1444,1713)"/>
<path d="M0,0 L1,0 L1,6 L-3,14 L-5,14 L-7,18 L-5,8 L-2,1 Z " fill="#E3E4E0" transform="translate(1324,1315)"/>
<path d="M0,0 L2,1 L0,4 L3,1 L5,1 L3,5 L1,7 L1,8 L0,11 L-4,11 L-6,13 L-5,9 L-4,7 L-6,6 Z " fill="#755A66" transform="translate(970,1054)"/>
<path d="M0,0 L3,3 L3,26 L1,23 L0,17 Z " fill="#F6F0EA" transform="translate(573,1010)"/>
<path d="M0,0 L3,1 L5,6 L2,7 L3,12 L1,15 L-3,2 Z " fill="#D2D2CD" transform="translate(1371,866)"/>
<path d="M0,0 L2,0 L7,10 L5,16 L1,11 L-1,5 L0,1 Z " fill="#93938F" transform="translate(1226,570)"/>
<path d="M0,0 L7,6 L8,8 L11,9 L10,14 L6,13 L0,3 Z " fill="#999898" transform="translate(671,949)"/>
<path d="M0,0 L2,4 L1,13 L-1,13 L-3,10 L-5,9 L-4,4 Z " fill="#774339" transform="translate(344,1848)"/>
<path d="M0,0 L2,1 L0,4 L2,6 L-2,9 L-1,13 L-5,13 L-6,10 L-8,8 Z M-7,10 Z " fill="#969795" transform="translate(1517,1661)"/>
<path d="M0,0 L4,3 L2,7 L-3,9 L-6,8 L-5,3 Z M1,2 Z M0,3 L1,5 Z " fill="#F3E7E3" transform="translate(1192,1402)"/>
<path d="M0,0 L3,1 L4,4 L3,5 L16,5 L23,6 L23,7 L-1,7 L-2,3 Z " fill="#F6E9E7" transform="translate(662,1043)"/>
<path d="M0,0 L3,0 L4,2 L4,11 L2,15 L0,16 Z " fill="#E9E9E6" transform="translate(1336,907)"/>
<path d="M0,0 L3,1 L1,7 L-3,15 L-5,15 L-4,9 Z " fill="#D2D2D0" transform="translate(535,596)"/>
<path d="M0,0 L2,1 L4,4 L6,8 L7,17 L3,16 L3,13 L5,13 L5,9 L1,10 L0,6 L-1,1 Z " fill="#7A4740" transform="translate(1778,2031)"/>
<path d="M0,0 L2,3 L3,14 L3,18 L3,24 L0,25 Z " fill="#692F25" transform="translate(1776,2015)"/>
<path d="M0,0 L0,3 L-6,7 L-11,9 L-12,13 L-15,14 L-15,8 L-9,5 Z " fill="#673A31" transform="translate(1087,1903)"/>
<path d="M0,0 L2,1 L-2,5 L-4,5 L-5,9 L-6,11 L-11,11 L-10,7 L-3,1 Z M-13,11 L-11,12 L-13,13 Z " fill="#272526" transform="translate(1355,1687)"/>
<path d="M0,0 L2,0 L2,10 L0,10 L0,12 L2,12 L1,19 L-2,19 L0,13 L-2,13 Z " fill="#E5E6E1" transform="translate(615,625)"/>
<path d="M0,0 L1,0 L5,26 L2,25 L1,18 L0,14 L-1,1 Z " fill="#713E36" transform="translate(473,1906)"/>
<path d="M0,0 L2,1 L2,3 L8,3 L8,5 L11,6 L4,6 L4,8 L-3,6 L-2,1 Z " fill="#906A63" transform="translate(1445,1719)"/>
<path d="M0,0 L1,3 L5,4 L-2,11 L-5,8 L-2,8 L-4,7 L-2,1 Z " fill="#929493" transform="translate(1526,1619)"/>
<path d="M0,0 L2,0 L3,5 L5,5 L7,8 L6,13 L1,8 L-3,2 L-1,2 Z " fill="#969696" transform="translate(544,1491)"/>
<path d="M0,0 L1,0 L0,9 L-2,14 L-5,12 L-5,6 L-3,1 Z " fill="#CACAC9" transform="translate(1675,1284)"/>
<path d="M0,0 L1,4 L-1,4 L-1,7 L1,7 L1,9 L-1,9 L-1,12 L1,13 L0,15 L2,17 L-1,24 L-2,24 L-2,2 Z " fill="#C4C6C3" transform="translate(1596,1199)"/>
<path d="M0,0 L6,0 L5,4 L3,6 L-2,6 L-5,3 Z " fill="#F3E0DD" transform="translate(1118,1204)"/>
<path d="M0,0 L9,0 L9,1 L3,3 L2,6 L-4,5 L-7,3 L-7,1 Z " fill="#DAD9DA" transform="translate(663,1126)"/>
<path d="M0,0 L10,1 L22,4 L22,5 L9,5 L9,3 L3,4 L3,2 Z " fill="#8C8C8A" transform="translate(1265,966)"/>
<path d="M0,0 L3,0 L6,6 L6,12 L4,12 L2,10 L0,8 Z " fill="#F2E2DC" transform="translate(626,931)"/>
<path d="M0,0 L3,0 L7,7 L6,9 L4,10 L2,9 L2,5 L-2,8 L-4,3 L-1,3 Z " fill="#8F8F8C" transform="translate(1278,671)"/>
<path d="M0,0 L1,4 L0,7 L2,7 L0,18 L-4,22 L-3,12 Z " fill="#D5D6D1" transform="translate(613,631)"/>
<path d="M0,0 L5,2 L3,4 L4,9 L2,14 L-1,13 Z " fill="#C7C7C5" transform="translate(1593,1233)"/>
<path d="M0,0 L3,1 L1,2 L4,7 L-3,7 L-6,6 L-5,1 Z " fill="#676868" transform="translate(1104,1100)"/>
<path d="M0,0 L1,2 L3,2 L3,12 L0,13 L-3,1 Z " fill="#D1D1CE" transform="translate(1379,890)"/>
<path d="M0,0 L3,2 L5,11 L10,21 L10,26 L7,22 L0,4 Z " fill="#713F35" transform="translate(1114,2019)"/>
<path d="M0,0 L1,0 L2,21 L1,23 L4,24 L2,27 L1,37 L0,37 Z " fill="#382924" transform="translate(462,1776)"/>
<path d="M0,0 L2,1 L1,3 L-6,6 L-12,7 L-19,9 L-20,7 L-5,2 Z " fill="#6B3B32" transform="translate(1325,1770)"/>
<path d="M0,0 L1,2 L-13,9 L-18,11 L-23,11 L-20,8 L-7,3 Z " fill="#6D3E37" transform="translate(1414,1735)"/>
<path d="M0,0 L7,0 L11,2 L1,7 L-1,7 L-2,4 L0,4 Z " fill="#828483" transform="translate(569,1653)"/>
<path d="M0,0 L14,0 L13,3 L7,4 L-6,4 L-6,3 L2,2 Z " fill="#6C5358" transform="translate(682,1213)"/>
<path d="M0,0 L4,1 L0,4 L-8,7 L-9,8 L-14,8 L-14,6 Z " fill="#704037" transform="translate(1353,1759)"/>
<path d="M0,0 L1,2 L1,5 L-1,9 L-4,10 L-7,9 L-8,6 Z " fill="#804F46" transform="translate(489,1711)"/>
<path d="M0,0 L7,1 L13,4 L12,6 L8,8 L6,9 L5,2 L2,3 Z M4,7 Z " fill="#252825" transform="translate(1429,1675)"/>
<path d="M0,0 L2,0 L2,19 L3,22 L1,26 L0,23 Z " fill="#E6E5E2" transform="translate(394,1185)"/>
<path d="M0,0 L1,0 L1,6 L5,5 L4,9 L2,15 L0,15 L-2,2 Z " fill="#E5E4E2" transform="translate(1178,1138)"/>
<path d="M0,0 L2,0 L3,6 L3,16 L0,16 L-1,1 Z " fill="#E7E5E6" transform="translate(1342,943)"/>
<path d="M0,0 L1,0 L1,10 L3,10 L4,8 L4,15 L3,15 L2,28 L1,28 L0,14 Z " fill="#6C3225" transform="translate(1288,1945)"/>
<path d="M0,0 L1,3 L3,3 L3,5 L1,5 L1,9 L-2,11 L-6,12 L-4,6 Z M0,3 Z " fill="#C6C6C6" transform="translate(1550,1369)"/>
<path d="M0,0 L6,2 L12,5 L11,9 L6,9 L5,5 L2,4 L2,2 L-1,3 Z " fill="#CCCDCB" transform="translate(1317,289)"/>
<path d="M0,0 L3,3 L2,6 L0,8 L2,8 L3,11 L1,11 L1,16 L-3,15 L-1,4 Z " fill="#7E534A" transform="translate(289,1967)"/>
<path d="M0,0 L4,0 L4,2 L9,2 L6,7 L6,10 L3,11 L1,3 Z M3,2 Z " fill="#202023" transform="translate(560,1688)"/>
<path d="M0,0 L6,1 L8,6 L-1,6 L-1,2 Z " fill="#9A9D98" transform="translate(1494,1681)"/>
<path d="M0,0 L1,3 L3,3 L2,7 L-1,13 L-5,14 L-3,8 Z " fill="#979692" transform="translate(1210,1245)"/>
<path d="M0,0 L4,1 L1,1 L1,5 L-1,5 L-1,8 L-3,8 L-4,10 L-6,2 Z " fill="#ECE7E8" transform="translate(599,1093)"/>
<path d="M0,0 L5,2 L12,8 L11,10 L4,6 L0,7 L0,3 Z " fill="#F1ECE9" transform="translate(708,999)"/>
<path d="M0,0 L2,1 L1,3 L-2,3 L-2,6 L-4,6 L-4,8 L-6,8 L-7,10 L-12,9 L-8,5 Z " fill="#3F2A26" transform="translate(529,1709)"/>
<path d="M0,0 L1,0 L2,6 L0,7 L-1,1 Z M-3,5 L-1,5 L0,8 L-1,18 L-3,17 L-4,6 Z " fill="#E4E4E2" transform="translate(476,1222)"/>
<path d="M0,0 L3,2 L-1,12 L-4,9 L-3,1 L-1,2 Z " fill="#D2D2CF" transform="translate(1533,1199)"/>
<path d="M0,0 L3,0 L4,3 L4,16 L2,16 Z " fill="#EEF0EC" transform="translate(699,1171)"/>
<path d="M0,0 L2,3 L3,12 L-3,11 L-3,9 L-1,9 L-2,2 L0,2 Z " fill="#787878" transform="translate(694,1157)"/>
<path d="M0,0 L3,0 L3,2 L11,3 L19,4 L19,5 L5,5 L-1,3 Z " fill="#8B8886" transform="translate(799,1038)"/>
<path d="M0,0 L2,3 L5,17 L7,22 L4,21 L3,15 L1,15 L0,5 L-1,2 Z " fill="#6C3C34" transform="translate(486,1986)"/>
<path d="M0,0 L2,2 L-2,6 L-7,11 L-8,9 L-6,3 Z " fill="#733125" transform="translate(429,1766)"/>
<path d="M0,0 L2,1 L5,9 L3,12 L-3,3 L0,2 Z " fill="#969697" transform="translate(499,1432)"/>
<path d="M0,0 L3,0 L5,7 L7,6 L8,11 L3,12 L0,4 Z " fill="#E7E7E4" transform="translate(502,1334)"/>
<path d="M0,0 L3,0 L5,9 L7,16 L3,15 L0,4 Z M3,9 Z " fill="#E6E5E2" transform="translate(480,1263)"/>
<path d="M0,0 L7,3 L14,7 L13,10 L8,8 L0,2 Z " fill="#D5D4D2" transform="translate(932,1002)"/>
<path d="M0,0 L2,1 L1,6 L3,9 L-4,8 L-4,3 Z " fill="#BEA29D" transform="translate(812,1394)"/>
<path d="M0,0 L1,0 L1,19 L0,19 L0,14 L-2,14 L-4,9 L-3,5 L-1,5 Z " fill="#D7D7D3" transform="translate(1350,1137)"/>
<path d="M0,0 L7,0 L13,3 L13,4 L0,4 Z " fill="#999490" transform="translate(766,1051)"/>
<path d="M0,0 L1,0 L3,18 L3,24 L2,24 L0,10 L-2,8 L-1,3 Z M-2,10 Z " fill="#CBCAC9" transform="translate(1555,999)"/>
<path d="M0,0 L2,3 L5,13 L3,13 L2,15 L-2,5 Z " fill="#EEE0DA" transform="translate(598,968)"/>
<path d="M0,0 L2,0 L6,13 L4,13 L2,16 Z " fill="#A4A29D" transform="translate(1068,725)"/>
<path d="M0,0 L7,1 L7,9 L4,9 Z " fill="#D0D0CB" transform="translate(1255,621)"/>
<path d="M0,0 L5,2 L9,6 L8,8 L6,8 L6,6 L-1,6 L-1,1 Z " fill="#7E5248" transform="translate(1638,1781)"/>
<path d="M0,0 L7,1 L6,6 L2,5 L-2,5 Z " fill="#6D3229" transform="translate(1475,1732)"/>
<path d="M0,0 L2,1 L1,5 L-5,10 L-9,8 Z " fill="#865951" transform="translate(478,1719)"/>
<path d="M0,0 L2,0 L3,3 L-8,11 L-8,8 L-6,5 L-3,4 L-3,2 Z " fill="#5B5B58" transform="translate(1464,1701)"/>
<path d="M0,0 L4,5 L7,11 L5,11 L5,13 L3,13 L2,15 L0,4 Z " fill="#93948F" transform="translate(539,1295)"/>
<path d="M0,0 L2,2 L3,6 L4,4 L6,4 L8,8 L8,11 L1,10 Z " fill="#E4E5E0" transform="translate(983,917)"/>
<path d="M0,0 L2,3 L1,15 L-2,16 L-2,6 Z " fill="#E9EAE6" transform="translate(606,673)"/>
<path d="M0,0 L3,0 L2,7 L-1,13 L-2,10 L-2,3 Z " fill="#898984" transform="translate(637,547)"/>
<path d="M0,0 L4,0 L4,2 L0,4 L-1,6 L-8,7 L-9,9 L-8,5 Z " fill="#794338" transform="translate(1217,1821)"/>
<path d="M0,0 L7,1 L11,2 L9,7 L8,5 L3,5 L3,3 L-1,2 Z " fill="#673327" transform="translate(1607,1771)"/>
<path d="M0,0 L2,0 L1,11 L0,11 L0,6 L-5,6 L-8,6 Z M-4,6 Z " fill="#3A3938" transform="translate(1251,1451)"/>
<path d="M0,0 L15,0 L23,4 L19,7 L19,3 L13,3 L12,2 L0,1 Z " fill="#736168" transform="translate(640,1052)"/>
<path d="M0,0 L4,1 L7,6 L7,9 L1,9 L1,6 L3,6 L2,3 L-1,3 Z M4,9 Z " fill="#E4E5E0" transform="translate(1128,903)"/>
<path d="M0,0 L3,4 L5,7 L5,12 L2,13 L-1,3 Z " fill="#CFCFCC" transform="translate(1353,822)"/>
<path d="M0,0 L2,2 L-1,5 L-5,9 L-7,12 L-9,11 L-10,13 L-9,9 L-5,4 Z " fill="#D1D1CF" transform="translate(652,402)"/>
<path d="M0,0 L2,1 Z " fill="#ECEAE5" transform="translate(267,2047)"/>
<path d="M0,0 L2,1 Z " fill="#EFE7E5" transform="translate(1680,1823)"/>
<path d="M0,0 Z " fill="#EAE9E7" transform="translate(1745,1918)"/>
<path d="M0,0 Z " fill="#F1E8E3" transform="translate(344,1844)"/>
<path d="M0,0 Z " fill="#F4EBE4" transform="translate(349,1836)"/>
<path d="M0,0 Z " fill="#EDECE8" transform="translate(1653,1790)"/>
<path d="M0,0 Z " fill="#EDECE7" transform="translate(1650,1788)"/>
<path d="M0,0 Z " fill="#EEEDE8" transform="translate(1548,1749)"/>
<path d="M0,0 Z " fill="#DCDEDD" transform="translate(496,1457)"/>
<path d="M0,0 Z " fill="#EDEEE8" transform="translate(444,1328)"/>
</svg>
